M48
; DRILL file {KiCad 5.1.8-5.1.8} date Mon Apr 25 14:08:02 2022
; FORMAT={-:-/ absolute / metric / decimal}
; #@! TF.CreationDate,2022-04-25T14:08:02+03:00
; #@! TF.GenerationSoftware,Kicad,Pcbnew,5.1.8-5.1.8
; #@! TF.FileFunction,Plated,1,4,PTH
FMAT,2
METRIC
T1C0.400
T2C0.910
T3C1.000
T4C2.690
T5C5.300
%
G90
G05
T1
X25.97Y-157.82
X26.75Y-167.0
X27.15Y-161.71
X27.16Y-70.75
X27.503Y-156.147
X27.65Y-46.48
X27.75Y-40.21
X28.105Y-164.677
X28.58Y-159.41
X29.32Y-164.69
X30.44Y-35.43
X30.74Y-167.0
X31.45Y-162.325
X32.52Y-61.5
X32.79Y-46.43
X32.84Y-40.16
X32.89Y-157.79
X33.74Y-166.96
X34.16Y-160.75
X35.08Y-164.63
X36.38Y-164.64
X37.62Y-166.86
X37.72Y-46.43
X37.793Y-160.983
X37.82Y-40.03
X38.154Y-89.342
X38.3Y-87.94
X38.95Y-157.29
X39.23Y-144.07
X39.46Y-108.27
X39.5Y-148.93
X39.819Y-114.282
X39.842Y-129.905
X40.23Y-164.78
X40.42Y-166.9
X40.808Y-148.331
X41.505Y-160.822
X42.27Y-98.04
X42.629Y-164.636
X42.68Y-40.16
X42.76Y-46.43
X43.13Y-76.17
X44.04Y-164.77
X44.25Y-83.78
X44.32Y-166.85
X44.382Y-85.918
X44.675Y-77.847
X45.14Y-81.074
X45.38Y-71.0
X46.3Y-157.3
X46.64Y-65.8
X47.03Y-147.31
X47.14Y-45.31
X47.22Y-40.99
X47.41Y-74.53
X47.539Y-62.479
X48.43Y-111.78
X48.625Y-91.864
X48.625Y-141.297
X48.63Y-116.61
X48.63Y-128.93
X49.529Y-60.902
X50.02Y-53.64
X50.34Y-105.574
X50.451Y-69.83
X50.61Y-31.09
X50.69Y-151.96
X51.225Y-79.935
X51.26Y-49.41
X51.9Y-82.89
X52.05Y-102.23
X52.42Y-77.21
X52.505Y-81.475
X52.54Y-91.69
X52.67Y-86.56
X52.69Y-117.89
X53.19Y-139.0
X53.43Y-79.95
X53.66Y-127.38
X53.74Y-61.28
X53.79Y-58.67
X53.8Y-57.42
X53.81Y-59.93
X54.12Y-134.84
X54.778Y-70.014
X55.22Y-72.74
X55.224Y-130.976
X55.39Y-162.62
X55.53Y-38.99
X55.65Y-103.105
X56.052Y-157.206
X57.04Y-111.79
X57.12Y-118.86
X57.239Y-129.229
X58.51Y-32.63
X58.64Y-131.89
X59.154Y-148.17
X59.21Y-59.91
X59.22Y-102.2
X59.24Y-57.395
X59.24Y-58.62
X59.27Y-61.18
X59.53Y-152.01
X59.66Y-111.82
X60.24Y-118.78
X60.784Y-102.226
X61.02Y-162.62
X61.07Y-63.81
X62.1Y-108.14
X62.2Y-132.36
X62.32Y-129.45
X62.37Y-34.26
X63.04Y-48.52
X63.56Y-142.83
X63.88Y-148.13
X63.92Y-151.95
X63.98Y-117.543
X63.985Y-56.953
X64.4Y-103.155
X64.685Y-124.185
X64.8Y-153.04
X65.52Y-86.705
X65.56Y-139.05
X66.658Y-93.105
X66.85Y-83.04
X67.07Y-78.64
X67.65Y-124.96
X67.67Y-58.7
X67.862Y-125.997
X67.97Y-98.82
X68.08Y-102.25
X68.8Y-106.76
X69.24Y-102.26
X69.585Y-91.738
X69.69Y-132.977
X69.88Y-140.65
X69.91Y-81.67
X69.911Y-86.646
X70.0Y-77.07
X70.415Y-61.325
X71.65Y-122.0
X71.76Y-107.63
X72.75Y-103.37
X73.135Y-143.85
X73.26Y-137.15
X73.28Y-135.84
X73.52Y-146.07
X73.6Y-75.42
X73.66Y-133.46
X75.314Y-87.507
X76.52Y-102.2
X76.62Y-75.49
X76.622Y-100.408
X76.623Y-124.671
X77.51Y-122.59
X77.71Y-133.46
X77.83Y-90.23
X78.47Y-83.77
X80.04Y-60.22
X80.2Y-130.87
X80.26Y-123.48
X80.328Y-127.096
X82.49Y-106.173
X82.52Y-108.43
X82.939Y-135.713
X82.94Y-139.68
X82.95Y-137.16
X82.95Y-141.01
X82.96Y-142.21
X83.67Y-119.5
X84.01Y-84.95
X84.84Y-88.88
X84.91Y-96.58
X86.43Y-130.84
X86.851Y-138.86
X87.02Y-165.81
X87.68Y-92.74
X87.87Y-49.25
X87.87Y-133.165
X87.92Y-53.83
X87.92Y-58.42
X88.08Y-44.67
X88.82Y-40.55
X89.15Y-138.16
X89.29Y-143.38
X89.519Y-164.8
X90.03Y-114.42
X90.17Y-157.44
X90.72Y-79.17
X91.87Y-134.01
X91.95Y-117.7
X92.0Y-157.45
X92.238Y-150.1
X92.61Y-94.47
X92.757Y-84.863
X92.987Y-150.9
X93.006Y-40.468
X93.04Y-138.11
X93.11Y-115.79
X93.13Y-122.82
X93.377Y-108.267
X93.398Y-110.316
X93.5Y-162.66
X93.83Y-77.65
X94.09Y-49.24
X94.09Y-58.42
X94.13Y-53.84
X94.21Y-145.06
X94.25Y-44.69
X95.28Y-108.17
X95.325Y-109.345
X95.66Y-82.33
X96.14Y-148.53
X96.31Y-138.66
X96.32Y-134.12
X96.38Y-129.58
X96.613Y-151.812
X96.62Y-142.27
X96.722Y-154.187
X96.8Y-83.2
X96.82Y-92.72
X97.56Y-145.57
X97.79Y-75.27
X98.029Y-148.507
X98.53Y-142.27
X98.548Y-162.179
X99.15Y-145.569
X99.17Y-83.08
X99.187Y-156.88
X99.381Y-129.59
X99.606Y-123.993
X99.63Y-135.86
X99.899Y-152.737
X100.016Y-151.744
X100.06Y-148.46
X100.1Y-157.96
X100.815Y-153.462
X101.247Y-86.163
X101.255Y-149.54
X101.31Y-92.64
X101.54Y-74.44
X101.54Y-76.64
X101.54Y-154.16
X101.56Y-78.98
X101.58Y-150.99
X101.93Y-157.18
X102.63Y-135.84
X102.75Y-162.66
X104.13Y-41.715
X104.38Y-112.389
X104.411Y-147.243
X105.71Y-54.64
X105.87Y-58.18
X105.91Y-51.26
X107.95Y-92.6
X108.23Y-83.21
X108.25Y-85.35
X108.3Y-146.83
X108.37Y-147.93
X108.459Y-90.818
X109.322Y-88.522
X109.531Y-94.141
X109.86Y-150.19
X111.585Y-146.09
X111.62Y-151.64
X112.12Y-52.53
X112.18Y-71.4
X112.23Y-108.075
X112.65Y-135.96
X112.76Y-93.36
X112.77Y-82.39
X113.083Y-77.68
X113.55Y-130.53
X113.97Y-50.75
X114.12Y-149.63
X114.36Y-57.64
X114.85Y-70.44
X114.98Y-64.42
X115.09Y-67.91
X115.327Y-77.231
X115.353Y-81.145
X115.68Y-112.96
X115.71Y-74.125
X115.835Y-122.605
X115.845Y-121.345
X115.86Y-130.51
X116.14Y-93.22
X116.58Y-151.64
X116.59Y-88.09
X116.95Y-74.125
X117.124Y-85.651
X117.125Y-53.845
X117.81Y-130.09
X118.09Y-89.039
X118.11Y-79.92
X118.175Y-111.885
X118.514Y-83.945
X118.68Y-73.63
X119.2Y-151.23
X119.38Y-85.48
X119.41Y-79.88
X119.57Y-55.29
X119.646Y-88.092
X120.01Y-93.37
X120.27Y-76.62
X120.35Y-73.23
X121.22Y-96.91
X121.44Y-85.38
X121.6Y-88.33
X122.09Y-119.99
X122.25Y-44.75
X122.64Y-88.32
X122.744Y-65.417
X122.97Y-50.56
X123.017Y-99.541
X123.138Y-85.495
X123.32Y-52.48
X123.39Y-78.425
X123.46Y-79.98
X123.663Y-87.769
X123.813Y-132.598
X123.85Y-134.61
X123.89Y-82.21
X124.04Y-102.12
X124.216Y-79.192
X124.247Y-83.186
X124.39Y-77.59
X124.404Y-80.705
X124.62Y-124.17
X124.81Y-89.18
X124.91Y-93.39
X125.02Y-138.25
X125.588Y-76.421
X126.23Y-44.36
X126.56Y-102.17
X126.78Y-77.63
X126.97Y-98.85
X127.0Y-80.4
X128.615Y-114.36
X128.94Y-156.87
X130.03Y-92.96
X130.08Y-125.56
X130.1Y-129.76
X130.795Y-101.69
X130.795Y-105.83
X130.835Y-138.725
X130.92Y-75.42
X131.38Y-140.0
X131.38Y-144.3
X131.41Y-148.24
X131.49Y-142.22
X132.735Y-84.705
X132.74Y-82.395
X132.86Y-80.35
X133.31Y-150.88
X133.727Y-84.83
X134.42Y-111.97
X134.73Y-55.31
X134.932Y-89.544
X134.97Y-124.24
X134.98Y-126.94
X135.12Y-41.95
X135.225Y-44.389
X135.28Y-75.97
X135.463Y-95.138
X135.61Y-144.28
X135.8Y-147.8
X135.92Y-120.42
X136.01Y-70.87
X136.26Y-137.96
X136.36Y-109.6
X136.395Y-116.11
X136.81Y-85.71
X137.12Y-155.56
X137.52Y-141.99
X137.58Y-106.91
X137.64Y-124.21
X137.68Y-128.23
X137.79Y-52.156
X137.81Y-55.2
X137.9Y-94.3
X138.795Y-139.225
X138.85Y-134.32
X139.091Y-159.849
X139.44Y-130.54
X139.85Y-44.5
X139.95Y-141.04
X140.02Y-142.04
X140.15Y-159.66
X140.29Y-140.07
X140.378Y-42.961
X140.47Y-132.875
X140.555Y-124.155
X140.565Y-144.29
X140.7Y-109.64
X140.89Y-52.104
X140.89Y-55.23
X141.065Y-142.058
X141.34Y-147.74
X141.565Y-144.835
X141.662Y-103.88
X141.969Y-88.7
X141.983Y-83.556
X142.23Y-93.76
X142.25Y-73.53
X142.256Y-78.385
X142.26Y-58.25
X142.4Y-49.53
X142.74Y-132.9
X142.89Y-139.45
X143.393Y-97.939
X143.627Y-140.305
X144.065Y-146.175
X144.957Y-133.023
X145.508Y-144.632
X145.55Y-141.98
X145.75Y-130.14
X146.09Y-109.27
X146.18Y-48.62
X146.18Y-104.32
X146.61Y-141.95
X146.65Y-144.66
X147.13Y-136.11
X147.67Y-135.22
X147.79Y-133.86
X148.5Y-114.82
X149.015Y-132.957
X149.86Y-65.84
X149.9Y-62.71
X150.19Y-138.95
X150.601Y-99.352
X150.71Y-44.82
X150.792Y-144.382
X151.19Y-132.44
X151.62Y-73.25
X151.716Y-83.992
X151.717Y-86.245
X151.74Y-94.24
X151.765Y-80.766
X152.33Y-147.73
X153.2Y-127.16
X153.72Y-109.46
X153.77Y-105.88
X153.794Y-49.511
X153.84Y-143.04
X154.25Y-131.11
X154.582Y-90.245
X154.593Y-88.245
X154.622Y-81.218
X154.63Y-92.19
X154.701Y-95.582
X155.2Y-93.34
X155.752Y-80.245
X156.148Y-110.547
X156.18Y-105.83
X156.38Y-139.38
X156.513Y-96.245
X156.62Y-137.33
X156.78Y-65.76
X156.94Y-62.71
X157.252Y-95.344
X157.298Y-87.417
X157.338Y-92.477
X157.34Y-94.26
X157.346Y-89.455
X158.065Y-127.155
X158.48Y-153.485
X158.74Y-55.51
X158.99Y-110.72
X159.409Y-103.461
X159.863Y-152.352
X160.18Y-153.97
X160.71Y-73.22
X163.635Y-53.53
X168.175Y-84.105
X169.017Y-68.081
X169.269Y-73.185
X169.285Y-78.239
X169.288Y-88.299
X169.291Y-93.385
X169.336Y-98.57
X169.339Y-103.666
X171.7Y-107.591
X173.261Y-101.33
T2
X28.575Y-101.575
X28.575Y-104.115
X28.575Y-106.655
X28.575Y-109.195
X28.575Y-111.735
X28.575Y-114.275
X28.575Y-116.815
X28.575Y-119.355
X28.575Y-121.895
X28.575Y-124.435
X28.575Y-126.975
X28.575Y-129.515
X28.575Y-132.055
X28.575Y-134.595
X28.575Y-137.135
X28.575Y-139.675
X28.575Y-142.215
X31.115Y-101.575
X31.115Y-104.115
X31.115Y-106.655
X31.115Y-109.195
X31.115Y-111.735
X31.115Y-114.275
X31.115Y-116.815
X31.115Y-119.355
X31.115Y-121.895
X31.115Y-124.435
X31.115Y-126.975
X31.115Y-129.515
X31.115Y-132.055
X31.115Y-134.595
X31.115Y-137.135
X31.115Y-139.675
X31.115Y-142.215
T3
X155.01Y-163.26
X155.01Y-165.8
X77.85Y-155.185
X77.85Y-157.725
X80.39Y-155.185
X80.39Y-157.725
X82.93Y-155.185
X82.93Y-157.725
X125.66Y-65.92
X128.2Y-65.92
X130.74Y-65.92
X145.735Y-126.165
X148.275Y-126.165
X150.815Y-126.165
X78.645Y-165.5
X81.185Y-165.5
X83.725Y-165.5
X155.76Y-149.74
X113.48Y-158.28
X116.02Y-158.28
X118.56Y-158.28
X121.1Y-158.28
X123.64Y-158.28
X126.18Y-158.28
T4
X29.595Y-92.685
X29.595Y-151.105
T5
X27.57Y-32.54
X58.23Y-165.52
T0
M30
