G04 #@! TF.GenerationSoftware,KiCad,Pcbnew,5.1.8-5.1.8*
G04 #@! TF.CreationDate,2022-04-25T14:02:17+03:00*
G04 #@! TF.ProjectId,auris,61757269-732e-46b6-9963-61645f706362,rev?*
G04 #@! TF.SameCoordinates,Original*
G04 #@! TF.FileFunction,Legend,Bot*
G04 #@! TF.FilePolarity,Positive*
%FSLAX46Y46*%
G04 Gerber Fmt 4.6, Leading zero omitted, Abs format (unit mm)*
G04 Created by KiCad (PCBNEW 5.1.8-5.1.8) date 2022-04-25 14:02:17*
%MOMM*%
%LPD*%
G01*
G04 APERTURE LIST*
%ADD10C,0.200000*%
%ADD11C,0.152400*%
%ADD12C,9.102000*%
%ADD13C,9.302000*%
%ADD14O,1.802000X1.802000*%
%ADD15C,1.622000*%
%ADD16C,5.562000*%
%ADD17C,1.802000*%
G04 APERTURE END LIST*
D10*
X61072006Y-165520000D02*
G75*
G03*
X61072006Y-165520000I-2842006J0D01*
G01*
D11*
X159150999Y-100002400D02*
G75*
G03*
X159150999Y-100002400I-381000J0D01*
G01*
%LPC*%
D12*
X27570000Y-32540000D03*
D13*
X58230000Y-165520000D03*
D14*
X126180000Y-158280000D03*
X123640000Y-158280000D03*
X121100000Y-158280000D03*
X118560000Y-158280000D03*
X116020000Y-158280000D03*
G36*
G01*
X114330000Y-159181000D02*
X112630000Y-159181000D01*
G75*
G02*
X112579000Y-159130000I0J51000D01*
G01*
X112579000Y-157430000D01*
G75*
G02*
X112630000Y-157379000I51000J0D01*
G01*
X114330000Y-157379000D01*
G75*
G02*
X114381000Y-157430000I0J-51000D01*
G01*
X114381000Y-159130000D01*
G75*
G02*
X114330000Y-159181000I-51000J0D01*
G01*
G37*
X78645000Y-165500000D03*
X81185000Y-165500000D03*
G36*
G01*
X82875000Y-164599000D02*
X84575000Y-164599000D01*
G75*
G02*
X84626000Y-164650000I0J-51000D01*
G01*
X84626000Y-166350000D01*
G75*
G02*
X84575000Y-166401000I-51000J0D01*
G01*
X82875000Y-166401000D01*
G75*
G02*
X82824000Y-166350000I0J51000D01*
G01*
X82824000Y-164650000D01*
G75*
G02*
X82875000Y-164599000I51000J0D01*
G01*
G37*
X125660000Y-65920000D03*
X128200000Y-65920000D03*
G36*
G01*
X129890000Y-65019000D02*
X131590000Y-65019000D01*
G75*
G02*
X131641000Y-65070000I0J-51000D01*
G01*
X131641000Y-66770000D01*
G75*
G02*
X131590000Y-66821000I-51000J0D01*
G01*
X129890000Y-66821000D01*
G75*
G02*
X129839000Y-66770000I0J51000D01*
G01*
X129839000Y-65070000D01*
G75*
G02*
X129890000Y-65019000I51000J0D01*
G01*
G37*
X145735000Y-126165000D03*
X148275000Y-126165000D03*
G36*
G01*
X149965000Y-125264000D02*
X151665000Y-125264000D01*
G75*
G02*
X151716000Y-125315000I0J-51000D01*
G01*
X151716000Y-127015000D01*
G75*
G02*
X151665000Y-127066000I-51000J0D01*
G01*
X149965000Y-127066000D01*
G75*
G02*
X149914000Y-127015000I0J51000D01*
G01*
X149914000Y-125315000D01*
G75*
G02*
X149965000Y-125264000I51000J0D01*
G01*
G37*
G36*
G01*
X154859000Y-150590000D02*
X154859000Y-148890000D01*
G75*
G02*
X154910000Y-148839000I51000J0D01*
G01*
X156610000Y-148839000D01*
G75*
G02*
X156661000Y-148890000I0J-51000D01*
G01*
X156661000Y-150590000D01*
G75*
G02*
X156610000Y-150641000I-51000J0D01*
G01*
X154910000Y-150641000D01*
G75*
G02*
X154859000Y-150590000I0J51000D01*
G01*
G37*
G36*
G01*
X155911000Y-164950000D02*
X155911000Y-166650000D01*
G75*
G02*
X155860000Y-166701000I-51000J0D01*
G01*
X154160000Y-166701000D01*
G75*
G02*
X154109000Y-166650000I0J51000D01*
G01*
X154109000Y-164950000D01*
G75*
G02*
X154160000Y-164899000I51000J0D01*
G01*
X155860000Y-164899000D01*
G75*
G02*
X155911000Y-164950000I0J-51000D01*
G01*
G37*
X155010000Y-163260000D03*
G36*
G01*
X27814999Y-100764000D02*
X29335001Y-100764000D01*
G75*
G02*
X29386000Y-100814999I0J-50999D01*
G01*
X29386000Y-102335001D01*
G75*
G02*
X29335001Y-102386000I-50999J0D01*
G01*
X27814999Y-102386000D01*
G75*
G02*
X27764000Y-102335001I0J50999D01*
G01*
X27764000Y-100814999D01*
G75*
G02*
X27814999Y-100764000I50999J0D01*
G01*
G37*
D15*
X31115000Y-101575000D03*
X28575000Y-104115000D03*
X31115000Y-104115000D03*
X28575000Y-106655000D03*
X31115000Y-106655000D03*
X28575000Y-109195000D03*
X31115000Y-109195000D03*
X28575000Y-111735000D03*
X31115000Y-111735000D03*
X28575000Y-114275000D03*
X31115000Y-114275000D03*
X28575000Y-116815000D03*
X31115000Y-116815000D03*
X28575000Y-119355000D03*
X31115000Y-119355000D03*
X28575000Y-121895000D03*
X31115000Y-121895000D03*
X28575000Y-124435000D03*
X31115000Y-124435000D03*
D16*
X29595000Y-92685000D03*
D15*
X28575000Y-126975000D03*
X31115000Y-126975000D03*
X28575000Y-129515000D03*
X31115000Y-129515000D03*
X28575000Y-132055000D03*
X31115000Y-132055000D03*
X28575000Y-134595000D03*
X31115000Y-134595000D03*
X28575000Y-137135000D03*
X31115000Y-137135000D03*
X28575000Y-139675000D03*
X31115000Y-139675000D03*
X28575000Y-142215000D03*
X31115000Y-142215000D03*
D16*
X29595000Y-151105000D03*
G36*
G01*
X78486000Y-158626000D02*
X77214000Y-158626000D01*
G75*
G02*
X76949000Y-158361000I0J265000D01*
G01*
X76949000Y-157089000D01*
G75*
G02*
X77214000Y-156824000I265000J0D01*
G01*
X78486000Y-156824000D01*
G75*
G02*
X78751000Y-157089000I0J-265000D01*
G01*
X78751000Y-158361000D01*
G75*
G02*
X78486000Y-158626000I-265000J0D01*
G01*
G37*
D17*
X80390000Y-157725000D03*
X82930000Y-157725000D03*
X77850000Y-155185000D03*
X80390000Y-155185000D03*
X82930000Y-155185000D03*
M02*
