G04 #@! TF.GenerationSoftware,KiCad,Pcbnew,5.1.8-5.1.8*
G04 #@! TF.CreationDate,2022-04-25T14:02:17+03:00*
G04 #@! TF.ProjectId,auris,61757269-732e-46b6-9963-61645f706362,rev?*
G04 #@! TF.SameCoordinates,Original*
G04 #@! TF.FileFunction,Paste,Top*
G04 #@! TF.FilePolarity,Positive*
%FSLAX46Y46*%
G04 Gerber Fmt 4.6, Leading zero omitted, Abs format (unit mm)*
G04 Created by KiCad (PCBNEW 5.1.8-5.1.8) date 2022-04-25 14:02:17*
%MOMM*%
%LPD*%
G01*
G04 APERTURE LIST*
%ADD10R,0.300000X0.800000*%
%ADD11R,0.900000X0.800000*%
%ADD12R,1.000000X3.200000*%
%ADD13R,0.700000X0.450000*%
%ADD14R,2.000000X0.900000*%
%ADD15R,0.900000X2.000000*%
%ADD16R,5.000000X5.000000*%
%ADD17R,0.650000X1.800000*%
%ADD18R,5.400000X2.900000*%
%ADD19R,2.000000X0.600000*%
%ADD20R,2.400000X2.000000*%
%ADD21R,1.550000X0.600000*%
%ADD22R,0.250000X1.000000*%
%ADD23R,1.000000X0.250000*%
%ADD24R,1.500000X2.000000*%
%ADD25R,3.800000X2.000000*%
%ADD26R,0.600000X1.550000*%
%ADD27R,1.060000X0.650000*%
%ADD28R,1.600000X0.550000*%
%ADD29R,0.550000X1.600000*%
%ADD30R,1.400000X1.200000*%
%ADD31R,2.000000X1.500000*%
%ADD32R,2.000000X3.800000*%
%ADD33R,0.500000X0.500000*%
%ADD34R,0.900000X1.200000*%
%ADD35R,0.800000X0.900000*%
%ADD36R,1.300000X0.600000*%
%ADD37R,1.750000X0.550000*%
%ADD38R,3.300000X0.750000*%
%ADD39R,5.000000X3.850000*%
%ADD40R,1.000000X3.000000*%
%ADD41R,1.600000X5.500000*%
%ADD42R,1.600000X6.200000*%
%ADD43R,1.600200X0.609600*%
%ADD44R,1.905000X0.939800*%
%ADD45R,1.560000X0.650000*%
G04 APERTURE END LIST*
G36*
G01*
X113960001Y-132220000D02*
X113059999Y-132220000D01*
G75*
G02*
X112810000Y-131970001I0J249999D01*
G01*
X112810000Y-131444999D01*
G75*
G02*
X113059999Y-131195000I249999J0D01*
G01*
X113960001Y-131195000D01*
G75*
G02*
X114210000Y-131444999I0J-249999D01*
G01*
X114210000Y-131970001D01*
G75*
G02*
X113960001Y-132220000I-249999J0D01*
G01*
G37*
G36*
G01*
X113960001Y-134045000D02*
X113059999Y-134045000D01*
G75*
G02*
X112810000Y-133795001I0J249999D01*
G01*
X112810000Y-133269999D01*
G75*
G02*
X113059999Y-133020000I249999J0D01*
G01*
X113960001Y-133020000D01*
G75*
G02*
X114210000Y-133269999I0J-249999D01*
G01*
X114210000Y-133795001D01*
G75*
G02*
X113960001Y-134045000I-249999J0D01*
G01*
G37*
G36*
G01*
X116350001Y-132240000D02*
X115449999Y-132240000D01*
G75*
G02*
X115200000Y-131990001I0J249999D01*
G01*
X115200000Y-131464999D01*
G75*
G02*
X115449999Y-131215000I249999J0D01*
G01*
X116350001Y-131215000D01*
G75*
G02*
X116600000Y-131464999I0J-249999D01*
G01*
X116600000Y-131990001D01*
G75*
G02*
X116350001Y-132240000I-249999J0D01*
G01*
G37*
G36*
G01*
X116350001Y-134065000D02*
X115449999Y-134065000D01*
G75*
G02*
X115200000Y-133815001I0J249999D01*
G01*
X115200000Y-133289999D01*
G75*
G02*
X115449999Y-133040000I249999J0D01*
G01*
X116350001Y-133040000D01*
G75*
G02*
X116600000Y-133289999I0J-249999D01*
G01*
X116600000Y-133815001D01*
G75*
G02*
X116350001Y-134065000I-249999J0D01*
G01*
G37*
D10*
X110760000Y-149140000D03*
X110260000Y-149140000D03*
X109760000Y-149140000D03*
X109260000Y-149140000D03*
X109260000Y-146040000D03*
X109760000Y-146040000D03*
X110260000Y-146040000D03*
X110760000Y-146040000D03*
G36*
G01*
X113689999Y-147940000D02*
X114590001Y-147940000D01*
G75*
G02*
X114840000Y-148189999I0J-249999D01*
G01*
X114840000Y-148715001D01*
G75*
G02*
X114590001Y-148965000I-249999J0D01*
G01*
X113689999Y-148965000D01*
G75*
G02*
X113440000Y-148715001I0J249999D01*
G01*
X113440000Y-148189999D01*
G75*
G02*
X113689999Y-147940000I249999J0D01*
G01*
G37*
G36*
G01*
X113689999Y-146115000D02*
X114590001Y-146115000D01*
G75*
G02*
X114840000Y-146364999I0J-249999D01*
G01*
X114840000Y-146890001D01*
G75*
G02*
X114590001Y-147140000I-249999J0D01*
G01*
X113689999Y-147140000D01*
G75*
G02*
X113440000Y-146890001I0J249999D01*
G01*
X113440000Y-146364999D01*
G75*
G02*
X113689999Y-146115000I249999J0D01*
G01*
G37*
G36*
G01*
X117840000Y-149533750D02*
X117840000Y-150446250D01*
G75*
G02*
X117596250Y-150690000I-243750J0D01*
G01*
X117108750Y-150690000D01*
G75*
G02*
X116865000Y-150446250I0J243750D01*
G01*
X116865000Y-149533750D01*
G75*
G02*
X117108750Y-149290000I243750J0D01*
G01*
X117596250Y-149290000D01*
G75*
G02*
X117840000Y-149533750I0J-243750D01*
G01*
G37*
G36*
G01*
X119715000Y-149533750D02*
X119715000Y-150446250D01*
G75*
G02*
X119471250Y-150690000I-243750J0D01*
G01*
X118983750Y-150690000D01*
G75*
G02*
X118740000Y-150446250I0J243750D01*
G01*
X118740000Y-149533750D01*
G75*
G02*
X118983750Y-149290000I243750J0D01*
G01*
X119471250Y-149290000D01*
G75*
G02*
X119715000Y-149533750I0J-243750D01*
G01*
G37*
G36*
G01*
X114040000Y-151183750D02*
X114040000Y-152096250D01*
G75*
G02*
X113796250Y-152340000I-243750J0D01*
G01*
X113308750Y-152340000D01*
G75*
G02*
X113065000Y-152096250I0J243750D01*
G01*
X113065000Y-151183750D01*
G75*
G02*
X113308750Y-150940000I243750J0D01*
G01*
X113796250Y-150940000D01*
G75*
G02*
X114040000Y-151183750I0J-243750D01*
G01*
G37*
G36*
G01*
X115915000Y-151183750D02*
X115915000Y-152096250D01*
G75*
G02*
X115671250Y-152340000I-243750J0D01*
G01*
X115183750Y-152340000D01*
G75*
G02*
X114940000Y-152096250I0J243750D01*
G01*
X114940000Y-151183750D01*
G75*
G02*
X115183750Y-150940000I243750J0D01*
G01*
X115671250Y-150940000D01*
G75*
G02*
X115915000Y-151183750I0J-243750D01*
G01*
G37*
G36*
G01*
X152810001Y-149510000D02*
X151909999Y-149510000D01*
G75*
G02*
X151660000Y-149260001I0J249999D01*
G01*
X151660000Y-148734999D01*
G75*
G02*
X151909999Y-148485000I249999J0D01*
G01*
X152810001Y-148485000D01*
G75*
G02*
X153060000Y-148734999I0J-249999D01*
G01*
X153060000Y-149260001D01*
G75*
G02*
X152810001Y-149510000I-249999J0D01*
G01*
G37*
G36*
G01*
X152810001Y-151335000D02*
X151909999Y-151335000D01*
G75*
G02*
X151660000Y-151085001I0J249999D01*
G01*
X151660000Y-150559999D01*
G75*
G02*
X151909999Y-150310000I249999J0D01*
G01*
X152810001Y-150310000D01*
G75*
G02*
X153060000Y-150559999I0J-249999D01*
G01*
X153060000Y-151085001D01*
G75*
G02*
X152810001Y-151335000I-249999J0D01*
G01*
G37*
G36*
G01*
X150520001Y-151350000D02*
X149619999Y-151350000D01*
G75*
G02*
X149370000Y-151100001I0J249999D01*
G01*
X149370000Y-150574999D01*
G75*
G02*
X149619999Y-150325000I249999J0D01*
G01*
X150520001Y-150325000D01*
G75*
G02*
X150770000Y-150574999I0J-249999D01*
G01*
X150770000Y-151100001D01*
G75*
G02*
X150520001Y-151350000I-249999J0D01*
G01*
G37*
G36*
G01*
X150520001Y-153175000D02*
X149619999Y-153175000D01*
G75*
G02*
X149370000Y-152925001I0J249999D01*
G01*
X149370000Y-152399999D01*
G75*
G02*
X149619999Y-152150000I249999J0D01*
G01*
X150520001Y-152150000D01*
G75*
G02*
X150770000Y-152399999I0J-249999D01*
G01*
X150770000Y-152925001D01*
G75*
G02*
X150520001Y-153175000I-249999J0D01*
G01*
G37*
G36*
G01*
X145980000Y-152219999D02*
X145980000Y-153120001D01*
G75*
G02*
X145730001Y-153370000I-249999J0D01*
G01*
X145204999Y-153370000D01*
G75*
G02*
X144955000Y-153120001I0J249999D01*
G01*
X144955000Y-152219999D01*
G75*
G02*
X145204999Y-151970000I249999J0D01*
G01*
X145730001Y-151970000D01*
G75*
G02*
X145980000Y-152219999I0J-249999D01*
G01*
G37*
G36*
G01*
X147805000Y-152219999D02*
X147805000Y-153120001D01*
G75*
G02*
X147555001Y-153370000I-249999J0D01*
G01*
X147029999Y-153370000D01*
G75*
G02*
X146780000Y-153120001I0J249999D01*
G01*
X146780000Y-152219999D01*
G75*
G02*
X147029999Y-151970000I249999J0D01*
G01*
X147555001Y-151970000D01*
G75*
G02*
X147805000Y-152219999I0J-249999D01*
G01*
G37*
G36*
G01*
X133820000Y-151949999D02*
X133820000Y-152850001D01*
G75*
G02*
X133570001Y-153100000I-249999J0D01*
G01*
X133044999Y-153100000D01*
G75*
G02*
X132795000Y-152850001I0J249999D01*
G01*
X132795000Y-151949999D01*
G75*
G02*
X133044999Y-151700000I249999J0D01*
G01*
X133570001Y-151700000D01*
G75*
G02*
X133820000Y-151949999I0J-249999D01*
G01*
G37*
G36*
G01*
X135645000Y-151949999D02*
X135645000Y-152850001D01*
G75*
G02*
X135395001Y-153100000I-249999J0D01*
G01*
X134869999Y-153100000D01*
G75*
G02*
X134620000Y-152850001I0J249999D01*
G01*
X134620000Y-151949999D01*
G75*
G02*
X134869999Y-151700000I249999J0D01*
G01*
X135395001Y-151700000D01*
G75*
G02*
X135645000Y-151949999I0J-249999D01*
G01*
G37*
D11*
X139160000Y-153200000D03*
X137160000Y-154150000D03*
X137160000Y-152250000D03*
G36*
G01*
X116630000Y-69955000D02*
X116630000Y-70905000D01*
G75*
G02*
X116380000Y-71155000I-250000J0D01*
G01*
X115880000Y-71155000D01*
G75*
G02*
X115630000Y-70905000I0J250000D01*
G01*
X115630000Y-69955000D01*
G75*
G02*
X115880000Y-69705000I250000J0D01*
G01*
X116380000Y-69705000D01*
G75*
G02*
X116630000Y-69955000I0J-250000D01*
G01*
G37*
G36*
G01*
X118530000Y-69955000D02*
X118530000Y-70905000D01*
G75*
G02*
X118280000Y-71155000I-250000J0D01*
G01*
X117780000Y-71155000D01*
G75*
G02*
X117530000Y-70905000I0J250000D01*
G01*
X117530000Y-69955000D01*
G75*
G02*
X117780000Y-69705000I250000J0D01*
G01*
X118280000Y-69705000D01*
G75*
G02*
X118530000Y-69955000I0J-250000D01*
G01*
G37*
G36*
G01*
X137440000Y-119943750D02*
X137440000Y-120856250D01*
G75*
G02*
X137196250Y-121100000I-243750J0D01*
G01*
X136708750Y-121100000D01*
G75*
G02*
X136465000Y-120856250I0J243750D01*
G01*
X136465000Y-119943750D01*
G75*
G02*
X136708750Y-119700000I243750J0D01*
G01*
X137196250Y-119700000D01*
G75*
G02*
X137440000Y-119943750I0J-243750D01*
G01*
G37*
G36*
G01*
X139315000Y-119943750D02*
X139315000Y-120856250D01*
G75*
G02*
X139071250Y-121100000I-243750J0D01*
G01*
X138583750Y-121100000D01*
G75*
G02*
X138340000Y-120856250I0J243750D01*
G01*
X138340000Y-119943750D01*
G75*
G02*
X138583750Y-119700000I243750J0D01*
G01*
X139071250Y-119700000D01*
G75*
G02*
X139315000Y-119943750I0J-243750D01*
G01*
G37*
D12*
X122090000Y-117000000D03*
X122090000Y-123800000D03*
X118090000Y-123800000D03*
X118090000Y-117000000D03*
G36*
G01*
X118250001Y-127590000D02*
X117349999Y-127590000D01*
G75*
G02*
X117100000Y-127340001I0J249999D01*
G01*
X117100000Y-126814999D01*
G75*
G02*
X117349999Y-126565000I249999J0D01*
G01*
X118250001Y-126565000D01*
G75*
G02*
X118500000Y-126814999I0J-249999D01*
G01*
X118500000Y-127340001D01*
G75*
G02*
X118250001Y-127590000I-249999J0D01*
G01*
G37*
G36*
G01*
X118250001Y-129415000D02*
X117349999Y-129415000D01*
G75*
G02*
X117100000Y-129165001I0J249999D01*
G01*
X117100000Y-128639999D01*
G75*
G02*
X117349999Y-128390000I249999J0D01*
G01*
X118250001Y-128390000D01*
G75*
G02*
X118500000Y-128639999I0J-249999D01*
G01*
X118500000Y-129165001D01*
G75*
G02*
X118250001Y-129415000I-249999J0D01*
G01*
G37*
G36*
G01*
X90560000Y-128703999D02*
X90560000Y-129604001D01*
G75*
G02*
X90310001Y-129854000I-249999J0D01*
G01*
X89784999Y-129854000D01*
G75*
G02*
X89535000Y-129604001I0J249999D01*
G01*
X89535000Y-128703999D01*
G75*
G02*
X89784999Y-128454000I249999J0D01*
G01*
X90310001Y-128454000D01*
G75*
G02*
X90560000Y-128703999I0J-249999D01*
G01*
G37*
G36*
G01*
X92385000Y-128703999D02*
X92385000Y-129604001D01*
G75*
G02*
X92135001Y-129854000I-249999J0D01*
G01*
X91609999Y-129854000D01*
G75*
G02*
X91360000Y-129604001I0J249999D01*
G01*
X91360000Y-128703999D01*
G75*
G02*
X91609999Y-128454000I249999J0D01*
G01*
X92135001Y-128454000D01*
G75*
G02*
X92385000Y-128703999I0J-249999D01*
G01*
G37*
D13*
X46310000Y-158110000D03*
X48310000Y-157460000D03*
X48310000Y-158760000D03*
G36*
G01*
X90490000Y-132213750D02*
X90490000Y-133126250D01*
G75*
G02*
X90246250Y-133370000I-243750J0D01*
G01*
X89758750Y-133370000D01*
G75*
G02*
X89515000Y-133126250I0J243750D01*
G01*
X89515000Y-132213750D01*
G75*
G02*
X89758750Y-131970000I243750J0D01*
G01*
X90246250Y-131970000D01*
G75*
G02*
X90490000Y-132213750I0J-243750D01*
G01*
G37*
G36*
G01*
X92365000Y-132213750D02*
X92365000Y-133126250D01*
G75*
G02*
X92121250Y-133370000I-243750J0D01*
G01*
X91633750Y-133370000D01*
G75*
G02*
X91390000Y-133126250I0J243750D01*
G01*
X91390000Y-132213750D01*
G75*
G02*
X91633750Y-131970000I243750J0D01*
G01*
X92121250Y-131970000D01*
G75*
G02*
X92365000Y-132213750I0J-243750D01*
G01*
G37*
G36*
G01*
X119750000Y-113365000D02*
X119750000Y-114315000D01*
G75*
G02*
X119500000Y-114565000I-250000J0D01*
G01*
X119000000Y-114565000D01*
G75*
G02*
X118750000Y-114315000I0J250000D01*
G01*
X118750000Y-113365000D01*
G75*
G02*
X119000000Y-113115000I250000J0D01*
G01*
X119500000Y-113115000D01*
G75*
G02*
X119750000Y-113365000I0J-250000D01*
G01*
G37*
G36*
G01*
X121650000Y-113365000D02*
X121650000Y-114315000D01*
G75*
G02*
X121400000Y-114565000I-250000J0D01*
G01*
X120900000Y-114565000D01*
G75*
G02*
X120650000Y-114315000I0J250000D01*
G01*
X120650000Y-113365000D01*
G75*
G02*
X120900000Y-113115000I250000J0D01*
G01*
X121400000Y-113115000D01*
G75*
G02*
X121650000Y-113365000I0J-250000D01*
G01*
G37*
D14*
X113880000Y-108075000D03*
X113880000Y-109345000D03*
X113880000Y-110615000D03*
X113880000Y-111885000D03*
X113880000Y-113155000D03*
X113880000Y-114425000D03*
X113880000Y-115695000D03*
X113880000Y-116965000D03*
X113880000Y-118235000D03*
X113880000Y-119505000D03*
X113880000Y-120775000D03*
X113880000Y-122045000D03*
X113880000Y-123315000D03*
X113880000Y-124585000D03*
D15*
X111095000Y-125585000D03*
X109825000Y-125585000D03*
X108555000Y-125585000D03*
X107285000Y-125585000D03*
X106015000Y-125585000D03*
X104745000Y-125585000D03*
X103475000Y-125585000D03*
X102205000Y-125585000D03*
X100935000Y-125585000D03*
X99665000Y-125585000D03*
D14*
X96880000Y-124585000D03*
X96880000Y-123315000D03*
X96880000Y-122045000D03*
X96880000Y-120775000D03*
X96880000Y-119505000D03*
X96880000Y-118235000D03*
X96880000Y-116965000D03*
X96880000Y-115695000D03*
X96880000Y-114425000D03*
X96880000Y-113155000D03*
X96880000Y-111885000D03*
X96880000Y-110615000D03*
X96880000Y-109345000D03*
X96880000Y-108075000D03*
D16*
X104380000Y-115575000D03*
D12*
X82490000Y-110750000D03*
X82490000Y-103950000D03*
X86490000Y-103950000D03*
X86490000Y-110750000D03*
G36*
G01*
X90550000Y-122371999D02*
X90550000Y-123272001D01*
G75*
G02*
X90300001Y-123522000I-249999J0D01*
G01*
X89774999Y-123522000D01*
G75*
G02*
X89525000Y-123272001I0J249999D01*
G01*
X89525000Y-122371999D01*
G75*
G02*
X89774999Y-122122000I249999J0D01*
G01*
X90300001Y-122122000D01*
G75*
G02*
X90550000Y-122371999I0J-249999D01*
G01*
G37*
G36*
G01*
X92375000Y-122371999D02*
X92375000Y-123272001D01*
G75*
G02*
X92125001Y-123522000I-249999J0D01*
G01*
X91599999Y-123522000D01*
G75*
G02*
X91350000Y-123272001I0J249999D01*
G01*
X91350000Y-122371999D01*
G75*
G02*
X91599999Y-122122000I249999J0D01*
G01*
X92125001Y-122122000D01*
G75*
G02*
X92375000Y-122371999I0J-249999D01*
G01*
G37*
D17*
X114810000Y-138660000D03*
X113540000Y-135960000D03*
X116080000Y-135960000D03*
G36*
G01*
X90500000Y-115315000D02*
X90500000Y-116265000D01*
G75*
G02*
X90250000Y-116515000I-250000J0D01*
G01*
X89750000Y-116515000D01*
G75*
G02*
X89500000Y-116265000I0J250000D01*
G01*
X89500000Y-115315000D01*
G75*
G02*
X89750000Y-115065000I250000J0D01*
G01*
X90250000Y-115065000D01*
G75*
G02*
X90500000Y-115315000I0J-250000D01*
G01*
G37*
G36*
G01*
X92400000Y-115315000D02*
X92400000Y-116265000D01*
G75*
G02*
X92150000Y-116515000I-250000J0D01*
G01*
X91650000Y-116515000D01*
G75*
G02*
X91400000Y-116265000I0J250000D01*
G01*
X91400000Y-115315000D01*
G75*
G02*
X91650000Y-115065000I250000J0D01*
G01*
X92150000Y-115065000D01*
G75*
G02*
X92400000Y-115315000I0J-250000D01*
G01*
G37*
G36*
G01*
X92545000Y-108740000D02*
X91595000Y-108740000D01*
G75*
G02*
X91345000Y-108490000I0J250000D01*
G01*
X91345000Y-107990000D01*
G75*
G02*
X91595000Y-107740000I250000J0D01*
G01*
X92545000Y-107740000D01*
G75*
G02*
X92795000Y-107990000I0J-250000D01*
G01*
X92795000Y-108490000D01*
G75*
G02*
X92545000Y-108740000I-250000J0D01*
G01*
G37*
G36*
G01*
X92545000Y-110640000D02*
X91595000Y-110640000D01*
G75*
G02*
X91345000Y-110390000I0J250000D01*
G01*
X91345000Y-109890000D01*
G75*
G02*
X91595000Y-109640000I250000J0D01*
G01*
X92545000Y-109640000D01*
G75*
G02*
X92795000Y-109890000I0J-250000D01*
G01*
X92795000Y-110390000D01*
G75*
G02*
X92545000Y-110640000I-250000J0D01*
G01*
G37*
G36*
G01*
X91400000Y-119796000D02*
X91400000Y-118846000D01*
G75*
G02*
X91650000Y-118596000I250000J0D01*
G01*
X92150000Y-118596000D01*
G75*
G02*
X92400000Y-118846000I0J-250000D01*
G01*
X92400000Y-119796000D01*
G75*
G02*
X92150000Y-120046000I-250000J0D01*
G01*
X91650000Y-120046000D01*
G75*
G02*
X91400000Y-119796000I0J250000D01*
G01*
G37*
G36*
G01*
X89500000Y-119796000D02*
X89500000Y-118846000D01*
G75*
G02*
X89750000Y-118596000I250000J0D01*
G01*
X90250000Y-118596000D01*
G75*
G02*
X90500000Y-118846000I0J-250000D01*
G01*
X90500000Y-119796000D01*
G75*
G02*
X90250000Y-120046000I-250000J0D01*
G01*
X89750000Y-120046000D01*
G75*
G02*
X89500000Y-119796000I0J250000D01*
G01*
G37*
G36*
G01*
X92400000Y-78713750D02*
X92400000Y-79626250D01*
G75*
G02*
X92156250Y-79870000I-243750J0D01*
G01*
X91668750Y-79870000D01*
G75*
G02*
X91425000Y-79626250I0J243750D01*
G01*
X91425000Y-78713750D01*
G75*
G02*
X91668750Y-78470000I243750J0D01*
G01*
X92156250Y-78470000D01*
G75*
G02*
X92400000Y-78713750I0J-243750D01*
G01*
G37*
G36*
G01*
X94275000Y-78713750D02*
X94275000Y-79626250D01*
G75*
G02*
X94031250Y-79870000I-243750J0D01*
G01*
X93543750Y-79870000D01*
G75*
G02*
X93300000Y-79626250I0J243750D01*
G01*
X93300000Y-78713750D01*
G75*
G02*
X93543750Y-78470000I243750J0D01*
G01*
X94031250Y-78470000D01*
G75*
G02*
X94275000Y-78713750I0J-243750D01*
G01*
G37*
G36*
G01*
X46350000Y-57555000D02*
X46350000Y-57255000D01*
G75*
G02*
X46500000Y-57105000I150000J0D01*
G01*
X48150000Y-57105000D01*
G75*
G02*
X48300000Y-57255000I0J-150000D01*
G01*
X48300000Y-57555000D01*
G75*
G02*
X48150000Y-57705000I-150000J0D01*
G01*
X46500000Y-57705000D01*
G75*
G02*
X46350000Y-57555000I0J150000D01*
G01*
G37*
G36*
G01*
X46350000Y-58825000D02*
X46350000Y-58525000D01*
G75*
G02*
X46500000Y-58375000I150000J0D01*
G01*
X48150000Y-58375000D01*
G75*
G02*
X48300000Y-58525000I0J-150000D01*
G01*
X48300000Y-58825000D01*
G75*
G02*
X48150000Y-58975000I-150000J0D01*
G01*
X46500000Y-58975000D01*
G75*
G02*
X46350000Y-58825000I0J150000D01*
G01*
G37*
G36*
G01*
X46350000Y-60095000D02*
X46350000Y-59795000D01*
G75*
G02*
X46500000Y-59645000I150000J0D01*
G01*
X48150000Y-59645000D01*
G75*
G02*
X48300000Y-59795000I0J-150000D01*
G01*
X48300000Y-60095000D01*
G75*
G02*
X48150000Y-60245000I-150000J0D01*
G01*
X46500000Y-60245000D01*
G75*
G02*
X46350000Y-60095000I0J150000D01*
G01*
G37*
G36*
G01*
X46350000Y-61365000D02*
X46350000Y-61065000D01*
G75*
G02*
X46500000Y-60915000I150000J0D01*
G01*
X48150000Y-60915000D01*
G75*
G02*
X48300000Y-61065000I0J-150000D01*
G01*
X48300000Y-61365000D01*
G75*
G02*
X48150000Y-61515000I-150000J0D01*
G01*
X46500000Y-61515000D01*
G75*
G02*
X46350000Y-61365000I0J150000D01*
G01*
G37*
G36*
G01*
X51300000Y-61365000D02*
X51300000Y-61065000D01*
G75*
G02*
X51450000Y-60915000I150000J0D01*
G01*
X53100000Y-60915000D01*
G75*
G02*
X53250000Y-61065000I0J-150000D01*
G01*
X53250000Y-61365000D01*
G75*
G02*
X53100000Y-61515000I-150000J0D01*
G01*
X51450000Y-61515000D01*
G75*
G02*
X51300000Y-61365000I0J150000D01*
G01*
G37*
G36*
G01*
X51300000Y-60095000D02*
X51300000Y-59795000D01*
G75*
G02*
X51450000Y-59645000I150000J0D01*
G01*
X53100000Y-59645000D01*
G75*
G02*
X53250000Y-59795000I0J-150000D01*
G01*
X53250000Y-60095000D01*
G75*
G02*
X53100000Y-60245000I-150000J0D01*
G01*
X51450000Y-60245000D01*
G75*
G02*
X51300000Y-60095000I0J150000D01*
G01*
G37*
G36*
G01*
X51300000Y-58825000D02*
X51300000Y-58525000D01*
G75*
G02*
X51450000Y-58375000I150000J0D01*
G01*
X53100000Y-58375000D01*
G75*
G02*
X53250000Y-58525000I0J-150000D01*
G01*
X53250000Y-58825000D01*
G75*
G02*
X53100000Y-58975000I-150000J0D01*
G01*
X51450000Y-58975000D01*
G75*
G02*
X51300000Y-58825000I0J150000D01*
G01*
G37*
G36*
G01*
X51300000Y-57555000D02*
X51300000Y-57255000D01*
G75*
G02*
X51450000Y-57105000I150000J0D01*
G01*
X53100000Y-57105000D01*
G75*
G02*
X53250000Y-57255000I0J-150000D01*
G01*
X53250000Y-57555000D01*
G75*
G02*
X53100000Y-57705000I-150000J0D01*
G01*
X51450000Y-57705000D01*
G75*
G02*
X51300000Y-57555000I0J150000D01*
G01*
G37*
G36*
G01*
X104166000Y-58646250D02*
X104166000Y-57733750D01*
G75*
G02*
X104409750Y-57490000I243750J0D01*
G01*
X104897250Y-57490000D01*
G75*
G02*
X105141000Y-57733750I0J-243750D01*
G01*
X105141000Y-58646250D01*
G75*
G02*
X104897250Y-58890000I-243750J0D01*
G01*
X104409750Y-58890000D01*
G75*
G02*
X104166000Y-58646250I0J243750D01*
G01*
G37*
G36*
G01*
X102291000Y-58646250D02*
X102291000Y-57733750D01*
G75*
G02*
X102534750Y-57490000I243750J0D01*
G01*
X103022250Y-57490000D01*
G75*
G02*
X103266000Y-57733750I0J-243750D01*
G01*
X103266000Y-58646250D01*
G75*
G02*
X103022250Y-58890000I-243750J0D01*
G01*
X102534750Y-58890000D01*
G75*
G02*
X102291000Y-58646250I0J243750D01*
G01*
G37*
G36*
G01*
X104216000Y-51596250D02*
X104216000Y-50683750D01*
G75*
G02*
X104459750Y-50440000I243750J0D01*
G01*
X104947250Y-50440000D01*
G75*
G02*
X105191000Y-50683750I0J-243750D01*
G01*
X105191000Y-51596250D01*
G75*
G02*
X104947250Y-51840000I-243750J0D01*
G01*
X104459750Y-51840000D01*
G75*
G02*
X104216000Y-51596250I0J243750D01*
G01*
G37*
G36*
G01*
X102341000Y-51596250D02*
X102341000Y-50683750D01*
G75*
G02*
X102584750Y-50440000I243750J0D01*
G01*
X103072250Y-50440000D01*
G75*
G02*
X103316000Y-50683750I0J-243750D01*
G01*
X103316000Y-51596250D01*
G75*
G02*
X103072250Y-51840000I-243750J0D01*
G01*
X102584750Y-51840000D01*
G75*
G02*
X102341000Y-51596250I0J243750D01*
G01*
G37*
G36*
G01*
X104166000Y-55096250D02*
X104166000Y-54183750D01*
G75*
G02*
X104409750Y-53940000I243750J0D01*
G01*
X104897250Y-53940000D01*
G75*
G02*
X105141000Y-54183750I0J-243750D01*
G01*
X105141000Y-55096250D01*
G75*
G02*
X104897250Y-55340000I-243750J0D01*
G01*
X104409750Y-55340000D01*
G75*
G02*
X104166000Y-55096250I0J243750D01*
G01*
G37*
G36*
G01*
X102291000Y-55096250D02*
X102291000Y-54183750D01*
G75*
G02*
X102534750Y-53940000I243750J0D01*
G01*
X103022250Y-53940000D01*
G75*
G02*
X103266000Y-54183750I0J-243750D01*
G01*
X103266000Y-55096250D01*
G75*
G02*
X103022250Y-55340000I-243750J0D01*
G01*
X102534750Y-55340000D01*
G75*
G02*
X102291000Y-55096250I0J243750D01*
G01*
G37*
G36*
G01*
X67622000Y-42215750D02*
X67622000Y-43128250D01*
G75*
G02*
X67378250Y-43372000I-243750J0D01*
G01*
X66890750Y-43372000D01*
G75*
G02*
X66647000Y-43128250I0J243750D01*
G01*
X66647000Y-42215750D01*
G75*
G02*
X66890750Y-41972000I243750J0D01*
G01*
X67378250Y-41972000D01*
G75*
G02*
X67622000Y-42215750I0J-243750D01*
G01*
G37*
G36*
G01*
X69497000Y-42215750D02*
X69497000Y-43128250D01*
G75*
G02*
X69253250Y-43372000I-243750J0D01*
G01*
X68765750Y-43372000D01*
G75*
G02*
X68522000Y-43128250I0J243750D01*
G01*
X68522000Y-42215750D01*
G75*
G02*
X68765750Y-41972000I243750J0D01*
G01*
X69253250Y-41972000D01*
G75*
G02*
X69497000Y-42215750I0J-243750D01*
G01*
G37*
D18*
X79840000Y-31730000D03*
X79840000Y-41630000D03*
D19*
X84600000Y-135870000D03*
X84600000Y-137140000D03*
X84600000Y-138410000D03*
X84600000Y-139680000D03*
X84600000Y-140950000D03*
X84600000Y-142220000D03*
X84600000Y-143490000D03*
X84600000Y-144760000D03*
X84600000Y-146030000D03*
X75200000Y-146030000D03*
X75200000Y-144760000D03*
X75200000Y-143490000D03*
X75200000Y-142220000D03*
X75200000Y-140950000D03*
X75200000Y-139680000D03*
X75200000Y-138410000D03*
X75200000Y-137140000D03*
X75200000Y-135870000D03*
G36*
G01*
X55080000Y-81931250D02*
X55080000Y-81018750D01*
G75*
G02*
X55323750Y-80775000I243750J0D01*
G01*
X55811250Y-80775000D01*
G75*
G02*
X56055000Y-81018750I0J-243750D01*
G01*
X56055000Y-81931250D01*
G75*
G02*
X55811250Y-82175000I-243750J0D01*
G01*
X55323750Y-82175000D01*
G75*
G02*
X55080000Y-81931250I0J243750D01*
G01*
G37*
G36*
G01*
X53205000Y-81931250D02*
X53205000Y-81018750D01*
G75*
G02*
X53448750Y-80775000I243750J0D01*
G01*
X53936250Y-80775000D01*
G75*
G02*
X54180000Y-81018750I0J-243750D01*
G01*
X54180000Y-81931250D01*
G75*
G02*
X53936250Y-82175000I-243750J0D01*
G01*
X53448750Y-82175000D01*
G75*
G02*
X53205000Y-81931250I0J243750D01*
G01*
G37*
G36*
G01*
X51923750Y-158520000D02*
X52836250Y-158520000D01*
G75*
G02*
X53080000Y-158763750I0J-243750D01*
G01*
X53080000Y-159251250D01*
G75*
G02*
X52836250Y-159495000I-243750J0D01*
G01*
X51923750Y-159495000D01*
G75*
G02*
X51680000Y-159251250I0J243750D01*
G01*
X51680000Y-158763750D01*
G75*
G02*
X51923750Y-158520000I243750J0D01*
G01*
G37*
G36*
G01*
X51923750Y-156645000D02*
X52836250Y-156645000D01*
G75*
G02*
X53080000Y-156888750I0J-243750D01*
G01*
X53080000Y-157376250D01*
G75*
G02*
X52836250Y-157620000I-243750J0D01*
G01*
X51923750Y-157620000D01*
G75*
G02*
X51680000Y-157376250I0J243750D01*
G01*
X51680000Y-156888750D01*
G75*
G02*
X51923750Y-156645000I243750J0D01*
G01*
G37*
G36*
G01*
X55080000Y-77651250D02*
X55080000Y-76738750D01*
G75*
G02*
X55323750Y-76495000I243750J0D01*
G01*
X55811250Y-76495000D01*
G75*
G02*
X56055000Y-76738750I0J-243750D01*
G01*
X56055000Y-77651250D01*
G75*
G02*
X55811250Y-77895000I-243750J0D01*
G01*
X55323750Y-77895000D01*
G75*
G02*
X55080000Y-77651250I0J243750D01*
G01*
G37*
G36*
G01*
X53205000Y-77651250D02*
X53205000Y-76738750D01*
G75*
G02*
X53448750Y-76495000I243750J0D01*
G01*
X53936250Y-76495000D01*
G75*
G02*
X54180000Y-76738750I0J-243750D01*
G01*
X54180000Y-77651250D01*
G75*
G02*
X53936250Y-77895000I-243750J0D01*
G01*
X53448750Y-77895000D01*
G75*
G02*
X53205000Y-77651250I0J243750D01*
G01*
G37*
G36*
G01*
X105715000Y-93535000D02*
X105715000Y-91685000D01*
G75*
G02*
X105965000Y-91435000I250000J0D01*
G01*
X106965000Y-91435000D01*
G75*
G02*
X107215000Y-91685000I0J-250000D01*
G01*
X107215000Y-93535000D01*
G75*
G02*
X106965000Y-93785000I-250000J0D01*
G01*
X105965000Y-93785000D01*
G75*
G02*
X105715000Y-93535000I0J250000D01*
G01*
G37*
G36*
G01*
X102465000Y-93534500D02*
X102465000Y-91685500D01*
G75*
G02*
X102715500Y-91435000I250500J0D01*
G01*
X103714500Y-91435000D01*
G75*
G02*
X103965000Y-91685500I0J-250500D01*
G01*
X103965000Y-93534500D01*
G75*
G02*
X103714500Y-93785000I-250500J0D01*
G01*
X102715500Y-93785000D01*
G75*
G02*
X102465000Y-93534500I0J250500D01*
G01*
G37*
G36*
G01*
X129140000Y-75916250D02*
X129140000Y-75003750D01*
G75*
G02*
X129383750Y-74760000I243750J0D01*
G01*
X129871250Y-74760000D01*
G75*
G02*
X130115000Y-75003750I0J-243750D01*
G01*
X130115000Y-75916250D01*
G75*
G02*
X129871250Y-76160000I-243750J0D01*
G01*
X129383750Y-76160000D01*
G75*
G02*
X129140000Y-75916250I0J243750D01*
G01*
G37*
G36*
G01*
X127265000Y-75916250D02*
X127265000Y-75003750D01*
G75*
G02*
X127508750Y-74760000I243750J0D01*
G01*
X127996250Y-74760000D01*
G75*
G02*
X128240000Y-75003750I0J-243750D01*
G01*
X128240000Y-75916250D01*
G75*
G02*
X127996250Y-76160000I-243750J0D01*
G01*
X127508750Y-76160000D01*
G75*
G02*
X127265000Y-75916250I0J243750D01*
G01*
G37*
G36*
G01*
X63149997Y-128750000D02*
X65000003Y-128750000D01*
G75*
G02*
X65250000Y-128999997I0J-249997D01*
G01*
X65250000Y-129825003D01*
G75*
G02*
X65000003Y-130075000I-249997J0D01*
G01*
X63149997Y-130075000D01*
G75*
G02*
X62900000Y-129825003I0J249997D01*
G01*
X62900000Y-128999997D01*
G75*
G02*
X63149997Y-128750000I249997J0D01*
G01*
G37*
G36*
G01*
X63149997Y-125675000D02*
X65000003Y-125675000D01*
G75*
G02*
X65250000Y-125924997I0J-249997D01*
G01*
X65250000Y-126750003D01*
G75*
G02*
X65000003Y-127000000I-249997J0D01*
G01*
X63149997Y-127000000D01*
G75*
G02*
X62900000Y-126750003I0J249997D01*
G01*
X62900000Y-125924997D01*
G75*
G02*
X63149997Y-125675000I249997J0D01*
G01*
G37*
D20*
X130070000Y-136190000D03*
X130070000Y-132490000D03*
G36*
G01*
X54160000Y-114196250D02*
X54160000Y-113283750D01*
G75*
G02*
X54403750Y-113040000I243750J0D01*
G01*
X54891250Y-113040000D01*
G75*
G02*
X55135000Y-113283750I0J-243750D01*
G01*
X55135000Y-114196250D01*
G75*
G02*
X54891250Y-114440000I-243750J0D01*
G01*
X54403750Y-114440000D01*
G75*
G02*
X54160000Y-114196250I0J243750D01*
G01*
G37*
G36*
G01*
X52285000Y-114196250D02*
X52285000Y-113283750D01*
G75*
G02*
X52528750Y-113040000I243750J0D01*
G01*
X53016250Y-113040000D01*
G75*
G02*
X53260000Y-113283750I0J-243750D01*
G01*
X53260000Y-114196250D01*
G75*
G02*
X53016250Y-114440000I-243750J0D01*
G01*
X52528750Y-114440000D01*
G75*
G02*
X52285000Y-114196250I0J243750D01*
G01*
G37*
G36*
G01*
X29360000Y-68419996D02*
X29360000Y-69820004D01*
G75*
G02*
X29110004Y-70070000I-249996J0D01*
G01*
X25209996Y-70070000D01*
G75*
G02*
X24960000Y-69820004I0J249996D01*
G01*
X24960000Y-68419996D01*
G75*
G02*
X25209996Y-68170000I249996J0D01*
G01*
X29110004Y-68170000D01*
G75*
G02*
X29360000Y-68419996I0J-249996D01*
G01*
G37*
G36*
G01*
X38060000Y-68419996D02*
X38060000Y-69820004D01*
G75*
G02*
X37810004Y-70070000I-249996J0D01*
G01*
X33909996Y-70070000D01*
G75*
G02*
X33660000Y-69820004I0J249996D01*
G01*
X33660000Y-68419996D01*
G75*
G02*
X33909996Y-68170000I249996J0D01*
G01*
X37810004Y-68170000D01*
G75*
G02*
X38060000Y-68419996I0J-249996D01*
G01*
G37*
G36*
G01*
X57352250Y-33078000D02*
X56439750Y-33078000D01*
G75*
G02*
X56196000Y-32834250I0J243750D01*
G01*
X56196000Y-32346750D01*
G75*
G02*
X56439750Y-32103000I243750J0D01*
G01*
X57352250Y-32103000D01*
G75*
G02*
X57596000Y-32346750I0J-243750D01*
G01*
X57596000Y-32834250D01*
G75*
G02*
X57352250Y-33078000I-243750J0D01*
G01*
G37*
G36*
G01*
X57352250Y-34953000D02*
X56439750Y-34953000D01*
G75*
G02*
X56196000Y-34709250I0J243750D01*
G01*
X56196000Y-34221750D01*
G75*
G02*
X56439750Y-33978000I243750J0D01*
G01*
X57352250Y-33978000D01*
G75*
G02*
X57596000Y-34221750I0J-243750D01*
G01*
X57596000Y-34709250D01*
G75*
G02*
X57352250Y-34953000I-243750J0D01*
G01*
G37*
G36*
G01*
X126310000Y-132616250D02*
X126310000Y-131703750D01*
G75*
G02*
X126553750Y-131460000I243750J0D01*
G01*
X127041250Y-131460000D01*
G75*
G02*
X127285000Y-131703750I0J-243750D01*
G01*
X127285000Y-132616250D01*
G75*
G02*
X127041250Y-132860000I-243750J0D01*
G01*
X126553750Y-132860000D01*
G75*
G02*
X126310000Y-132616250I0J243750D01*
G01*
G37*
G36*
G01*
X124435000Y-132616250D02*
X124435000Y-131703750D01*
G75*
G02*
X124678750Y-131460000I243750J0D01*
G01*
X125166250Y-131460000D01*
G75*
G02*
X125410000Y-131703750I0J-243750D01*
G01*
X125410000Y-132616250D01*
G75*
G02*
X125166250Y-132860000I-243750J0D01*
G01*
X124678750Y-132860000D01*
G75*
G02*
X124435000Y-132616250I0J243750D01*
G01*
G37*
G36*
G01*
X126334000Y-135122250D02*
X126334000Y-134209750D01*
G75*
G02*
X126577750Y-133966000I243750J0D01*
G01*
X127065250Y-133966000D01*
G75*
G02*
X127309000Y-134209750I0J-243750D01*
G01*
X127309000Y-135122250D01*
G75*
G02*
X127065250Y-135366000I-243750J0D01*
G01*
X126577750Y-135366000D01*
G75*
G02*
X126334000Y-135122250I0J243750D01*
G01*
G37*
G36*
G01*
X124459000Y-135122250D02*
X124459000Y-134209750D01*
G75*
G02*
X124702750Y-133966000I243750J0D01*
G01*
X125190250Y-133966000D01*
G75*
G02*
X125434000Y-134209750I0J-243750D01*
G01*
X125434000Y-135122250D01*
G75*
G02*
X125190250Y-135366000I-243750J0D01*
G01*
X124702750Y-135366000D01*
G75*
G02*
X124459000Y-135122250I0J243750D01*
G01*
G37*
G36*
G01*
X51096000Y-35372000D02*
X49996000Y-35372000D01*
G75*
G02*
X49746000Y-35122000I0J250000D01*
G01*
X49746000Y-32122000D01*
G75*
G02*
X49996000Y-31872000I250000J0D01*
G01*
X51096000Y-31872000D01*
G75*
G02*
X51346000Y-32122000I0J-250000D01*
G01*
X51346000Y-35122000D01*
G75*
G02*
X51096000Y-35372000I-250000J0D01*
G01*
G37*
G36*
G01*
X51096000Y-40772000D02*
X49996000Y-40772000D01*
G75*
G02*
X49746000Y-40522000I0J250000D01*
G01*
X49746000Y-37522000D01*
G75*
G02*
X49996000Y-37272000I250000J0D01*
G01*
X51096000Y-37272000D01*
G75*
G02*
X51346000Y-37522000I0J-250000D01*
G01*
X51346000Y-40522000D01*
G75*
G02*
X51096000Y-40772000I-250000J0D01*
G01*
G37*
G36*
G01*
X91382000Y-41096250D02*
X91382000Y-40183750D01*
G75*
G02*
X91625750Y-39940000I243750J0D01*
G01*
X92113250Y-39940000D01*
G75*
G02*
X92357000Y-40183750I0J-243750D01*
G01*
X92357000Y-41096250D01*
G75*
G02*
X92113250Y-41340000I-243750J0D01*
G01*
X91625750Y-41340000D01*
G75*
G02*
X91382000Y-41096250I0J243750D01*
G01*
G37*
G36*
G01*
X89507000Y-41096250D02*
X89507000Y-40183750D01*
G75*
G02*
X89750750Y-39940000I243750J0D01*
G01*
X90238250Y-39940000D01*
G75*
G02*
X90482000Y-40183750I0J-243750D01*
G01*
X90482000Y-41096250D01*
G75*
G02*
X90238250Y-41340000I-243750J0D01*
G01*
X89750750Y-41340000D01*
G75*
G02*
X89507000Y-41096250I0J243750D01*
G01*
G37*
G36*
G01*
X68180000Y-82041250D02*
X68180000Y-81128750D01*
G75*
G02*
X68423750Y-80885000I243750J0D01*
G01*
X68911250Y-80885000D01*
G75*
G02*
X69155000Y-81128750I0J-243750D01*
G01*
X69155000Y-82041250D01*
G75*
G02*
X68911250Y-82285000I-243750J0D01*
G01*
X68423750Y-82285000D01*
G75*
G02*
X68180000Y-82041250I0J243750D01*
G01*
G37*
G36*
G01*
X66305000Y-82041250D02*
X66305000Y-81128750D01*
G75*
G02*
X66548750Y-80885000I243750J0D01*
G01*
X67036250Y-80885000D01*
G75*
G02*
X67280000Y-81128750I0J-243750D01*
G01*
X67280000Y-82041250D01*
G75*
G02*
X67036250Y-82285000I-243750J0D01*
G01*
X66548750Y-82285000D01*
G75*
G02*
X66305000Y-82041250I0J243750D01*
G01*
G37*
G36*
G01*
X68400000Y-77521250D02*
X68400000Y-76608750D01*
G75*
G02*
X68643750Y-76365000I243750J0D01*
G01*
X69131250Y-76365000D01*
G75*
G02*
X69375000Y-76608750I0J-243750D01*
G01*
X69375000Y-77521250D01*
G75*
G02*
X69131250Y-77765000I-243750J0D01*
G01*
X68643750Y-77765000D01*
G75*
G02*
X68400000Y-77521250I0J243750D01*
G01*
G37*
G36*
G01*
X66525000Y-77521250D02*
X66525000Y-76608750D01*
G75*
G02*
X66768750Y-76365000I243750J0D01*
G01*
X67256250Y-76365000D01*
G75*
G02*
X67500000Y-76608750I0J-243750D01*
G01*
X67500000Y-77521250D01*
G75*
G02*
X67256250Y-77765000I-243750J0D01*
G01*
X66768750Y-77765000D01*
G75*
G02*
X66525000Y-77521250I0J243750D01*
G01*
G37*
G36*
G01*
X105030000Y-39930000D02*
X107030000Y-39930000D01*
G75*
G02*
X107280000Y-40180000I0J-250000D01*
G01*
X107280000Y-44080000D01*
G75*
G02*
X107030000Y-44330000I-250000J0D01*
G01*
X105030000Y-44330000D01*
G75*
G02*
X104780000Y-44080000I0J250000D01*
G01*
X104780000Y-40180000D01*
G75*
G02*
X105030000Y-39930000I250000J0D01*
G01*
G37*
G36*
G01*
X105030000Y-31530000D02*
X107030000Y-31530000D01*
G75*
G02*
X107280000Y-31780000I0J-250000D01*
G01*
X107280000Y-35680000D01*
G75*
G02*
X107030000Y-35930000I-250000J0D01*
G01*
X105030000Y-35930000D01*
G75*
G02*
X104780000Y-35680000I0J250000D01*
G01*
X104780000Y-31780000D01*
G75*
G02*
X105030000Y-31530000I250000J0D01*
G01*
G37*
G36*
G01*
X104131000Y-77104250D02*
X104131000Y-76191750D01*
G75*
G02*
X104374750Y-75948000I243750J0D01*
G01*
X104862250Y-75948000D01*
G75*
G02*
X105106000Y-76191750I0J-243750D01*
G01*
X105106000Y-77104250D01*
G75*
G02*
X104862250Y-77348000I-243750J0D01*
G01*
X104374750Y-77348000D01*
G75*
G02*
X104131000Y-77104250I0J243750D01*
G01*
G37*
G36*
G01*
X102256000Y-77104250D02*
X102256000Y-76191750D01*
G75*
G02*
X102499750Y-75948000I243750J0D01*
G01*
X102987250Y-75948000D01*
G75*
G02*
X103231000Y-76191750I0J-243750D01*
G01*
X103231000Y-77104250D01*
G75*
G02*
X102987250Y-77348000I-243750J0D01*
G01*
X102499750Y-77348000D01*
G75*
G02*
X102256000Y-77104250I0J243750D01*
G01*
G37*
G36*
G01*
X104131000Y-74856250D02*
X104131000Y-73943750D01*
G75*
G02*
X104374750Y-73700000I243750J0D01*
G01*
X104862250Y-73700000D01*
G75*
G02*
X105106000Y-73943750I0J-243750D01*
G01*
X105106000Y-74856250D01*
G75*
G02*
X104862250Y-75100000I-243750J0D01*
G01*
X104374750Y-75100000D01*
G75*
G02*
X104131000Y-74856250I0J243750D01*
G01*
G37*
G36*
G01*
X102256000Y-74856250D02*
X102256000Y-73943750D01*
G75*
G02*
X102499750Y-73700000I243750J0D01*
G01*
X102987250Y-73700000D01*
G75*
G02*
X103231000Y-73943750I0J-243750D01*
G01*
X103231000Y-74856250D01*
G75*
G02*
X102987250Y-75100000I-243750J0D01*
G01*
X102499750Y-75100000D01*
G75*
G02*
X102256000Y-74856250I0J243750D01*
G01*
G37*
G36*
G01*
X124453750Y-91760000D02*
X125366250Y-91760000D01*
G75*
G02*
X125610000Y-92003750I0J-243750D01*
G01*
X125610000Y-92491250D01*
G75*
G02*
X125366250Y-92735000I-243750J0D01*
G01*
X124453750Y-92735000D01*
G75*
G02*
X124210000Y-92491250I0J243750D01*
G01*
X124210000Y-92003750D01*
G75*
G02*
X124453750Y-91760000I243750J0D01*
G01*
G37*
G36*
G01*
X124453750Y-89885000D02*
X125366250Y-89885000D01*
G75*
G02*
X125610000Y-90128750I0J-243750D01*
G01*
X125610000Y-90616250D01*
G75*
G02*
X125366250Y-90860000I-243750J0D01*
G01*
X124453750Y-90860000D01*
G75*
G02*
X124210000Y-90616250I0J243750D01*
G01*
X124210000Y-90128750D01*
G75*
G02*
X124453750Y-89885000I243750J0D01*
G01*
G37*
G36*
G01*
X113256250Y-90860000D02*
X112343750Y-90860000D01*
G75*
G02*
X112100000Y-90616250I0J243750D01*
G01*
X112100000Y-90128750D01*
G75*
G02*
X112343750Y-89885000I243750J0D01*
G01*
X113256250Y-89885000D01*
G75*
G02*
X113500000Y-90128750I0J-243750D01*
G01*
X113500000Y-90616250D01*
G75*
G02*
X113256250Y-90860000I-243750J0D01*
G01*
G37*
G36*
G01*
X113256250Y-92735000D02*
X112343750Y-92735000D01*
G75*
G02*
X112100000Y-92491250I0J243750D01*
G01*
X112100000Y-92003750D01*
G75*
G02*
X112343750Y-91760000I243750J0D01*
G01*
X113256250Y-91760000D01*
G75*
G02*
X113500000Y-92003750I0J-243750D01*
G01*
X113500000Y-92491250D01*
G75*
G02*
X113256250Y-92735000I-243750J0D01*
G01*
G37*
G36*
G01*
X148100000Y-41583750D02*
X148100000Y-42496250D01*
G75*
G02*
X147856250Y-42740000I-243750J0D01*
G01*
X147368750Y-42740000D01*
G75*
G02*
X147125000Y-42496250I0J243750D01*
G01*
X147125000Y-41583750D01*
G75*
G02*
X147368750Y-41340000I243750J0D01*
G01*
X147856250Y-41340000D01*
G75*
G02*
X148100000Y-41583750I0J-243750D01*
G01*
G37*
G36*
G01*
X149975000Y-41583750D02*
X149975000Y-42496250D01*
G75*
G02*
X149731250Y-42740000I-243750J0D01*
G01*
X149243750Y-42740000D01*
G75*
G02*
X149000000Y-42496250I0J243750D01*
G01*
X149000000Y-41583750D01*
G75*
G02*
X149243750Y-41340000I243750J0D01*
G01*
X149731250Y-41340000D01*
G75*
G02*
X149975000Y-41583750I0J-243750D01*
G01*
G37*
G36*
G01*
X68330000Y-87161250D02*
X68330000Y-86248750D01*
G75*
G02*
X68573750Y-86005000I243750J0D01*
G01*
X69061250Y-86005000D01*
G75*
G02*
X69305000Y-86248750I0J-243750D01*
G01*
X69305000Y-87161250D01*
G75*
G02*
X69061250Y-87405000I-243750J0D01*
G01*
X68573750Y-87405000D01*
G75*
G02*
X68330000Y-87161250I0J243750D01*
G01*
G37*
G36*
G01*
X66455000Y-87161250D02*
X66455000Y-86248750D01*
G75*
G02*
X66698750Y-86005000I243750J0D01*
G01*
X67186250Y-86005000D01*
G75*
G02*
X67430000Y-86248750I0J-243750D01*
G01*
X67430000Y-87161250D01*
G75*
G02*
X67186250Y-87405000I-243750J0D01*
G01*
X66698750Y-87405000D01*
G75*
G02*
X66455000Y-87161250I0J243750D01*
G01*
G37*
G36*
G01*
X68005000Y-92281250D02*
X68005000Y-91368750D01*
G75*
G02*
X68248750Y-91125000I243750J0D01*
G01*
X68736250Y-91125000D01*
G75*
G02*
X68980000Y-91368750I0J-243750D01*
G01*
X68980000Y-92281250D01*
G75*
G02*
X68736250Y-92525000I-243750J0D01*
G01*
X68248750Y-92525000D01*
G75*
G02*
X68005000Y-92281250I0J243750D01*
G01*
G37*
G36*
G01*
X66130000Y-92281250D02*
X66130000Y-91368750D01*
G75*
G02*
X66373750Y-91125000I243750J0D01*
G01*
X66861250Y-91125000D01*
G75*
G02*
X67105000Y-91368750I0J-243750D01*
G01*
X67105000Y-92281250D01*
G75*
G02*
X66861250Y-92525000I-243750J0D01*
G01*
X66373750Y-92525000D01*
G75*
G02*
X66130000Y-92281250I0J243750D01*
G01*
G37*
D21*
X60650000Y-61205000D03*
X60650000Y-59935000D03*
X60650000Y-58665000D03*
X60650000Y-57395000D03*
X66050000Y-57395000D03*
X66050000Y-58665000D03*
X66050000Y-59935000D03*
X66050000Y-61205000D03*
D22*
X139565000Y-131775000D03*
X140065000Y-131775000D03*
X140565000Y-131775000D03*
X141065000Y-131775000D03*
X141565000Y-131775000D03*
X142065000Y-131775000D03*
X142565000Y-131775000D03*
X143065000Y-131775000D03*
X143565000Y-131775000D03*
X144065000Y-131775000D03*
X144565000Y-131775000D03*
X145065000Y-131775000D03*
X145565000Y-131775000D03*
X146065000Y-131775000D03*
X146565000Y-131775000D03*
X147065000Y-131775000D03*
D23*
X149015000Y-133725000D03*
X149015000Y-134225000D03*
X149015000Y-134725000D03*
X149015000Y-135225000D03*
X149015000Y-135725000D03*
X149015000Y-136225000D03*
X149015000Y-136725000D03*
X149015000Y-137225000D03*
X149015000Y-137725000D03*
X149015000Y-138225000D03*
X149015000Y-138725000D03*
X149015000Y-139225000D03*
X149015000Y-139725000D03*
X149015000Y-140225000D03*
X149015000Y-140725000D03*
X149015000Y-141225000D03*
D22*
X147065000Y-143175000D03*
X146565000Y-143175000D03*
X146065000Y-143175000D03*
X145565000Y-143175000D03*
X145065000Y-143175000D03*
X144565000Y-143175000D03*
X144065000Y-143175000D03*
X143565000Y-143175000D03*
X143065000Y-143175000D03*
X142565000Y-143175000D03*
X142065000Y-143175000D03*
X141565000Y-143175000D03*
X141065000Y-143175000D03*
X140565000Y-143175000D03*
X140065000Y-143175000D03*
X139565000Y-143175000D03*
D23*
X137615000Y-141225000D03*
X137615000Y-140725000D03*
X137615000Y-140225000D03*
X137615000Y-139725000D03*
X137615000Y-139225000D03*
X137615000Y-138725000D03*
X137615000Y-138225000D03*
X137615000Y-137725000D03*
X137615000Y-137225000D03*
X137615000Y-136725000D03*
X137615000Y-136225000D03*
X137615000Y-135725000D03*
X137615000Y-135225000D03*
X137615000Y-134725000D03*
X137615000Y-134225000D03*
X137615000Y-133725000D03*
X114188000Y-77180000D03*
X114188000Y-77680000D03*
X114188000Y-78180000D03*
X114188000Y-78680000D03*
X114188000Y-79180000D03*
X114188000Y-79680000D03*
X114188000Y-80180000D03*
X114188000Y-80680000D03*
X114188000Y-81180000D03*
X114188000Y-81680000D03*
X114188000Y-82180000D03*
X114188000Y-82680000D03*
X114188000Y-83180000D03*
X114188000Y-83680000D03*
X114188000Y-84180000D03*
X114188000Y-84680000D03*
D22*
X116138000Y-86630000D03*
X116638000Y-86630000D03*
X117138000Y-86630000D03*
X117638000Y-86630000D03*
X118138000Y-86630000D03*
X118638000Y-86630000D03*
X119138000Y-86630000D03*
X119638000Y-86630000D03*
X120138000Y-86630000D03*
X120638000Y-86630000D03*
X121138000Y-86630000D03*
X121638000Y-86630000D03*
X122138000Y-86630000D03*
X122638000Y-86630000D03*
X123138000Y-86630000D03*
X123638000Y-86630000D03*
D23*
X125588000Y-84680000D03*
X125588000Y-84180000D03*
X125588000Y-83680000D03*
X125588000Y-83180000D03*
X125588000Y-82680000D03*
X125588000Y-82180000D03*
X125588000Y-81680000D03*
X125588000Y-81180000D03*
X125588000Y-80680000D03*
X125588000Y-80180000D03*
X125588000Y-79680000D03*
X125588000Y-79180000D03*
X125588000Y-78680000D03*
X125588000Y-78180000D03*
X125588000Y-77680000D03*
X125588000Y-77180000D03*
D22*
X123638000Y-75230000D03*
X123138000Y-75230000D03*
X122638000Y-75230000D03*
X122138000Y-75230000D03*
X121638000Y-75230000D03*
X121138000Y-75230000D03*
X120638000Y-75230000D03*
X120138000Y-75230000D03*
X119638000Y-75230000D03*
X119138000Y-75230000D03*
X118638000Y-75230000D03*
X118138000Y-75230000D03*
X117638000Y-75230000D03*
X117138000Y-75230000D03*
X116638000Y-75230000D03*
X116138000Y-75230000D03*
D24*
X99130000Y-84800000D03*
X94530000Y-84800000D03*
X96830000Y-84800000D03*
D25*
X96830000Y-91100000D03*
D18*
X80000000Y-58150000D03*
X80000000Y-48250000D03*
D11*
X144270000Y-71395000D03*
X142270000Y-72345000D03*
X142270000Y-70445000D03*
X144250000Y-76450500D03*
X142250000Y-77400500D03*
X142250000Y-75500500D03*
X144288000Y-81569100D03*
X142288000Y-82519100D03*
X142288000Y-80619100D03*
X144230000Y-86687700D03*
X142230000Y-87637700D03*
X142230000Y-85737700D03*
X144230000Y-91806300D03*
X142230000Y-92756300D03*
X142230000Y-90856300D03*
X144293000Y-96925000D03*
X142293000Y-97875000D03*
X142293000Y-95975000D03*
X167275000Y-70082300D03*
X169275000Y-69132300D03*
X169275000Y-71032300D03*
X167269000Y-75172500D03*
X169269000Y-74222500D03*
X169269000Y-76122500D03*
X167285000Y-80222000D03*
X169285000Y-79272000D03*
X169285000Y-81172000D03*
X167242000Y-85272200D03*
X169242000Y-84322200D03*
X169242000Y-86222200D03*
X167288000Y-90265100D03*
X169288000Y-89315100D03*
X169288000Y-91215100D03*
X167291000Y-95398800D03*
X169291000Y-94448800D03*
X169291000Y-96348800D03*
X167336000Y-100550000D03*
X169336000Y-99600000D03*
X169336000Y-101500000D03*
X167339000Y-105650000D03*
X169339000Y-104700000D03*
X169339000Y-106600000D03*
G36*
G01*
X54842950Y-134385000D02*
X55755450Y-134385000D01*
G75*
G02*
X55999200Y-134628750I0J-243750D01*
G01*
X55999200Y-135116250D01*
G75*
G02*
X55755450Y-135360000I-243750J0D01*
G01*
X54842950Y-135360000D01*
G75*
G02*
X54599200Y-135116250I0J243750D01*
G01*
X54599200Y-134628750D01*
G75*
G02*
X54842950Y-134385000I243750J0D01*
G01*
G37*
G36*
G01*
X54842950Y-132510000D02*
X55755450Y-132510000D01*
G75*
G02*
X55999200Y-132753750I0J-243750D01*
G01*
X55999200Y-133241250D01*
G75*
G02*
X55755450Y-133485000I-243750J0D01*
G01*
X54842950Y-133485000D01*
G75*
G02*
X54599200Y-133241250I0J243750D01*
G01*
X54599200Y-132753750D01*
G75*
G02*
X54842950Y-132510000I243750J0D01*
G01*
G37*
G36*
G01*
X58242950Y-134360000D02*
X59155450Y-134360000D01*
G75*
G02*
X59399200Y-134603750I0J-243750D01*
G01*
X59399200Y-135091250D01*
G75*
G02*
X59155450Y-135335000I-243750J0D01*
G01*
X58242950Y-135335000D01*
G75*
G02*
X57999200Y-135091250I0J243750D01*
G01*
X57999200Y-134603750D01*
G75*
G02*
X58242950Y-134360000I243750J0D01*
G01*
G37*
G36*
G01*
X58242950Y-132485000D02*
X59155450Y-132485000D01*
G75*
G02*
X59399200Y-132728750I0J-243750D01*
G01*
X59399200Y-133216250D01*
G75*
G02*
X59155450Y-133460000I-243750J0D01*
G01*
X58242950Y-133460000D01*
G75*
G02*
X57999200Y-133216250I0J243750D01*
G01*
X57999200Y-132728750D01*
G75*
G02*
X58242950Y-132485000I243750J0D01*
G01*
G37*
G36*
G01*
X55680450Y-127835000D02*
X54767950Y-127835000D01*
G75*
G02*
X54524200Y-127591250I0J243750D01*
G01*
X54524200Y-127103750D01*
G75*
G02*
X54767950Y-126860000I243750J0D01*
G01*
X55680450Y-126860000D01*
G75*
G02*
X55924200Y-127103750I0J-243750D01*
G01*
X55924200Y-127591250D01*
G75*
G02*
X55680450Y-127835000I-243750J0D01*
G01*
G37*
G36*
G01*
X55680450Y-129710000D02*
X54767950Y-129710000D01*
G75*
G02*
X54524200Y-129466250I0J243750D01*
G01*
X54524200Y-128978750D01*
G75*
G02*
X54767950Y-128735000I243750J0D01*
G01*
X55680450Y-128735000D01*
G75*
G02*
X55924200Y-128978750I0J-243750D01*
G01*
X55924200Y-129466250D01*
G75*
G02*
X55680450Y-129710000I-243750J0D01*
G01*
G37*
G36*
G01*
X58167950Y-128760000D02*
X59080450Y-128760000D01*
G75*
G02*
X59324200Y-129003750I0J-243750D01*
G01*
X59324200Y-129491250D01*
G75*
G02*
X59080450Y-129735000I-243750J0D01*
G01*
X58167950Y-129735000D01*
G75*
G02*
X57924200Y-129491250I0J243750D01*
G01*
X57924200Y-129003750D01*
G75*
G02*
X58167950Y-128760000I243750J0D01*
G01*
G37*
G36*
G01*
X58167950Y-126885000D02*
X59080450Y-126885000D01*
G75*
G02*
X59324200Y-127128750I0J-243750D01*
G01*
X59324200Y-127616250D01*
G75*
G02*
X59080450Y-127860000I-243750J0D01*
G01*
X58167950Y-127860000D01*
G75*
G02*
X57924200Y-127616250I0J243750D01*
G01*
X57924200Y-127128750D01*
G75*
G02*
X58167950Y-126885000I243750J0D01*
G01*
G37*
G36*
G01*
X67622000Y-38405750D02*
X67622000Y-39318250D01*
G75*
G02*
X67378250Y-39562000I-243750J0D01*
G01*
X66890750Y-39562000D01*
G75*
G02*
X66647000Y-39318250I0J243750D01*
G01*
X66647000Y-38405750D01*
G75*
G02*
X66890750Y-38162000I243750J0D01*
G01*
X67378250Y-38162000D01*
G75*
G02*
X67622000Y-38405750I0J-243750D01*
G01*
G37*
G36*
G01*
X69497000Y-38405750D02*
X69497000Y-39318250D01*
G75*
G02*
X69253250Y-39562000I-243750J0D01*
G01*
X68765750Y-39562000D01*
G75*
G02*
X68522000Y-39318250I0J243750D01*
G01*
X68522000Y-38405750D01*
G75*
G02*
X68765750Y-38162000I243750J0D01*
G01*
X69253250Y-38162000D01*
G75*
G02*
X69497000Y-38405750I0J-243750D01*
G01*
G37*
G36*
G01*
X67622000Y-34595750D02*
X67622000Y-35508250D01*
G75*
G02*
X67378250Y-35752000I-243750J0D01*
G01*
X66890750Y-35752000D01*
G75*
G02*
X66647000Y-35508250I0J243750D01*
G01*
X66647000Y-34595750D01*
G75*
G02*
X66890750Y-34352000I243750J0D01*
G01*
X67378250Y-34352000D01*
G75*
G02*
X67622000Y-34595750I0J-243750D01*
G01*
G37*
G36*
G01*
X69497000Y-34595750D02*
X69497000Y-35508250D01*
G75*
G02*
X69253250Y-35752000I-243750J0D01*
G01*
X68765750Y-35752000D01*
G75*
G02*
X68522000Y-35508250I0J243750D01*
G01*
X68522000Y-34595750D01*
G75*
G02*
X68765750Y-34352000I243750J0D01*
G01*
X69253250Y-34352000D01*
G75*
G02*
X69497000Y-34595750I0J-243750D01*
G01*
G37*
G36*
G01*
X56439750Y-38471500D02*
X57352250Y-38471500D01*
G75*
G02*
X57596000Y-38715250I0J-243750D01*
G01*
X57596000Y-39202750D01*
G75*
G02*
X57352250Y-39446500I-243750J0D01*
G01*
X56439750Y-39446500D01*
G75*
G02*
X56196000Y-39202750I0J243750D01*
G01*
X56196000Y-38715250D01*
G75*
G02*
X56439750Y-38471500I243750J0D01*
G01*
G37*
G36*
G01*
X56439750Y-36596500D02*
X57352250Y-36596500D01*
G75*
G02*
X57596000Y-36840250I0J-243750D01*
G01*
X57596000Y-37327750D01*
G75*
G02*
X57352250Y-37571500I-243750J0D01*
G01*
X56439750Y-37571500D01*
G75*
G02*
X56196000Y-37327750I0J243750D01*
G01*
X56196000Y-36840250D01*
G75*
G02*
X56439750Y-36596500I243750J0D01*
G01*
G37*
G36*
G01*
X62962500Y-81068750D02*
X62962500Y-81981250D01*
G75*
G02*
X62718750Y-82225000I-243750J0D01*
G01*
X62231250Y-82225000D01*
G75*
G02*
X61987500Y-81981250I0J243750D01*
G01*
X61987500Y-81068750D01*
G75*
G02*
X62231250Y-80825000I243750J0D01*
G01*
X62718750Y-80825000D01*
G75*
G02*
X62962500Y-81068750I0J-243750D01*
G01*
G37*
G36*
G01*
X64837500Y-81068750D02*
X64837500Y-81981250D01*
G75*
G02*
X64593750Y-82225000I-243750J0D01*
G01*
X64106250Y-82225000D01*
G75*
G02*
X63862500Y-81981250I0J243750D01*
G01*
X63862500Y-81068750D01*
G75*
G02*
X64106250Y-80825000I243750J0D01*
G01*
X64593750Y-80825000D01*
G75*
G02*
X64837500Y-81068750I0J-243750D01*
G01*
G37*
G36*
G01*
X63040000Y-76488750D02*
X63040000Y-77401250D01*
G75*
G02*
X62796250Y-77645000I-243750J0D01*
G01*
X62308750Y-77645000D01*
G75*
G02*
X62065000Y-77401250I0J243750D01*
G01*
X62065000Y-76488750D01*
G75*
G02*
X62308750Y-76245000I243750J0D01*
G01*
X62796250Y-76245000D01*
G75*
G02*
X63040000Y-76488750I0J-243750D01*
G01*
G37*
G36*
G01*
X64915000Y-76488750D02*
X64915000Y-77401250D01*
G75*
G02*
X64671250Y-77645000I-243750J0D01*
G01*
X64183750Y-77645000D01*
G75*
G02*
X63940000Y-77401250I0J243750D01*
G01*
X63940000Y-76488750D01*
G75*
G02*
X64183750Y-76245000I243750J0D01*
G01*
X64671250Y-76245000D01*
G75*
G02*
X64915000Y-76488750I0J-243750D01*
G01*
G37*
G36*
G01*
X171243750Y-70515000D02*
X172156250Y-70515000D01*
G75*
G02*
X172400000Y-70758750I0J-243750D01*
G01*
X172400000Y-71246250D01*
G75*
G02*
X172156250Y-71490000I-243750J0D01*
G01*
X171243750Y-71490000D01*
G75*
G02*
X171000000Y-71246250I0J243750D01*
G01*
X171000000Y-70758750D01*
G75*
G02*
X171243750Y-70515000I243750J0D01*
G01*
G37*
G36*
G01*
X171243750Y-68640000D02*
X172156250Y-68640000D01*
G75*
G02*
X172400000Y-68883750I0J-243750D01*
G01*
X172400000Y-69371250D01*
G75*
G02*
X172156250Y-69615000I-243750J0D01*
G01*
X171243750Y-69615000D01*
G75*
G02*
X171000000Y-69371250I0J243750D01*
G01*
X171000000Y-68883750D01*
G75*
G02*
X171243750Y-68640000I243750J0D01*
G01*
G37*
G36*
G01*
X171243750Y-75583600D02*
X172156250Y-75583600D01*
G75*
G02*
X172400000Y-75827350I0J-243750D01*
G01*
X172400000Y-76314850D01*
G75*
G02*
X172156250Y-76558600I-243750J0D01*
G01*
X171243750Y-76558600D01*
G75*
G02*
X171000000Y-76314850I0J243750D01*
G01*
X171000000Y-75827350D01*
G75*
G02*
X171243750Y-75583600I243750J0D01*
G01*
G37*
G36*
G01*
X171243750Y-73708600D02*
X172156250Y-73708600D01*
G75*
G02*
X172400000Y-73952350I0J-243750D01*
G01*
X172400000Y-74439850D01*
G75*
G02*
X172156250Y-74683600I-243750J0D01*
G01*
X171243750Y-74683600D01*
G75*
G02*
X171000000Y-74439850I0J243750D01*
G01*
X171000000Y-73952350D01*
G75*
G02*
X171243750Y-73708600I243750J0D01*
G01*
G37*
G36*
G01*
X171243750Y-80652100D02*
X172156250Y-80652100D01*
G75*
G02*
X172400000Y-80895850I0J-243750D01*
G01*
X172400000Y-81383350D01*
G75*
G02*
X172156250Y-81627100I-243750J0D01*
G01*
X171243750Y-81627100D01*
G75*
G02*
X171000000Y-81383350I0J243750D01*
G01*
X171000000Y-80895850D01*
G75*
G02*
X171243750Y-80652100I243750J0D01*
G01*
G37*
G36*
G01*
X171243750Y-78777100D02*
X172156250Y-78777100D01*
G75*
G02*
X172400000Y-79020850I0J-243750D01*
G01*
X172400000Y-79508350D01*
G75*
G02*
X172156250Y-79752100I-243750J0D01*
G01*
X171243750Y-79752100D01*
G75*
G02*
X171000000Y-79508350I0J243750D01*
G01*
X171000000Y-79020850D01*
G75*
G02*
X171243750Y-78777100I243750J0D01*
G01*
G37*
G36*
G01*
X171243750Y-85720700D02*
X172156250Y-85720700D01*
G75*
G02*
X172400000Y-85964450I0J-243750D01*
G01*
X172400000Y-86451950D01*
G75*
G02*
X172156250Y-86695700I-243750J0D01*
G01*
X171243750Y-86695700D01*
G75*
G02*
X171000000Y-86451950I0J243750D01*
G01*
X171000000Y-85964450D01*
G75*
G02*
X171243750Y-85720700I243750J0D01*
G01*
G37*
G36*
G01*
X171243750Y-83845700D02*
X172156250Y-83845700D01*
G75*
G02*
X172400000Y-84089450I0J-243750D01*
G01*
X172400000Y-84576950D01*
G75*
G02*
X172156250Y-84820700I-243750J0D01*
G01*
X171243750Y-84820700D01*
G75*
G02*
X171000000Y-84576950I0J243750D01*
G01*
X171000000Y-84089450D01*
G75*
G02*
X171243750Y-83845700I243750J0D01*
G01*
G37*
G36*
G01*
X171243750Y-90789300D02*
X172156250Y-90789300D01*
G75*
G02*
X172400000Y-91033050I0J-243750D01*
G01*
X172400000Y-91520550D01*
G75*
G02*
X172156250Y-91764300I-243750J0D01*
G01*
X171243750Y-91764300D01*
G75*
G02*
X171000000Y-91520550I0J243750D01*
G01*
X171000000Y-91033050D01*
G75*
G02*
X171243750Y-90789300I243750J0D01*
G01*
G37*
G36*
G01*
X171243750Y-88914300D02*
X172156250Y-88914300D01*
G75*
G02*
X172400000Y-89158050I0J-243750D01*
G01*
X172400000Y-89645550D01*
G75*
G02*
X172156250Y-89889300I-243750J0D01*
G01*
X171243750Y-89889300D01*
G75*
G02*
X171000000Y-89645550I0J243750D01*
G01*
X171000000Y-89158050D01*
G75*
G02*
X171243750Y-88914300I243750J0D01*
G01*
G37*
G36*
G01*
X171243750Y-95857900D02*
X172156250Y-95857900D01*
G75*
G02*
X172400000Y-96101650I0J-243750D01*
G01*
X172400000Y-96589150D01*
G75*
G02*
X172156250Y-96832900I-243750J0D01*
G01*
X171243750Y-96832900D01*
G75*
G02*
X171000000Y-96589150I0J243750D01*
G01*
X171000000Y-96101650D01*
G75*
G02*
X171243750Y-95857900I243750J0D01*
G01*
G37*
G36*
G01*
X171243750Y-93982900D02*
X172156250Y-93982900D01*
G75*
G02*
X172400000Y-94226650I0J-243750D01*
G01*
X172400000Y-94714150D01*
G75*
G02*
X172156250Y-94957900I-243750J0D01*
G01*
X171243750Y-94957900D01*
G75*
G02*
X171000000Y-94714150I0J243750D01*
G01*
X171000000Y-94226650D01*
G75*
G02*
X171243750Y-93982900I243750J0D01*
G01*
G37*
G36*
G01*
X138386000Y-90391450D02*
X138386000Y-91303950D01*
G75*
G02*
X138142250Y-91547700I-243750J0D01*
G01*
X137654750Y-91547700D01*
G75*
G02*
X137411000Y-91303950I0J243750D01*
G01*
X137411000Y-90391450D01*
G75*
G02*
X137654750Y-90147700I243750J0D01*
G01*
X138142250Y-90147700D01*
G75*
G02*
X138386000Y-90391450I0J-243750D01*
G01*
G37*
G36*
G01*
X140261000Y-90391450D02*
X140261000Y-91303950D01*
G75*
G02*
X140017250Y-91547700I-243750J0D01*
G01*
X139529750Y-91547700D01*
G75*
G02*
X139286000Y-91303950I0J243750D01*
G01*
X139286000Y-90391450D01*
G75*
G02*
X139529750Y-90147700I243750J0D01*
G01*
X140017250Y-90147700D01*
G75*
G02*
X140261000Y-90391450I0J-243750D01*
G01*
G37*
G36*
G01*
X103206250Y-164322500D02*
X102293750Y-164322500D01*
G75*
G02*
X102050000Y-164078750I0J243750D01*
G01*
X102050000Y-163591250D01*
G75*
G02*
X102293750Y-163347500I243750J0D01*
G01*
X103206250Y-163347500D01*
G75*
G02*
X103450000Y-163591250I0J-243750D01*
G01*
X103450000Y-164078750D01*
G75*
G02*
X103206250Y-164322500I-243750J0D01*
G01*
G37*
G36*
G01*
X103206250Y-166197500D02*
X102293750Y-166197500D01*
G75*
G02*
X102050000Y-165953750I0J243750D01*
G01*
X102050000Y-165466250D01*
G75*
G02*
X102293750Y-165222500I243750J0D01*
G01*
X103206250Y-165222500D01*
G75*
G02*
X103450000Y-165466250I0J-243750D01*
G01*
X103450000Y-165953750D01*
G75*
G02*
X103206250Y-166197500I-243750J0D01*
G01*
G37*
G36*
G01*
X138386000Y-70014550D02*
X138386000Y-70927050D01*
G75*
G02*
X138142250Y-71170800I-243750J0D01*
G01*
X137654750Y-71170800D01*
G75*
G02*
X137411000Y-70927050I0J243750D01*
G01*
X137411000Y-70014550D01*
G75*
G02*
X137654750Y-69770800I243750J0D01*
G01*
X138142250Y-69770800D01*
G75*
G02*
X138386000Y-70014550I0J-243750D01*
G01*
G37*
G36*
G01*
X140261000Y-70014550D02*
X140261000Y-70927050D01*
G75*
G02*
X140017250Y-71170800I-243750J0D01*
G01*
X139529750Y-71170800D01*
G75*
G02*
X139286000Y-70927050I0J243750D01*
G01*
X139286000Y-70014550D01*
G75*
G02*
X139529750Y-69770800I243750J0D01*
G01*
X140017250Y-69770800D01*
G75*
G02*
X140261000Y-70014550I0J-243750D01*
G01*
G37*
G36*
G01*
X138386000Y-75108750D02*
X138386000Y-76021250D01*
G75*
G02*
X138142250Y-76265000I-243750J0D01*
G01*
X137654750Y-76265000D01*
G75*
G02*
X137411000Y-76021250I0J243750D01*
G01*
X137411000Y-75108750D01*
G75*
G02*
X137654750Y-74865000I243750J0D01*
G01*
X138142250Y-74865000D01*
G75*
G02*
X138386000Y-75108750I0J-243750D01*
G01*
G37*
G36*
G01*
X140261000Y-75108750D02*
X140261000Y-76021250D01*
G75*
G02*
X140017250Y-76265000I-243750J0D01*
G01*
X139529750Y-76265000D01*
G75*
G02*
X139286000Y-76021250I0J243750D01*
G01*
X139286000Y-75108750D01*
G75*
G02*
X139529750Y-74865000I243750J0D01*
G01*
X140017250Y-74865000D01*
G75*
G02*
X140261000Y-75108750I0J-243750D01*
G01*
G37*
G36*
G01*
X138386000Y-80202950D02*
X138386000Y-81115450D01*
G75*
G02*
X138142250Y-81359200I-243750J0D01*
G01*
X137654750Y-81359200D01*
G75*
G02*
X137411000Y-81115450I0J243750D01*
G01*
X137411000Y-80202950D01*
G75*
G02*
X137654750Y-79959200I243750J0D01*
G01*
X138142250Y-79959200D01*
G75*
G02*
X138386000Y-80202950I0J-243750D01*
G01*
G37*
G36*
G01*
X140261000Y-80202950D02*
X140261000Y-81115450D01*
G75*
G02*
X140017250Y-81359200I-243750J0D01*
G01*
X139529750Y-81359200D01*
G75*
G02*
X139286000Y-81115450I0J243750D01*
G01*
X139286000Y-80202950D01*
G75*
G02*
X139529750Y-79959200I243750J0D01*
G01*
X140017250Y-79959200D01*
G75*
G02*
X140261000Y-80202950I0J-243750D01*
G01*
G37*
G36*
G01*
X138386000Y-85297250D02*
X138386000Y-86209750D01*
G75*
G02*
X138142250Y-86453500I-243750J0D01*
G01*
X137654750Y-86453500D01*
G75*
G02*
X137411000Y-86209750I0J243750D01*
G01*
X137411000Y-85297250D01*
G75*
G02*
X137654750Y-85053500I243750J0D01*
G01*
X138142250Y-85053500D01*
G75*
G02*
X138386000Y-85297250I0J-243750D01*
G01*
G37*
G36*
G01*
X140261000Y-85297250D02*
X140261000Y-86209750D01*
G75*
G02*
X140017250Y-86453500I-243750J0D01*
G01*
X139529750Y-86453500D01*
G75*
G02*
X139286000Y-86209750I0J243750D01*
G01*
X139286000Y-85297250D01*
G75*
G02*
X139529750Y-85053500I243750J0D01*
G01*
X140017250Y-85053500D01*
G75*
G02*
X140261000Y-85297250I0J-243750D01*
G01*
G37*
G36*
G01*
X138386000Y-95485750D02*
X138386000Y-96398250D01*
G75*
G02*
X138142250Y-96642000I-243750J0D01*
G01*
X137654750Y-96642000D01*
G75*
G02*
X137411000Y-96398250I0J243750D01*
G01*
X137411000Y-95485750D01*
G75*
G02*
X137654750Y-95242000I243750J0D01*
G01*
X138142250Y-95242000D01*
G75*
G02*
X138386000Y-95485750I0J-243750D01*
G01*
G37*
G36*
G01*
X140261000Y-95485750D02*
X140261000Y-96398250D01*
G75*
G02*
X140017250Y-96642000I-243750J0D01*
G01*
X139529750Y-96642000D01*
G75*
G02*
X139286000Y-96398250I0J243750D01*
G01*
X139286000Y-95485750D01*
G75*
G02*
X139529750Y-95242000I243750J0D01*
G01*
X140017250Y-95242000D01*
G75*
G02*
X140261000Y-95485750I0J-243750D01*
G01*
G37*
G36*
G01*
X131360000Y-80806250D02*
X131360000Y-79893750D01*
G75*
G02*
X131603750Y-79650000I243750J0D01*
G01*
X132091250Y-79650000D01*
G75*
G02*
X132335000Y-79893750I0J-243750D01*
G01*
X132335000Y-80806250D01*
G75*
G02*
X132091250Y-81050000I-243750J0D01*
G01*
X131603750Y-81050000D01*
G75*
G02*
X131360000Y-80806250I0J243750D01*
G01*
G37*
G36*
G01*
X129485000Y-80806250D02*
X129485000Y-79893750D01*
G75*
G02*
X129728750Y-79650000I243750J0D01*
G01*
X130216250Y-79650000D01*
G75*
G02*
X130460000Y-79893750I0J-243750D01*
G01*
X130460000Y-80806250D01*
G75*
G02*
X130216250Y-81050000I-243750J0D01*
G01*
X129728750Y-81050000D01*
G75*
G02*
X129485000Y-80806250I0J243750D01*
G01*
G37*
G36*
G01*
X146560750Y-71809800D02*
X147473250Y-71809800D01*
G75*
G02*
X147717000Y-72053550I0J-243750D01*
G01*
X147717000Y-72541050D01*
G75*
G02*
X147473250Y-72784800I-243750J0D01*
G01*
X146560750Y-72784800D01*
G75*
G02*
X146317000Y-72541050I0J243750D01*
G01*
X146317000Y-72053550D01*
G75*
G02*
X146560750Y-71809800I243750J0D01*
G01*
G37*
G36*
G01*
X146560750Y-69934800D02*
X147473250Y-69934800D01*
G75*
G02*
X147717000Y-70178550I0J-243750D01*
G01*
X147717000Y-70666050D01*
G75*
G02*
X147473250Y-70909800I-243750J0D01*
G01*
X146560750Y-70909800D01*
G75*
G02*
X146317000Y-70666050I0J243750D01*
G01*
X146317000Y-70178550D01*
G75*
G02*
X146560750Y-69934800I243750J0D01*
G01*
G37*
G36*
G01*
X146560750Y-76808500D02*
X147473250Y-76808500D01*
G75*
G02*
X147717000Y-77052250I0J-243750D01*
G01*
X147717000Y-77539750D01*
G75*
G02*
X147473250Y-77783500I-243750J0D01*
G01*
X146560750Y-77783500D01*
G75*
G02*
X146317000Y-77539750I0J243750D01*
G01*
X146317000Y-77052250D01*
G75*
G02*
X146560750Y-76808500I243750J0D01*
G01*
G37*
G36*
G01*
X146560750Y-74933500D02*
X147473250Y-74933500D01*
G75*
G02*
X147717000Y-75177250I0J-243750D01*
G01*
X147717000Y-75664750D01*
G75*
G02*
X147473250Y-75908500I-243750J0D01*
G01*
X146560750Y-75908500D01*
G75*
G02*
X146317000Y-75664750I0J243750D01*
G01*
X146317000Y-75177250D01*
G75*
G02*
X146560750Y-74933500I243750J0D01*
G01*
G37*
G36*
G01*
X146560750Y-81987600D02*
X147473250Y-81987600D01*
G75*
G02*
X147717000Y-82231350I0J-243750D01*
G01*
X147717000Y-82718850D01*
G75*
G02*
X147473250Y-82962600I-243750J0D01*
G01*
X146560750Y-82962600D01*
G75*
G02*
X146317000Y-82718850I0J243750D01*
G01*
X146317000Y-82231350D01*
G75*
G02*
X146560750Y-81987600I243750J0D01*
G01*
G37*
G36*
G01*
X146560750Y-80112600D02*
X147473250Y-80112600D01*
G75*
G02*
X147717000Y-80356350I0J-243750D01*
G01*
X147717000Y-80843850D01*
G75*
G02*
X147473250Y-81087600I-243750J0D01*
G01*
X146560750Y-81087600D01*
G75*
G02*
X146317000Y-80843850I0J243750D01*
G01*
X146317000Y-80356350D01*
G75*
G02*
X146560750Y-80112600I243750J0D01*
G01*
G37*
G36*
G01*
X146560750Y-86826300D02*
X147473250Y-86826300D01*
G75*
G02*
X147717000Y-87070050I0J-243750D01*
G01*
X147717000Y-87557550D01*
G75*
G02*
X147473250Y-87801300I-243750J0D01*
G01*
X146560750Y-87801300D01*
G75*
G02*
X146317000Y-87557550I0J243750D01*
G01*
X146317000Y-87070050D01*
G75*
G02*
X146560750Y-86826300I243750J0D01*
G01*
G37*
G36*
G01*
X146560750Y-84951300D02*
X147473250Y-84951300D01*
G75*
G02*
X147717000Y-85195050I0J-243750D01*
G01*
X147717000Y-85682550D01*
G75*
G02*
X147473250Y-85926300I-243750J0D01*
G01*
X146560750Y-85926300D01*
G75*
G02*
X146317000Y-85682550I0J243750D01*
G01*
X146317000Y-85195050D01*
G75*
G02*
X146560750Y-84951300I243750J0D01*
G01*
G37*
G36*
G01*
X146560750Y-92198400D02*
X147473250Y-92198400D01*
G75*
G02*
X147717000Y-92442150I0J-243750D01*
G01*
X147717000Y-92929650D01*
G75*
G02*
X147473250Y-93173400I-243750J0D01*
G01*
X146560750Y-93173400D01*
G75*
G02*
X146317000Y-92929650I0J243750D01*
G01*
X146317000Y-92442150D01*
G75*
G02*
X146560750Y-92198400I243750J0D01*
G01*
G37*
G36*
G01*
X146560750Y-90323400D02*
X147473250Y-90323400D01*
G75*
G02*
X147717000Y-90567150I0J-243750D01*
G01*
X147717000Y-91054650D01*
G75*
G02*
X147473250Y-91298400I-243750J0D01*
G01*
X146560750Y-91298400D01*
G75*
G02*
X146317000Y-91054650I0J243750D01*
G01*
X146317000Y-90567150D01*
G75*
G02*
X146560750Y-90323400I243750J0D01*
G01*
G37*
G36*
G01*
X146560750Y-97317000D02*
X147473250Y-97317000D01*
G75*
G02*
X147717000Y-97560750I0J-243750D01*
G01*
X147717000Y-98048250D01*
G75*
G02*
X147473250Y-98292000I-243750J0D01*
G01*
X146560750Y-98292000D01*
G75*
G02*
X146317000Y-98048250I0J243750D01*
G01*
X146317000Y-97560750D01*
G75*
G02*
X146560750Y-97317000I243750J0D01*
G01*
G37*
G36*
G01*
X146560750Y-95442000D02*
X147473250Y-95442000D01*
G75*
G02*
X147717000Y-95685750I0J-243750D01*
G01*
X147717000Y-96173250D01*
G75*
G02*
X147473250Y-96417000I-243750J0D01*
G01*
X146560750Y-96417000D01*
G75*
G02*
X146317000Y-96173250I0J243750D01*
G01*
X146317000Y-95685750D01*
G75*
G02*
X146560750Y-95442000I243750J0D01*
G01*
G37*
G36*
G01*
X132295000Y-82103750D02*
X132295000Y-83016250D01*
G75*
G02*
X132051250Y-83260000I-243750J0D01*
G01*
X131563750Y-83260000D01*
G75*
G02*
X131320000Y-83016250I0J243750D01*
G01*
X131320000Y-82103750D01*
G75*
G02*
X131563750Y-81860000I243750J0D01*
G01*
X132051250Y-81860000D01*
G75*
G02*
X132295000Y-82103750I0J-243750D01*
G01*
G37*
G36*
G01*
X130420000Y-82103750D02*
X130420000Y-83016250D01*
G75*
G02*
X130176250Y-83260000I-243750J0D01*
G01*
X129688750Y-83260000D01*
G75*
G02*
X129445000Y-83016250I0J243750D01*
G01*
X129445000Y-82103750D01*
G75*
G02*
X129688750Y-81860000I243750J0D01*
G01*
X130176250Y-81860000D01*
G75*
G02*
X130420000Y-82103750I0J-243750D01*
G01*
G37*
G36*
G01*
X129845750Y-104209000D02*
X130758250Y-104209000D01*
G75*
G02*
X131002000Y-104452750I0J-243750D01*
G01*
X131002000Y-104940250D01*
G75*
G02*
X130758250Y-105184000I-243750J0D01*
G01*
X129845750Y-105184000D01*
G75*
G02*
X129602000Y-104940250I0J243750D01*
G01*
X129602000Y-104452750D01*
G75*
G02*
X129845750Y-104209000I243750J0D01*
G01*
G37*
G36*
G01*
X129845750Y-102334000D02*
X130758250Y-102334000D01*
G75*
G02*
X131002000Y-102577750I0J-243750D01*
G01*
X131002000Y-103065250D01*
G75*
G02*
X130758250Y-103309000I-243750J0D01*
G01*
X129845750Y-103309000D01*
G75*
G02*
X129602000Y-103065250I0J243750D01*
G01*
X129602000Y-102577750D01*
G75*
G02*
X129845750Y-102334000I243750J0D01*
G01*
G37*
G36*
G01*
X164018750Y-85789500D02*
X164931250Y-85789500D01*
G75*
G02*
X165175000Y-86033250I0J-243750D01*
G01*
X165175000Y-86520750D01*
G75*
G02*
X164931250Y-86764500I-243750J0D01*
G01*
X164018750Y-86764500D01*
G75*
G02*
X163775000Y-86520750I0J243750D01*
G01*
X163775000Y-86033250D01*
G75*
G02*
X164018750Y-85789500I243750J0D01*
G01*
G37*
G36*
G01*
X164018750Y-83914500D02*
X164931250Y-83914500D01*
G75*
G02*
X165175000Y-84158250I0J-243750D01*
G01*
X165175000Y-84645750D01*
G75*
G02*
X164931250Y-84889500I-243750J0D01*
G01*
X164018750Y-84889500D01*
G75*
G02*
X163775000Y-84645750I0J243750D01*
G01*
X163775000Y-84158250D01*
G75*
G02*
X164018750Y-83914500I243750J0D01*
G01*
G37*
G36*
G01*
X164931250Y-74736800D02*
X164018750Y-74736800D01*
G75*
G02*
X163775000Y-74493050I0J243750D01*
G01*
X163775000Y-74005550D01*
G75*
G02*
X164018750Y-73761800I243750J0D01*
G01*
X164931250Y-73761800D01*
G75*
G02*
X165175000Y-74005550I0J-243750D01*
G01*
X165175000Y-74493050D01*
G75*
G02*
X164931250Y-74736800I-243750J0D01*
G01*
G37*
G36*
G01*
X164931250Y-76611800D02*
X164018750Y-76611800D01*
G75*
G02*
X163775000Y-76368050I0J243750D01*
G01*
X163775000Y-75880550D01*
G75*
G02*
X164018750Y-75636800I243750J0D01*
G01*
X164931250Y-75636800D01*
G75*
G02*
X165175000Y-75880550I0J-243750D01*
G01*
X165175000Y-76368050D01*
G75*
G02*
X164931250Y-76611800I-243750J0D01*
G01*
G37*
G36*
G01*
X164931250Y-69660400D02*
X164018750Y-69660400D01*
G75*
G02*
X163775000Y-69416650I0J243750D01*
G01*
X163775000Y-68929150D01*
G75*
G02*
X164018750Y-68685400I243750J0D01*
G01*
X164931250Y-68685400D01*
G75*
G02*
X165175000Y-68929150I0J-243750D01*
G01*
X165175000Y-69416650D01*
G75*
G02*
X164931250Y-69660400I-243750J0D01*
G01*
G37*
G36*
G01*
X164931250Y-71535400D02*
X164018750Y-71535400D01*
G75*
G02*
X163775000Y-71291650I0J243750D01*
G01*
X163775000Y-70804150D01*
G75*
G02*
X164018750Y-70560400I243750J0D01*
G01*
X164931250Y-70560400D01*
G75*
G02*
X165175000Y-70804150I0J-243750D01*
G01*
X165175000Y-71291650D01*
G75*
G02*
X164931250Y-71535400I-243750J0D01*
G01*
G37*
G36*
G01*
X164018750Y-101019000D02*
X164931250Y-101019000D01*
G75*
G02*
X165175000Y-101262750I0J-243750D01*
G01*
X165175000Y-101750250D01*
G75*
G02*
X164931250Y-101994000I-243750J0D01*
G01*
X164018750Y-101994000D01*
G75*
G02*
X163775000Y-101750250I0J243750D01*
G01*
X163775000Y-101262750D01*
G75*
G02*
X164018750Y-101019000I243750J0D01*
G01*
G37*
G36*
G01*
X164018750Y-99144000D02*
X164931250Y-99144000D01*
G75*
G02*
X165175000Y-99387750I0J-243750D01*
G01*
X165175000Y-99875250D01*
G75*
G02*
X164931250Y-100119000I-243750J0D01*
G01*
X164018750Y-100119000D01*
G75*
G02*
X163775000Y-99875250I0J243750D01*
G01*
X163775000Y-99387750D01*
G75*
G02*
X164018750Y-99144000I243750J0D01*
G01*
G37*
G36*
G01*
X164018750Y-106095000D02*
X164931250Y-106095000D01*
G75*
G02*
X165175000Y-106338750I0J-243750D01*
G01*
X165175000Y-106826250D01*
G75*
G02*
X164931250Y-107070000I-243750J0D01*
G01*
X164018750Y-107070000D01*
G75*
G02*
X163775000Y-106826250I0J243750D01*
G01*
X163775000Y-106338750D01*
G75*
G02*
X164018750Y-106095000I243750J0D01*
G01*
G37*
G36*
G01*
X164018750Y-104220000D02*
X164931250Y-104220000D01*
G75*
G02*
X165175000Y-104463750I0J-243750D01*
G01*
X165175000Y-104951250D01*
G75*
G02*
X164931250Y-105195000I-243750J0D01*
G01*
X164018750Y-105195000D01*
G75*
G02*
X163775000Y-104951250I0J243750D01*
G01*
X163775000Y-104463750D01*
G75*
G02*
X164018750Y-104220000I243750J0D01*
G01*
G37*
G36*
G01*
X164018750Y-80713100D02*
X164931250Y-80713100D01*
G75*
G02*
X165175000Y-80956850I0J-243750D01*
G01*
X165175000Y-81444350D01*
G75*
G02*
X164931250Y-81688100I-243750J0D01*
G01*
X164018750Y-81688100D01*
G75*
G02*
X163775000Y-81444350I0J243750D01*
G01*
X163775000Y-80956850D01*
G75*
G02*
X164018750Y-80713100I243750J0D01*
G01*
G37*
G36*
G01*
X164018750Y-78838100D02*
X164931250Y-78838100D01*
G75*
G02*
X165175000Y-79081850I0J-243750D01*
G01*
X165175000Y-79569350D01*
G75*
G02*
X164931250Y-79813100I-243750J0D01*
G01*
X164018750Y-79813100D01*
G75*
G02*
X163775000Y-79569350I0J243750D01*
G01*
X163775000Y-79081850D01*
G75*
G02*
X164018750Y-78838100I243750J0D01*
G01*
G37*
G36*
G01*
X164018750Y-90865900D02*
X164931250Y-90865900D01*
G75*
G02*
X165175000Y-91109650I0J-243750D01*
G01*
X165175000Y-91597150D01*
G75*
G02*
X164931250Y-91840900I-243750J0D01*
G01*
X164018750Y-91840900D01*
G75*
G02*
X163775000Y-91597150I0J243750D01*
G01*
X163775000Y-91109650D01*
G75*
G02*
X164018750Y-90865900I243750J0D01*
G01*
G37*
G36*
G01*
X164018750Y-88990900D02*
X164931250Y-88990900D01*
G75*
G02*
X165175000Y-89234650I0J-243750D01*
G01*
X165175000Y-89722150D01*
G75*
G02*
X164931250Y-89965900I-243750J0D01*
G01*
X164018750Y-89965900D01*
G75*
G02*
X163775000Y-89722150I0J243750D01*
G01*
X163775000Y-89234650D01*
G75*
G02*
X164018750Y-88990900I243750J0D01*
G01*
G37*
G36*
G01*
X164018750Y-95942300D02*
X164931250Y-95942300D01*
G75*
G02*
X165175000Y-96186050I0J-243750D01*
G01*
X165175000Y-96673550D01*
G75*
G02*
X164931250Y-96917300I-243750J0D01*
G01*
X164018750Y-96917300D01*
G75*
G02*
X163775000Y-96673550I0J243750D01*
G01*
X163775000Y-96186050D01*
G75*
G02*
X164018750Y-95942300I243750J0D01*
G01*
G37*
G36*
G01*
X164018750Y-94067300D02*
X164931250Y-94067300D01*
G75*
G02*
X165175000Y-94311050I0J-243750D01*
G01*
X165175000Y-94798550D01*
G75*
G02*
X164931250Y-95042300I-243750J0D01*
G01*
X164018750Y-95042300D01*
G75*
G02*
X163775000Y-94798550I0J243750D01*
G01*
X163775000Y-94311050D01*
G75*
G02*
X164018750Y-94067300I243750J0D01*
G01*
G37*
G36*
G01*
X172156250Y-100026000D02*
X171243750Y-100026000D01*
G75*
G02*
X171000000Y-99782250I0J243750D01*
G01*
X171000000Y-99294750D01*
G75*
G02*
X171243750Y-99051000I243750J0D01*
G01*
X172156250Y-99051000D01*
G75*
G02*
X172400000Y-99294750I0J-243750D01*
G01*
X172400000Y-99782250D01*
G75*
G02*
X172156250Y-100026000I-243750J0D01*
G01*
G37*
G36*
G01*
X172156250Y-101901000D02*
X171243750Y-101901000D01*
G75*
G02*
X171000000Y-101657250I0J243750D01*
G01*
X171000000Y-101169750D01*
G75*
G02*
X171243750Y-100926000I243750J0D01*
G01*
X172156250Y-100926000D01*
G75*
G02*
X172400000Y-101169750I0J-243750D01*
G01*
X172400000Y-101657250D01*
G75*
G02*
X172156250Y-101901000I-243750J0D01*
G01*
G37*
G36*
G01*
X172156250Y-105095000D02*
X171243750Y-105095000D01*
G75*
G02*
X171000000Y-104851250I0J243750D01*
G01*
X171000000Y-104363750D01*
G75*
G02*
X171243750Y-104120000I243750J0D01*
G01*
X172156250Y-104120000D01*
G75*
G02*
X172400000Y-104363750I0J-243750D01*
G01*
X172400000Y-104851250D01*
G75*
G02*
X172156250Y-105095000I-243750J0D01*
G01*
G37*
G36*
G01*
X172156250Y-106970000D02*
X171243750Y-106970000D01*
G75*
G02*
X171000000Y-106726250I0J243750D01*
G01*
X171000000Y-106238750D01*
G75*
G02*
X171243750Y-105995000I243750J0D01*
G01*
X172156250Y-105995000D01*
G75*
G02*
X172400000Y-106238750I0J-243750D01*
G01*
X172400000Y-106726250D01*
G75*
G02*
X172156250Y-106970000I-243750J0D01*
G01*
G37*
G36*
G01*
X149050000Y-45256250D02*
X149050000Y-44343750D01*
G75*
G02*
X149293750Y-44100000I243750J0D01*
G01*
X149781250Y-44100000D01*
G75*
G02*
X150025000Y-44343750I0J-243750D01*
G01*
X150025000Y-45256250D01*
G75*
G02*
X149781250Y-45500000I-243750J0D01*
G01*
X149293750Y-45500000D01*
G75*
G02*
X149050000Y-45256250I0J243750D01*
G01*
G37*
G36*
G01*
X147175000Y-45256250D02*
X147175000Y-44343750D01*
G75*
G02*
X147418750Y-44100000I243750J0D01*
G01*
X147906250Y-44100000D01*
G75*
G02*
X148150000Y-44343750I0J-243750D01*
G01*
X148150000Y-45256250D01*
G75*
G02*
X147906250Y-45500000I-243750J0D01*
G01*
X147418750Y-45500000D01*
G75*
G02*
X147175000Y-45256250I0J243750D01*
G01*
G37*
G36*
G01*
X62710000Y-86248750D02*
X62710000Y-87161250D01*
G75*
G02*
X62466250Y-87405000I-243750J0D01*
G01*
X61978750Y-87405000D01*
G75*
G02*
X61735000Y-87161250I0J243750D01*
G01*
X61735000Y-86248750D01*
G75*
G02*
X61978750Y-86005000I243750J0D01*
G01*
X62466250Y-86005000D01*
G75*
G02*
X62710000Y-86248750I0J-243750D01*
G01*
G37*
G36*
G01*
X64585000Y-86248750D02*
X64585000Y-87161250D01*
G75*
G02*
X64341250Y-87405000I-243750J0D01*
G01*
X63853750Y-87405000D01*
G75*
G02*
X63610000Y-87161250I0J243750D01*
G01*
X63610000Y-86248750D01*
G75*
G02*
X63853750Y-86005000I243750J0D01*
G01*
X64341250Y-86005000D01*
G75*
G02*
X64585000Y-86248750I0J-243750D01*
G01*
G37*
G36*
G01*
X62880000Y-91368750D02*
X62880000Y-92281250D01*
G75*
G02*
X62636250Y-92525000I-243750J0D01*
G01*
X62148750Y-92525000D01*
G75*
G02*
X61905000Y-92281250I0J243750D01*
G01*
X61905000Y-91368750D01*
G75*
G02*
X62148750Y-91125000I243750J0D01*
G01*
X62636250Y-91125000D01*
G75*
G02*
X62880000Y-91368750I0J-243750D01*
G01*
G37*
G36*
G01*
X64755000Y-91368750D02*
X64755000Y-92281250D01*
G75*
G02*
X64511250Y-92525000I-243750J0D01*
G01*
X64023750Y-92525000D01*
G75*
G02*
X63780000Y-92281250I0J243750D01*
G01*
X63780000Y-91368750D01*
G75*
G02*
X64023750Y-91125000I243750J0D01*
G01*
X64511250Y-91125000D01*
G75*
G02*
X64755000Y-91368750I0J-243750D01*
G01*
G37*
G36*
G01*
X55080000Y-87031250D02*
X55080000Y-86118750D01*
G75*
G02*
X55323750Y-85875000I243750J0D01*
G01*
X55811250Y-85875000D01*
G75*
G02*
X56055000Y-86118750I0J-243750D01*
G01*
X56055000Y-87031250D01*
G75*
G02*
X55811250Y-87275000I-243750J0D01*
G01*
X55323750Y-87275000D01*
G75*
G02*
X55080000Y-87031250I0J243750D01*
G01*
G37*
G36*
G01*
X53205000Y-87031250D02*
X53205000Y-86118750D01*
G75*
G02*
X53448750Y-85875000I243750J0D01*
G01*
X53936250Y-85875000D01*
G75*
G02*
X54180000Y-86118750I0J-243750D01*
G01*
X54180000Y-87031250D01*
G75*
G02*
X53936250Y-87275000I-243750J0D01*
G01*
X53448750Y-87275000D01*
G75*
G02*
X53205000Y-87031250I0J243750D01*
G01*
G37*
G36*
G01*
X55080000Y-92131250D02*
X55080000Y-91218750D01*
G75*
G02*
X55323750Y-90975000I243750J0D01*
G01*
X55811250Y-90975000D01*
G75*
G02*
X56055000Y-91218750I0J-243750D01*
G01*
X56055000Y-92131250D01*
G75*
G02*
X55811250Y-92375000I-243750J0D01*
G01*
X55323750Y-92375000D01*
G75*
G02*
X55080000Y-92131250I0J243750D01*
G01*
G37*
G36*
G01*
X53205000Y-92131250D02*
X53205000Y-91218750D01*
G75*
G02*
X53448750Y-90975000I243750J0D01*
G01*
X53936250Y-90975000D01*
G75*
G02*
X54180000Y-91218750I0J-243750D01*
G01*
X54180000Y-92131250D01*
G75*
G02*
X53936250Y-92375000I-243750J0D01*
G01*
X53448750Y-92375000D01*
G75*
G02*
X53205000Y-92131250I0J243750D01*
G01*
G37*
D26*
X63627000Y-38260000D03*
X62357000Y-38260000D03*
X61087000Y-38260000D03*
X59817000Y-38260000D03*
X59817000Y-32860000D03*
X61087000Y-32860000D03*
X62357000Y-32860000D03*
X63627000Y-32860000D03*
D27*
X143790000Y-43140000D03*
X143790000Y-42190000D03*
X143790000Y-44090000D03*
X141590000Y-44090000D03*
X141590000Y-43140000D03*
X141590000Y-42190000D03*
G36*
G01*
X62780000Y-63373750D02*
X62780000Y-64286250D01*
G75*
G02*
X62536250Y-64530000I-243750J0D01*
G01*
X62048750Y-64530000D01*
G75*
G02*
X61805000Y-64286250I0J243750D01*
G01*
X61805000Y-63373750D01*
G75*
G02*
X62048750Y-63130000I243750J0D01*
G01*
X62536250Y-63130000D01*
G75*
G02*
X62780000Y-63373750I0J-243750D01*
G01*
G37*
G36*
G01*
X64655000Y-63373750D02*
X64655000Y-64286250D01*
G75*
G02*
X64411250Y-64530000I-243750J0D01*
G01*
X63923750Y-64530000D01*
G75*
G02*
X63680000Y-64286250I0J243750D01*
G01*
X63680000Y-63373750D01*
G75*
G02*
X63923750Y-63130000I243750J0D01*
G01*
X64411250Y-63130000D01*
G75*
G02*
X64655000Y-63373750I0J-243750D01*
G01*
G37*
G36*
G01*
X91925000Y-50194333D02*
X91925000Y-48344333D01*
G75*
G02*
X92175000Y-48094333I250000J0D01*
G01*
X93175000Y-48094333D01*
G75*
G02*
X93425000Y-48344333I0J-250000D01*
G01*
X93425000Y-50194333D01*
G75*
G02*
X93175000Y-50444333I-250000J0D01*
G01*
X92175000Y-50444333D01*
G75*
G02*
X91925000Y-50194333I0J250000D01*
G01*
G37*
G36*
G01*
X88675000Y-50194333D02*
X88675000Y-48344333D01*
G75*
G02*
X88925000Y-48094333I250000J0D01*
G01*
X89925000Y-48094333D01*
G75*
G02*
X90175000Y-48344333I0J-250000D01*
G01*
X90175000Y-50194333D01*
G75*
G02*
X89925000Y-50444333I-250000J0D01*
G01*
X88925000Y-50444333D01*
G75*
G02*
X88675000Y-50194333I0J250000D01*
G01*
G37*
G36*
G01*
X91925000Y-45629000D02*
X91925000Y-43779000D01*
G75*
G02*
X92175000Y-43529000I250000J0D01*
G01*
X93175000Y-43529000D01*
G75*
G02*
X93425000Y-43779000I0J-250000D01*
G01*
X93425000Y-45629000D01*
G75*
G02*
X93175000Y-45879000I-250000J0D01*
G01*
X92175000Y-45879000D01*
G75*
G02*
X91925000Y-45629000I0J250000D01*
G01*
G37*
G36*
G01*
X88675000Y-45629000D02*
X88675000Y-43779000D01*
G75*
G02*
X88925000Y-43529000I250000J0D01*
G01*
X89925000Y-43529000D01*
G75*
G02*
X90175000Y-43779000I0J-250000D01*
G01*
X90175000Y-45629000D01*
G75*
G02*
X89925000Y-45879000I-250000J0D01*
G01*
X88925000Y-45879000D01*
G75*
G02*
X88675000Y-45629000I0J250000D01*
G01*
G37*
G36*
G01*
X91925000Y-54759666D02*
X91925000Y-52909666D01*
G75*
G02*
X92175000Y-52659666I250000J0D01*
G01*
X93175000Y-52659666D01*
G75*
G02*
X93425000Y-52909666I0J-250000D01*
G01*
X93425000Y-54759666D01*
G75*
G02*
X93175000Y-55009666I-250000J0D01*
G01*
X92175000Y-55009666D01*
G75*
G02*
X91925000Y-54759666I0J250000D01*
G01*
G37*
G36*
G01*
X88675000Y-54759666D02*
X88675000Y-52909666D01*
G75*
G02*
X88925000Y-52659666I250000J0D01*
G01*
X89925000Y-52659666D01*
G75*
G02*
X90175000Y-52909666I0J-250000D01*
G01*
X90175000Y-54759666D01*
G75*
G02*
X89925000Y-55009666I-250000J0D01*
G01*
X88925000Y-55009666D01*
G75*
G02*
X88675000Y-54759666I0J250000D01*
G01*
G37*
G36*
G01*
X91925000Y-59325000D02*
X91925000Y-57475000D01*
G75*
G02*
X92175000Y-57225000I250000J0D01*
G01*
X93175000Y-57225000D01*
G75*
G02*
X93425000Y-57475000I0J-250000D01*
G01*
X93425000Y-59325000D01*
G75*
G02*
X93175000Y-59575000I-250000J0D01*
G01*
X92175000Y-59575000D01*
G75*
G02*
X91925000Y-59325000I0J250000D01*
G01*
G37*
G36*
G01*
X88675000Y-59325000D02*
X88675000Y-57475000D01*
G75*
G02*
X88925000Y-57225000I250000J0D01*
G01*
X89925000Y-57225000D01*
G75*
G02*
X90175000Y-57475000I0J-250000D01*
G01*
X90175000Y-59325000D01*
G75*
G02*
X89925000Y-59575000I-250000J0D01*
G01*
X88925000Y-59575000D01*
G75*
G02*
X88675000Y-59325000I0J250000D01*
G01*
G37*
G36*
G01*
X70062050Y-101796000D02*
X70974550Y-101796000D01*
G75*
G02*
X71218300Y-102039750I0J-243750D01*
G01*
X71218300Y-102527250D01*
G75*
G02*
X70974550Y-102771000I-243750J0D01*
G01*
X70062050Y-102771000D01*
G75*
G02*
X69818300Y-102527250I0J243750D01*
G01*
X69818300Y-102039750D01*
G75*
G02*
X70062050Y-101796000I243750J0D01*
G01*
G37*
G36*
G01*
X70062050Y-99921000D02*
X70974550Y-99921000D01*
G75*
G02*
X71218300Y-100164750I0J-243750D01*
G01*
X71218300Y-100652250D01*
G75*
G02*
X70974550Y-100896000I-243750J0D01*
G01*
X70062050Y-100896000D01*
G75*
G02*
X69818300Y-100652250I0J243750D01*
G01*
X69818300Y-100164750D01*
G75*
G02*
X70062050Y-99921000I243750J0D01*
G01*
G37*
G36*
G01*
X57484650Y-101754000D02*
X58397150Y-101754000D01*
G75*
G02*
X58640900Y-101997750I0J-243750D01*
G01*
X58640900Y-102485250D01*
G75*
G02*
X58397150Y-102729000I-243750J0D01*
G01*
X57484650Y-102729000D01*
G75*
G02*
X57240900Y-102485250I0J243750D01*
G01*
X57240900Y-101997750D01*
G75*
G02*
X57484650Y-101754000I243750J0D01*
G01*
G37*
G36*
G01*
X57484650Y-99879000D02*
X58397150Y-99879000D01*
G75*
G02*
X58640900Y-100122750I0J-243750D01*
G01*
X58640900Y-100610250D01*
G75*
G02*
X58397150Y-100854000I-243750J0D01*
G01*
X57484650Y-100854000D01*
G75*
G02*
X57240900Y-100610250I0J243750D01*
G01*
X57240900Y-100122750D01*
G75*
G02*
X57484650Y-99879000I243750J0D01*
G01*
G37*
G36*
G01*
X66243750Y-101750000D02*
X67156250Y-101750000D01*
G75*
G02*
X67400000Y-101993750I0J-243750D01*
G01*
X67400000Y-102481250D01*
G75*
G02*
X67156250Y-102725000I-243750J0D01*
G01*
X66243750Y-102725000D01*
G75*
G02*
X66000000Y-102481250I0J243750D01*
G01*
X66000000Y-101993750D01*
G75*
G02*
X66243750Y-101750000I243750J0D01*
G01*
G37*
G36*
G01*
X66243750Y-99875000D02*
X67156250Y-99875000D01*
G75*
G02*
X67400000Y-100118750I0J-243750D01*
G01*
X67400000Y-100606250D01*
G75*
G02*
X67156250Y-100850000I-243750J0D01*
G01*
X66243750Y-100850000D01*
G75*
G02*
X66000000Y-100606250I0J243750D01*
G01*
X66000000Y-100118750D01*
G75*
G02*
X66243750Y-99875000I243750J0D01*
G01*
G37*
G36*
G01*
X54277350Y-71458400D02*
X53364850Y-71458400D01*
G75*
G02*
X53121100Y-71214650I0J243750D01*
G01*
X53121100Y-70727150D01*
G75*
G02*
X53364850Y-70483400I243750J0D01*
G01*
X54277350Y-70483400D01*
G75*
G02*
X54521100Y-70727150I0J-243750D01*
G01*
X54521100Y-71214650D01*
G75*
G02*
X54277350Y-71458400I-243750J0D01*
G01*
G37*
G36*
G01*
X54277350Y-73333400D02*
X53364850Y-73333400D01*
G75*
G02*
X53121100Y-73089650I0J243750D01*
G01*
X53121100Y-72602150D01*
G75*
G02*
X53364850Y-72358400I243750J0D01*
G01*
X54277350Y-72358400D01*
G75*
G02*
X54521100Y-72602150I0J-243750D01*
G01*
X54521100Y-73089650D01*
G75*
G02*
X54277350Y-73333400I-243750J0D01*
G01*
G37*
G36*
G01*
X67003750Y-108150000D02*
X67916250Y-108150000D01*
G75*
G02*
X68160000Y-108393750I0J-243750D01*
G01*
X68160000Y-108881250D01*
G75*
G02*
X67916250Y-109125000I-243750J0D01*
G01*
X67003750Y-109125000D01*
G75*
G02*
X66760000Y-108881250I0J243750D01*
G01*
X66760000Y-108393750D01*
G75*
G02*
X67003750Y-108150000I243750J0D01*
G01*
G37*
G36*
G01*
X67003750Y-106275000D02*
X67916250Y-106275000D01*
G75*
G02*
X68160000Y-106518750I0J-243750D01*
G01*
X68160000Y-107006250D01*
G75*
G02*
X67916250Y-107250000I-243750J0D01*
G01*
X67003750Y-107250000D01*
G75*
G02*
X66760000Y-107006250I0J243750D01*
G01*
X66760000Y-106518750D01*
G75*
G02*
X67003750Y-106275000I243750J0D01*
G01*
G37*
G36*
G01*
X59183750Y-110250000D02*
X60096250Y-110250000D01*
G75*
G02*
X60340000Y-110493750I0J-243750D01*
G01*
X60340000Y-110981250D01*
G75*
G02*
X60096250Y-111225000I-243750J0D01*
G01*
X59183750Y-111225000D01*
G75*
G02*
X58940000Y-110981250I0J243750D01*
G01*
X58940000Y-110493750D01*
G75*
G02*
X59183750Y-110250000I243750J0D01*
G01*
G37*
G36*
G01*
X59183750Y-108375000D02*
X60096250Y-108375000D01*
G75*
G02*
X60340000Y-108618750I0J-243750D01*
G01*
X60340000Y-109106250D01*
G75*
G02*
X60096250Y-109350000I-243750J0D01*
G01*
X59183750Y-109350000D01*
G75*
G02*
X58940000Y-109106250I0J243750D01*
G01*
X58940000Y-108618750D01*
G75*
G02*
X59183750Y-108375000I243750J0D01*
G01*
G37*
G36*
G01*
X56603750Y-110250000D02*
X57516250Y-110250000D01*
G75*
G02*
X57760000Y-110493750I0J-243750D01*
G01*
X57760000Y-110981250D01*
G75*
G02*
X57516250Y-111225000I-243750J0D01*
G01*
X56603750Y-111225000D01*
G75*
G02*
X56360000Y-110981250I0J243750D01*
G01*
X56360000Y-110493750D01*
G75*
G02*
X56603750Y-110250000I243750J0D01*
G01*
G37*
G36*
G01*
X56603750Y-108375000D02*
X57516250Y-108375000D01*
G75*
G02*
X57760000Y-108618750I0J-243750D01*
G01*
X57760000Y-109106250D01*
G75*
G02*
X57516250Y-109350000I-243750J0D01*
G01*
X56603750Y-109350000D01*
G75*
G02*
X56360000Y-109106250I0J243750D01*
G01*
X56360000Y-108618750D01*
G75*
G02*
X56603750Y-108375000I243750J0D01*
G01*
G37*
G36*
G01*
X72543750Y-109050000D02*
X73456250Y-109050000D01*
G75*
G02*
X73700000Y-109293750I0J-243750D01*
G01*
X73700000Y-109781250D01*
G75*
G02*
X73456250Y-110025000I-243750J0D01*
G01*
X72543750Y-110025000D01*
G75*
G02*
X72300000Y-109781250I0J243750D01*
G01*
X72300000Y-109293750D01*
G75*
G02*
X72543750Y-109050000I243750J0D01*
G01*
G37*
G36*
G01*
X72543750Y-107175000D02*
X73456250Y-107175000D01*
G75*
G02*
X73700000Y-107418750I0J-243750D01*
G01*
X73700000Y-107906250D01*
G75*
G02*
X73456250Y-108150000I-243750J0D01*
G01*
X72543750Y-108150000D01*
G75*
G02*
X72300000Y-107906250I0J243750D01*
G01*
X72300000Y-107418750D01*
G75*
G02*
X72543750Y-107175000I243750J0D01*
G01*
G37*
G36*
G01*
X83094250Y-96380600D02*
X82181750Y-96380600D01*
G75*
G02*
X81938000Y-96136850I0J243750D01*
G01*
X81938000Y-95649350D01*
G75*
G02*
X82181750Y-95405600I243750J0D01*
G01*
X83094250Y-95405600D01*
G75*
G02*
X83338000Y-95649350I0J-243750D01*
G01*
X83338000Y-96136850D01*
G75*
G02*
X83094250Y-96380600I-243750J0D01*
G01*
G37*
G36*
G01*
X83094250Y-98255600D02*
X82181750Y-98255600D01*
G75*
G02*
X81938000Y-98011850I0J243750D01*
G01*
X81938000Y-97524350D01*
G75*
G02*
X82181750Y-97280600I243750J0D01*
G01*
X83094250Y-97280600D01*
G75*
G02*
X83338000Y-97524350I0J-243750D01*
G01*
X83338000Y-98011850D01*
G75*
G02*
X83094250Y-98255600I-243750J0D01*
G01*
G37*
G36*
G01*
X82086250Y-129445000D02*
X81173750Y-129445000D01*
G75*
G02*
X80930000Y-129201250I0J243750D01*
G01*
X80930000Y-128713750D01*
G75*
G02*
X81173750Y-128470000I243750J0D01*
G01*
X82086250Y-128470000D01*
G75*
G02*
X82330000Y-128713750I0J-243750D01*
G01*
X82330000Y-129201250D01*
G75*
G02*
X82086250Y-129445000I-243750J0D01*
G01*
G37*
G36*
G01*
X82086250Y-131320000D02*
X81173750Y-131320000D01*
G75*
G02*
X80930000Y-131076250I0J243750D01*
G01*
X80930000Y-130588750D01*
G75*
G02*
X81173750Y-130345000I243750J0D01*
G01*
X82086250Y-130345000D01*
G75*
G02*
X82330000Y-130588750I0J-243750D01*
G01*
X82330000Y-131076250D01*
G75*
G02*
X82086250Y-131320000I-243750J0D01*
G01*
G37*
G36*
G01*
X82111250Y-125670000D02*
X81198750Y-125670000D01*
G75*
G02*
X80955000Y-125426250I0J243750D01*
G01*
X80955000Y-124938750D01*
G75*
G02*
X81198750Y-124695000I243750J0D01*
G01*
X82111250Y-124695000D01*
G75*
G02*
X82355000Y-124938750I0J-243750D01*
G01*
X82355000Y-125426250D01*
G75*
G02*
X82111250Y-125670000I-243750J0D01*
G01*
G37*
G36*
G01*
X82111250Y-127545000D02*
X81198750Y-127545000D01*
G75*
G02*
X80955000Y-127301250I0J243750D01*
G01*
X80955000Y-126813750D01*
G75*
G02*
X81198750Y-126570000I243750J0D01*
G01*
X82111250Y-126570000D01*
G75*
G02*
X82355000Y-126813750I0J-243750D01*
G01*
X82355000Y-127301250D01*
G75*
G02*
X82111250Y-127545000I-243750J0D01*
G01*
G37*
G36*
G01*
X82086250Y-121995000D02*
X81173750Y-121995000D01*
G75*
G02*
X80930000Y-121751250I0J243750D01*
G01*
X80930000Y-121263750D01*
G75*
G02*
X81173750Y-121020000I243750J0D01*
G01*
X82086250Y-121020000D01*
G75*
G02*
X82330000Y-121263750I0J-243750D01*
G01*
X82330000Y-121751250D01*
G75*
G02*
X82086250Y-121995000I-243750J0D01*
G01*
G37*
G36*
G01*
X82086250Y-123870000D02*
X81173750Y-123870000D01*
G75*
G02*
X80930000Y-123626250I0J243750D01*
G01*
X80930000Y-123138750D01*
G75*
G02*
X81173750Y-122895000I243750J0D01*
G01*
X82086250Y-122895000D01*
G75*
G02*
X82330000Y-123138750I0J-243750D01*
G01*
X82330000Y-123626250D01*
G75*
G02*
X82086250Y-123870000I-243750J0D01*
G01*
G37*
G36*
G01*
X81098750Y-118920000D02*
X82011250Y-118920000D01*
G75*
G02*
X82255000Y-119163750I0J-243750D01*
G01*
X82255000Y-119651250D01*
G75*
G02*
X82011250Y-119895000I-243750J0D01*
G01*
X81098750Y-119895000D01*
G75*
G02*
X80855000Y-119651250I0J243750D01*
G01*
X80855000Y-119163750D01*
G75*
G02*
X81098750Y-118920000I243750J0D01*
G01*
G37*
G36*
G01*
X81098750Y-117045000D02*
X82011250Y-117045000D01*
G75*
G02*
X82255000Y-117288750I0J-243750D01*
G01*
X82255000Y-117776250D01*
G75*
G02*
X82011250Y-118020000I-243750J0D01*
G01*
X81098750Y-118020000D01*
G75*
G02*
X80855000Y-117776250I0J243750D01*
G01*
X80855000Y-117288750D01*
G75*
G02*
X81098750Y-117045000I243750J0D01*
G01*
G37*
G36*
G01*
X60776250Y-120460000D02*
X59863750Y-120460000D01*
G75*
G02*
X59620000Y-120216250I0J243750D01*
G01*
X59620000Y-119728750D01*
G75*
G02*
X59863750Y-119485000I243750J0D01*
G01*
X60776250Y-119485000D01*
G75*
G02*
X61020000Y-119728750I0J-243750D01*
G01*
X61020000Y-120216250D01*
G75*
G02*
X60776250Y-120460000I-243750J0D01*
G01*
G37*
G36*
G01*
X60776250Y-122335000D02*
X59863750Y-122335000D01*
G75*
G02*
X59620000Y-122091250I0J243750D01*
G01*
X59620000Y-121603750D01*
G75*
G02*
X59863750Y-121360000I243750J0D01*
G01*
X60776250Y-121360000D01*
G75*
G02*
X61020000Y-121603750I0J-243750D01*
G01*
X61020000Y-122091250D01*
G75*
G02*
X60776250Y-122335000I-243750J0D01*
G01*
G37*
G36*
G01*
X57576250Y-120490000D02*
X56663750Y-120490000D01*
G75*
G02*
X56420000Y-120246250I0J243750D01*
G01*
X56420000Y-119758750D01*
G75*
G02*
X56663750Y-119515000I243750J0D01*
G01*
X57576250Y-119515000D01*
G75*
G02*
X57820000Y-119758750I0J-243750D01*
G01*
X57820000Y-120246250D01*
G75*
G02*
X57576250Y-120490000I-243750J0D01*
G01*
G37*
G36*
G01*
X57576250Y-122365000D02*
X56663750Y-122365000D01*
G75*
G02*
X56420000Y-122121250I0J243750D01*
G01*
X56420000Y-121633750D01*
G75*
G02*
X56663750Y-121390000I243750J0D01*
G01*
X57576250Y-121390000D01*
G75*
G02*
X57820000Y-121633750I0J-243750D01*
G01*
X57820000Y-122121250D01*
G75*
G02*
X57576250Y-122365000I-243750J0D01*
G01*
G37*
G36*
G01*
X54090000Y-117126250D02*
X54090000Y-116213750D01*
G75*
G02*
X54333750Y-115970000I243750J0D01*
G01*
X54821250Y-115970000D01*
G75*
G02*
X55065000Y-116213750I0J-243750D01*
G01*
X55065000Y-117126250D01*
G75*
G02*
X54821250Y-117370000I-243750J0D01*
G01*
X54333750Y-117370000D01*
G75*
G02*
X54090000Y-117126250I0J243750D01*
G01*
G37*
G36*
G01*
X52215000Y-117126250D02*
X52215000Y-116213750D01*
G75*
G02*
X52458750Y-115970000I243750J0D01*
G01*
X52946250Y-115970000D01*
G75*
G02*
X53190000Y-116213750I0J-243750D01*
G01*
X53190000Y-117126250D01*
G75*
G02*
X52946250Y-117370000I-243750J0D01*
G01*
X52458750Y-117370000D01*
G75*
G02*
X52215000Y-117126250I0J243750D01*
G01*
G37*
G36*
G01*
X72653750Y-121510000D02*
X73566250Y-121510000D01*
G75*
G02*
X73810000Y-121753750I0J-243750D01*
G01*
X73810000Y-122241250D01*
G75*
G02*
X73566250Y-122485000I-243750J0D01*
G01*
X72653750Y-122485000D01*
G75*
G02*
X72410000Y-122241250I0J243750D01*
G01*
X72410000Y-121753750D01*
G75*
G02*
X72653750Y-121510000I243750J0D01*
G01*
G37*
G36*
G01*
X72653750Y-119635000D02*
X73566250Y-119635000D01*
G75*
G02*
X73810000Y-119878750I0J-243750D01*
G01*
X73810000Y-120366250D01*
G75*
G02*
X73566250Y-120610000I-243750J0D01*
G01*
X72653750Y-120610000D01*
G75*
G02*
X72410000Y-120366250I0J243750D01*
G01*
X72410000Y-119878750D01*
G75*
G02*
X72653750Y-119635000I243750J0D01*
G01*
G37*
G36*
G01*
X54003750Y-110240000D02*
X54916250Y-110240000D01*
G75*
G02*
X55160000Y-110483750I0J-243750D01*
G01*
X55160000Y-110971250D01*
G75*
G02*
X54916250Y-111215000I-243750J0D01*
G01*
X54003750Y-111215000D01*
G75*
G02*
X53760000Y-110971250I0J243750D01*
G01*
X53760000Y-110483750D01*
G75*
G02*
X54003750Y-110240000I243750J0D01*
G01*
G37*
G36*
G01*
X54003750Y-108365000D02*
X54916250Y-108365000D01*
G75*
G02*
X55160000Y-108608750I0J-243750D01*
G01*
X55160000Y-109096250D01*
G75*
G02*
X54916250Y-109340000I-243750J0D01*
G01*
X54003750Y-109340000D01*
G75*
G02*
X53760000Y-109096250I0J243750D01*
G01*
X53760000Y-108608750D01*
G75*
G02*
X54003750Y-108365000I243750J0D01*
G01*
G37*
G36*
G01*
X84598750Y-130295000D02*
X85511250Y-130295000D01*
G75*
G02*
X85755000Y-130538750I0J-243750D01*
G01*
X85755000Y-131026250D01*
G75*
G02*
X85511250Y-131270000I-243750J0D01*
G01*
X84598750Y-131270000D01*
G75*
G02*
X84355000Y-131026250I0J243750D01*
G01*
X84355000Y-130538750D01*
G75*
G02*
X84598750Y-130295000I243750J0D01*
G01*
G37*
G36*
G01*
X84598750Y-128420000D02*
X85511250Y-128420000D01*
G75*
G02*
X85755000Y-128663750I0J-243750D01*
G01*
X85755000Y-129151250D01*
G75*
G02*
X85511250Y-129395000I-243750J0D01*
G01*
X84598750Y-129395000D01*
G75*
G02*
X84355000Y-129151250I0J243750D01*
G01*
X84355000Y-128663750D01*
G75*
G02*
X84598750Y-128420000I243750J0D01*
G01*
G37*
G36*
G01*
X83094250Y-92797300D02*
X82181750Y-92797300D01*
G75*
G02*
X81938000Y-92553550I0J243750D01*
G01*
X81938000Y-92066050D01*
G75*
G02*
X82181750Y-91822300I243750J0D01*
G01*
X83094250Y-91822300D01*
G75*
G02*
X83338000Y-92066050I0J-243750D01*
G01*
X83338000Y-92553550D01*
G75*
G02*
X83094250Y-92797300I-243750J0D01*
G01*
G37*
G36*
G01*
X83094250Y-94672300D02*
X82181750Y-94672300D01*
G75*
G02*
X81938000Y-94428550I0J243750D01*
G01*
X81938000Y-93941050D01*
G75*
G02*
X82181750Y-93697300I243750J0D01*
G01*
X83094250Y-93697300D01*
G75*
G02*
X83338000Y-93941050I0J-243750D01*
G01*
X83338000Y-94428550D01*
G75*
G02*
X83094250Y-94672300I-243750J0D01*
G01*
G37*
G36*
G01*
X83094250Y-89213900D02*
X82181750Y-89213900D01*
G75*
G02*
X81938000Y-88970150I0J243750D01*
G01*
X81938000Y-88482650D01*
G75*
G02*
X82181750Y-88238900I243750J0D01*
G01*
X83094250Y-88238900D01*
G75*
G02*
X83338000Y-88482650I0J-243750D01*
G01*
X83338000Y-88970150D01*
G75*
G02*
X83094250Y-89213900I-243750J0D01*
G01*
G37*
G36*
G01*
X83094250Y-91088900D02*
X82181750Y-91088900D01*
G75*
G02*
X81938000Y-90845150I0J243750D01*
G01*
X81938000Y-90357650D01*
G75*
G02*
X82181750Y-90113900I243750J0D01*
G01*
X83094250Y-90113900D01*
G75*
G02*
X83338000Y-90357650I0J-243750D01*
G01*
X83338000Y-90845150D01*
G75*
G02*
X83094250Y-91088900I-243750J0D01*
G01*
G37*
G36*
G01*
X86586250Y-85720000D02*
X85673750Y-85720000D01*
G75*
G02*
X85430000Y-85476250I0J243750D01*
G01*
X85430000Y-84988750D01*
G75*
G02*
X85673750Y-84745000I243750J0D01*
G01*
X86586250Y-84745000D01*
G75*
G02*
X86830000Y-84988750I0J-243750D01*
G01*
X86830000Y-85476250D01*
G75*
G02*
X86586250Y-85720000I-243750J0D01*
G01*
G37*
G36*
G01*
X86586250Y-87595000D02*
X85673750Y-87595000D01*
G75*
G02*
X85430000Y-87351250I0J243750D01*
G01*
X85430000Y-86863750D01*
G75*
G02*
X85673750Y-86620000I243750J0D01*
G01*
X86586250Y-86620000D01*
G75*
G02*
X86830000Y-86863750I0J-243750D01*
G01*
X86830000Y-87351250D01*
G75*
G02*
X86586250Y-87595000I-243750J0D01*
G01*
G37*
G36*
G01*
X86694250Y-97045600D02*
X85781750Y-97045600D01*
G75*
G02*
X85538000Y-96801850I0J243750D01*
G01*
X85538000Y-96314350D01*
G75*
G02*
X85781750Y-96070600I243750J0D01*
G01*
X86694250Y-96070600D01*
G75*
G02*
X86938000Y-96314350I0J-243750D01*
G01*
X86938000Y-96801850D01*
G75*
G02*
X86694250Y-97045600I-243750J0D01*
G01*
G37*
G36*
G01*
X86694250Y-98920600D02*
X85781750Y-98920600D01*
G75*
G02*
X85538000Y-98676850I0J243750D01*
G01*
X85538000Y-98189350D01*
G75*
G02*
X85781750Y-97945600I243750J0D01*
G01*
X86694250Y-97945600D01*
G75*
G02*
X86938000Y-98189350I0J-243750D01*
G01*
X86938000Y-98676850D01*
G75*
G02*
X86694250Y-98920600I-243750J0D01*
G01*
G37*
G36*
G01*
X84623750Y-126520000D02*
X85536250Y-126520000D01*
G75*
G02*
X85780000Y-126763750I0J-243750D01*
G01*
X85780000Y-127251250D01*
G75*
G02*
X85536250Y-127495000I-243750J0D01*
G01*
X84623750Y-127495000D01*
G75*
G02*
X84380000Y-127251250I0J243750D01*
G01*
X84380000Y-126763750D01*
G75*
G02*
X84623750Y-126520000I243750J0D01*
G01*
G37*
G36*
G01*
X84623750Y-124645000D02*
X85536250Y-124645000D01*
G75*
G02*
X85780000Y-124888750I0J-243750D01*
G01*
X85780000Y-125376250D01*
G75*
G02*
X85536250Y-125620000I-243750J0D01*
G01*
X84623750Y-125620000D01*
G75*
G02*
X84380000Y-125376250I0J243750D01*
G01*
X84380000Y-124888750D01*
G75*
G02*
X84623750Y-124645000I243750J0D01*
G01*
G37*
G36*
G01*
X84598750Y-122745000D02*
X85511250Y-122745000D01*
G75*
G02*
X85755000Y-122988750I0J-243750D01*
G01*
X85755000Y-123476250D01*
G75*
G02*
X85511250Y-123720000I-243750J0D01*
G01*
X84598750Y-123720000D01*
G75*
G02*
X84355000Y-123476250I0J243750D01*
G01*
X84355000Y-122988750D01*
G75*
G02*
X84598750Y-122745000I243750J0D01*
G01*
G37*
G36*
G01*
X84598750Y-120870000D02*
X85511250Y-120870000D01*
G75*
G02*
X85755000Y-121113750I0J-243750D01*
G01*
X85755000Y-121601250D01*
G75*
G02*
X85511250Y-121845000I-243750J0D01*
G01*
X84598750Y-121845000D01*
G75*
G02*
X84355000Y-121601250I0J243750D01*
G01*
X84355000Y-121113750D01*
G75*
G02*
X84598750Y-120870000I243750J0D01*
G01*
G37*
G36*
G01*
X54956250Y-120510000D02*
X54043750Y-120510000D01*
G75*
G02*
X53800000Y-120266250I0J243750D01*
G01*
X53800000Y-119778750D01*
G75*
G02*
X54043750Y-119535000I243750J0D01*
G01*
X54956250Y-119535000D01*
G75*
G02*
X55200000Y-119778750I0J-243750D01*
G01*
X55200000Y-120266250D01*
G75*
G02*
X54956250Y-120510000I-243750J0D01*
G01*
G37*
G36*
G01*
X54956250Y-122385000D02*
X54043750Y-122385000D01*
G75*
G02*
X53800000Y-122141250I0J243750D01*
G01*
X53800000Y-121653750D01*
G75*
G02*
X54043750Y-121410000I243750J0D01*
G01*
X54956250Y-121410000D01*
G75*
G02*
X55200000Y-121653750I0J-243750D01*
G01*
X55200000Y-122141250D01*
G75*
G02*
X54956250Y-122385000I-243750J0D01*
G01*
G37*
G36*
G01*
X84573750Y-118970000D02*
X85486250Y-118970000D01*
G75*
G02*
X85730000Y-119213750I0J-243750D01*
G01*
X85730000Y-119701250D01*
G75*
G02*
X85486250Y-119945000I-243750J0D01*
G01*
X84573750Y-119945000D01*
G75*
G02*
X84330000Y-119701250I0J243750D01*
G01*
X84330000Y-119213750D01*
G75*
G02*
X84573750Y-118970000I243750J0D01*
G01*
G37*
G36*
G01*
X84573750Y-117095000D02*
X85486250Y-117095000D01*
G75*
G02*
X85730000Y-117338750I0J-243750D01*
G01*
X85730000Y-117826250D01*
G75*
G02*
X85486250Y-118070000I-243750J0D01*
G01*
X84573750Y-118070000D01*
G75*
G02*
X84330000Y-117826250I0J243750D01*
G01*
X84330000Y-117338750D01*
G75*
G02*
X84573750Y-117095000I243750J0D01*
G01*
G37*
G36*
G01*
X109590000Y-57653750D02*
X109590000Y-58566250D01*
G75*
G02*
X109346250Y-58810000I-243750J0D01*
G01*
X108858750Y-58810000D01*
G75*
G02*
X108615000Y-58566250I0J243750D01*
G01*
X108615000Y-57653750D01*
G75*
G02*
X108858750Y-57410000I243750J0D01*
G01*
X109346250Y-57410000D01*
G75*
G02*
X109590000Y-57653750I0J-243750D01*
G01*
G37*
G36*
G01*
X111465000Y-57653750D02*
X111465000Y-58566250D01*
G75*
G02*
X111221250Y-58810000I-243750J0D01*
G01*
X110733750Y-58810000D01*
G75*
G02*
X110490000Y-58566250I0J243750D01*
G01*
X110490000Y-57653750D01*
G75*
G02*
X110733750Y-57410000I243750J0D01*
G01*
X111221250Y-57410000D01*
G75*
G02*
X111465000Y-57653750I0J-243750D01*
G01*
G37*
G36*
G01*
X148290000Y-66286250D02*
X148290000Y-65373750D01*
G75*
G02*
X148533750Y-65130000I243750J0D01*
G01*
X149021250Y-65130000D01*
G75*
G02*
X149265000Y-65373750I0J-243750D01*
G01*
X149265000Y-66286250D01*
G75*
G02*
X149021250Y-66530000I-243750J0D01*
G01*
X148533750Y-66530000D01*
G75*
G02*
X148290000Y-66286250I0J243750D01*
G01*
G37*
G36*
G01*
X146415000Y-66286250D02*
X146415000Y-65373750D01*
G75*
G02*
X146658750Y-65130000I243750J0D01*
G01*
X147146250Y-65130000D01*
G75*
G02*
X147390000Y-65373750I0J-243750D01*
G01*
X147390000Y-66286250D01*
G75*
G02*
X147146250Y-66530000I-243750J0D01*
G01*
X146658750Y-66530000D01*
G75*
G02*
X146415000Y-66286250I0J243750D01*
G01*
G37*
G36*
G01*
X155240000Y-66236250D02*
X155240000Y-65323750D01*
G75*
G02*
X155483750Y-65080000I243750J0D01*
G01*
X155971250Y-65080000D01*
G75*
G02*
X156215000Y-65323750I0J-243750D01*
G01*
X156215000Y-66236250D01*
G75*
G02*
X155971250Y-66480000I-243750J0D01*
G01*
X155483750Y-66480000D01*
G75*
G02*
X155240000Y-66236250I0J243750D01*
G01*
G37*
G36*
G01*
X153365000Y-66236250D02*
X153365000Y-65323750D01*
G75*
G02*
X153608750Y-65080000I243750J0D01*
G01*
X154096250Y-65080000D01*
G75*
G02*
X154340000Y-65323750I0J-243750D01*
G01*
X154340000Y-66236250D01*
G75*
G02*
X154096250Y-66480000I-243750J0D01*
G01*
X153608750Y-66480000D01*
G75*
G02*
X153365000Y-66236250I0J243750D01*
G01*
G37*
G36*
G01*
X110490000Y-50196250D02*
X110490000Y-49283750D01*
G75*
G02*
X110733750Y-49040000I243750J0D01*
G01*
X111221250Y-49040000D01*
G75*
G02*
X111465000Y-49283750I0J-243750D01*
G01*
X111465000Y-50196250D01*
G75*
G02*
X111221250Y-50440000I-243750J0D01*
G01*
X110733750Y-50440000D01*
G75*
G02*
X110490000Y-50196250I0J243750D01*
G01*
G37*
G36*
G01*
X108615000Y-50196250D02*
X108615000Y-49283750D01*
G75*
G02*
X108858750Y-49040000I243750J0D01*
G01*
X109346250Y-49040000D01*
G75*
G02*
X109590000Y-49283750I0J-243750D01*
G01*
X109590000Y-50196250D01*
G75*
G02*
X109346250Y-50440000I-243750J0D01*
G01*
X108858750Y-50440000D01*
G75*
G02*
X108615000Y-50196250I0J243750D01*
G01*
G37*
G36*
G01*
X148290000Y-60086250D02*
X148290000Y-59173750D01*
G75*
G02*
X148533750Y-58930000I243750J0D01*
G01*
X149021250Y-58930000D01*
G75*
G02*
X149265000Y-59173750I0J-243750D01*
G01*
X149265000Y-60086250D01*
G75*
G02*
X149021250Y-60330000I-243750J0D01*
G01*
X148533750Y-60330000D01*
G75*
G02*
X148290000Y-60086250I0J243750D01*
G01*
G37*
G36*
G01*
X146415000Y-60086250D02*
X146415000Y-59173750D01*
G75*
G02*
X146658750Y-58930000I243750J0D01*
G01*
X147146250Y-58930000D01*
G75*
G02*
X147390000Y-59173750I0J-243750D01*
G01*
X147390000Y-60086250D01*
G75*
G02*
X147146250Y-60330000I-243750J0D01*
G01*
X146658750Y-60330000D01*
G75*
G02*
X146415000Y-60086250I0J243750D01*
G01*
G37*
G36*
G01*
X148290000Y-63186250D02*
X148290000Y-62273750D01*
G75*
G02*
X148533750Y-62030000I243750J0D01*
G01*
X149021250Y-62030000D01*
G75*
G02*
X149265000Y-62273750I0J-243750D01*
G01*
X149265000Y-63186250D01*
G75*
G02*
X149021250Y-63430000I-243750J0D01*
G01*
X148533750Y-63430000D01*
G75*
G02*
X148290000Y-63186250I0J243750D01*
G01*
G37*
G36*
G01*
X146415000Y-63186250D02*
X146415000Y-62273750D01*
G75*
G02*
X146658750Y-62030000I243750J0D01*
G01*
X147146250Y-62030000D01*
G75*
G02*
X147390000Y-62273750I0J-243750D01*
G01*
X147390000Y-63186250D01*
G75*
G02*
X147146250Y-63430000I-243750J0D01*
G01*
X146658750Y-63430000D01*
G75*
G02*
X146415000Y-63186250I0J243750D01*
G01*
G37*
G36*
G01*
X155240000Y-60036250D02*
X155240000Y-59123750D01*
G75*
G02*
X155483750Y-58880000I243750J0D01*
G01*
X155971250Y-58880000D01*
G75*
G02*
X156215000Y-59123750I0J-243750D01*
G01*
X156215000Y-60036250D01*
G75*
G02*
X155971250Y-60280000I-243750J0D01*
G01*
X155483750Y-60280000D01*
G75*
G02*
X155240000Y-60036250I0J243750D01*
G01*
G37*
G36*
G01*
X153365000Y-60036250D02*
X153365000Y-59123750D01*
G75*
G02*
X153608750Y-58880000I243750J0D01*
G01*
X154096250Y-58880000D01*
G75*
G02*
X154340000Y-59123750I0J-243750D01*
G01*
X154340000Y-60036250D01*
G75*
G02*
X154096250Y-60280000I-243750J0D01*
G01*
X153608750Y-60280000D01*
G75*
G02*
X153365000Y-60036250I0J243750D01*
G01*
G37*
G36*
G01*
X155240000Y-63166250D02*
X155240000Y-62253750D01*
G75*
G02*
X155483750Y-62010000I243750J0D01*
G01*
X155971250Y-62010000D01*
G75*
G02*
X156215000Y-62253750I0J-243750D01*
G01*
X156215000Y-63166250D01*
G75*
G02*
X155971250Y-63410000I-243750J0D01*
G01*
X155483750Y-63410000D01*
G75*
G02*
X155240000Y-63166250I0J243750D01*
G01*
G37*
G36*
G01*
X153365000Y-63166250D02*
X153365000Y-62253750D01*
G75*
G02*
X153608750Y-62010000I243750J0D01*
G01*
X154096250Y-62010000D01*
G75*
G02*
X154340000Y-62253750I0J-243750D01*
G01*
X154340000Y-63166250D01*
G75*
G02*
X154096250Y-63410000I-243750J0D01*
G01*
X153608750Y-63410000D01*
G75*
G02*
X153365000Y-63166250I0J243750D01*
G01*
G37*
G36*
G01*
X45995000Y-80506250D02*
X45995000Y-81418750D01*
G75*
G02*
X45751250Y-81662500I-243750J0D01*
G01*
X45263750Y-81662500D01*
G75*
G02*
X45020000Y-81418750I0J243750D01*
G01*
X45020000Y-80506250D01*
G75*
G02*
X45263750Y-80262500I243750J0D01*
G01*
X45751250Y-80262500D01*
G75*
G02*
X45995000Y-80506250I0J-243750D01*
G01*
G37*
G36*
G01*
X47870000Y-80506250D02*
X47870000Y-81418750D01*
G75*
G02*
X47626250Y-81662500I-243750J0D01*
G01*
X47138750Y-81662500D01*
G75*
G02*
X46895000Y-81418750I0J243750D01*
G01*
X46895000Y-80506250D01*
G75*
G02*
X47138750Y-80262500I243750J0D01*
G01*
X47626250Y-80262500D01*
G75*
G02*
X47870000Y-80506250I0J-243750D01*
G01*
G37*
G36*
G01*
X85781750Y-94128900D02*
X86694250Y-94128900D01*
G75*
G02*
X86938000Y-94372650I0J-243750D01*
G01*
X86938000Y-94860150D01*
G75*
G02*
X86694250Y-95103900I-243750J0D01*
G01*
X85781750Y-95103900D01*
G75*
G02*
X85538000Y-94860150I0J243750D01*
G01*
X85538000Y-94372650D01*
G75*
G02*
X85781750Y-94128900I243750J0D01*
G01*
G37*
G36*
G01*
X85781750Y-92253900D02*
X86694250Y-92253900D01*
G75*
G02*
X86938000Y-92497650I0J-243750D01*
G01*
X86938000Y-92985150D01*
G75*
G02*
X86694250Y-93228900I-243750J0D01*
G01*
X85781750Y-93228900D01*
G75*
G02*
X85538000Y-92985150I0J243750D01*
G01*
X85538000Y-92497650D01*
G75*
G02*
X85781750Y-92253900I243750J0D01*
G01*
G37*
G36*
G01*
X85781750Y-90312300D02*
X86694250Y-90312300D01*
G75*
G02*
X86938000Y-90556050I0J-243750D01*
G01*
X86938000Y-91043550D01*
G75*
G02*
X86694250Y-91287300I-243750J0D01*
G01*
X85781750Y-91287300D01*
G75*
G02*
X85538000Y-91043550I0J243750D01*
G01*
X85538000Y-90556050D01*
G75*
G02*
X85781750Y-90312300I243750J0D01*
G01*
G37*
G36*
G01*
X85781750Y-88437300D02*
X86694250Y-88437300D01*
G75*
G02*
X86938000Y-88681050I0J-243750D01*
G01*
X86938000Y-89168550D01*
G75*
G02*
X86694250Y-89412300I-243750J0D01*
G01*
X85781750Y-89412300D01*
G75*
G02*
X85538000Y-89168550I0J243750D01*
G01*
X85538000Y-88681050D01*
G75*
G02*
X85781750Y-88437300I243750J0D01*
G01*
G37*
G36*
G01*
X82173750Y-84435000D02*
X83086250Y-84435000D01*
G75*
G02*
X83330000Y-84678750I0J-243750D01*
G01*
X83330000Y-85166250D01*
G75*
G02*
X83086250Y-85410000I-243750J0D01*
G01*
X82173750Y-85410000D01*
G75*
G02*
X81930000Y-85166250I0J243750D01*
G01*
X81930000Y-84678750D01*
G75*
G02*
X82173750Y-84435000I243750J0D01*
G01*
G37*
G36*
G01*
X82173750Y-86310000D02*
X83086250Y-86310000D01*
G75*
G02*
X83330000Y-86553750I0J-243750D01*
G01*
X83330000Y-87041250D01*
G75*
G02*
X83086250Y-87285000I-243750J0D01*
G01*
X82173750Y-87285000D01*
G75*
G02*
X81930000Y-87041250I0J243750D01*
G01*
X81930000Y-86553750D01*
G75*
G02*
X82173750Y-86310000I243750J0D01*
G01*
G37*
G36*
G01*
X138131250Y-125815000D02*
X137218750Y-125815000D01*
G75*
G02*
X136975000Y-125571250I0J243750D01*
G01*
X136975000Y-125083750D01*
G75*
G02*
X137218750Y-124840000I243750J0D01*
G01*
X138131250Y-124840000D01*
G75*
G02*
X138375000Y-125083750I0J-243750D01*
G01*
X138375000Y-125571250D01*
G75*
G02*
X138131250Y-125815000I-243750J0D01*
G01*
G37*
G36*
G01*
X138131250Y-127690000D02*
X137218750Y-127690000D01*
G75*
G02*
X136975000Y-127446250I0J243750D01*
G01*
X136975000Y-126958750D01*
G75*
G02*
X137218750Y-126715000I243750J0D01*
G01*
X138131250Y-126715000D01*
G75*
G02*
X138375000Y-126958750I0J-243750D01*
G01*
X138375000Y-127446250D01*
G75*
G02*
X138131250Y-127690000I-243750J0D01*
G01*
G37*
G36*
G01*
X152590000Y-131566250D02*
X152590000Y-130653750D01*
G75*
G02*
X152833750Y-130410000I243750J0D01*
G01*
X153321250Y-130410000D01*
G75*
G02*
X153565000Y-130653750I0J-243750D01*
G01*
X153565000Y-131566250D01*
G75*
G02*
X153321250Y-131810000I-243750J0D01*
G01*
X152833750Y-131810000D01*
G75*
G02*
X152590000Y-131566250I0J243750D01*
G01*
G37*
G36*
G01*
X150715000Y-131566250D02*
X150715000Y-130653750D01*
G75*
G02*
X150958750Y-130410000I243750J0D01*
G01*
X151446250Y-130410000D01*
G75*
G02*
X151690000Y-130653750I0J-243750D01*
G01*
X151690000Y-131566250D01*
G75*
G02*
X151446250Y-131810000I-243750J0D01*
G01*
X150958750Y-131810000D01*
G75*
G02*
X150715000Y-131566250I0J243750D01*
G01*
G37*
G36*
G01*
X152180000Y-143496250D02*
X152180000Y-142583750D01*
G75*
G02*
X152423750Y-142340000I243750J0D01*
G01*
X152911250Y-142340000D01*
G75*
G02*
X153155000Y-142583750I0J-243750D01*
G01*
X153155000Y-143496250D01*
G75*
G02*
X152911250Y-143740000I-243750J0D01*
G01*
X152423750Y-143740000D01*
G75*
G02*
X152180000Y-143496250I0J243750D01*
G01*
G37*
G36*
G01*
X150305000Y-143496250D02*
X150305000Y-142583750D01*
G75*
G02*
X150548750Y-142340000I243750J0D01*
G01*
X151036250Y-142340000D01*
G75*
G02*
X151280000Y-142583750I0J-243750D01*
G01*
X151280000Y-143496250D01*
G75*
G02*
X151036250Y-143740000I-243750J0D01*
G01*
X150548750Y-143740000D01*
G75*
G02*
X150305000Y-143496250I0J243750D01*
G01*
G37*
G36*
G01*
X133010000Y-143843750D02*
X133010000Y-144756250D01*
G75*
G02*
X132766250Y-145000000I-243750J0D01*
G01*
X132278750Y-145000000D01*
G75*
G02*
X132035000Y-144756250I0J243750D01*
G01*
X132035000Y-143843750D01*
G75*
G02*
X132278750Y-143600000I243750J0D01*
G01*
X132766250Y-143600000D01*
G75*
G02*
X133010000Y-143843750I0J-243750D01*
G01*
G37*
G36*
G01*
X134885000Y-143843750D02*
X134885000Y-144756250D01*
G75*
G02*
X134641250Y-145000000I-243750J0D01*
G01*
X134153750Y-145000000D01*
G75*
G02*
X133910000Y-144756250I0J243750D01*
G01*
X133910000Y-143843750D01*
G75*
G02*
X134153750Y-143600000I243750J0D01*
G01*
X134641250Y-143600000D01*
G75*
G02*
X134885000Y-143843750I0J-243750D01*
G01*
G37*
D28*
X103000000Y-148500000D03*
X103000000Y-149300000D03*
X103000000Y-150100000D03*
X103000000Y-150900000D03*
X103000000Y-151700000D03*
X103000000Y-152500000D03*
X103000000Y-153300000D03*
X103000000Y-154100000D03*
D29*
X101550000Y-155550000D03*
X100750000Y-155550000D03*
X99950000Y-155550000D03*
X99150000Y-155550000D03*
X98350000Y-155550000D03*
X97550000Y-155550000D03*
X96750000Y-155550000D03*
X95950000Y-155550000D03*
D28*
X94500000Y-154100000D03*
X94500000Y-153300000D03*
X94500000Y-152500000D03*
X94500000Y-151700000D03*
X94500000Y-150900000D03*
X94500000Y-150100000D03*
X94500000Y-149300000D03*
X94500000Y-148500000D03*
D29*
X95950000Y-147050000D03*
X96750000Y-147050000D03*
X97550000Y-147050000D03*
X98350000Y-147050000D03*
X99150000Y-147050000D03*
X99950000Y-147050000D03*
X100750000Y-147050000D03*
X101550000Y-147050000D03*
G36*
G01*
X74662050Y-101796000D02*
X75574550Y-101796000D01*
G75*
G02*
X75818300Y-102039750I0J-243750D01*
G01*
X75818300Y-102527250D01*
G75*
G02*
X75574550Y-102771000I-243750J0D01*
G01*
X74662050Y-102771000D01*
G75*
G02*
X74418300Y-102527250I0J243750D01*
G01*
X74418300Y-102039750D01*
G75*
G02*
X74662050Y-101796000I243750J0D01*
G01*
G37*
G36*
G01*
X74662050Y-99921000D02*
X75574550Y-99921000D01*
G75*
G02*
X75818300Y-100164750I0J-243750D01*
G01*
X75818300Y-100652250D01*
G75*
G02*
X75574550Y-100896000I-243750J0D01*
G01*
X74662050Y-100896000D01*
G75*
G02*
X74418300Y-100652250I0J243750D01*
G01*
X74418300Y-100164750D01*
G75*
G02*
X74662050Y-99921000I243750J0D01*
G01*
G37*
G36*
G01*
X72287050Y-101796000D02*
X73199550Y-101796000D01*
G75*
G02*
X73443300Y-102039750I0J-243750D01*
G01*
X73443300Y-102527250D01*
G75*
G02*
X73199550Y-102771000I-243750J0D01*
G01*
X72287050Y-102771000D01*
G75*
G02*
X72043300Y-102527250I0J243750D01*
G01*
X72043300Y-102039750D01*
G75*
G02*
X72287050Y-101796000I243750J0D01*
G01*
G37*
G36*
G01*
X72287050Y-99921000D02*
X73199550Y-99921000D01*
G75*
G02*
X73443300Y-100164750I0J-243750D01*
G01*
X73443300Y-100652250D01*
G75*
G02*
X73199550Y-100896000I-243750J0D01*
G01*
X72287050Y-100896000D01*
G75*
G02*
X72043300Y-100652250I0J243750D01*
G01*
X72043300Y-100164750D01*
G75*
G02*
X72287050Y-99921000I243750J0D01*
G01*
G37*
G36*
G01*
X52934750Y-101754000D02*
X53847250Y-101754000D01*
G75*
G02*
X54091000Y-101997750I0J-243750D01*
G01*
X54091000Y-102485250D01*
G75*
G02*
X53847250Y-102729000I-243750J0D01*
G01*
X52934750Y-102729000D01*
G75*
G02*
X52691000Y-102485250I0J243750D01*
G01*
X52691000Y-101997750D01*
G75*
G02*
X52934750Y-101754000I243750J0D01*
G01*
G37*
G36*
G01*
X52934750Y-99879000D02*
X53847250Y-99879000D01*
G75*
G02*
X54091000Y-100122750I0J-243750D01*
G01*
X54091000Y-100610250D01*
G75*
G02*
X53847250Y-100854000I-243750J0D01*
G01*
X52934750Y-100854000D01*
G75*
G02*
X52691000Y-100610250I0J243750D01*
G01*
X52691000Y-100122750D01*
G75*
G02*
X52934750Y-99879000I243750J0D01*
G01*
G37*
G36*
G01*
X55209650Y-101754000D02*
X56122150Y-101754000D01*
G75*
G02*
X56365900Y-101997750I0J-243750D01*
G01*
X56365900Y-102485250D01*
G75*
G02*
X56122150Y-102729000I-243750J0D01*
G01*
X55209650Y-102729000D01*
G75*
G02*
X54965900Y-102485250I0J243750D01*
G01*
X54965900Y-101997750D01*
G75*
G02*
X55209650Y-101754000I243750J0D01*
G01*
G37*
G36*
G01*
X55209650Y-99879000D02*
X56122150Y-99879000D01*
G75*
G02*
X56365900Y-100122750I0J-243750D01*
G01*
X56365900Y-100610250D01*
G75*
G02*
X56122150Y-100854000I-243750J0D01*
G01*
X55209650Y-100854000D01*
G75*
G02*
X54965900Y-100610250I0J243750D01*
G01*
X54965900Y-100122750D01*
G75*
G02*
X55209650Y-99879000I243750J0D01*
G01*
G37*
G36*
G01*
X61693750Y-101750000D02*
X62606250Y-101750000D01*
G75*
G02*
X62850000Y-101993750I0J-243750D01*
G01*
X62850000Y-102481250D01*
G75*
G02*
X62606250Y-102725000I-243750J0D01*
G01*
X61693750Y-102725000D01*
G75*
G02*
X61450000Y-102481250I0J243750D01*
G01*
X61450000Y-101993750D01*
G75*
G02*
X61693750Y-101750000I243750J0D01*
G01*
G37*
G36*
G01*
X61693750Y-99875000D02*
X62606250Y-99875000D01*
G75*
G02*
X62850000Y-100118750I0J-243750D01*
G01*
X62850000Y-100606250D01*
G75*
G02*
X62606250Y-100850000I-243750J0D01*
G01*
X61693750Y-100850000D01*
G75*
G02*
X61450000Y-100606250I0J243750D01*
G01*
X61450000Y-100118750D01*
G75*
G02*
X61693750Y-99875000I243750J0D01*
G01*
G37*
G36*
G01*
X63968750Y-101750000D02*
X64881250Y-101750000D01*
G75*
G02*
X65125000Y-101993750I0J-243750D01*
G01*
X65125000Y-102481250D01*
G75*
G02*
X64881250Y-102725000I-243750J0D01*
G01*
X63968750Y-102725000D01*
G75*
G02*
X63725000Y-102481250I0J243750D01*
G01*
X63725000Y-101993750D01*
G75*
G02*
X63968750Y-101750000I243750J0D01*
G01*
G37*
G36*
G01*
X63968750Y-99875000D02*
X64881250Y-99875000D01*
G75*
G02*
X65125000Y-100118750I0J-243750D01*
G01*
X65125000Y-100606250D01*
G75*
G02*
X64881250Y-100850000I-243750J0D01*
G01*
X63968750Y-100850000D01*
G75*
G02*
X63725000Y-100606250I0J243750D01*
G01*
X63725000Y-100118750D01*
G75*
G02*
X63968750Y-99875000I243750J0D01*
G01*
G37*
G36*
G01*
X50907350Y-71425900D02*
X49994850Y-71425900D01*
G75*
G02*
X49751100Y-71182150I0J243750D01*
G01*
X49751100Y-70694650D01*
G75*
G02*
X49994850Y-70450900I243750J0D01*
G01*
X50907350Y-70450900D01*
G75*
G02*
X51151100Y-70694650I0J-243750D01*
G01*
X51151100Y-71182150D01*
G75*
G02*
X50907350Y-71425900I-243750J0D01*
G01*
G37*
G36*
G01*
X50907350Y-73300900D02*
X49994850Y-73300900D01*
G75*
G02*
X49751100Y-73057150I0J243750D01*
G01*
X49751100Y-72569650D01*
G75*
G02*
X49994850Y-72325900I243750J0D01*
G01*
X50907350Y-72325900D01*
G75*
G02*
X51151100Y-72569650I0J-243750D01*
G01*
X51151100Y-73057150D01*
G75*
G02*
X50907350Y-73300900I-243750J0D01*
G01*
G37*
G36*
G01*
X47236250Y-71450000D02*
X46323750Y-71450000D01*
G75*
G02*
X46080000Y-71206250I0J243750D01*
G01*
X46080000Y-70718750D01*
G75*
G02*
X46323750Y-70475000I243750J0D01*
G01*
X47236250Y-70475000D01*
G75*
G02*
X47480000Y-70718750I0J-243750D01*
G01*
X47480000Y-71206250D01*
G75*
G02*
X47236250Y-71450000I-243750J0D01*
G01*
G37*
G36*
G01*
X47236250Y-73325000D02*
X46323750Y-73325000D01*
G75*
G02*
X46080000Y-73081250I0J243750D01*
G01*
X46080000Y-72593750D01*
G75*
G02*
X46323750Y-72350000I243750J0D01*
G01*
X47236250Y-72350000D01*
G75*
G02*
X47480000Y-72593750I0J-243750D01*
G01*
X47480000Y-73081250D01*
G75*
G02*
X47236250Y-73325000I-243750J0D01*
G01*
G37*
G36*
G01*
X45995000Y-77899950D02*
X45995000Y-78812450D01*
G75*
G02*
X45751250Y-79056200I-243750J0D01*
G01*
X45263750Y-79056200D01*
G75*
G02*
X45020000Y-78812450I0J243750D01*
G01*
X45020000Y-77899950D01*
G75*
G02*
X45263750Y-77656200I243750J0D01*
G01*
X45751250Y-77656200D01*
G75*
G02*
X45995000Y-77899950I0J-243750D01*
G01*
G37*
G36*
G01*
X47870000Y-77899950D02*
X47870000Y-78812450D01*
G75*
G02*
X47626250Y-79056200I-243750J0D01*
G01*
X47138750Y-79056200D01*
G75*
G02*
X46895000Y-78812450I0J243750D01*
G01*
X46895000Y-77899950D01*
G75*
G02*
X47138750Y-77656200I243750J0D01*
G01*
X47626250Y-77656200D01*
G75*
G02*
X47870000Y-77899950I0J-243750D01*
G01*
G37*
G36*
G01*
X45995000Y-75293750D02*
X45995000Y-76206250D01*
G75*
G02*
X45751250Y-76450000I-243750J0D01*
G01*
X45263750Y-76450000D01*
G75*
G02*
X45020000Y-76206250I0J243750D01*
G01*
X45020000Y-75293750D01*
G75*
G02*
X45263750Y-75050000I243750J0D01*
G01*
X45751250Y-75050000D01*
G75*
G02*
X45995000Y-75293750I0J-243750D01*
G01*
G37*
G36*
G01*
X47870000Y-75293750D02*
X47870000Y-76206250D01*
G75*
G02*
X47626250Y-76450000I-243750J0D01*
G01*
X47138750Y-76450000D01*
G75*
G02*
X46895000Y-76206250I0J243750D01*
G01*
X46895000Y-75293750D01*
G75*
G02*
X47138750Y-75050000I243750J0D01*
G01*
X47626250Y-75050000D01*
G75*
G02*
X47870000Y-75293750I0J-243750D01*
G01*
G37*
D30*
X90700000Y-143380000D03*
X92900000Y-143380000D03*
X92900000Y-145080000D03*
X90700000Y-145080000D03*
D26*
X26835000Y-157885000D03*
X28105000Y-157885000D03*
X29375000Y-157885000D03*
X30645000Y-157885000D03*
X30645000Y-163285000D03*
X29375000Y-163285000D03*
X28105000Y-163285000D03*
X26835000Y-163285000D03*
D30*
X69620000Y-142110000D03*
X71820000Y-142110000D03*
X71820000Y-143810000D03*
X69620000Y-143810000D03*
G36*
G01*
X126746250Y-154220000D02*
X125833750Y-154220000D01*
G75*
G02*
X125590000Y-153976250I0J243750D01*
G01*
X125590000Y-153488750D01*
G75*
G02*
X125833750Y-153245000I243750J0D01*
G01*
X126746250Y-153245000D01*
G75*
G02*
X126990000Y-153488750I0J-243750D01*
G01*
X126990000Y-153976250D01*
G75*
G02*
X126746250Y-154220000I-243750J0D01*
G01*
G37*
G36*
G01*
X126746250Y-156095000D02*
X125833750Y-156095000D01*
G75*
G02*
X125590000Y-155851250I0J243750D01*
G01*
X125590000Y-155363750D01*
G75*
G02*
X125833750Y-155120000I243750J0D01*
G01*
X126746250Y-155120000D01*
G75*
G02*
X126990000Y-155363750I0J-243750D01*
G01*
X126990000Y-155851250D01*
G75*
G02*
X126746250Y-156095000I-243750J0D01*
G01*
G37*
G36*
G01*
X87853750Y-165250000D02*
X88766250Y-165250000D01*
G75*
G02*
X89010000Y-165493750I0J-243750D01*
G01*
X89010000Y-165981250D01*
G75*
G02*
X88766250Y-166225000I-243750J0D01*
G01*
X87853750Y-166225000D01*
G75*
G02*
X87610000Y-165981250I0J243750D01*
G01*
X87610000Y-165493750D01*
G75*
G02*
X87853750Y-165250000I243750J0D01*
G01*
G37*
G36*
G01*
X87853750Y-163375000D02*
X88766250Y-163375000D01*
G75*
G02*
X89010000Y-163618750I0J-243750D01*
G01*
X89010000Y-164106250D01*
G75*
G02*
X88766250Y-164350000I-243750J0D01*
G01*
X87853750Y-164350000D01*
G75*
G02*
X87610000Y-164106250I0J243750D01*
G01*
X87610000Y-163618750D01*
G75*
G02*
X87853750Y-163375000I243750J0D01*
G01*
G37*
G36*
G01*
X99343750Y-161010000D02*
X100256250Y-161010000D01*
G75*
G02*
X100500000Y-161253750I0J-243750D01*
G01*
X100500000Y-161741250D01*
G75*
G02*
X100256250Y-161985000I-243750J0D01*
G01*
X99343750Y-161985000D01*
G75*
G02*
X99100000Y-161741250I0J243750D01*
G01*
X99100000Y-161253750D01*
G75*
G02*
X99343750Y-161010000I243750J0D01*
G01*
G37*
G36*
G01*
X99343750Y-159135000D02*
X100256250Y-159135000D01*
G75*
G02*
X100500000Y-159378750I0J-243750D01*
G01*
X100500000Y-159866250D01*
G75*
G02*
X100256250Y-160110000I-243750J0D01*
G01*
X99343750Y-160110000D01*
G75*
G02*
X99100000Y-159866250I0J243750D01*
G01*
X99100000Y-159378750D01*
G75*
G02*
X99343750Y-159135000I243750J0D01*
G01*
G37*
G36*
G01*
X90343750Y-165250000D02*
X91256250Y-165250000D01*
G75*
G02*
X91500000Y-165493750I0J-243750D01*
G01*
X91500000Y-165981250D01*
G75*
G02*
X91256250Y-166225000I-243750J0D01*
G01*
X90343750Y-166225000D01*
G75*
G02*
X90100000Y-165981250I0J243750D01*
G01*
X90100000Y-165493750D01*
G75*
G02*
X90343750Y-165250000I243750J0D01*
G01*
G37*
G36*
G01*
X90343750Y-163375000D02*
X91256250Y-163375000D01*
G75*
G02*
X91500000Y-163618750I0J-243750D01*
G01*
X91500000Y-164106250D01*
G75*
G02*
X91256250Y-164350000I-243750J0D01*
G01*
X90343750Y-164350000D01*
G75*
G02*
X90100000Y-164106250I0J243750D01*
G01*
X90100000Y-163618750D01*
G75*
G02*
X90343750Y-163375000I243750J0D01*
G01*
G37*
G36*
G01*
X98090000Y-144216250D02*
X98090000Y-143303750D01*
G75*
G02*
X98333750Y-143060000I243750J0D01*
G01*
X98821250Y-143060000D01*
G75*
G02*
X99065000Y-143303750I0J-243750D01*
G01*
X99065000Y-144216250D01*
G75*
G02*
X98821250Y-144460000I-243750J0D01*
G01*
X98333750Y-144460000D01*
G75*
G02*
X98090000Y-144216250I0J243750D01*
G01*
G37*
G36*
G01*
X96215000Y-144216250D02*
X96215000Y-143303750D01*
G75*
G02*
X96458750Y-143060000I243750J0D01*
G01*
X96946250Y-143060000D01*
G75*
G02*
X97190000Y-143303750I0J-243750D01*
G01*
X97190000Y-144216250D01*
G75*
G02*
X96946250Y-144460000I-243750J0D01*
G01*
X96458750Y-144460000D01*
G75*
G02*
X96215000Y-144216250I0J243750D01*
G01*
G37*
G36*
G01*
X91530000Y-159326250D02*
X91530000Y-158413750D01*
G75*
G02*
X91773750Y-158170000I243750J0D01*
G01*
X92261250Y-158170000D01*
G75*
G02*
X92505000Y-158413750I0J-243750D01*
G01*
X92505000Y-159326250D01*
G75*
G02*
X92261250Y-159570000I-243750J0D01*
G01*
X91773750Y-159570000D01*
G75*
G02*
X91530000Y-159326250I0J243750D01*
G01*
G37*
G36*
G01*
X89655000Y-159326250D02*
X89655000Y-158413750D01*
G75*
G02*
X89898750Y-158170000I243750J0D01*
G01*
X90386250Y-158170000D01*
G75*
G02*
X90630000Y-158413750I0J-243750D01*
G01*
X90630000Y-159326250D01*
G75*
G02*
X90386250Y-159570000I-243750J0D01*
G01*
X89898750Y-159570000D01*
G75*
G02*
X89655000Y-159326250I0J243750D01*
G01*
G37*
G36*
G01*
X128493750Y-155100000D02*
X129406250Y-155100000D01*
G75*
G02*
X129650000Y-155343750I0J-243750D01*
G01*
X129650000Y-155831250D01*
G75*
G02*
X129406250Y-156075000I-243750J0D01*
G01*
X128493750Y-156075000D01*
G75*
G02*
X128250000Y-155831250I0J243750D01*
G01*
X128250000Y-155343750D01*
G75*
G02*
X128493750Y-155100000I243750J0D01*
G01*
G37*
G36*
G01*
X128493750Y-153225000D02*
X129406250Y-153225000D01*
G75*
G02*
X129650000Y-153468750I0J-243750D01*
G01*
X129650000Y-153956250D01*
G75*
G02*
X129406250Y-154200000I-243750J0D01*
G01*
X128493750Y-154200000D01*
G75*
G02*
X128250000Y-153956250I0J243750D01*
G01*
X128250000Y-153468750D01*
G75*
G02*
X128493750Y-153225000I243750J0D01*
G01*
G37*
G36*
G01*
X45995000Y-85718750D02*
X45995000Y-86631250D01*
G75*
G02*
X45751250Y-86875000I-243750J0D01*
G01*
X45263750Y-86875000D01*
G75*
G02*
X45020000Y-86631250I0J243750D01*
G01*
X45020000Y-85718750D01*
G75*
G02*
X45263750Y-85475000I243750J0D01*
G01*
X45751250Y-85475000D01*
G75*
G02*
X45995000Y-85718750I0J-243750D01*
G01*
G37*
G36*
G01*
X47870000Y-85718750D02*
X47870000Y-86631250D01*
G75*
G02*
X47626250Y-86875000I-243750J0D01*
G01*
X47138750Y-86875000D01*
G75*
G02*
X46895000Y-86631250I0J243750D01*
G01*
X46895000Y-85718750D01*
G75*
G02*
X47138750Y-85475000I243750J0D01*
G01*
X47626250Y-85475000D01*
G75*
G02*
X47870000Y-85718750I0J-243750D01*
G01*
G37*
G36*
G01*
X158620000Y-109896250D02*
X158620000Y-108983750D01*
G75*
G02*
X158863750Y-108740000I243750J0D01*
G01*
X159351250Y-108740000D01*
G75*
G02*
X159595000Y-108983750I0J-243750D01*
G01*
X159595000Y-109896250D01*
G75*
G02*
X159351250Y-110140000I-243750J0D01*
G01*
X158863750Y-110140000D01*
G75*
G02*
X158620000Y-109896250I0J243750D01*
G01*
G37*
G36*
G01*
X156745000Y-109896250D02*
X156745000Y-108983750D01*
G75*
G02*
X156988750Y-108740000I243750J0D01*
G01*
X157476250Y-108740000D01*
G75*
G02*
X157720000Y-108983750I0J-243750D01*
G01*
X157720000Y-109896250D01*
G75*
G02*
X157476250Y-110140000I-243750J0D01*
G01*
X156988750Y-110140000D01*
G75*
G02*
X156745000Y-109896250I0J243750D01*
G01*
G37*
G36*
G01*
X148946250Y-112180000D02*
X148033750Y-112180000D01*
G75*
G02*
X147790000Y-111936250I0J243750D01*
G01*
X147790000Y-111448750D01*
G75*
G02*
X148033750Y-111205000I243750J0D01*
G01*
X148946250Y-111205000D01*
G75*
G02*
X149190000Y-111448750I0J-243750D01*
G01*
X149190000Y-111936250D01*
G75*
G02*
X148946250Y-112180000I-243750J0D01*
G01*
G37*
G36*
G01*
X148946250Y-114055000D02*
X148033750Y-114055000D01*
G75*
G02*
X147790000Y-113811250I0J243750D01*
G01*
X147790000Y-113323750D01*
G75*
G02*
X148033750Y-113080000I243750J0D01*
G01*
X148946250Y-113080000D01*
G75*
G02*
X149190000Y-113323750I0J-243750D01*
G01*
X149190000Y-113811250D01*
G75*
G02*
X148946250Y-114055000I-243750J0D01*
G01*
G37*
G36*
G01*
X152129000Y-109981250D02*
X152129000Y-109068750D01*
G75*
G02*
X152372750Y-108825000I243750J0D01*
G01*
X152860250Y-108825000D01*
G75*
G02*
X153104000Y-109068750I0J-243750D01*
G01*
X153104000Y-109981250D01*
G75*
G02*
X152860250Y-110225000I-243750J0D01*
G01*
X152372750Y-110225000D01*
G75*
G02*
X152129000Y-109981250I0J243750D01*
G01*
G37*
G36*
G01*
X150254000Y-109981250D02*
X150254000Y-109068750D01*
G75*
G02*
X150497750Y-108825000I243750J0D01*
G01*
X150985250Y-108825000D01*
G75*
G02*
X151229000Y-109068750I0J-243750D01*
G01*
X151229000Y-109981250D01*
G75*
G02*
X150985250Y-110225000I-243750J0D01*
G01*
X150497750Y-110225000D01*
G75*
G02*
X150254000Y-109981250I0J243750D01*
G01*
G37*
G36*
G01*
X69233750Y-131360000D02*
X70146250Y-131360000D01*
G75*
G02*
X70390000Y-131603750I0J-243750D01*
G01*
X70390000Y-132091250D01*
G75*
G02*
X70146250Y-132335000I-243750J0D01*
G01*
X69233750Y-132335000D01*
G75*
G02*
X68990000Y-132091250I0J243750D01*
G01*
X68990000Y-131603750D01*
G75*
G02*
X69233750Y-131360000I243750J0D01*
G01*
G37*
G36*
G01*
X69233750Y-129485000D02*
X70146250Y-129485000D01*
G75*
G02*
X70390000Y-129728750I0J-243750D01*
G01*
X70390000Y-130216250D01*
G75*
G02*
X70146250Y-130460000I-243750J0D01*
G01*
X69233750Y-130460000D01*
G75*
G02*
X68990000Y-130216250I0J243750D01*
G01*
X68990000Y-129728750D01*
G75*
G02*
X69233750Y-129485000I243750J0D01*
G01*
G37*
G36*
G01*
X45995000Y-83112550D02*
X45995000Y-84025050D01*
G75*
G02*
X45751250Y-84268800I-243750J0D01*
G01*
X45263750Y-84268800D01*
G75*
G02*
X45020000Y-84025050I0J243750D01*
G01*
X45020000Y-83112550D01*
G75*
G02*
X45263750Y-82868800I243750J0D01*
G01*
X45751250Y-82868800D01*
G75*
G02*
X45995000Y-83112550I0J-243750D01*
G01*
G37*
G36*
G01*
X47870000Y-83112550D02*
X47870000Y-84025050D01*
G75*
G02*
X47626250Y-84268800I-243750J0D01*
G01*
X47138750Y-84268800D01*
G75*
G02*
X46895000Y-84025050I0J243750D01*
G01*
X46895000Y-83112550D01*
G75*
G02*
X47138750Y-82868800I243750J0D01*
G01*
X47626250Y-82868800D01*
G75*
G02*
X47870000Y-83112550I0J-243750D01*
G01*
G37*
G36*
G01*
X37320000Y-129313750D02*
X37320000Y-130226250D01*
G75*
G02*
X37076250Y-130470000I-243750J0D01*
G01*
X36588750Y-130470000D01*
G75*
G02*
X36345000Y-130226250I0J243750D01*
G01*
X36345000Y-129313750D01*
G75*
G02*
X36588750Y-129070000I243750J0D01*
G01*
X37076250Y-129070000D01*
G75*
G02*
X37320000Y-129313750I0J-243750D01*
G01*
G37*
G36*
G01*
X39195000Y-129313750D02*
X39195000Y-130226250D01*
G75*
G02*
X38951250Y-130470000I-243750J0D01*
G01*
X38463750Y-130470000D01*
G75*
G02*
X38220000Y-130226250I0J243750D01*
G01*
X38220000Y-129313750D01*
G75*
G02*
X38463750Y-129070000I243750J0D01*
G01*
X38951250Y-129070000D01*
G75*
G02*
X39195000Y-129313750I0J-243750D01*
G01*
G37*
G36*
G01*
X145146250Y-112220000D02*
X144233750Y-112220000D01*
G75*
G02*
X143990000Y-111976250I0J243750D01*
G01*
X143990000Y-111488750D01*
G75*
G02*
X144233750Y-111245000I243750J0D01*
G01*
X145146250Y-111245000D01*
G75*
G02*
X145390000Y-111488750I0J-243750D01*
G01*
X145390000Y-111976250D01*
G75*
G02*
X145146250Y-112220000I-243750J0D01*
G01*
G37*
G36*
G01*
X145146250Y-114095000D02*
X144233750Y-114095000D01*
G75*
G02*
X143990000Y-113851250I0J243750D01*
G01*
X143990000Y-113363750D01*
G75*
G02*
X144233750Y-113120000I243750J0D01*
G01*
X145146250Y-113120000D01*
G75*
G02*
X145390000Y-113363750I0J-243750D01*
G01*
X145390000Y-113851250D01*
G75*
G02*
X145146250Y-114095000I-243750J0D01*
G01*
G37*
G36*
G01*
X70096250Y-126300000D02*
X69183750Y-126300000D01*
G75*
G02*
X68940000Y-126056250I0J243750D01*
G01*
X68940000Y-125568750D01*
G75*
G02*
X69183750Y-125325000I243750J0D01*
G01*
X70096250Y-125325000D01*
G75*
G02*
X70340000Y-125568750I0J-243750D01*
G01*
X70340000Y-126056250D01*
G75*
G02*
X70096250Y-126300000I-243750J0D01*
G01*
G37*
G36*
G01*
X70096250Y-128175000D02*
X69183750Y-128175000D01*
G75*
G02*
X68940000Y-127931250I0J243750D01*
G01*
X68940000Y-127443750D01*
G75*
G02*
X69183750Y-127200000I243750J0D01*
G01*
X70096250Y-127200000D01*
G75*
G02*
X70340000Y-127443750I0J-243750D01*
G01*
X70340000Y-127931250D01*
G75*
G02*
X70096250Y-128175000I-243750J0D01*
G01*
G37*
G36*
G01*
X37275000Y-113868750D02*
X37275000Y-114781250D01*
G75*
G02*
X37031250Y-115025000I-243750J0D01*
G01*
X36543750Y-115025000D01*
G75*
G02*
X36300000Y-114781250I0J243750D01*
G01*
X36300000Y-113868750D01*
G75*
G02*
X36543750Y-113625000I243750J0D01*
G01*
X37031250Y-113625000D01*
G75*
G02*
X37275000Y-113868750I0J-243750D01*
G01*
G37*
G36*
G01*
X39150000Y-113868750D02*
X39150000Y-114781250D01*
G75*
G02*
X38906250Y-115025000I-243750J0D01*
G01*
X38418750Y-115025000D01*
G75*
G02*
X38175000Y-114781250I0J243750D01*
G01*
X38175000Y-113868750D01*
G75*
G02*
X38418750Y-113625000I243750J0D01*
G01*
X38906250Y-113625000D01*
G75*
G02*
X39150000Y-113868750I0J-243750D01*
G01*
G37*
G36*
G01*
X152129000Y-102591250D02*
X152129000Y-101678750D01*
G75*
G02*
X152372750Y-101435000I243750J0D01*
G01*
X152860250Y-101435000D01*
G75*
G02*
X153104000Y-101678750I0J-243750D01*
G01*
X153104000Y-102591250D01*
G75*
G02*
X152860250Y-102835000I-243750J0D01*
G01*
X152372750Y-102835000D01*
G75*
G02*
X152129000Y-102591250I0J243750D01*
G01*
G37*
G36*
G01*
X150254000Y-102591250D02*
X150254000Y-101678750D01*
G75*
G02*
X150497750Y-101435000I243750J0D01*
G01*
X150985250Y-101435000D01*
G75*
G02*
X151229000Y-101678750I0J-243750D01*
G01*
X151229000Y-102591250D01*
G75*
G02*
X150985250Y-102835000I-243750J0D01*
G01*
X150497750Y-102835000D01*
G75*
G02*
X150254000Y-102591250I0J243750D01*
G01*
G37*
G36*
G01*
X151229000Y-105418750D02*
X151229000Y-106331250D01*
G75*
G02*
X150985250Y-106575000I-243750J0D01*
G01*
X150497750Y-106575000D01*
G75*
G02*
X150254000Y-106331250I0J243750D01*
G01*
X150254000Y-105418750D01*
G75*
G02*
X150497750Y-105175000I243750J0D01*
G01*
X150985250Y-105175000D01*
G75*
G02*
X151229000Y-105418750I0J-243750D01*
G01*
G37*
G36*
G01*
X153104000Y-105418750D02*
X153104000Y-106331250D01*
G75*
G02*
X152860250Y-106575000I-243750J0D01*
G01*
X152372750Y-106575000D01*
G75*
G02*
X152129000Y-106331250I0J243750D01*
G01*
X152129000Y-105418750D01*
G75*
G02*
X152372750Y-105175000I243750J0D01*
G01*
X152860250Y-105175000D01*
G75*
G02*
X153104000Y-105418750I0J-243750D01*
G01*
G37*
G36*
G01*
X158630000Y-102581250D02*
X158630000Y-101668750D01*
G75*
G02*
X158873750Y-101425000I243750J0D01*
G01*
X159361250Y-101425000D01*
G75*
G02*
X159605000Y-101668750I0J-243750D01*
G01*
X159605000Y-102581250D01*
G75*
G02*
X159361250Y-102825000I-243750J0D01*
G01*
X158873750Y-102825000D01*
G75*
G02*
X158630000Y-102581250I0J243750D01*
G01*
G37*
G36*
G01*
X156755000Y-102581250D02*
X156755000Y-101668750D01*
G75*
G02*
X156998750Y-101425000I243750J0D01*
G01*
X157486250Y-101425000D01*
G75*
G02*
X157730000Y-101668750I0J-243750D01*
G01*
X157730000Y-102581250D01*
G75*
G02*
X157486250Y-102825000I-243750J0D01*
G01*
X156998750Y-102825000D01*
G75*
G02*
X156755000Y-102581250I0J243750D01*
G01*
G37*
G36*
G01*
X158640000Y-106321250D02*
X158640000Y-105408750D01*
G75*
G02*
X158883750Y-105165000I243750J0D01*
G01*
X159371250Y-105165000D01*
G75*
G02*
X159615000Y-105408750I0J-243750D01*
G01*
X159615000Y-106321250D01*
G75*
G02*
X159371250Y-106565000I-243750J0D01*
G01*
X158883750Y-106565000D01*
G75*
G02*
X158640000Y-106321250I0J243750D01*
G01*
G37*
G36*
G01*
X156765000Y-106321250D02*
X156765000Y-105408750D01*
G75*
G02*
X157008750Y-105165000I243750J0D01*
G01*
X157496250Y-105165000D01*
G75*
G02*
X157740000Y-105408750I0J-243750D01*
G01*
X157740000Y-106321250D01*
G75*
G02*
X157496250Y-106565000I-243750J0D01*
G01*
X157008750Y-106565000D01*
G75*
G02*
X156765000Y-106321250I0J243750D01*
G01*
G37*
G36*
G01*
X120375000Y-63978750D02*
X120375000Y-64891250D01*
G75*
G02*
X120131250Y-65135000I-243750J0D01*
G01*
X119643750Y-65135000D01*
G75*
G02*
X119400000Y-64891250I0J243750D01*
G01*
X119400000Y-63978750D01*
G75*
G02*
X119643750Y-63735000I243750J0D01*
G01*
X120131250Y-63735000D01*
G75*
G02*
X120375000Y-63978750I0J-243750D01*
G01*
G37*
G36*
G01*
X122250000Y-63978750D02*
X122250000Y-64891250D01*
G75*
G02*
X122006250Y-65135000I-243750J0D01*
G01*
X121518750Y-65135000D01*
G75*
G02*
X121275000Y-64891250I0J243750D01*
G01*
X121275000Y-63978750D01*
G75*
G02*
X121518750Y-63735000I243750J0D01*
G01*
X122006250Y-63735000D01*
G75*
G02*
X122250000Y-63978750I0J-243750D01*
G01*
G37*
G36*
G01*
X117515000Y-64921250D02*
X117515000Y-64008750D01*
G75*
G02*
X117758750Y-63765000I243750J0D01*
G01*
X118246250Y-63765000D01*
G75*
G02*
X118490000Y-64008750I0J-243750D01*
G01*
X118490000Y-64921250D01*
G75*
G02*
X118246250Y-65165000I-243750J0D01*
G01*
X117758750Y-65165000D01*
G75*
G02*
X117515000Y-64921250I0J243750D01*
G01*
G37*
G36*
G01*
X115640000Y-64921250D02*
X115640000Y-64008750D01*
G75*
G02*
X115883750Y-63765000I243750J0D01*
G01*
X116371250Y-63765000D01*
G75*
G02*
X116615000Y-64008750I0J-243750D01*
G01*
X116615000Y-64921250D01*
G75*
G02*
X116371250Y-65165000I-243750J0D01*
G01*
X115883750Y-65165000D01*
G75*
G02*
X115640000Y-64921250I0J243750D01*
G01*
G37*
G36*
G01*
X117535000Y-68331250D02*
X117535000Y-67418750D01*
G75*
G02*
X117778750Y-67175000I243750J0D01*
G01*
X118266250Y-67175000D01*
G75*
G02*
X118510000Y-67418750I0J-243750D01*
G01*
X118510000Y-68331250D01*
G75*
G02*
X118266250Y-68575000I-243750J0D01*
G01*
X117778750Y-68575000D01*
G75*
G02*
X117535000Y-68331250I0J243750D01*
G01*
G37*
G36*
G01*
X115660000Y-68331250D02*
X115660000Y-67418750D01*
G75*
G02*
X115903750Y-67175000I243750J0D01*
G01*
X116391250Y-67175000D01*
G75*
G02*
X116635000Y-67418750I0J-243750D01*
G01*
X116635000Y-68331250D01*
G75*
G02*
X116391250Y-68575000I-243750J0D01*
G01*
X115903750Y-68575000D01*
G75*
G02*
X115660000Y-68331250I0J243750D01*
G01*
G37*
G36*
G01*
X157936250Y-125788000D02*
X157023750Y-125788000D01*
G75*
G02*
X156780000Y-125544250I0J243750D01*
G01*
X156780000Y-125056750D01*
G75*
G02*
X157023750Y-124813000I243750J0D01*
G01*
X157936250Y-124813000D01*
G75*
G02*
X158180000Y-125056750I0J-243750D01*
G01*
X158180000Y-125544250D01*
G75*
G02*
X157936250Y-125788000I-243750J0D01*
G01*
G37*
G36*
G01*
X157936250Y-127663000D02*
X157023750Y-127663000D01*
G75*
G02*
X156780000Y-127419250I0J243750D01*
G01*
X156780000Y-126931750D01*
G75*
G02*
X157023750Y-126688000I243750J0D01*
G01*
X157936250Y-126688000D01*
G75*
G02*
X158180000Y-126931750I0J-243750D01*
G01*
X158180000Y-127419250D01*
G75*
G02*
X157936250Y-127663000I-243750J0D01*
G01*
G37*
G36*
G01*
X103231000Y-78439750D02*
X103231000Y-79352250D01*
G75*
G02*
X102987250Y-79596000I-243750J0D01*
G01*
X102499750Y-79596000D01*
G75*
G02*
X102256000Y-79352250I0J243750D01*
G01*
X102256000Y-78439750D01*
G75*
G02*
X102499750Y-78196000I243750J0D01*
G01*
X102987250Y-78196000D01*
G75*
G02*
X103231000Y-78439750I0J-243750D01*
G01*
G37*
G36*
G01*
X105106000Y-78439750D02*
X105106000Y-79352250D01*
G75*
G02*
X104862250Y-79596000I-243750J0D01*
G01*
X104374750Y-79596000D01*
G75*
G02*
X104131000Y-79352250I0J243750D01*
G01*
X104131000Y-78439750D01*
G75*
G02*
X104374750Y-78196000I243750J0D01*
G01*
X104862250Y-78196000D01*
G75*
G02*
X105106000Y-78439750I0J-243750D01*
G01*
G37*
G36*
G01*
X109850000Y-82723750D02*
X109850000Y-83636250D01*
G75*
G02*
X109606250Y-83880000I-243750J0D01*
G01*
X109118750Y-83880000D01*
G75*
G02*
X108875000Y-83636250I0J243750D01*
G01*
X108875000Y-82723750D01*
G75*
G02*
X109118750Y-82480000I243750J0D01*
G01*
X109606250Y-82480000D01*
G75*
G02*
X109850000Y-82723750I0J-243750D01*
G01*
G37*
G36*
G01*
X111725000Y-82723750D02*
X111725000Y-83636250D01*
G75*
G02*
X111481250Y-83880000I-243750J0D01*
G01*
X110993750Y-83880000D01*
G75*
G02*
X110750000Y-83636250I0J243750D01*
G01*
X110750000Y-82723750D01*
G75*
G02*
X110993750Y-82480000I243750J0D01*
G01*
X111481250Y-82480000D01*
G75*
G02*
X111725000Y-82723750I0J-243750D01*
G01*
G37*
D31*
X48625000Y-97843200D03*
X48625000Y-93243200D03*
X48625000Y-95543200D03*
D32*
X42325000Y-95543200D03*
D31*
X48625000Y-110207000D03*
X48625000Y-105607000D03*
X48625000Y-107907000D03*
D32*
X42325000Y-107907000D03*
D31*
X48625000Y-122572000D03*
X48625000Y-117972000D03*
X48625000Y-120272000D03*
D32*
X42325000Y-120272000D03*
D31*
X48625000Y-134936000D03*
X48625000Y-130336000D03*
X48625000Y-132636000D03*
D32*
X42325000Y-132636000D03*
D31*
X48625000Y-147300000D03*
X48625000Y-142700000D03*
X48625000Y-145000000D03*
D32*
X42325000Y-145000000D03*
G36*
G01*
X110470000Y-85476250D02*
X110470000Y-84963750D01*
G75*
G02*
X110688750Y-84745000I218750J0D01*
G01*
X111126250Y-84745000D01*
G75*
G02*
X111345000Y-84963750I0J-218750D01*
G01*
X111345000Y-85476250D01*
G75*
G02*
X111126250Y-85695000I-218750J0D01*
G01*
X110688750Y-85695000D01*
G75*
G02*
X110470000Y-85476250I0J218750D01*
G01*
G37*
G36*
G01*
X108895000Y-85476250D02*
X108895000Y-84963750D01*
G75*
G02*
X109113750Y-84745000I218750J0D01*
G01*
X109551250Y-84745000D01*
G75*
G02*
X109770000Y-84963750I0J-218750D01*
G01*
X109770000Y-85476250D01*
G75*
G02*
X109551250Y-85695000I-218750J0D01*
G01*
X109113750Y-85695000D01*
G75*
G02*
X108895000Y-85476250I0J218750D01*
G01*
G37*
G36*
G01*
X109810000Y-86863750D02*
X109810000Y-87776250D01*
G75*
G02*
X109566250Y-88020000I-243750J0D01*
G01*
X109078750Y-88020000D01*
G75*
G02*
X108835000Y-87776250I0J243750D01*
G01*
X108835000Y-86863750D01*
G75*
G02*
X109078750Y-86620000I243750J0D01*
G01*
X109566250Y-86620000D01*
G75*
G02*
X109810000Y-86863750I0J-243750D01*
G01*
G37*
G36*
G01*
X111685000Y-86863750D02*
X111685000Y-87776250D01*
G75*
G02*
X111441250Y-88020000I-243750J0D01*
G01*
X110953750Y-88020000D01*
G75*
G02*
X110710000Y-87776250I0J243750D01*
G01*
X110710000Y-86863750D01*
G75*
G02*
X110953750Y-86620000I243750J0D01*
G01*
X111441250Y-86620000D01*
G75*
G02*
X111685000Y-86863750I0J-243750D01*
G01*
G37*
G36*
G01*
X120526250Y-92735000D02*
X119613750Y-92735000D01*
G75*
G02*
X119370000Y-92491250I0J243750D01*
G01*
X119370000Y-92003750D01*
G75*
G02*
X119613750Y-91760000I243750J0D01*
G01*
X120526250Y-91760000D01*
G75*
G02*
X120770000Y-92003750I0J-243750D01*
G01*
X120770000Y-92491250D01*
G75*
G02*
X120526250Y-92735000I-243750J0D01*
G01*
G37*
G36*
G01*
X120526250Y-90860000D02*
X119613750Y-90860000D01*
G75*
G02*
X119370000Y-90616250I0J243750D01*
G01*
X119370000Y-90128750D01*
G75*
G02*
X119613750Y-89885000I243750J0D01*
G01*
X120526250Y-89885000D01*
G75*
G02*
X120770000Y-90128750I0J-243750D01*
G01*
X120770000Y-90616250D01*
G75*
G02*
X120526250Y-90860000I-243750J0D01*
G01*
G37*
G36*
G01*
X111735000Y-73236250D02*
X111735000Y-72323750D01*
G75*
G02*
X111978750Y-72080000I243750J0D01*
G01*
X112466250Y-72080000D01*
G75*
G02*
X112710000Y-72323750I0J-243750D01*
G01*
X112710000Y-73236250D01*
G75*
G02*
X112466250Y-73480000I-243750J0D01*
G01*
X111978750Y-73480000D01*
G75*
G02*
X111735000Y-73236250I0J243750D01*
G01*
G37*
G36*
G01*
X113610000Y-73236250D02*
X113610000Y-72323750D01*
G75*
G02*
X113853750Y-72080000I243750J0D01*
G01*
X114341250Y-72080000D01*
G75*
G02*
X114585000Y-72323750I0J-243750D01*
G01*
X114585000Y-73236250D01*
G75*
G02*
X114341250Y-73480000I-243750J0D01*
G01*
X113853750Y-73480000D01*
G75*
G02*
X113610000Y-73236250I0J243750D01*
G01*
G37*
G36*
G01*
X115683750Y-89885000D02*
X116596250Y-89885000D01*
G75*
G02*
X116840000Y-90128750I0J-243750D01*
G01*
X116840000Y-90616250D01*
G75*
G02*
X116596250Y-90860000I-243750J0D01*
G01*
X115683750Y-90860000D01*
G75*
G02*
X115440000Y-90616250I0J243750D01*
G01*
X115440000Y-90128750D01*
G75*
G02*
X115683750Y-89885000I243750J0D01*
G01*
G37*
G36*
G01*
X115683750Y-91760000D02*
X116596250Y-91760000D01*
G75*
G02*
X116840000Y-92003750I0J-243750D01*
G01*
X116840000Y-92491250D01*
G75*
G02*
X116596250Y-92735000I-243750J0D01*
G01*
X115683750Y-92735000D01*
G75*
G02*
X115440000Y-92491250I0J243750D01*
G01*
X115440000Y-92003750D01*
G75*
G02*
X115683750Y-91760000I243750J0D01*
G01*
G37*
G36*
G01*
X125434000Y-136495750D02*
X125434000Y-137408250D01*
G75*
G02*
X125190250Y-137652000I-243750J0D01*
G01*
X124702750Y-137652000D01*
G75*
G02*
X124459000Y-137408250I0J243750D01*
G01*
X124459000Y-136495750D01*
G75*
G02*
X124702750Y-136252000I243750J0D01*
G01*
X125190250Y-136252000D01*
G75*
G02*
X125434000Y-136495750I0J-243750D01*
G01*
G37*
G36*
G01*
X127309000Y-136495750D02*
X127309000Y-137408250D01*
G75*
G02*
X127065250Y-137652000I-243750J0D01*
G01*
X126577750Y-137652000D01*
G75*
G02*
X126334000Y-137408250I0J243750D01*
G01*
X126334000Y-136495750D01*
G75*
G02*
X126577750Y-136252000I243750J0D01*
G01*
X127065250Y-136252000D01*
G75*
G02*
X127309000Y-136495750I0J-243750D01*
G01*
G37*
D33*
X108940000Y-52530000D03*
X111140000Y-52530000D03*
X126560000Y-52420000D03*
X124360000Y-52420000D03*
G36*
G01*
X133800000Y-142476250D02*
X133800000Y-141963750D01*
G75*
G02*
X134018750Y-141745000I218750J0D01*
G01*
X134456250Y-141745000D01*
G75*
G02*
X134675000Y-141963750I0J-218750D01*
G01*
X134675000Y-142476250D01*
G75*
G02*
X134456250Y-142695000I-218750J0D01*
G01*
X134018750Y-142695000D01*
G75*
G02*
X133800000Y-142476250I0J218750D01*
G01*
G37*
G36*
G01*
X132225000Y-142476250D02*
X132225000Y-141963750D01*
G75*
G02*
X132443750Y-141745000I218750J0D01*
G01*
X132881250Y-141745000D01*
G75*
G02*
X133100000Y-141963750I0J-218750D01*
G01*
X133100000Y-142476250D01*
G75*
G02*
X132881250Y-142695000I-218750J0D01*
G01*
X132443750Y-142695000D01*
G75*
G02*
X132225000Y-142476250I0J218750D01*
G01*
G37*
G36*
G01*
X140098750Y-126705000D02*
X141011250Y-126705000D01*
G75*
G02*
X141255000Y-126948750I0J-243750D01*
G01*
X141255000Y-127436250D01*
G75*
G02*
X141011250Y-127680000I-243750J0D01*
G01*
X140098750Y-127680000D01*
G75*
G02*
X139855000Y-127436250I0J243750D01*
G01*
X139855000Y-126948750D01*
G75*
G02*
X140098750Y-126705000I243750J0D01*
G01*
G37*
G36*
G01*
X140098750Y-124830000D02*
X141011250Y-124830000D01*
G75*
G02*
X141255000Y-125073750I0J-243750D01*
G01*
X141255000Y-125561250D01*
G75*
G02*
X141011250Y-125805000I-243750J0D01*
G01*
X140098750Y-125805000D01*
G75*
G02*
X139855000Y-125561250I0J243750D01*
G01*
X139855000Y-125073750D01*
G75*
G02*
X140098750Y-124830000I243750J0D01*
G01*
G37*
G36*
G01*
X136883750Y-147310000D02*
X137796250Y-147310000D01*
G75*
G02*
X138040000Y-147553750I0J-243750D01*
G01*
X138040000Y-148041250D01*
G75*
G02*
X137796250Y-148285000I-243750J0D01*
G01*
X136883750Y-148285000D01*
G75*
G02*
X136640000Y-148041250I0J243750D01*
G01*
X136640000Y-147553750D01*
G75*
G02*
X136883750Y-147310000I243750J0D01*
G01*
G37*
G36*
G01*
X136883750Y-145435000D02*
X137796250Y-145435000D01*
G75*
G02*
X138040000Y-145678750I0J-243750D01*
G01*
X138040000Y-146166250D01*
G75*
G02*
X137796250Y-146410000I-243750J0D01*
G01*
X136883750Y-146410000D01*
G75*
G02*
X136640000Y-146166250I0J243750D01*
G01*
X136640000Y-145678750D01*
G75*
G02*
X136883750Y-145435000I243750J0D01*
G01*
G37*
G36*
G01*
X139393750Y-147300000D02*
X140306250Y-147300000D01*
G75*
G02*
X140550000Y-147543750I0J-243750D01*
G01*
X140550000Y-148031250D01*
G75*
G02*
X140306250Y-148275000I-243750J0D01*
G01*
X139393750Y-148275000D01*
G75*
G02*
X139150000Y-148031250I0J243750D01*
G01*
X139150000Y-147543750D01*
G75*
G02*
X139393750Y-147300000I243750J0D01*
G01*
G37*
G36*
G01*
X139393750Y-145425000D02*
X140306250Y-145425000D01*
G75*
G02*
X140550000Y-145668750I0J-243750D01*
G01*
X140550000Y-146156250D01*
G75*
G02*
X140306250Y-146400000I-243750J0D01*
G01*
X139393750Y-146400000D01*
G75*
G02*
X139150000Y-146156250I0J243750D01*
G01*
X139150000Y-145668750D01*
G75*
G02*
X139393750Y-145425000I243750J0D01*
G01*
G37*
G36*
G01*
X154880000Y-137786250D02*
X154880000Y-136873750D01*
G75*
G02*
X155123750Y-136630000I243750J0D01*
G01*
X155611250Y-136630000D01*
G75*
G02*
X155855000Y-136873750I0J-243750D01*
G01*
X155855000Y-137786250D01*
G75*
G02*
X155611250Y-138030000I-243750J0D01*
G01*
X155123750Y-138030000D01*
G75*
G02*
X154880000Y-137786250I0J243750D01*
G01*
G37*
G36*
G01*
X153005000Y-137786250D02*
X153005000Y-136873750D01*
G75*
G02*
X153248750Y-136630000I243750J0D01*
G01*
X153736250Y-136630000D01*
G75*
G02*
X153980000Y-136873750I0J-243750D01*
G01*
X153980000Y-137786250D01*
G75*
G02*
X153736250Y-138030000I-243750J0D01*
G01*
X153248750Y-138030000D01*
G75*
G02*
X153005000Y-137786250I0J243750D01*
G01*
G37*
G36*
G01*
X153980000Y-138923750D02*
X153980000Y-139836250D01*
G75*
G02*
X153736250Y-140080000I-243750J0D01*
G01*
X153248750Y-140080000D01*
G75*
G02*
X153005000Y-139836250I0J243750D01*
G01*
X153005000Y-138923750D01*
G75*
G02*
X153248750Y-138680000I243750J0D01*
G01*
X153736250Y-138680000D01*
G75*
G02*
X153980000Y-138923750I0J-243750D01*
G01*
G37*
G36*
G01*
X155855000Y-138923750D02*
X155855000Y-139836250D01*
G75*
G02*
X155611250Y-140080000I-243750J0D01*
G01*
X155123750Y-140080000D01*
G75*
G02*
X154880000Y-139836250I0J243750D01*
G01*
X154880000Y-138923750D01*
G75*
G02*
X155123750Y-138680000I243750J0D01*
G01*
X155611250Y-138680000D01*
G75*
G02*
X155855000Y-138923750I0J-243750D01*
G01*
G37*
D20*
X108136000Y-78354000D03*
X108136000Y-74654000D03*
G36*
G01*
X65049203Y-133010000D02*
X63199197Y-133010000D01*
G75*
G02*
X62949200Y-132760003I0J249997D01*
G01*
X62949200Y-131934997D01*
G75*
G02*
X63199197Y-131685000I249997J0D01*
G01*
X65049203Y-131685000D01*
G75*
G02*
X65299200Y-131934997I0J-249997D01*
G01*
X65299200Y-132760003D01*
G75*
G02*
X65049203Y-133010000I-249997J0D01*
G01*
G37*
G36*
G01*
X65049203Y-136085000D02*
X63199197Y-136085000D01*
G75*
G02*
X62949200Y-135835003I0J249997D01*
G01*
X62949200Y-135009997D01*
G75*
G02*
X63199197Y-134760000I249997J0D01*
G01*
X65049203Y-134760000D01*
G75*
G02*
X65299200Y-135009997I0J-249997D01*
G01*
X65299200Y-135835003D01*
G75*
G02*
X65049203Y-136085000I-249997J0D01*
G01*
G37*
G36*
G01*
X62290000Y-152441250D02*
X62290000Y-151528750D01*
G75*
G02*
X62533750Y-151285000I243750J0D01*
G01*
X63021250Y-151285000D01*
G75*
G02*
X63265000Y-151528750I0J-243750D01*
G01*
X63265000Y-152441250D01*
G75*
G02*
X63021250Y-152685000I-243750J0D01*
G01*
X62533750Y-152685000D01*
G75*
G02*
X62290000Y-152441250I0J243750D01*
G01*
G37*
G36*
G01*
X60415000Y-152441250D02*
X60415000Y-151528750D01*
G75*
G02*
X60658750Y-151285000I243750J0D01*
G01*
X61146250Y-151285000D01*
G75*
G02*
X61390000Y-151528750I0J-243750D01*
G01*
X61390000Y-152441250D01*
G75*
G02*
X61146250Y-152685000I-243750J0D01*
G01*
X60658750Y-152685000D01*
G75*
G02*
X60415000Y-152441250I0J243750D01*
G01*
G37*
D34*
X54380000Y-139010000D03*
X57680000Y-139010000D03*
X60960000Y-139040000D03*
X64260000Y-139040000D03*
D35*
X66840000Y-155010000D03*
X65890000Y-153010000D03*
X67790000Y-153010000D03*
G36*
G01*
X53150000Y-148631250D02*
X53150000Y-147718750D01*
G75*
G02*
X53393750Y-147475000I243750J0D01*
G01*
X53881250Y-147475000D01*
G75*
G02*
X54125000Y-147718750I0J-243750D01*
G01*
X54125000Y-148631250D01*
G75*
G02*
X53881250Y-148875000I-243750J0D01*
G01*
X53393750Y-148875000D01*
G75*
G02*
X53150000Y-148631250I0J243750D01*
G01*
G37*
G36*
G01*
X51275000Y-148631250D02*
X51275000Y-147718750D01*
G75*
G02*
X51518750Y-147475000I243750J0D01*
G01*
X52006250Y-147475000D01*
G75*
G02*
X52250000Y-147718750I0J-243750D01*
G01*
X52250000Y-148631250D01*
G75*
G02*
X52006250Y-148875000I-243750J0D01*
G01*
X51518750Y-148875000D01*
G75*
G02*
X51275000Y-148631250I0J243750D01*
G01*
G37*
G36*
G01*
X57500000Y-152416250D02*
X57500000Y-151503750D01*
G75*
G02*
X57743750Y-151260000I243750J0D01*
G01*
X58231250Y-151260000D01*
G75*
G02*
X58475000Y-151503750I0J-243750D01*
G01*
X58475000Y-152416250D01*
G75*
G02*
X58231250Y-152660000I-243750J0D01*
G01*
X57743750Y-152660000D01*
G75*
G02*
X57500000Y-152416250I0J243750D01*
G01*
G37*
G36*
G01*
X55625000Y-152416250D02*
X55625000Y-151503750D01*
G75*
G02*
X55868750Y-151260000I243750J0D01*
G01*
X56356250Y-151260000D01*
G75*
G02*
X56600000Y-151503750I0J-243750D01*
G01*
X56600000Y-152416250D01*
G75*
G02*
X56356250Y-152660000I-243750J0D01*
G01*
X55868750Y-152660000D01*
G75*
G02*
X55625000Y-152416250I0J243750D01*
G01*
G37*
G36*
G01*
X62290000Y-148616250D02*
X62290000Y-147703750D01*
G75*
G02*
X62533750Y-147460000I243750J0D01*
G01*
X63021250Y-147460000D01*
G75*
G02*
X63265000Y-147703750I0J-243750D01*
G01*
X63265000Y-148616250D01*
G75*
G02*
X63021250Y-148860000I-243750J0D01*
G01*
X62533750Y-148860000D01*
G75*
G02*
X62290000Y-148616250I0J243750D01*
G01*
G37*
G36*
G01*
X60415000Y-148616250D02*
X60415000Y-147703750D01*
G75*
G02*
X60658750Y-147460000I243750J0D01*
G01*
X61146250Y-147460000D01*
G75*
G02*
X61390000Y-147703750I0J-243750D01*
G01*
X61390000Y-148616250D01*
G75*
G02*
X61146250Y-148860000I-243750J0D01*
G01*
X60658750Y-148860000D01*
G75*
G02*
X60415000Y-148616250I0J243750D01*
G01*
G37*
G36*
G01*
X52280000Y-151503750D02*
X52280000Y-152416250D01*
G75*
G02*
X52036250Y-152660000I-243750J0D01*
G01*
X51548750Y-152660000D01*
G75*
G02*
X51305000Y-152416250I0J243750D01*
G01*
X51305000Y-151503750D01*
G75*
G02*
X51548750Y-151260000I243750J0D01*
G01*
X52036250Y-151260000D01*
G75*
G02*
X52280000Y-151503750I0J-243750D01*
G01*
G37*
G36*
G01*
X54155000Y-151503750D02*
X54155000Y-152416250D01*
G75*
G02*
X53911250Y-152660000I-243750J0D01*
G01*
X53423750Y-152660000D01*
G75*
G02*
X53180000Y-152416250I0J243750D01*
G01*
X53180000Y-151503750D01*
G75*
G02*
X53423750Y-151260000I243750J0D01*
G01*
X53911250Y-151260000D01*
G75*
G02*
X54155000Y-151503750I0J-243750D01*
G01*
G37*
G36*
G01*
X57440000Y-156341250D02*
X57440000Y-155428750D01*
G75*
G02*
X57683750Y-155185000I243750J0D01*
G01*
X58171250Y-155185000D01*
G75*
G02*
X58415000Y-155428750I0J-243750D01*
G01*
X58415000Y-156341250D01*
G75*
G02*
X58171250Y-156585000I-243750J0D01*
G01*
X57683750Y-156585000D01*
G75*
G02*
X57440000Y-156341250I0J243750D01*
G01*
G37*
G36*
G01*
X55565000Y-156341250D02*
X55565000Y-155428750D01*
G75*
G02*
X55808750Y-155185000I243750J0D01*
G01*
X56296250Y-155185000D01*
G75*
G02*
X56540000Y-155428750I0J-243750D01*
G01*
X56540000Y-156341250D01*
G75*
G02*
X56296250Y-156585000I-243750J0D01*
G01*
X55808750Y-156585000D01*
G75*
G02*
X55565000Y-156341250I0J243750D01*
G01*
G37*
G36*
G01*
X61390000Y-155428750D02*
X61390000Y-156341250D01*
G75*
G02*
X61146250Y-156585000I-243750J0D01*
G01*
X60658750Y-156585000D01*
G75*
G02*
X60415000Y-156341250I0J243750D01*
G01*
X60415000Y-155428750D01*
G75*
G02*
X60658750Y-155185000I243750J0D01*
G01*
X61146250Y-155185000D01*
G75*
G02*
X61390000Y-155428750I0J-243750D01*
G01*
G37*
G36*
G01*
X63265000Y-155428750D02*
X63265000Y-156341250D01*
G75*
G02*
X63021250Y-156585000I-243750J0D01*
G01*
X62533750Y-156585000D01*
G75*
G02*
X62290000Y-156341250I0J243750D01*
G01*
X62290000Y-155428750D01*
G75*
G02*
X62533750Y-155185000I243750J0D01*
G01*
X63021250Y-155185000D01*
G75*
G02*
X63265000Y-155428750I0J-243750D01*
G01*
G37*
G36*
G01*
X61710000Y-143226250D02*
X61710000Y-142313750D01*
G75*
G02*
X61953750Y-142070000I243750J0D01*
G01*
X62441250Y-142070000D01*
G75*
G02*
X62685000Y-142313750I0J-243750D01*
G01*
X62685000Y-143226250D01*
G75*
G02*
X62441250Y-143470000I-243750J0D01*
G01*
X61953750Y-143470000D01*
G75*
G02*
X61710000Y-143226250I0J243750D01*
G01*
G37*
G36*
G01*
X59835000Y-143226250D02*
X59835000Y-142313750D01*
G75*
G02*
X60078750Y-142070000I243750J0D01*
G01*
X60566250Y-142070000D01*
G75*
G02*
X60810000Y-142313750I0J-243750D01*
G01*
X60810000Y-143226250D01*
G75*
G02*
X60566250Y-143470000I-243750J0D01*
G01*
X60078750Y-143470000D01*
G75*
G02*
X59835000Y-143226250I0J243750D01*
G01*
G37*
G36*
G01*
X70963750Y-146685000D02*
X71876250Y-146685000D01*
G75*
G02*
X72120000Y-146928750I0J-243750D01*
G01*
X72120000Y-147416250D01*
G75*
G02*
X71876250Y-147660000I-243750J0D01*
G01*
X70963750Y-147660000D01*
G75*
G02*
X70720000Y-147416250I0J243750D01*
G01*
X70720000Y-146928750D01*
G75*
G02*
X70963750Y-146685000I243750J0D01*
G01*
G37*
G36*
G01*
X70963750Y-148560000D02*
X71876250Y-148560000D01*
G75*
G02*
X72120000Y-148803750I0J-243750D01*
G01*
X72120000Y-149291250D01*
G75*
G02*
X71876250Y-149535000I-243750J0D01*
G01*
X70963750Y-149535000D01*
G75*
G02*
X70720000Y-149291250I0J243750D01*
G01*
X70720000Y-148803750D01*
G75*
G02*
X70963750Y-148560000I243750J0D01*
G01*
G37*
G36*
G01*
X143580000Y-103888750D02*
X143580000Y-104801250D01*
G75*
G02*
X143336250Y-105045000I-243750J0D01*
G01*
X142848750Y-105045000D01*
G75*
G02*
X142605000Y-104801250I0J243750D01*
G01*
X142605000Y-103888750D01*
G75*
G02*
X142848750Y-103645000I243750J0D01*
G01*
X143336250Y-103645000D01*
G75*
G02*
X143580000Y-103888750I0J-243750D01*
G01*
G37*
G36*
G01*
X145455000Y-103888750D02*
X145455000Y-104801250D01*
G75*
G02*
X145211250Y-105045000I-243750J0D01*
G01*
X144723750Y-105045000D01*
G75*
G02*
X144480000Y-104801250I0J243750D01*
G01*
X144480000Y-103888750D01*
G75*
G02*
X144723750Y-103645000I243750J0D01*
G01*
X145211250Y-103645000D01*
G75*
G02*
X145455000Y-103888750I0J-243750D01*
G01*
G37*
G36*
G01*
X143580000Y-108968750D02*
X143580000Y-109881250D01*
G75*
G02*
X143336250Y-110125000I-243750J0D01*
G01*
X142848750Y-110125000D01*
G75*
G02*
X142605000Y-109881250I0J243750D01*
G01*
X142605000Y-108968750D01*
G75*
G02*
X142848750Y-108725000I243750J0D01*
G01*
X143336250Y-108725000D01*
G75*
G02*
X143580000Y-108968750I0J-243750D01*
G01*
G37*
G36*
G01*
X145455000Y-108968750D02*
X145455000Y-109881250D01*
G75*
G02*
X145211250Y-110125000I-243750J0D01*
G01*
X144723750Y-110125000D01*
G75*
G02*
X144480000Y-109881250I0J243750D01*
G01*
X144480000Y-108968750D01*
G75*
G02*
X144723750Y-108725000I243750J0D01*
G01*
X145211250Y-108725000D01*
G75*
G02*
X145455000Y-108968750I0J-243750D01*
G01*
G37*
G36*
G01*
X138930000Y-110096250D02*
X138930000Y-109183750D01*
G75*
G02*
X139173750Y-108940000I243750J0D01*
G01*
X139661250Y-108940000D01*
G75*
G02*
X139905000Y-109183750I0J-243750D01*
G01*
X139905000Y-110096250D01*
G75*
G02*
X139661250Y-110340000I-243750J0D01*
G01*
X139173750Y-110340000D01*
G75*
G02*
X138930000Y-110096250I0J243750D01*
G01*
G37*
G36*
G01*
X137055000Y-110096250D02*
X137055000Y-109183750D01*
G75*
G02*
X137298750Y-108940000I243750J0D01*
G01*
X137786250Y-108940000D01*
G75*
G02*
X138030000Y-109183750I0J-243750D01*
G01*
X138030000Y-110096250D01*
G75*
G02*
X137786250Y-110340000I-243750J0D01*
G01*
X137298750Y-110340000D01*
G75*
G02*
X137055000Y-110096250I0J243750D01*
G01*
G37*
G36*
G01*
X126523750Y-113870000D02*
X127436250Y-113870000D01*
G75*
G02*
X127680000Y-114113750I0J-243750D01*
G01*
X127680000Y-114601250D01*
G75*
G02*
X127436250Y-114845000I-243750J0D01*
G01*
X126523750Y-114845000D01*
G75*
G02*
X126280000Y-114601250I0J243750D01*
G01*
X126280000Y-114113750D01*
G75*
G02*
X126523750Y-113870000I243750J0D01*
G01*
G37*
G36*
G01*
X126523750Y-111995000D02*
X127436250Y-111995000D01*
G75*
G02*
X127680000Y-112238750I0J-243750D01*
G01*
X127680000Y-112726250D01*
G75*
G02*
X127436250Y-112970000I-243750J0D01*
G01*
X126523750Y-112970000D01*
G75*
G02*
X126280000Y-112726250I0J243750D01*
G01*
X126280000Y-112238750D01*
G75*
G02*
X126523750Y-111995000I243750J0D01*
G01*
G37*
G36*
G01*
X144480000Y-102515250D02*
X144480000Y-101602750D01*
G75*
G02*
X144723750Y-101359000I243750J0D01*
G01*
X145211250Y-101359000D01*
G75*
G02*
X145455000Y-101602750I0J-243750D01*
G01*
X145455000Y-102515250D01*
G75*
G02*
X145211250Y-102759000I-243750J0D01*
G01*
X144723750Y-102759000D01*
G75*
G02*
X144480000Y-102515250I0J243750D01*
G01*
G37*
G36*
G01*
X142605000Y-102515250D02*
X142605000Y-101602750D01*
G75*
G02*
X142848750Y-101359000I243750J0D01*
G01*
X143336250Y-101359000D01*
G75*
G02*
X143580000Y-101602750I0J-243750D01*
G01*
X143580000Y-102515250D01*
G75*
G02*
X143336250Y-102759000I-243750J0D01*
G01*
X142848750Y-102759000D01*
G75*
G02*
X142605000Y-102515250I0J243750D01*
G01*
G37*
G36*
G01*
X137218750Y-101350000D02*
X138131250Y-101350000D01*
G75*
G02*
X138375000Y-101593750I0J-243750D01*
G01*
X138375000Y-102081250D01*
G75*
G02*
X138131250Y-102325000I-243750J0D01*
G01*
X137218750Y-102325000D01*
G75*
G02*
X136975000Y-102081250I0J243750D01*
G01*
X136975000Y-101593750D01*
G75*
G02*
X137218750Y-101350000I243750J0D01*
G01*
G37*
G36*
G01*
X137218750Y-99475000D02*
X138131250Y-99475000D01*
G75*
G02*
X138375000Y-99718750I0J-243750D01*
G01*
X138375000Y-100206250D01*
G75*
G02*
X138131250Y-100450000I-243750J0D01*
G01*
X137218750Y-100450000D01*
G75*
G02*
X136975000Y-100206250I0J243750D01*
G01*
X136975000Y-99718750D01*
G75*
G02*
X137218750Y-99475000I243750J0D01*
G01*
G37*
G36*
G01*
X144480000Y-107341250D02*
X144480000Y-106428750D01*
G75*
G02*
X144723750Y-106185000I243750J0D01*
G01*
X145211250Y-106185000D01*
G75*
G02*
X145455000Y-106428750I0J-243750D01*
G01*
X145455000Y-107341250D01*
G75*
G02*
X145211250Y-107585000I-243750J0D01*
G01*
X144723750Y-107585000D01*
G75*
G02*
X144480000Y-107341250I0J243750D01*
G01*
G37*
G36*
G01*
X142605000Y-107341250D02*
X142605000Y-106428750D01*
G75*
G02*
X142848750Y-106185000I243750J0D01*
G01*
X143336250Y-106185000D01*
G75*
G02*
X143580000Y-106428750I0J-243750D01*
G01*
X143580000Y-107341250D01*
G75*
G02*
X143336250Y-107585000I-243750J0D01*
G01*
X142848750Y-107585000D01*
G75*
G02*
X142605000Y-107341250I0J243750D01*
G01*
G37*
G36*
G01*
X134696250Y-109310000D02*
X133783750Y-109310000D01*
G75*
G02*
X133540000Y-109066250I0J243750D01*
G01*
X133540000Y-108578750D01*
G75*
G02*
X133783750Y-108335000I243750J0D01*
G01*
X134696250Y-108335000D01*
G75*
G02*
X134940000Y-108578750I0J-243750D01*
G01*
X134940000Y-109066250D01*
G75*
G02*
X134696250Y-109310000I-243750J0D01*
G01*
G37*
G36*
G01*
X134696250Y-111185000D02*
X133783750Y-111185000D01*
G75*
G02*
X133540000Y-110941250I0J243750D01*
G01*
X133540000Y-110453750D01*
G75*
G02*
X133783750Y-110210000I243750J0D01*
G01*
X134696250Y-110210000D01*
G75*
G02*
X134940000Y-110453750I0J-243750D01*
G01*
X134940000Y-110941250D01*
G75*
G02*
X134696250Y-111185000I-243750J0D01*
G01*
G37*
G36*
G01*
X126563750Y-118280000D02*
X127476250Y-118280000D01*
G75*
G02*
X127720000Y-118523750I0J-243750D01*
G01*
X127720000Y-119011250D01*
G75*
G02*
X127476250Y-119255000I-243750J0D01*
G01*
X126563750Y-119255000D01*
G75*
G02*
X126320000Y-119011250I0J243750D01*
G01*
X126320000Y-118523750D01*
G75*
G02*
X126563750Y-118280000I243750J0D01*
G01*
G37*
G36*
G01*
X126563750Y-116405000D02*
X127476250Y-116405000D01*
G75*
G02*
X127720000Y-116648750I0J-243750D01*
G01*
X127720000Y-117136250D01*
G75*
G02*
X127476250Y-117380000I-243750J0D01*
G01*
X126563750Y-117380000D01*
G75*
G02*
X126320000Y-117136250I0J243750D01*
G01*
X126320000Y-116648750D01*
G75*
G02*
X126563750Y-116405000I243750J0D01*
G01*
G37*
D11*
X132220000Y-113410000D03*
X130220000Y-114360000D03*
X130220000Y-112460000D03*
D34*
X54390000Y-142730000D03*
X57690000Y-142730000D03*
G36*
G01*
X133000000Y-139523750D02*
X133000000Y-140436250D01*
G75*
G02*
X132756250Y-140680000I-243750J0D01*
G01*
X132268750Y-140680000D01*
G75*
G02*
X132025000Y-140436250I0J243750D01*
G01*
X132025000Y-139523750D01*
G75*
G02*
X132268750Y-139280000I243750J0D01*
G01*
X132756250Y-139280000D01*
G75*
G02*
X133000000Y-139523750I0J-243750D01*
G01*
G37*
G36*
G01*
X134875000Y-139523750D02*
X134875000Y-140436250D01*
G75*
G02*
X134631250Y-140680000I-243750J0D01*
G01*
X134143750Y-140680000D01*
G75*
G02*
X133900000Y-140436250I0J243750D01*
G01*
X133900000Y-139523750D01*
G75*
G02*
X134143750Y-139280000I243750J0D01*
G01*
X134631250Y-139280000D01*
G75*
G02*
X134875000Y-139523750I0J-243750D01*
G01*
G37*
G36*
G01*
X57440000Y-148616250D02*
X57440000Y-147703750D01*
G75*
G02*
X57683750Y-147460000I243750J0D01*
G01*
X58171250Y-147460000D01*
G75*
G02*
X58415000Y-147703750I0J-243750D01*
G01*
X58415000Y-148616250D01*
G75*
G02*
X58171250Y-148860000I-243750J0D01*
G01*
X57683750Y-148860000D01*
G75*
G02*
X57440000Y-148616250I0J243750D01*
G01*
G37*
G36*
G01*
X55565000Y-148616250D02*
X55565000Y-147703750D01*
G75*
G02*
X55808750Y-147460000I243750J0D01*
G01*
X56296250Y-147460000D01*
G75*
G02*
X56540000Y-147703750I0J-243750D01*
G01*
X56540000Y-148616250D01*
G75*
G02*
X56296250Y-148860000I-243750J0D01*
G01*
X55808750Y-148860000D01*
G75*
G02*
X55565000Y-148616250I0J243750D01*
G01*
G37*
G36*
G01*
X95883750Y-165215000D02*
X96796250Y-165215000D01*
G75*
G02*
X97040000Y-165458750I0J-243750D01*
G01*
X97040000Y-165946250D01*
G75*
G02*
X96796250Y-166190000I-243750J0D01*
G01*
X95883750Y-166190000D01*
G75*
G02*
X95640000Y-165946250I0J243750D01*
G01*
X95640000Y-165458750D01*
G75*
G02*
X95883750Y-165215000I243750J0D01*
G01*
G37*
G36*
G01*
X95883750Y-163340000D02*
X96796250Y-163340000D01*
G75*
G02*
X97040000Y-163583750I0J-243750D01*
G01*
X97040000Y-164071250D01*
G75*
G02*
X96796250Y-164315000I-243750J0D01*
G01*
X95883750Y-164315000D01*
G75*
G02*
X95640000Y-164071250I0J243750D01*
G01*
X95640000Y-163583750D01*
G75*
G02*
X95883750Y-163340000I243750J0D01*
G01*
G37*
D36*
X105770000Y-163505000D03*
X105770000Y-165405000D03*
X107870000Y-164455000D03*
G36*
G01*
X99303750Y-165215000D02*
X100216250Y-165215000D01*
G75*
G02*
X100460000Y-165458750I0J-243750D01*
G01*
X100460000Y-165946250D01*
G75*
G02*
X100216250Y-166190000I-243750J0D01*
G01*
X99303750Y-166190000D01*
G75*
G02*
X99060000Y-165946250I0J243750D01*
G01*
X99060000Y-165458750D01*
G75*
G02*
X99303750Y-165215000I243750J0D01*
G01*
G37*
G36*
G01*
X99303750Y-163340000D02*
X100216250Y-163340000D01*
G75*
G02*
X100460000Y-163583750I0J-243750D01*
G01*
X100460000Y-164071250D01*
G75*
G02*
X100216250Y-164315000I-243750J0D01*
G01*
X99303750Y-164315000D01*
G75*
G02*
X99060000Y-164071250I0J243750D01*
G01*
X99060000Y-163583750D01*
G75*
G02*
X99303750Y-163340000I243750J0D01*
G01*
G37*
G36*
G01*
X93981250Y-164340000D02*
X93068750Y-164340000D01*
G75*
G02*
X92825000Y-164096250I0J243750D01*
G01*
X92825000Y-163608750D01*
G75*
G02*
X93068750Y-163365000I243750J0D01*
G01*
X93981250Y-163365000D01*
G75*
G02*
X94225000Y-163608750I0J-243750D01*
G01*
X94225000Y-164096250D01*
G75*
G02*
X93981250Y-164340000I-243750J0D01*
G01*
G37*
G36*
G01*
X93981250Y-166215000D02*
X93068750Y-166215000D01*
G75*
G02*
X92825000Y-165971250I0J243750D01*
G01*
X92825000Y-165483750D01*
G75*
G02*
X93068750Y-165240000I243750J0D01*
G01*
X93981250Y-165240000D01*
G75*
G02*
X94225000Y-165483750I0J-243750D01*
G01*
X94225000Y-165971250D01*
G75*
G02*
X93981250Y-166215000I-243750J0D01*
G01*
G37*
D26*
X40235000Y-157815000D03*
X41505000Y-157815000D03*
X42775000Y-157815000D03*
X44045000Y-157815000D03*
X44045000Y-163215000D03*
X42775000Y-163215000D03*
X41505000Y-163215000D03*
X40235000Y-163215000D03*
X33845000Y-157815000D03*
X35115000Y-157815000D03*
X36385000Y-157815000D03*
X37655000Y-157815000D03*
X37655000Y-163215000D03*
X36385000Y-163215000D03*
X35115000Y-163215000D03*
X33845000Y-163215000D03*
G36*
G01*
X115560000Y-50333750D02*
X115560000Y-51246250D01*
G75*
G02*
X115316250Y-51490000I-243750J0D01*
G01*
X114828750Y-51490000D01*
G75*
G02*
X114585000Y-51246250I0J243750D01*
G01*
X114585000Y-50333750D01*
G75*
G02*
X114828750Y-50090000I243750J0D01*
G01*
X115316250Y-50090000D01*
G75*
G02*
X115560000Y-50333750I0J-243750D01*
G01*
G37*
G36*
G01*
X117435000Y-50333750D02*
X117435000Y-51246250D01*
G75*
G02*
X117191250Y-51490000I-243750J0D01*
G01*
X116703750Y-51490000D01*
G75*
G02*
X116460000Y-51246250I0J243750D01*
G01*
X116460000Y-50333750D01*
G75*
G02*
X116703750Y-50090000I243750J0D01*
G01*
X117191250Y-50090000D01*
G75*
G02*
X117435000Y-50333750I0J-243750D01*
G01*
G37*
G36*
G01*
X125910000Y-58376250D02*
X125910000Y-57463750D01*
G75*
G02*
X126153750Y-57220000I243750J0D01*
G01*
X126641250Y-57220000D01*
G75*
G02*
X126885000Y-57463750I0J-243750D01*
G01*
X126885000Y-58376250D01*
G75*
G02*
X126641250Y-58620000I-243750J0D01*
G01*
X126153750Y-58620000D01*
G75*
G02*
X125910000Y-58376250I0J243750D01*
G01*
G37*
G36*
G01*
X124035000Y-58376250D02*
X124035000Y-57463750D01*
G75*
G02*
X124278750Y-57220000I243750J0D01*
G01*
X124766250Y-57220000D01*
G75*
G02*
X125010000Y-57463750I0J-243750D01*
G01*
X125010000Y-58376250D01*
G75*
G02*
X124766250Y-58620000I-243750J0D01*
G01*
X124278750Y-58620000D01*
G75*
G02*
X124035000Y-58376250I0J243750D01*
G01*
G37*
G36*
G01*
X110490000Y-55776250D02*
X110490000Y-54863750D01*
G75*
G02*
X110733750Y-54620000I243750J0D01*
G01*
X111221250Y-54620000D01*
G75*
G02*
X111465000Y-54863750I0J-243750D01*
G01*
X111465000Y-55776250D01*
G75*
G02*
X111221250Y-56020000I-243750J0D01*
G01*
X110733750Y-56020000D01*
G75*
G02*
X110490000Y-55776250I0J243750D01*
G01*
G37*
G36*
G01*
X108615000Y-55776250D02*
X108615000Y-54863750D01*
G75*
G02*
X108858750Y-54620000I243750J0D01*
G01*
X109346250Y-54620000D01*
G75*
G02*
X109590000Y-54863750I0J-243750D01*
G01*
X109590000Y-55776250D01*
G75*
G02*
X109346250Y-56020000I-243750J0D01*
G01*
X108858750Y-56020000D01*
G75*
G02*
X108615000Y-55776250I0J243750D01*
G01*
G37*
G36*
G01*
X125010000Y-54713750D02*
X125010000Y-55626250D01*
G75*
G02*
X124766250Y-55870000I-243750J0D01*
G01*
X124278750Y-55870000D01*
G75*
G02*
X124035000Y-55626250I0J243750D01*
G01*
X124035000Y-54713750D01*
G75*
G02*
X124278750Y-54470000I243750J0D01*
G01*
X124766250Y-54470000D01*
G75*
G02*
X125010000Y-54713750I0J-243750D01*
G01*
G37*
G36*
G01*
X126885000Y-54713750D02*
X126885000Y-55626250D01*
G75*
G02*
X126641250Y-55870000I-243750J0D01*
G01*
X126153750Y-55870000D01*
G75*
G02*
X125910000Y-55626250I0J243750D01*
G01*
X125910000Y-54713750D01*
G75*
G02*
X126153750Y-54470000I243750J0D01*
G01*
X126641250Y-54470000D01*
G75*
G02*
X126885000Y-54713750I0J-243750D01*
G01*
G37*
G36*
G01*
X125910000Y-50126250D02*
X125910000Y-49213750D01*
G75*
G02*
X126153750Y-48970000I243750J0D01*
G01*
X126641250Y-48970000D01*
G75*
G02*
X126885000Y-49213750I0J-243750D01*
G01*
X126885000Y-50126250D01*
G75*
G02*
X126641250Y-50370000I-243750J0D01*
G01*
X126153750Y-50370000D01*
G75*
G02*
X125910000Y-50126250I0J243750D01*
G01*
G37*
G36*
G01*
X124035000Y-50126250D02*
X124035000Y-49213750D01*
G75*
G02*
X124278750Y-48970000I243750J0D01*
G01*
X124766250Y-48970000D01*
G75*
G02*
X125010000Y-49213750I0J-243750D01*
G01*
X125010000Y-50126250D01*
G75*
G02*
X124766250Y-50370000I-243750J0D01*
G01*
X124278750Y-50370000D01*
G75*
G02*
X124035000Y-50126250I0J243750D01*
G01*
G37*
D21*
X121200000Y-53845000D03*
X121200000Y-55115000D03*
X121200000Y-56385000D03*
X121200000Y-57655000D03*
X115800000Y-57655000D03*
X115800000Y-56385000D03*
X115800000Y-55115000D03*
X115800000Y-53845000D03*
D37*
X65460000Y-113485000D03*
X65460000Y-114755000D03*
X65460000Y-116025000D03*
X65460000Y-117295000D03*
X72860000Y-117295000D03*
X72860000Y-116025000D03*
X72860000Y-114755000D03*
X72860000Y-113485000D03*
G36*
G01*
X122255000Y-67413750D02*
X122255000Y-68326250D01*
G75*
G02*
X122011250Y-68570000I-243750J0D01*
G01*
X121523750Y-68570000D01*
G75*
G02*
X121280000Y-68326250I0J243750D01*
G01*
X121280000Y-67413750D01*
G75*
G02*
X121523750Y-67170000I243750J0D01*
G01*
X122011250Y-67170000D01*
G75*
G02*
X122255000Y-67413750I0J-243750D01*
G01*
G37*
G36*
G01*
X120380000Y-67413750D02*
X120380000Y-68326250D01*
G75*
G02*
X120136250Y-68570000I-243750J0D01*
G01*
X119648750Y-68570000D01*
G75*
G02*
X119405000Y-68326250I0J243750D01*
G01*
X119405000Y-67413750D01*
G75*
G02*
X119648750Y-67170000I243750J0D01*
G01*
X120136250Y-67170000D01*
G75*
G02*
X120380000Y-67413750I0J-243750D01*
G01*
G37*
G36*
G01*
X154966250Y-125798000D02*
X154053750Y-125798000D01*
G75*
G02*
X153810000Y-125554250I0J243750D01*
G01*
X153810000Y-125066750D01*
G75*
G02*
X154053750Y-124823000I243750J0D01*
G01*
X154966250Y-124823000D01*
G75*
G02*
X155210000Y-125066750I0J-243750D01*
G01*
X155210000Y-125554250D01*
G75*
G02*
X154966250Y-125798000I-243750J0D01*
G01*
G37*
G36*
G01*
X154966250Y-127673000D02*
X154053750Y-127673000D01*
G75*
G02*
X153810000Y-127429250I0J243750D01*
G01*
X153810000Y-126941750D01*
G75*
G02*
X154053750Y-126698000I243750J0D01*
G01*
X154966250Y-126698000D01*
G75*
G02*
X155210000Y-126941750I0J-243750D01*
G01*
X155210000Y-127429250D01*
G75*
G02*
X154966250Y-127673000I-243750J0D01*
G01*
G37*
D38*
X162310000Y-146700000D03*
X162310000Y-147700000D03*
X162310000Y-148700000D03*
X162310000Y-149700000D03*
X162310000Y-150700000D03*
X162310000Y-151700000D03*
X162310000Y-152700000D03*
X162310000Y-153700000D03*
D39*
X171110000Y-158175000D03*
X171110000Y-142225000D03*
X170160000Y-44055000D03*
X170160000Y-60005000D03*
D38*
X161360000Y-55530000D03*
X161360000Y-54530000D03*
X161360000Y-53530000D03*
X161360000Y-52530000D03*
X161360000Y-51530000D03*
X161360000Y-50530000D03*
X161360000Y-49530000D03*
X161360000Y-48530000D03*
D40*
X122270000Y-42030000D03*
X124270000Y-42030000D03*
X126270000Y-42030000D03*
X128270000Y-42030000D03*
X122270000Y-33230000D03*
X124270000Y-33230000D03*
X126270000Y-33230000D03*
X128270000Y-33230000D03*
D41*
X132320000Y-42130000D03*
D42*
X132320000Y-33480000D03*
D41*
X118220000Y-42130000D03*
D42*
X118220000Y-33480000D03*
G36*
G01*
X40905000Y-167356250D02*
X40905000Y-166443750D01*
G75*
G02*
X41148750Y-166200000I243750J0D01*
G01*
X41636250Y-166200000D01*
G75*
G02*
X41880000Y-166443750I0J-243750D01*
G01*
X41880000Y-167356250D01*
G75*
G02*
X41636250Y-167600000I-243750J0D01*
G01*
X41148750Y-167600000D01*
G75*
G02*
X40905000Y-167356250I0J243750D01*
G01*
G37*
G36*
G01*
X42780000Y-167356250D02*
X42780000Y-166443750D01*
G75*
G02*
X43023750Y-166200000I243750J0D01*
G01*
X43511250Y-166200000D01*
G75*
G02*
X43755000Y-166443750I0J-243750D01*
G01*
X43755000Y-167356250D01*
G75*
G02*
X43511250Y-167600000I-243750J0D01*
G01*
X43023750Y-167600000D01*
G75*
G02*
X42780000Y-167356250I0J243750D01*
G01*
G37*
G36*
G01*
X36130000Y-167356250D02*
X36130000Y-166443750D01*
G75*
G02*
X36373750Y-166200000I243750J0D01*
G01*
X36861250Y-166200000D01*
G75*
G02*
X37105000Y-166443750I0J-243750D01*
G01*
X37105000Y-167356250D01*
G75*
G02*
X36861250Y-167600000I-243750J0D01*
G01*
X36373750Y-167600000D01*
G75*
G02*
X36130000Y-167356250I0J243750D01*
G01*
G37*
G36*
G01*
X34255000Y-167356250D02*
X34255000Y-166443750D01*
G75*
G02*
X34498750Y-166200000I243750J0D01*
G01*
X34986250Y-166200000D01*
G75*
G02*
X35230000Y-166443750I0J-243750D01*
G01*
X35230000Y-167356250D01*
G75*
G02*
X34986250Y-167600000I-243750J0D01*
G01*
X34498750Y-167600000D01*
G75*
G02*
X34255000Y-167356250I0J243750D01*
G01*
G37*
G36*
G01*
X29160000Y-167356250D02*
X29160000Y-166443750D01*
G75*
G02*
X29403750Y-166200000I243750J0D01*
G01*
X29891250Y-166200000D01*
G75*
G02*
X30135000Y-166443750I0J-243750D01*
G01*
X30135000Y-167356250D01*
G75*
G02*
X29891250Y-167600000I-243750J0D01*
G01*
X29403750Y-167600000D01*
G75*
G02*
X29160000Y-167356250I0J243750D01*
G01*
G37*
G36*
G01*
X27285000Y-167356250D02*
X27285000Y-166443750D01*
G75*
G02*
X27528750Y-166200000I243750J0D01*
G01*
X28016250Y-166200000D01*
G75*
G02*
X28260000Y-166443750I0J-243750D01*
G01*
X28260000Y-167356250D01*
G75*
G02*
X28016250Y-167600000I-243750J0D01*
G01*
X27528750Y-167600000D01*
G75*
G02*
X27285000Y-167356250I0J243750D01*
G01*
G37*
G36*
G01*
X74175000Y-133916250D02*
X74175000Y-133003750D01*
G75*
G02*
X74418750Y-132760000I243750J0D01*
G01*
X74906250Y-132760000D01*
G75*
G02*
X75150000Y-133003750I0J-243750D01*
G01*
X75150000Y-133916250D01*
G75*
G02*
X74906250Y-134160000I-243750J0D01*
G01*
X74418750Y-134160000D01*
G75*
G02*
X74175000Y-133916250I0J243750D01*
G01*
G37*
G36*
G01*
X76050000Y-133916250D02*
X76050000Y-133003750D01*
G75*
G02*
X76293750Y-132760000I243750J0D01*
G01*
X76781250Y-132760000D01*
G75*
G02*
X77025000Y-133003750I0J-243750D01*
G01*
X77025000Y-133916250D01*
G75*
G02*
X76781250Y-134160000I-243750J0D01*
G01*
X76293750Y-134160000D01*
G75*
G02*
X76050000Y-133916250I0J243750D01*
G01*
G37*
G36*
G01*
X125183000Y-98215000D02*
X126133000Y-98215000D01*
G75*
G02*
X126383000Y-98465000I0J-250000D01*
G01*
X126383000Y-98965000D01*
G75*
G02*
X126133000Y-99215000I-250000J0D01*
G01*
X125183000Y-99215000D01*
G75*
G02*
X124933000Y-98965000I0J250000D01*
G01*
X124933000Y-98465000D01*
G75*
G02*
X125183000Y-98215000I250000J0D01*
G01*
G37*
G36*
G01*
X125183000Y-96315000D02*
X126133000Y-96315000D01*
G75*
G02*
X126383000Y-96565000I0J-250000D01*
G01*
X126383000Y-97065000D01*
G75*
G02*
X126133000Y-97315000I-250000J0D01*
G01*
X125183000Y-97315000D01*
G75*
G02*
X124933000Y-97065000I0J250000D01*
G01*
X124933000Y-96565000D01*
G75*
G02*
X125183000Y-96315000I250000J0D01*
G01*
G37*
G36*
G01*
X133450000Y-127415000D02*
X133450000Y-126465000D01*
G75*
G02*
X133700000Y-126215000I250000J0D01*
G01*
X134200000Y-126215000D01*
G75*
G02*
X134450000Y-126465000I0J-250000D01*
G01*
X134450000Y-127415000D01*
G75*
G02*
X134200000Y-127665000I-250000J0D01*
G01*
X133700000Y-127665000D01*
G75*
G02*
X133450000Y-127415000I0J250000D01*
G01*
G37*
G36*
G01*
X131550000Y-127415000D02*
X131550000Y-126465000D01*
G75*
G02*
X131800000Y-126215000I250000J0D01*
G01*
X132300000Y-126215000D01*
G75*
G02*
X132550000Y-126465000I0J-250000D01*
G01*
X132550000Y-127415000D01*
G75*
G02*
X132300000Y-127665000I-250000J0D01*
G01*
X131800000Y-127665000D01*
G75*
G02*
X131550000Y-127415000I0J250000D01*
G01*
G37*
G36*
G01*
X77070000Y-78945000D02*
X76120000Y-78945000D01*
G75*
G02*
X75870000Y-78695000I0J250000D01*
G01*
X75870000Y-78195000D01*
G75*
G02*
X76120000Y-77945000I250000J0D01*
G01*
X77070000Y-77945000D01*
G75*
G02*
X77320000Y-78195000I0J-250000D01*
G01*
X77320000Y-78695000D01*
G75*
G02*
X77070000Y-78945000I-250000J0D01*
G01*
G37*
G36*
G01*
X77070000Y-77045000D02*
X76120000Y-77045000D01*
G75*
G02*
X75870000Y-76795000I0J250000D01*
G01*
X75870000Y-76295000D01*
G75*
G02*
X76120000Y-76045000I250000J0D01*
G01*
X77070000Y-76045000D01*
G75*
G02*
X77320000Y-76295000I0J-250000D01*
G01*
X77320000Y-76795000D01*
G75*
G02*
X77070000Y-77045000I-250000J0D01*
G01*
G37*
G36*
G01*
X77195000Y-87970000D02*
X76245000Y-87970000D01*
G75*
G02*
X75995000Y-87720000I0J250000D01*
G01*
X75995000Y-87220000D01*
G75*
G02*
X76245000Y-86970000I250000J0D01*
G01*
X77195000Y-86970000D01*
G75*
G02*
X77445000Y-87220000I0J-250000D01*
G01*
X77445000Y-87720000D01*
G75*
G02*
X77195000Y-87970000I-250000J0D01*
G01*
G37*
G36*
G01*
X77195000Y-89870000D02*
X76245000Y-89870000D01*
G75*
G02*
X75995000Y-89620000I0J250000D01*
G01*
X75995000Y-89120000D01*
G75*
G02*
X76245000Y-88870000I250000J0D01*
G01*
X77195000Y-88870000D01*
G75*
G02*
X77445000Y-89120000I0J-250000D01*
G01*
X77445000Y-89620000D01*
G75*
G02*
X77195000Y-89870000I-250000J0D01*
G01*
G37*
G36*
G01*
X128299998Y-96340000D02*
X129200002Y-96340000D01*
G75*
G02*
X129450000Y-96589998I0J-249998D01*
G01*
X129450000Y-97115002D01*
G75*
G02*
X129200002Y-97365000I-249998J0D01*
G01*
X128299998Y-97365000D01*
G75*
G02*
X128050000Y-97115002I0J249998D01*
G01*
X128050000Y-96589998D01*
G75*
G02*
X128299998Y-96340000I249998J0D01*
G01*
G37*
G36*
G01*
X128299998Y-98165000D02*
X129200002Y-98165000D01*
G75*
G02*
X129450000Y-98414998I0J-249998D01*
G01*
X129450000Y-98940002D01*
G75*
G02*
X129200002Y-99190000I-249998J0D01*
G01*
X128299998Y-99190000D01*
G75*
G02*
X128050000Y-98940002I0J249998D01*
G01*
X128050000Y-98414998D01*
G75*
G02*
X128299998Y-98165000I249998J0D01*
G01*
G37*
G36*
G01*
X133490000Y-122110002D02*
X133490000Y-121209998D01*
G75*
G02*
X133739998Y-120960000I249998J0D01*
G01*
X134265002Y-120960000D01*
G75*
G02*
X134515000Y-121209998I0J-249998D01*
G01*
X134515000Y-122110002D01*
G75*
G02*
X134265002Y-122360000I-249998J0D01*
G01*
X133739998Y-122360000D01*
G75*
G02*
X133490000Y-122110002I0J249998D01*
G01*
G37*
G36*
G01*
X131665000Y-122110002D02*
X131665000Y-121209998D01*
G75*
G02*
X131914998Y-120960000I249998J0D01*
G01*
X132440002Y-120960000D01*
G75*
G02*
X132690000Y-121209998I0J-249998D01*
G01*
X132690000Y-122110002D01*
G75*
G02*
X132440002Y-122360000I-249998J0D01*
G01*
X131914998Y-122360000D01*
G75*
G02*
X131665000Y-122110002I0J249998D01*
G01*
G37*
G36*
G01*
X122115998Y-98165000D02*
X123016002Y-98165000D01*
G75*
G02*
X123266000Y-98414998I0J-249998D01*
G01*
X123266000Y-98940002D01*
G75*
G02*
X123016002Y-99190000I-249998J0D01*
G01*
X122115998Y-99190000D01*
G75*
G02*
X121866000Y-98940002I0J249998D01*
G01*
X121866000Y-98414998D01*
G75*
G02*
X122115998Y-98165000I249998J0D01*
G01*
G37*
G36*
G01*
X122115998Y-96340000D02*
X123016002Y-96340000D01*
G75*
G02*
X123266000Y-96589998I0J-249998D01*
G01*
X123266000Y-97115002D01*
G75*
G02*
X123016002Y-97365000I-249998J0D01*
G01*
X122115998Y-97365000D01*
G75*
G02*
X121866000Y-97115002I0J249998D01*
G01*
X121866000Y-96589998D01*
G75*
G02*
X122115998Y-96340000I249998J0D01*
G01*
G37*
G36*
G01*
X131605000Y-124660002D02*
X131605000Y-123759998D01*
G75*
G02*
X131854998Y-123510000I249998J0D01*
G01*
X132380002Y-123510000D01*
G75*
G02*
X132630000Y-123759998I0J-249998D01*
G01*
X132630000Y-124660002D01*
G75*
G02*
X132380002Y-124910000I-249998J0D01*
G01*
X131854998Y-124910000D01*
G75*
G02*
X131605000Y-124660002I0J249998D01*
G01*
G37*
G36*
G01*
X133430000Y-124660002D02*
X133430000Y-123759998D01*
G75*
G02*
X133679998Y-123510000I249998J0D01*
G01*
X134205002Y-123510000D01*
G75*
G02*
X134455000Y-123759998I0J-249998D01*
G01*
X134455000Y-124660002D01*
G75*
G02*
X134205002Y-124910000I-249998J0D01*
G01*
X133679998Y-124910000D01*
G75*
G02*
X133430000Y-124660002I0J249998D01*
G01*
G37*
G36*
G01*
X73119998Y-76070000D02*
X74020002Y-76070000D01*
G75*
G02*
X74270000Y-76319998I0J-249998D01*
G01*
X74270000Y-76845002D01*
G75*
G02*
X74020002Y-77095000I-249998J0D01*
G01*
X73119998Y-77095000D01*
G75*
G02*
X72870000Y-76845002I0J249998D01*
G01*
X72870000Y-76319998D01*
G75*
G02*
X73119998Y-76070000I249998J0D01*
G01*
G37*
G36*
G01*
X73119998Y-77895000D02*
X74020002Y-77895000D01*
G75*
G02*
X74270000Y-78144998I0J-249998D01*
G01*
X74270000Y-78670002D01*
G75*
G02*
X74020002Y-78920000I-249998J0D01*
G01*
X73119998Y-78920000D01*
G75*
G02*
X72870000Y-78670002I0J249998D01*
G01*
X72870000Y-78144998D01*
G75*
G02*
X73119998Y-77895000I249998J0D01*
G01*
G37*
G36*
G01*
X73469998Y-88820000D02*
X74370002Y-88820000D01*
G75*
G02*
X74620000Y-89069998I0J-249998D01*
G01*
X74620000Y-89595002D01*
G75*
G02*
X74370002Y-89845000I-249998J0D01*
G01*
X73469998Y-89845000D01*
G75*
G02*
X73220000Y-89595002I0J249998D01*
G01*
X73220000Y-89069998D01*
G75*
G02*
X73469998Y-88820000I249998J0D01*
G01*
G37*
G36*
G01*
X73469998Y-86995000D02*
X74370002Y-86995000D01*
G75*
G02*
X74620000Y-87244998I0J-249998D01*
G01*
X74620000Y-87770002D01*
G75*
G02*
X74370002Y-88020000I-249998J0D01*
G01*
X73469998Y-88020000D01*
G75*
G02*
X73220000Y-87770002I0J249998D01*
G01*
X73220000Y-87244998D01*
G75*
G02*
X73469998Y-86995000I249998J0D01*
G01*
G37*
G36*
G01*
X74745000Y-80194998D02*
X74745000Y-81095002D01*
G75*
G02*
X74495002Y-81345000I-249998J0D01*
G01*
X73969998Y-81345000D01*
G75*
G02*
X73720000Y-81095002I0J249998D01*
G01*
X73720000Y-80194998D01*
G75*
G02*
X73969998Y-79945000I249998J0D01*
G01*
X74495002Y-79945000D01*
G75*
G02*
X74745000Y-80194998I0J-249998D01*
G01*
G37*
G36*
G01*
X76570000Y-80194998D02*
X76570000Y-81095002D01*
G75*
G02*
X76320002Y-81345000I-249998J0D01*
G01*
X75794998Y-81345000D01*
G75*
G02*
X75545000Y-81095002I0J249998D01*
G01*
X75545000Y-80194998D01*
G75*
G02*
X75794998Y-79945000I249998J0D01*
G01*
X76320002Y-79945000D01*
G75*
G02*
X76570000Y-80194998I0J-249998D01*
G01*
G37*
G36*
G01*
X76795000Y-91044998D02*
X76795000Y-91945002D01*
G75*
G02*
X76545002Y-92195000I-249998J0D01*
G01*
X76019998Y-92195000D01*
G75*
G02*
X75770000Y-91945002I0J249998D01*
G01*
X75770000Y-91044998D01*
G75*
G02*
X76019998Y-90795000I249998J0D01*
G01*
X76545002Y-90795000D01*
G75*
G02*
X76795000Y-91044998I0J-249998D01*
G01*
G37*
G36*
G01*
X74970000Y-91044998D02*
X74970000Y-91945002D01*
G75*
G02*
X74720002Y-92195000I-249998J0D01*
G01*
X74194998Y-92195000D01*
G75*
G02*
X73945000Y-91945002I0J249998D01*
G01*
X73945000Y-91044998D01*
G75*
G02*
X74194998Y-90795000I249998J0D01*
G01*
X74720002Y-90795000D01*
G75*
G02*
X74970000Y-91044998I0J-249998D01*
G01*
G37*
D43*
X158769999Y-97244999D03*
X153170001Y-97244999D03*
X158769999Y-96245001D03*
X153170001Y-96245001D03*
X158769999Y-95245000D03*
X153170001Y-95245000D03*
X158769999Y-94245000D03*
X153170001Y-94245000D03*
X158769999Y-93244999D03*
X153170001Y-93244999D03*
X158769999Y-92245001D03*
X153170001Y-92245001D03*
X158769999Y-91245001D03*
X153170001Y-91245001D03*
X158769999Y-90245000D03*
X153170001Y-90245000D03*
X158769999Y-89245000D03*
X153170001Y-89245000D03*
X158769999Y-88244999D03*
X153170001Y-88244999D03*
X158769999Y-87245001D03*
X153170001Y-87245001D03*
X158769999Y-86245001D03*
X153170001Y-86245001D03*
X158769999Y-85245000D03*
X153170001Y-85245000D03*
X158769999Y-84244999D03*
X153170001Y-84244999D03*
X158769999Y-83244999D03*
X153170001Y-83244999D03*
X158769999Y-82245001D03*
X153170001Y-82245001D03*
X158769999Y-81245000D03*
X153170001Y-81245000D03*
X158769999Y-80245000D03*
X153170001Y-80245000D03*
X158769999Y-79244999D03*
X153170001Y-79244999D03*
X158769999Y-78244999D03*
X153170001Y-78244999D03*
X158769999Y-77245001D03*
X153170001Y-77245001D03*
X158769999Y-76245000D03*
X153170001Y-76245000D03*
X158769999Y-75245000D03*
X153170001Y-75245000D03*
X158769999Y-74244999D03*
X153170001Y-74244999D03*
X158769999Y-73245001D03*
X153170001Y-73245001D03*
D44*
X155570001Y-98570005D03*
X155570001Y-71919995D03*
G36*
G01*
X34694999Y-82495000D02*
X37545001Y-82495000D01*
G75*
G02*
X37795000Y-82744999I0J-249999D01*
G01*
X37795000Y-83770001D01*
G75*
G02*
X37545001Y-84020000I-249999J0D01*
G01*
X34694999Y-84020000D01*
G75*
G02*
X34445000Y-83770001I0J249999D01*
G01*
X34445000Y-82744999D01*
G75*
G02*
X34694999Y-82495000I249999J0D01*
G01*
G37*
G36*
G01*
X34694999Y-76520000D02*
X37545001Y-76520000D01*
G75*
G02*
X37795000Y-76769999I0J-249999D01*
G01*
X37795000Y-77795001D01*
G75*
G02*
X37545001Y-78045000I-249999J0D01*
G01*
X34694999Y-78045000D01*
G75*
G02*
X34445000Y-77795001I0J249999D01*
G01*
X34445000Y-76769999D01*
G75*
G02*
X34694999Y-76520000I249999J0D01*
G01*
G37*
G36*
G01*
X71314000Y-47088999D02*
X71314000Y-49939001D01*
G75*
G02*
X71064001Y-50189000I-249999J0D01*
G01*
X70038999Y-50189000D01*
G75*
G02*
X69789000Y-49939001I0J249999D01*
G01*
X69789000Y-47088999D01*
G75*
G02*
X70038999Y-46839000I249999J0D01*
G01*
X71064001Y-46839000D01*
G75*
G02*
X71314000Y-47088999I0J-249999D01*
G01*
G37*
G36*
G01*
X65339000Y-47088999D02*
X65339000Y-49939001D01*
G75*
G02*
X65089001Y-50189000I-249999J0D01*
G01*
X64063999Y-50189000D01*
G75*
G02*
X63814000Y-49939001I0J249999D01*
G01*
X63814000Y-47088999D01*
G75*
G02*
X64063999Y-46839000I249999J0D01*
G01*
X65089001Y-46839000D01*
G75*
G02*
X65339000Y-47088999I0J-249999D01*
G01*
G37*
G36*
G01*
X97160000Y-32334999D02*
X97160000Y-35185001D01*
G75*
G02*
X96910001Y-35435000I-249999J0D01*
G01*
X95884999Y-35435000D01*
G75*
G02*
X95635000Y-35185001I0J249999D01*
G01*
X95635000Y-32334999D01*
G75*
G02*
X95884999Y-32085000I249999J0D01*
G01*
X96910001Y-32085000D01*
G75*
G02*
X97160000Y-32334999I0J-249999D01*
G01*
G37*
G36*
G01*
X91185000Y-32334999D02*
X91185000Y-35185001D01*
G75*
G02*
X90935001Y-35435000I-249999J0D01*
G01*
X89909999Y-35435000D01*
G75*
G02*
X89660000Y-35185001I0J249999D01*
G01*
X89660000Y-32334999D01*
G75*
G02*
X89909999Y-32085000I249999J0D01*
G01*
X90935001Y-32085000D01*
G75*
G02*
X91185000Y-32334999I0J-249999D01*
G01*
G37*
G36*
G01*
X47635000Y-42810000D02*
X46685000Y-42810000D01*
G75*
G02*
X46435000Y-42560000I0J250000D01*
G01*
X46435000Y-42060000D01*
G75*
G02*
X46685000Y-41810000I250000J0D01*
G01*
X47635000Y-41810000D01*
G75*
G02*
X47885000Y-42060000I0J-250000D01*
G01*
X47885000Y-42560000D01*
G75*
G02*
X47635000Y-42810000I-250000J0D01*
G01*
G37*
G36*
G01*
X47635000Y-44710000D02*
X46685000Y-44710000D01*
G75*
G02*
X46435000Y-44460000I0J250000D01*
G01*
X46435000Y-43960000D01*
G75*
G02*
X46685000Y-43710000I250000J0D01*
G01*
X47635000Y-43710000D01*
G75*
G02*
X47885000Y-43960000I0J-250000D01*
G01*
X47885000Y-44460000D01*
G75*
G02*
X47635000Y-44710000I-250000J0D01*
G01*
G37*
G36*
G01*
X28645000Y-42445000D02*
X26795000Y-42445000D01*
G75*
G02*
X26545000Y-42195000I0J250000D01*
G01*
X26545000Y-41195000D01*
G75*
G02*
X26795000Y-40945000I250000J0D01*
G01*
X28645000Y-40945000D01*
G75*
G02*
X28895000Y-41195000I0J-250000D01*
G01*
X28895000Y-42195000D01*
G75*
G02*
X28645000Y-42445000I-250000J0D01*
G01*
G37*
G36*
G01*
X28645000Y-45695000D02*
X26795000Y-45695000D01*
G75*
G02*
X26545000Y-45445000I0J250000D01*
G01*
X26545000Y-44445000D01*
G75*
G02*
X26795000Y-44195000I250000J0D01*
G01*
X28645000Y-44195000D01*
G75*
G02*
X28895000Y-44445000I0J-250000D01*
G01*
X28895000Y-45445000D01*
G75*
G02*
X28645000Y-45695000I-250000J0D01*
G01*
G37*
G36*
G01*
X33755000Y-45725000D02*
X31905000Y-45725000D01*
G75*
G02*
X31655000Y-45475000I0J250000D01*
G01*
X31655000Y-44475000D01*
G75*
G02*
X31905000Y-44225000I250000J0D01*
G01*
X33755000Y-44225000D01*
G75*
G02*
X34005000Y-44475000I0J-250000D01*
G01*
X34005000Y-45475000D01*
G75*
G02*
X33755000Y-45725000I-250000J0D01*
G01*
G37*
G36*
G01*
X33755000Y-42475000D02*
X31905000Y-42475000D01*
G75*
G02*
X31655000Y-42225000I0J250000D01*
G01*
X31655000Y-41225000D01*
G75*
G02*
X31905000Y-40975000I250000J0D01*
G01*
X33755000Y-40975000D01*
G75*
G02*
X34005000Y-41225000I0J-250000D01*
G01*
X34005000Y-42225000D01*
G75*
G02*
X33755000Y-42475000I-250000J0D01*
G01*
G37*
G36*
G01*
X38705000Y-42445000D02*
X36855000Y-42445000D01*
G75*
G02*
X36605000Y-42195000I0J250000D01*
G01*
X36605000Y-41195000D01*
G75*
G02*
X36855000Y-40945000I250000J0D01*
G01*
X38705000Y-40945000D01*
G75*
G02*
X38955000Y-41195000I0J-250000D01*
G01*
X38955000Y-42195000D01*
G75*
G02*
X38705000Y-42445000I-250000J0D01*
G01*
G37*
G36*
G01*
X38705000Y-45695000D02*
X36855000Y-45695000D01*
G75*
G02*
X36605000Y-45445000I0J250000D01*
G01*
X36605000Y-44445000D01*
G75*
G02*
X36855000Y-44195000I250000J0D01*
G01*
X38705000Y-44195000D01*
G75*
G02*
X38955000Y-44445000I0J-250000D01*
G01*
X38955000Y-45445000D01*
G75*
G02*
X38705000Y-45695000I-250000J0D01*
G01*
G37*
G36*
G01*
X43645000Y-45705000D02*
X41795000Y-45705000D01*
G75*
G02*
X41545000Y-45455000I0J250000D01*
G01*
X41545000Y-44455000D01*
G75*
G02*
X41795000Y-44205000I250000J0D01*
G01*
X43645000Y-44205000D01*
G75*
G02*
X43895000Y-44455000I0J-250000D01*
G01*
X43895000Y-45455000D01*
G75*
G02*
X43645000Y-45705000I-250000J0D01*
G01*
G37*
G36*
G01*
X43645000Y-42455000D02*
X41795000Y-42455000D01*
G75*
G02*
X41545000Y-42205000I0J250000D01*
G01*
X41545000Y-41205000D01*
G75*
G02*
X41795000Y-40955000I250000J0D01*
G01*
X43645000Y-40955000D01*
G75*
G02*
X43895000Y-41205000I0J-250000D01*
G01*
X43895000Y-42205000D01*
G75*
G02*
X43645000Y-42455000I-250000J0D01*
G01*
G37*
G36*
G01*
X43000000Y-50785001D02*
X43000000Y-47934999D01*
G75*
G02*
X43249999Y-47685000I249999J0D01*
G01*
X44275001Y-47685000D01*
G75*
G02*
X44525000Y-47934999I0J-249999D01*
G01*
X44525000Y-50785001D01*
G75*
G02*
X44275001Y-51035000I-249999J0D01*
G01*
X43249999Y-51035000D01*
G75*
G02*
X43000000Y-50785001I0J249999D01*
G01*
G37*
G36*
G01*
X48975000Y-50785001D02*
X48975000Y-47934999D01*
G75*
G02*
X49224999Y-47685000I249999J0D01*
G01*
X50250001Y-47685000D01*
G75*
G02*
X50500000Y-47934999I0J-249999D01*
G01*
X50500000Y-50785001D01*
G75*
G02*
X50250001Y-51035000I-249999J0D01*
G01*
X49224999Y-51035000D01*
G75*
G02*
X48975000Y-50785001I0J249999D01*
G01*
G37*
D18*
X32520000Y-49370000D03*
X32520000Y-59270000D03*
G36*
G01*
X138740000Y-44035000D02*
X138740000Y-44985000D01*
G75*
G02*
X138490000Y-45235000I-250000J0D01*
G01*
X137990000Y-45235000D01*
G75*
G02*
X137740000Y-44985000I0J250000D01*
G01*
X137740000Y-44035000D01*
G75*
G02*
X137990000Y-43785000I250000J0D01*
G01*
X138490000Y-43785000D01*
G75*
G02*
X138740000Y-44035000I0J-250000D01*
G01*
G37*
G36*
G01*
X136840000Y-44035000D02*
X136840000Y-44985000D01*
G75*
G02*
X136590000Y-45235000I-250000J0D01*
G01*
X136090000Y-45235000D01*
G75*
G02*
X135840000Y-44985000I0J250000D01*
G01*
X135840000Y-44035000D01*
G75*
G02*
X136090000Y-43785000I250000J0D01*
G01*
X136590000Y-43785000D01*
G75*
G02*
X136840000Y-44035000I0J-250000D01*
G01*
G37*
G36*
G01*
X138700000Y-41445000D02*
X138700000Y-42395000D01*
G75*
G02*
X138450000Y-42645000I-250000J0D01*
G01*
X137950000Y-42645000D01*
G75*
G02*
X137700000Y-42395000I0J250000D01*
G01*
X137700000Y-41445000D01*
G75*
G02*
X137950000Y-41195000I250000J0D01*
G01*
X138450000Y-41195000D01*
G75*
G02*
X138700000Y-41445000I0J-250000D01*
G01*
G37*
G36*
G01*
X136800000Y-41445000D02*
X136800000Y-42395000D01*
G75*
G02*
X136550000Y-42645000I-250000J0D01*
G01*
X136050000Y-42645000D01*
G75*
G02*
X135800000Y-42395000I0J250000D01*
G01*
X135800000Y-41445000D01*
G75*
G02*
X136050000Y-41195000I250000J0D01*
G01*
X136550000Y-41195000D01*
G75*
G02*
X136800000Y-41445000I0J-250000D01*
G01*
G37*
G36*
G01*
X46430000Y-54105000D02*
X46430000Y-53155000D01*
G75*
G02*
X46680000Y-52905000I250000J0D01*
G01*
X47180000Y-52905000D01*
G75*
G02*
X47430000Y-53155000I0J-250000D01*
G01*
X47430000Y-54105000D01*
G75*
G02*
X47180000Y-54355000I-250000J0D01*
G01*
X46680000Y-54355000D01*
G75*
G02*
X46430000Y-54105000I0J250000D01*
G01*
G37*
G36*
G01*
X48330000Y-54105000D02*
X48330000Y-53155000D01*
G75*
G02*
X48580000Y-52905000I250000J0D01*
G01*
X49080000Y-52905000D01*
G75*
G02*
X49330000Y-53155000I0J-250000D01*
G01*
X49330000Y-54105000D01*
G75*
G02*
X49080000Y-54355000I-250000J0D01*
G01*
X48580000Y-54355000D01*
G75*
G02*
X48330000Y-54105000I0J250000D01*
G01*
G37*
D45*
X140260000Y-105890000D03*
X140260000Y-104940000D03*
X140260000Y-103990000D03*
X137560000Y-103990000D03*
X137560000Y-105890000D03*
G36*
G01*
X92600000Y-137665000D02*
X92600000Y-138615000D01*
G75*
G02*
X92350000Y-138865000I-250000J0D01*
G01*
X91850000Y-138865000D01*
G75*
G02*
X91600000Y-138615000I0J250000D01*
G01*
X91600000Y-137665000D01*
G75*
G02*
X91850000Y-137415000I250000J0D01*
G01*
X92350000Y-137415000D01*
G75*
G02*
X92600000Y-137665000I0J-250000D01*
G01*
G37*
G36*
G01*
X90700000Y-137665000D02*
X90700000Y-138615000D01*
G75*
G02*
X90450000Y-138865000I-250000J0D01*
G01*
X89950000Y-138865000D01*
G75*
G02*
X89700000Y-138615000I0J250000D01*
G01*
X89700000Y-137665000D01*
G75*
G02*
X89950000Y-137415000I250000J0D01*
G01*
X90450000Y-137415000D01*
G75*
G02*
X90700000Y-137665000I0J-250000D01*
G01*
G37*
G36*
G01*
X101565000Y-128685000D02*
X101565000Y-130535000D01*
G75*
G02*
X101315000Y-130785000I-250000J0D01*
G01*
X100315000Y-130785000D01*
G75*
G02*
X100065000Y-130535000I0J250000D01*
G01*
X100065000Y-128685000D01*
G75*
G02*
X100315000Y-128435000I250000J0D01*
G01*
X101315000Y-128435000D01*
G75*
G02*
X101565000Y-128685000I0J-250000D01*
G01*
G37*
G36*
G01*
X98315000Y-128685000D02*
X98315000Y-130535000D01*
G75*
G02*
X98065000Y-130785000I-250000J0D01*
G01*
X97065000Y-130785000D01*
G75*
G02*
X96815000Y-130535000I0J250000D01*
G01*
X96815000Y-128685000D01*
G75*
G02*
X97065000Y-128435000I250000J0D01*
G01*
X98065000Y-128435000D01*
G75*
G02*
X98315000Y-128685000I0J-250000D01*
G01*
G37*
D32*
X104170000Y-136390000D03*
D31*
X97870000Y-136390000D03*
X97870000Y-138690000D03*
X97870000Y-134090000D03*
G36*
G01*
X138285000Y-56900000D02*
X137335000Y-56900000D01*
G75*
G02*
X137085000Y-56650000I0J250000D01*
G01*
X137085000Y-56150000D01*
G75*
G02*
X137335000Y-55900000I250000J0D01*
G01*
X138285000Y-55900000D01*
G75*
G02*
X138535000Y-56150000I0J-250000D01*
G01*
X138535000Y-56650000D01*
G75*
G02*
X138285000Y-56900000I-250000J0D01*
G01*
G37*
G36*
G01*
X138285000Y-58800000D02*
X137335000Y-58800000D01*
G75*
G02*
X137085000Y-58550000I0J250000D01*
G01*
X137085000Y-58050000D01*
G75*
G02*
X137335000Y-57800000I250000J0D01*
G01*
X138285000Y-57800000D01*
G75*
G02*
X138535000Y-58050000I0J-250000D01*
G01*
X138535000Y-58550000D01*
G75*
G02*
X138285000Y-58800000I-250000J0D01*
G01*
G37*
G36*
G01*
X137315000Y-48620000D02*
X138265000Y-48620000D01*
G75*
G02*
X138515000Y-48870000I0J-250000D01*
G01*
X138515000Y-49370000D01*
G75*
G02*
X138265000Y-49620000I-250000J0D01*
G01*
X137315000Y-49620000D01*
G75*
G02*
X137065000Y-49370000I0J250000D01*
G01*
X137065000Y-48870000D01*
G75*
G02*
X137315000Y-48620000I250000J0D01*
G01*
G37*
G36*
G01*
X137315000Y-50520000D02*
X138265000Y-50520000D01*
G75*
G02*
X138515000Y-50770000I0J-250000D01*
G01*
X138515000Y-51270000D01*
G75*
G02*
X138265000Y-51520000I-250000J0D01*
G01*
X137315000Y-51520000D01*
G75*
G02*
X137065000Y-51270000I0J250000D01*
G01*
X137065000Y-50770000D01*
G75*
G02*
X137315000Y-50520000I250000J0D01*
G01*
G37*
G36*
G01*
X135180002Y-56950000D02*
X134279998Y-56950000D01*
G75*
G02*
X134030000Y-56700002I0J249998D01*
G01*
X134030000Y-56174998D01*
G75*
G02*
X134279998Y-55925000I249998J0D01*
G01*
X135180002Y-55925000D01*
G75*
G02*
X135430000Y-56174998I0J-249998D01*
G01*
X135430000Y-56700002D01*
G75*
G02*
X135180002Y-56950000I-249998J0D01*
G01*
G37*
G36*
G01*
X135180002Y-58775000D02*
X134279998Y-58775000D01*
G75*
G02*
X134030000Y-58525002I0J249998D01*
G01*
X134030000Y-57999998D01*
G75*
G02*
X134279998Y-57750000I249998J0D01*
G01*
X135180002Y-57750000D01*
G75*
G02*
X135430000Y-57999998I0J-249998D01*
G01*
X135430000Y-58525002D01*
G75*
G02*
X135180002Y-58775000I-249998J0D01*
G01*
G37*
G36*
G01*
X141340002Y-58775000D02*
X140439998Y-58775000D01*
G75*
G02*
X140190000Y-58525002I0J249998D01*
G01*
X140190000Y-57999998D01*
G75*
G02*
X140439998Y-57750000I249998J0D01*
G01*
X141340002Y-57750000D01*
G75*
G02*
X141590000Y-57999998I0J-249998D01*
G01*
X141590000Y-58525002D01*
G75*
G02*
X141340002Y-58775000I-249998J0D01*
G01*
G37*
G36*
G01*
X141340002Y-56950000D02*
X140439998Y-56950000D01*
G75*
G02*
X140190000Y-56700002I0J249998D01*
G01*
X140190000Y-56174998D01*
G75*
G02*
X140439998Y-55925000I249998J0D01*
G01*
X141340002Y-55925000D01*
G75*
G02*
X141590000Y-56174998I0J-249998D01*
G01*
X141590000Y-56700002D01*
G75*
G02*
X141340002Y-56950000I-249998J0D01*
G01*
G37*
G36*
G01*
X135140002Y-49670000D02*
X134239998Y-49670000D01*
G75*
G02*
X133990000Y-49420002I0J249998D01*
G01*
X133990000Y-48894998D01*
G75*
G02*
X134239998Y-48645000I249998J0D01*
G01*
X135140002Y-48645000D01*
G75*
G02*
X135390000Y-48894998I0J-249998D01*
G01*
X135390000Y-49420002D01*
G75*
G02*
X135140002Y-49670000I-249998J0D01*
G01*
G37*
G36*
G01*
X135140002Y-51495000D02*
X134239998Y-51495000D01*
G75*
G02*
X133990000Y-51245002I0J249998D01*
G01*
X133990000Y-50719998D01*
G75*
G02*
X134239998Y-50470000I249998J0D01*
G01*
X135140002Y-50470000D01*
G75*
G02*
X135390000Y-50719998I0J-249998D01*
G01*
X135390000Y-51245002D01*
G75*
G02*
X135140002Y-51495000I-249998J0D01*
G01*
G37*
G36*
G01*
X140439998Y-48645000D02*
X141340002Y-48645000D01*
G75*
G02*
X141590000Y-48894998I0J-249998D01*
G01*
X141590000Y-49420002D01*
G75*
G02*
X141340002Y-49670000I-249998J0D01*
G01*
X140439998Y-49670000D01*
G75*
G02*
X140190000Y-49420002I0J249998D01*
G01*
X140190000Y-48894998D01*
G75*
G02*
X140439998Y-48645000I249998J0D01*
G01*
G37*
G36*
G01*
X140439998Y-50470000D02*
X141340002Y-50470000D01*
G75*
G02*
X141590000Y-50719998I0J-249998D01*
G01*
X141590000Y-51245002D01*
G75*
G02*
X141340002Y-51495000I-249998J0D01*
G01*
X140439998Y-51495000D01*
G75*
G02*
X140190000Y-51245002I0J249998D01*
G01*
X140190000Y-50719998D01*
G75*
G02*
X140439998Y-50470000I249998J0D01*
G01*
G37*
M02*
