G04 #@! TF.GenerationSoftware,KiCad,Pcbnew,5.1.8-5.1.8*
G04 #@! TF.CreationDate,2022-04-25T14:02:17+03:00*
G04 #@! TF.ProjectId,auris,61757269-732e-46b6-9963-61645f706362,rev?*
G04 #@! TF.SameCoordinates,Original*
G04 #@! TF.FileFunction,Copper,L3,Inr*
G04 #@! TF.FilePolarity,Positive*
%FSLAX46Y46*%
G04 Gerber Fmt 4.6, Leading zero omitted, Abs format (unit mm)*
G04 Created by KiCad (PCBNEW 5.1.8-5.1.8) date 2022-04-25 14:02:17*
%MOMM*%
%LPD*%
G01*
G04 APERTURE LIST*
G04 #@! TA.AperFunction,ComponentPad*
%ADD10C,9.000000*%
G04 #@! TD*
G04 #@! TA.AperFunction,ComponentPad*
%ADD11C,9.200000*%
G04 #@! TD*
G04 #@! TA.AperFunction,ComponentPad*
%ADD12O,1.700000X1.700000*%
G04 #@! TD*
G04 #@! TA.AperFunction,ComponentPad*
%ADD13R,1.700000X1.700000*%
G04 #@! TD*
G04 #@! TA.AperFunction,ComponentPad*
%ADD14R,1.520000X1.520000*%
G04 #@! TD*
G04 #@! TA.AperFunction,ComponentPad*
%ADD15C,1.520000*%
G04 #@! TD*
G04 #@! TA.AperFunction,ComponentPad*
%ADD16C,5.460000*%
G04 #@! TD*
G04 #@! TA.AperFunction,ComponentPad*
%ADD17C,1.700000*%
G04 #@! TD*
G04 #@! TA.AperFunction,ViaPad*
%ADD18C,0.800000*%
G04 #@! TD*
G04 #@! TA.AperFunction,Conductor*
%ADD19C,0.250000*%
G04 #@! TD*
G04 #@! TA.AperFunction,Conductor*
%ADD20C,0.350000*%
G04 #@! TD*
G04 #@! TA.AperFunction,Conductor*
%ADD21C,0.640000*%
G04 #@! TD*
G04 #@! TA.AperFunction,Conductor*
%ADD22C,0.500000*%
G04 #@! TD*
G04 APERTURE END LIST*
D10*
X27570000Y-32540000D03*
D11*
X58230000Y-165520000D03*
D12*
X126180000Y-158280000D03*
X123640000Y-158280000D03*
X121100000Y-158280000D03*
X118560000Y-158280000D03*
X116020000Y-158280000D03*
D13*
X113480000Y-158280000D03*
D12*
X78645000Y-165500000D03*
X81185000Y-165500000D03*
D13*
X83725000Y-165500000D03*
D12*
X125660000Y-65920000D03*
X128200000Y-65920000D03*
D13*
X130740000Y-65920000D03*
D12*
X145735000Y-126165000D03*
X148275000Y-126165000D03*
D13*
X150815000Y-126165000D03*
X155760000Y-149740000D03*
X155010000Y-165800000D03*
D12*
X155010000Y-163260000D03*
D14*
X28575000Y-101575000D03*
D15*
X31115000Y-101575000D03*
X28575000Y-104115000D03*
X31115000Y-104115000D03*
X28575000Y-106655000D03*
X31115000Y-106655000D03*
X28575000Y-109195000D03*
X31115000Y-109195000D03*
X28575000Y-111735000D03*
X31115000Y-111735000D03*
X28575000Y-114275000D03*
X31115000Y-114275000D03*
X28575000Y-116815000D03*
X31115000Y-116815000D03*
X28575000Y-119355000D03*
X31115000Y-119355000D03*
X28575000Y-121895000D03*
X31115000Y-121895000D03*
X28575000Y-124435000D03*
X31115000Y-124435000D03*
D16*
X29595000Y-92685000D03*
D15*
X28575000Y-126975000D03*
X31115000Y-126975000D03*
X28575000Y-129515000D03*
X31115000Y-129515000D03*
X28575000Y-132055000D03*
X31115000Y-132055000D03*
X28575000Y-134595000D03*
X31115000Y-134595000D03*
X28575000Y-137135000D03*
X31115000Y-137135000D03*
X28575000Y-139675000D03*
X31115000Y-139675000D03*
X28575000Y-142215000D03*
X31115000Y-142215000D03*
D16*
X29595000Y-151105000D03*
G04 #@! TA.AperFunction,ComponentPad*
G36*
G01*
X78450000Y-158575000D02*
X77250000Y-158575000D01*
G75*
G02*
X77000000Y-158325000I0J250000D01*
G01*
X77000000Y-157125000D01*
G75*
G02*
X77250000Y-156875000I250000J0D01*
G01*
X78450000Y-156875000D01*
G75*
G02*
X78700000Y-157125000I0J-250000D01*
G01*
X78700000Y-158325000D01*
G75*
G02*
X78450000Y-158575000I-250000J0D01*
G01*
G37*
G04 #@! TD.AperFunction*
D17*
X80390000Y-157725000D03*
X82930000Y-157725000D03*
X77850000Y-155185000D03*
X80390000Y-155185000D03*
X82930000Y-155185000D03*
D18*
X61020000Y-162620000D03*
X55390000Y-162620000D03*
X82490000Y-106172900D03*
X112229600Y-108075000D03*
X104380000Y-112389500D03*
X123813500Y-132597800D03*
X69911000Y-86646200D03*
X69585500Y-91737600D03*
X57239500Y-129228900D03*
X54778000Y-70014000D03*
X80327700Y-127096300D03*
X50451100Y-69829900D03*
X98548000Y-162178900D03*
X69690000Y-132977000D03*
X56052500Y-157206300D03*
X47538800Y-62478700D03*
X104129800Y-41715200D03*
X63985000Y-56953100D03*
X28105000Y-164677000D03*
X41505000Y-160821600D03*
X146650000Y-144660000D03*
X141065000Y-142057600D03*
X123138000Y-85494900D03*
X48625000Y-91864500D03*
X48625000Y-141297200D03*
X141983100Y-83555900D03*
X141968500Y-88699500D03*
X142230000Y-93759500D03*
X143393400Y-97938700D03*
X169017100Y-68080600D03*
X169269000Y-73184600D03*
X169285000Y-78239100D03*
X168174700Y-84105200D03*
X169288000Y-88298900D03*
X169291000Y-93385200D03*
X169336000Y-98569600D03*
X169339000Y-103666500D03*
X140378400Y-42961400D03*
X98029400Y-148507000D03*
X122744500Y-65417000D03*
X63980400Y-117542600D03*
X75313800Y-87507500D03*
X135224600Y-44388900D03*
X157337600Y-92477000D03*
X154581700Y-90245000D03*
X154592800Y-88245000D03*
X151717100Y-86245000D03*
X151716100Y-83991500D03*
X154622100Y-81218200D03*
X141662500Y-103879900D03*
X25970000Y-157820000D03*
X32890000Y-157790000D03*
X47220000Y-40990000D03*
X42680000Y-40160000D03*
X37820000Y-40030000D03*
X32840000Y-40160000D03*
X27750000Y-40210000D03*
X113970000Y-50750000D03*
X114360000Y-57640000D03*
X105870000Y-58180000D03*
X135119998Y-41950000D03*
X142250000Y-73530000D03*
X99187102Y-156879988D03*
X44381750Y-85917998D03*
X45139565Y-81074345D03*
X101560000Y-78980000D03*
X101540000Y-74440000D03*
X99170000Y-83080000D03*
X90720000Y-79170000D03*
X137520000Y-141990000D03*
X87020000Y-165810000D03*
X131380000Y-140000000D03*
X126970000Y-98850000D03*
X147790000Y-133860000D03*
X123850000Y-134610000D03*
X99606258Y-123992861D03*
X150189998Y-138950000D03*
X100060000Y-148460000D03*
X101540000Y-76640000D03*
X57119996Y-118860002D03*
X48630000Y-116610000D03*
X116590000Y-88089999D03*
X112770000Y-82390000D03*
X30440000Y-35430000D03*
X76620000Y-75490000D03*
X73600000Y-75420000D03*
X70000000Y-77070000D03*
X69910000Y-81670000D03*
X142256203Y-78385270D03*
X149860000Y-65840000D03*
X154630000Y-92190000D03*
X137640000Y-124210000D03*
X140555000Y-124154994D03*
X134970000Y-124240000D03*
X146090000Y-109270000D03*
X153720000Y-109460000D03*
X156180000Y-105830000D03*
X142740000Y-132900000D03*
X140470000Y-132875012D03*
X90170000Y-157440000D03*
X96380000Y-129580000D03*
X82520000Y-108430000D03*
X83670000Y-119500000D03*
X80260000Y-123480000D03*
X80200000Y-130870000D03*
X62320000Y-129450000D03*
X62200000Y-132360000D03*
X38950000Y-157290000D03*
X63920000Y-151950000D03*
X64800000Y-153040000D03*
X59220000Y-102200000D03*
X60783600Y-102226400D03*
X68080000Y-102250000D03*
X68800000Y-106759998D03*
X69240000Y-102260000D03*
X76520000Y-102200000D03*
X87680000Y-92740000D03*
X84910000Y-96580000D03*
X84840000Y-88880000D03*
X84010000Y-84950000D03*
X50340000Y-105574016D03*
X44675010Y-77847000D03*
X116950396Y-74125010D03*
X140020000Y-142040000D03*
X62370000Y-34260000D03*
X58510000Y-32630000D03*
X50610000Y-31090000D03*
X55530000Y-38990000D03*
X51260000Y-49410000D03*
X73660000Y-133460000D03*
X73134900Y-143850000D03*
X69880000Y-140650000D03*
X123016547Y-99541456D03*
X140700000Y-109640000D03*
X146180000Y-104320000D03*
X153770000Y-105880000D03*
X156940000Y-62710000D03*
X71650000Y-122000000D03*
X126780000Y-77630000D03*
X130920000Y-75420000D03*
X132739745Y-82394936D03*
X91950000Y-117700000D03*
X90030000Y-114420000D03*
X60240000Y-118780000D03*
X57040000Y-111790000D03*
X59660000Y-111820000D03*
X53190000Y-139000000D03*
X50690000Y-151960000D03*
X53740000Y-61280000D03*
X53810000Y-59930000D03*
X53790000Y-58670000D03*
X53800000Y-57420000D03*
X59270000Y-61180000D03*
X59210000Y-59910000D03*
X59240000Y-58620000D03*
X59240000Y-57395000D03*
X95280000Y-108170000D03*
X93377100Y-108267100D03*
X138795002Y-139225000D03*
X91870000Y-134010000D03*
X93006000Y-40468195D03*
X94090000Y-58420000D03*
X94130000Y-53840000D03*
X94090000Y-49240000D03*
X94250000Y-44690000D03*
X63040000Y-48520000D03*
X61070000Y-63810000D03*
X52050000Y-102230000D03*
X154250000Y-131109998D03*
X48630000Y-128930000D03*
X35080000Y-164630000D03*
X137120000Y-155560000D03*
X152330000Y-147730000D03*
X114850000Y-70440000D03*
X128614990Y-114360000D03*
X148500000Y-114820000D03*
X27159997Y-70749995D03*
X73520000Y-146069998D03*
X59154224Y-148170457D03*
X122090000Y-119990000D03*
X108370000Y-147930000D03*
X156380000Y-139380000D03*
X158990000Y-110720000D03*
X153840000Y-143040000D03*
X131380000Y-144300000D03*
X108230000Y-83210000D03*
X124910000Y-93390000D03*
X120010000Y-93370000D03*
X107950000Y-92600000D03*
X96320000Y-134120000D03*
X71760000Y-107630000D03*
X58640000Y-131890000D03*
X46300000Y-157300000D03*
X96620000Y-142270000D03*
X94210000Y-145060000D03*
X89290000Y-143380000D03*
X112650000Y-135960000D03*
X26750000Y-167000000D03*
X33740000Y-166960000D03*
X40420000Y-166900000D03*
X125020000Y-138250000D03*
X134980000Y-126940000D03*
X89150000Y-138160000D03*
X140890000Y-55230000D03*
X137810000Y-55200000D03*
X140890000Y-52104000D03*
X137790000Y-52156000D03*
X105710000Y-54640000D03*
X112180000Y-71400000D03*
X50020000Y-53640000D03*
X149900000Y-62710000D03*
X156780000Y-65760000D03*
X136010000Y-70870000D03*
X133727365Y-84829779D03*
X134932100Y-89544000D03*
X124404155Y-80705010D03*
X135280000Y-75970000D03*
X132735167Y-84705010D03*
X136810000Y-85710000D03*
X127000000Y-80400000D03*
X137900000Y-94300000D03*
X123460000Y-79980000D03*
X173261000Y-101330100D03*
X96613300Y-151812500D03*
X159863010Y-152352310D03*
X171700000Y-107590900D03*
X100814990Y-153461900D03*
X158480000Y-153485010D03*
X144065000Y-146175004D03*
X142400000Y-49530000D03*
X156147751Y-110546985D03*
X143626915Y-140305185D03*
X67650000Y-124960000D03*
X66657793Y-93104990D03*
X140290000Y-140070000D03*
X67861900Y-125997000D03*
X65520000Y-86705000D03*
X139950000Y-141040000D03*
X141565000Y-144835000D03*
X142260000Y-58250000D03*
X101930000Y-157180000D03*
X130835000Y-138725000D03*
X87870000Y-133165022D03*
X136260000Y-137960000D03*
X119379998Y-85480000D03*
X66850000Y-83040000D03*
X67070000Y-78640000D03*
X118513887Y-83944990D03*
X113082700Y-77680000D03*
X95660000Y-82330000D03*
X101540000Y-154160000D03*
X121220000Y-96910000D03*
X121440000Y-85380000D03*
X92610000Y-94470000D03*
X77510000Y-122590000D03*
X55220000Y-72740000D03*
X120350000Y-73230000D03*
X47410000Y-74530000D03*
X118680000Y-73630000D03*
X51900000Y-82890000D03*
X51224999Y-79935001D03*
X38300000Y-87940000D03*
X38153500Y-89341900D03*
X39500000Y-148930000D03*
X55650000Y-103104979D03*
X64400000Y-103154990D03*
X43130000Y-76170000D03*
X72750000Y-103370000D03*
X45380000Y-71000000D03*
X39842000Y-129905300D03*
X39819500Y-114282200D03*
X49528600Y-60902300D03*
X42629300Y-164636000D03*
X163634700Y-53530000D03*
X157346100Y-89455300D03*
X157298000Y-87416600D03*
X151765100Y-80766000D03*
X32520000Y-61500000D03*
X157340000Y-94260000D03*
X52505000Y-81475000D03*
X47140000Y-45310000D03*
X42760000Y-46430000D03*
X37720000Y-46430000D03*
X32790000Y-46430000D03*
X27650000Y-46480000D03*
X52540000Y-91690000D03*
X52670000Y-86560000D03*
X52420000Y-77210000D03*
X123320000Y-52480000D03*
X122969998Y-50560000D03*
X105910000Y-51260000D03*
X139850000Y-44500000D03*
X150710000Y-44820000D03*
X151620000Y-73250000D03*
X63880000Y-148130002D03*
X77710000Y-133460000D03*
X137580000Y-106909998D03*
X136360000Y-109600000D03*
X151740000Y-94240000D03*
X65560000Y-139050000D03*
X126230000Y-44360000D03*
X36380000Y-164640000D03*
X29319998Y-164690000D03*
X82939254Y-135713133D03*
X160710000Y-73220000D03*
X30740000Y-167000000D03*
X37620000Y-166860000D03*
X44320000Y-166850000D03*
X146180000Y-48620000D03*
X112120000Y-52530000D03*
X53430000Y-79950000D03*
X52690000Y-117890000D03*
X64684800Y-124185200D03*
X44250000Y-83780000D03*
X40808200Y-148330600D03*
X93500000Y-162660000D03*
X42270000Y-98040000D03*
X39230000Y-144069998D03*
X39460000Y-108270000D03*
X155752300Y-80245000D03*
X62100000Y-108140000D03*
X46640000Y-65800000D03*
X70415500Y-61324500D03*
X151190000Y-132440000D03*
X149015000Y-132957000D03*
X140565000Y-144290300D03*
X115326700Y-77231000D03*
X123663400Y-87768600D03*
X125588000Y-76420800D03*
X101310000Y-92640000D03*
X96820000Y-92720000D03*
X96800000Y-83200000D03*
X114980000Y-64420000D03*
X115090000Y-67910000D03*
X55224200Y-130976000D03*
X146609999Y-141949999D03*
X117124412Y-85651059D03*
X139440000Y-130540000D03*
X138850000Y-134320000D03*
X97790000Y-75270000D03*
X115710000Y-74125010D03*
X116140000Y-93220000D03*
X132860000Y-80350000D03*
X130795010Y-105830000D03*
X135800000Y-147800000D03*
X141340000Y-147740000D03*
X131490000Y-142220000D03*
X158064990Y-127155300D03*
X156620000Y-137330000D03*
X150792500Y-144382500D03*
X135610000Y-144280000D03*
X131409998Y-148240000D03*
X108250000Y-85350000D03*
X109322500Y-88522500D03*
X112760000Y-93360000D03*
X124810000Y-89180000D03*
X135920000Y-120420000D03*
X137680000Y-128230000D03*
X153794000Y-49510600D03*
X156512900Y-96245000D03*
X158739998Y-55510000D03*
X102750000Y-162660000D03*
X160180000Y-153970000D03*
X144956550Y-133023450D03*
X86430000Y-130840002D03*
X115353224Y-81145010D03*
X101247000Y-86162900D03*
X124620000Y-124170000D03*
X101255460Y-149539860D03*
X76623300Y-124671500D03*
X92237700Y-150100000D03*
X48430000Y-111780000D03*
X47030000Y-147310000D03*
X96140000Y-148530000D03*
X157252400Y-95344500D03*
X139091476Y-159848967D03*
X154701000Y-95582100D03*
X136395010Y-116109998D03*
X159409100Y-103460900D03*
X140150000Y-159660000D03*
X135463400Y-95138200D03*
X155200000Y-93340000D03*
X122250000Y-44750000D03*
X134730000Y-55310000D03*
X108459300Y-90817900D03*
X76621999Y-100408001D03*
X118089500Y-89039500D03*
X109530800Y-94141300D03*
X124247392Y-83186186D03*
X67970000Y-98820000D03*
X86850800Y-138859900D03*
X92987400Y-150900000D03*
X82950000Y-141010000D03*
X82940000Y-139680000D03*
X82960000Y-142210000D03*
X104410800Y-147242600D03*
X63560000Y-142830000D03*
X82950000Y-137160000D03*
X101580000Y-150989871D03*
X100100000Y-157960000D03*
X59530000Y-152010000D03*
X119645600Y-88092300D03*
X150601100Y-99351600D03*
X123890000Y-82210002D03*
X130795010Y-101690000D03*
X37792660Y-160982660D03*
X124216298Y-79191665D03*
X147670000Y-135220000D03*
X40230000Y-164780000D03*
X34160000Y-160750000D03*
X123390000Y-78424968D03*
X147130000Y-136110000D03*
X44040000Y-164770000D03*
X134420000Y-111970000D03*
X142890000Y-139450000D03*
X145750000Y-130140000D03*
X153200000Y-127160000D03*
X145507660Y-144632340D03*
X115835000Y-122605000D03*
X145550000Y-141980000D03*
X115845000Y-121345000D03*
X115860000Y-130510000D03*
X118175000Y-111885000D03*
X113550000Y-130530000D03*
X115680000Y-112960000D03*
X124390000Y-77590000D03*
X54120000Y-134840000D03*
X53660000Y-127380000D03*
X27502700Y-156147000D03*
X28580000Y-159410000D03*
X77830000Y-90230000D03*
X78470000Y-83770000D03*
X80040000Y-60220000D03*
X67670000Y-58700000D03*
X92757340Y-84862660D03*
X93830000Y-77650000D03*
X128940000Y-156870000D03*
X96721673Y-154186910D03*
X99150000Y-145569100D03*
X88820000Y-40550000D03*
X88080000Y-44670000D03*
X87870000Y-49250000D03*
X87920000Y-53830000D03*
X87920000Y-58420000D03*
X114120000Y-149630000D03*
X109860000Y-150190000D03*
X92000000Y-157450000D03*
X98530000Y-142270000D03*
X97560000Y-145570000D03*
X93040000Y-138110000D03*
X96310000Y-138660000D03*
X93130000Y-122820000D03*
X93397800Y-110316500D03*
X99381500Y-129589700D03*
X102630000Y-135840000D03*
X99630000Y-135860000D03*
X93110000Y-115790000D03*
X95325000Y-109345000D03*
X117810000Y-130090000D03*
X108300000Y-146830000D03*
X89518900Y-164800000D03*
X31450000Y-162325000D03*
X73260000Y-137150000D03*
X27150000Y-161710000D03*
X73280002Y-135840000D03*
X111620000Y-151640000D03*
X111584990Y-146090000D03*
X130080000Y-125560000D03*
X133310000Y-150880000D03*
X130100000Y-129760000D03*
X130030000Y-92960000D03*
X120270000Y-76620000D03*
X119200000Y-151230000D03*
X116580000Y-151640000D03*
X121600000Y-88330000D03*
X124040000Y-102120000D03*
X122640000Y-88320000D03*
X126560000Y-102170000D03*
X117124900Y-53845000D03*
X99899226Y-152736890D03*
X118110000Y-79920000D03*
X100016016Y-151743721D03*
X119410000Y-79880000D03*
X119570000Y-55290000D03*
D19*
X136010000Y-82547144D02*
X133727365Y-84829779D01*
X136010000Y-70870000D02*
X136010000Y-82547144D01*
X125375010Y-80705010D02*
X124404155Y-80705010D01*
X134214000Y-89544000D02*
X125375010Y-80705010D01*
X134932100Y-89544000D02*
X134214000Y-89544000D01*
X135280000Y-82160177D02*
X132735167Y-84705010D01*
X135280000Y-75970000D02*
X135280000Y-82160177D01*
X127000000Y-81500000D02*
X127000000Y-80400000D01*
X131210000Y-85710000D02*
X127000000Y-81500000D01*
X136810000Y-85710000D02*
X131210000Y-85710000D01*
X137900000Y-94300000D02*
X137900000Y-93970000D01*
X125360012Y-81430012D02*
X123960012Y-81430012D01*
X123460000Y-80930000D02*
X123460000Y-79980000D01*
X137900000Y-93970000D02*
X125360012Y-81430012D01*
X123960012Y-81430012D02*
X123460000Y-80930000D01*
X173261000Y-101330100D02*
X173261000Y-138954320D01*
X173261000Y-138954320D02*
X159863010Y-152352310D01*
X171700000Y-107590900D02*
X171700000Y-139490000D01*
X171700000Y-139490000D02*
X158480000Y-152710000D01*
X158480000Y-152710000D02*
X158480000Y-153485010D01*
X144080000Y-139852100D02*
X143626915Y-140305185D01*
X144080000Y-122614736D02*
X144080000Y-139852100D01*
X156147751Y-110546985D02*
X144080000Y-122614736D01*
X66657793Y-123967793D02*
X66657793Y-93104990D01*
X67650000Y-124960000D02*
X66657793Y-123967793D01*
X65520000Y-86705000D02*
X65520000Y-124220785D01*
X65520000Y-124220785D02*
X67296215Y-125997000D01*
X67296215Y-125997000D02*
X67861900Y-125997000D01*
X110014315Y-157180000D02*
X128469315Y-138725000D01*
X101930000Y-157180000D02*
X110014315Y-157180000D01*
X128469315Y-138725000D02*
X130835000Y-138725000D01*
X95660000Y-82330000D02*
X96006427Y-82330000D01*
X96006427Y-82330000D02*
X100656427Y-77680000D01*
X100656427Y-77680000D02*
X113082700Y-77680000D01*
X121220000Y-106350000D02*
X121220000Y-96910000D01*
X111780000Y-115790000D02*
X121220000Y-106350000D01*
X111780000Y-137990000D02*
X111780000Y-115790000D01*
X100400000Y-151086998D02*
X100400000Y-149370000D01*
X101540000Y-152226998D02*
X100400000Y-151086998D01*
X100400000Y-149370000D02*
X111780000Y-137990000D01*
X101540000Y-154160000D02*
X101540000Y-152226998D01*
X121440000Y-85380000D02*
X121440000Y-86200000D01*
X121440000Y-86200000D02*
X120790000Y-86850000D01*
X120790000Y-86850000D02*
X115550000Y-86850000D01*
X107930000Y-94470000D02*
X92610000Y-94470000D01*
X115550000Y-86850000D02*
X107930000Y-94470000D01*
X55430000Y-72530000D02*
X55220000Y-72740000D01*
X119650000Y-72530000D02*
X55430000Y-72530000D01*
X120350000Y-73230000D02*
X119650000Y-72530000D01*
X118450000Y-73400000D02*
X118680000Y-73630000D01*
X55633004Y-73400000D02*
X118450000Y-73400000D01*
X54503004Y-74530000D02*
X55633004Y-73400000D01*
X47410000Y-74530000D02*
X54503004Y-74530000D01*
X42135643Y-82890000D02*
X51900000Y-82890000D01*
X35519967Y-89505673D02*
X42135643Y-82890000D01*
X35519967Y-116549933D02*
X35519967Y-89505673D01*
X31444900Y-120625000D02*
X35519967Y-116549933D01*
X29845000Y-120625000D02*
X31444900Y-120625000D01*
X28575000Y-121895000D02*
X29845000Y-120625000D01*
X35069956Y-115400044D02*
X35069956Y-89319274D01*
X31115000Y-119355000D02*
X35069956Y-115400044D01*
X35069956Y-89319274D02*
X44454232Y-79935001D01*
X44454232Y-79935001D02*
X51224999Y-79935001D01*
X35969978Y-116780022D02*
X35969978Y-90270022D01*
X35969978Y-90270022D02*
X38300000Y-87940000D01*
X31115000Y-121635000D02*
X35969978Y-116780022D01*
X31115000Y-121895000D02*
X31115000Y-121635000D01*
X31115000Y-126975000D02*
X36419989Y-121670011D01*
X36419989Y-91075411D02*
X38153500Y-89341900D01*
X36419989Y-121670011D02*
X36419989Y-91075411D01*
D20*
X36710000Y-146140000D02*
X39500000Y-148930000D01*
X24669300Y-143884400D02*
X26924900Y-146140000D01*
X24669300Y-105480700D02*
X24669300Y-143884400D01*
X26924900Y-146140000D02*
X36710000Y-146140000D01*
X28575000Y-101575000D02*
X24669300Y-105480700D01*
D19*
X29660001Y-105569999D02*
X28575000Y-106655000D01*
X33710000Y-103850000D02*
X31990001Y-105569999D01*
X43130000Y-76170000D02*
X43130000Y-79350000D01*
X43130000Y-79350000D02*
X33710000Y-88770000D01*
X33710000Y-88770000D02*
X33710000Y-103850000D01*
X31990001Y-105569999D02*
X29660001Y-105569999D01*
X34160011Y-88956399D02*
X43950000Y-79166410D01*
X28575000Y-109195000D02*
X29790000Y-107980000D01*
X32700000Y-107980000D02*
X34160011Y-106519989D01*
X34160011Y-106519989D02*
X34160011Y-88956399D01*
X29790000Y-107980000D02*
X32700000Y-107980000D01*
X43950000Y-72430000D02*
X45380000Y-71000000D01*
X43950000Y-79166410D02*
X43950000Y-72430000D01*
X34619945Y-108230055D02*
X34619945Y-89132875D01*
X31115000Y-111735000D02*
X34619945Y-108230055D01*
X52580000Y-79100000D02*
X53430000Y-79950000D01*
X44652820Y-79100000D02*
X52580000Y-79100000D01*
X34619945Y-89132875D02*
X44652820Y-79100000D01*
X36870000Y-123760000D02*
X36870000Y-91725685D01*
X31115000Y-129515000D02*
X36870000Y-123760000D01*
X36870000Y-91725685D02*
X44250000Y-84345685D01*
X44250000Y-84345685D02*
X44250000Y-83780000D01*
D21*
X40808100Y-145213600D02*
X40808100Y-148330600D01*
X40808100Y-148330600D02*
X40808200Y-148330600D01*
X28575000Y-132055000D02*
X25589600Y-135040400D01*
X25589600Y-135040400D02*
X25589600Y-143503200D01*
X25589600Y-143503200D02*
X27300000Y-145213600D01*
X27300000Y-145213600D02*
X40808100Y-145213600D01*
X40808100Y-99501900D02*
X40808100Y-145213600D01*
X42270000Y-98040000D02*
X40808100Y-99501900D01*
X28575000Y-134595000D02*
X26429900Y-136740100D01*
X26429900Y-143155200D02*
X27644699Y-144369999D01*
X26429900Y-136740100D02*
X26429900Y-143155200D01*
X27644699Y-144369999D02*
X38929999Y-144369999D01*
X38929999Y-144369999D02*
X39230000Y-144069998D01*
X28052500Y-143517800D02*
X31681200Y-143517800D01*
X28575000Y-137135000D02*
X27294600Y-138415400D01*
X27294600Y-138415400D02*
X27294600Y-142759900D01*
X27294600Y-142759900D02*
X28052500Y-143517800D01*
X31681200Y-143517800D02*
X38840001Y-136358999D01*
X38840001Y-136358999D02*
X38840001Y-108889999D01*
X38840001Y-108889999D02*
X39460000Y-108270000D01*
D22*
X45650000Y-73570000D02*
X46640000Y-72580000D01*
X46640000Y-72580000D02*
X46640000Y-65800000D01*
X45650000Y-74650000D02*
X45650000Y-73570000D01*
X62100000Y-108140000D02*
X62100000Y-79250000D01*
X62100000Y-79250000D02*
X58650000Y-75800000D01*
X58650000Y-75800000D02*
X46800000Y-75800000D01*
X46800000Y-75800000D02*
X45650000Y-74650000D01*
X155752300Y-75372300D02*
X155752300Y-80245000D01*
X141704500Y-61324500D02*
X155752300Y-75372300D01*
X70415500Y-61324500D02*
X141704500Y-61324500D01*
D19*
X153794000Y-49510600D02*
X158739998Y-54456598D01*
X156512900Y-96245000D02*
X156512900Y-67471222D01*
X158739998Y-54456598D02*
X158739998Y-55510000D01*
X158739998Y-65244124D02*
X158739998Y-55510000D01*
X156512900Y-67471222D02*
X158739998Y-65244124D01*
X160180000Y-153970000D02*
X160190000Y-153960000D01*
X146370000Y-154590000D02*
X159560000Y-154590000D01*
X139710000Y-161250000D02*
X146370000Y-154590000D01*
X159560000Y-154590000D02*
X160180000Y-153970000D01*
X104160000Y-161250000D02*
X139710000Y-161250000D01*
X102750000Y-162660000D02*
X104160000Y-161250000D01*
X101247000Y-86162900D02*
X101269900Y-86140000D01*
X104834990Y-81145010D02*
X111104990Y-81145010D01*
X101247000Y-86162900D02*
X101247000Y-84733000D01*
X101247000Y-84733000D02*
X104834990Y-81145010D01*
X111104990Y-81145010D02*
X115353224Y-81145010D01*
X101255460Y-149319860D02*
X101255460Y-149539860D01*
X124620000Y-125955320D02*
X101255460Y-149319860D01*
X124620000Y-124170000D02*
X124620000Y-125955320D01*
X92237700Y-150100000D02*
X92237700Y-145272700D01*
X92237700Y-145272700D02*
X84437600Y-137472600D01*
X84437600Y-137472600D02*
X84437600Y-132485800D01*
X84437600Y-132485800D02*
X76623300Y-124671500D01*
X139091476Y-159252114D02*
X139091476Y-159848967D01*
X159310000Y-139033590D02*
X139091476Y-159252114D01*
X157650000Y-111041100D02*
X159310000Y-112701100D01*
X157650000Y-95742100D02*
X157650000Y-111041100D01*
X159310000Y-112701100D02*
X159310000Y-139033590D01*
X157252400Y-95344500D02*
X157650000Y-95742100D01*
X154701000Y-95582100D02*
X154701000Y-97804008D01*
X154701000Y-97804008D02*
X136395010Y-116109998D01*
X159409100Y-103460900D02*
X159809099Y-103860899D01*
X159809099Y-103860899D02*
X159809099Y-139269223D01*
X140150000Y-158830000D02*
X140150000Y-159660000D01*
X158868166Y-140210156D02*
X158769844Y-140210156D01*
X159809099Y-139269223D02*
X158868166Y-140210156D01*
X158769844Y-140210156D02*
X140150000Y-158830000D01*
X114632600Y-89039500D02*
X109530800Y-94141300D01*
X118089500Y-89039500D02*
X114632600Y-89039500D01*
X92987400Y-150900000D02*
X92987400Y-144996500D01*
X92987400Y-144996500D02*
X86850800Y-138859900D01*
X80390000Y-143570000D02*
X80390000Y-155185000D01*
X82950000Y-141010000D02*
X80390000Y-143570000D01*
X77850000Y-157725000D02*
X79120000Y-156455000D01*
X79120000Y-156455000D02*
X79120000Y-143500000D01*
X79120000Y-143500000D02*
X82940000Y-139680000D01*
X81703000Y-143467000D02*
X82960000Y-142210000D01*
X81703000Y-156412000D02*
X81703000Y-143467000D01*
X80390000Y-157725000D02*
X81703000Y-156412000D01*
X86974700Y-153680300D02*
X86974700Y-141184700D01*
X82930000Y-157725000D02*
X86974700Y-153680300D01*
X86974700Y-141184700D02*
X82950000Y-137160000D01*
X100100000Y-157960000D02*
X99138300Y-158921700D01*
X99138300Y-158921700D02*
X66441700Y-158921700D01*
X66441700Y-158921700D02*
X59530000Y-152010000D01*
X123890000Y-82210002D02*
X125400002Y-82210002D01*
X125400002Y-82210002D02*
X130795010Y-87605010D01*
X130795010Y-87605010D02*
X130795010Y-101690000D01*
X86679978Y-97257200D02*
X104787200Y-79149978D01*
X37792660Y-160982660D02*
X86679978Y-112095342D01*
X104787200Y-79149978D02*
X124174611Y-79149978D01*
X124174611Y-79149978D02*
X124216298Y-79191665D01*
X86679978Y-112095342D02*
X86679978Y-97257200D01*
X147670000Y-135220000D02*
X147630000Y-135180000D01*
X148069999Y-149637181D02*
X148069999Y-135619999D01*
X50196400Y-165500000D02*
X55484652Y-160211748D01*
X148069999Y-135619999D02*
X147670000Y-135220000D01*
X137495432Y-160211748D02*
X148069999Y-149637181D01*
X40950000Y-165500000D02*
X50196400Y-165500000D01*
X40230000Y-164780000D02*
X40950000Y-165500000D01*
X55484652Y-160211748D02*
X137495432Y-160211748D01*
X104875799Y-78424968D02*
X123390000Y-78424968D01*
X34160000Y-160750000D02*
X37000000Y-160750000D01*
X37000000Y-160750000D02*
X86229967Y-111520033D01*
X86229967Y-111520033D02*
X86229967Y-97070800D01*
X86229967Y-97070800D02*
X104875799Y-78424968D01*
X55298252Y-159761737D02*
X137309033Y-159761737D01*
X147529999Y-136509999D02*
X147130000Y-136110000D01*
X147529999Y-149540771D02*
X147529999Y-136509999D01*
X137309033Y-159761737D02*
X147529999Y-149540771D01*
X50289990Y-164770000D02*
X55298252Y-159761737D01*
X44040000Y-164770000D02*
X50289990Y-164770000D01*
X133880000Y-112510000D02*
X134420000Y-111970000D01*
X133880000Y-130920000D02*
X133880000Y-112510000D01*
X142410000Y-139450000D02*
X133880000Y-130920000D01*
X142890000Y-139450000D02*
X142410000Y-139450000D01*
X145507660Y-144632340D02*
X145507660Y-143847660D01*
X145507660Y-143847660D02*
X124265000Y-122605000D01*
X124265000Y-122605000D02*
X115835000Y-122605000D01*
X144276410Y-141980000D02*
X145550000Y-141980000D01*
X116630000Y-122130000D02*
X124426410Y-122130000D01*
X124426410Y-122130000D02*
X144276410Y-141980000D01*
X115845000Y-121345000D02*
X116630000Y-122130000D01*
X114770001Y-115289999D02*
X114770001Y-129420001D01*
X118175000Y-111885000D02*
X114770001Y-115289999D01*
X114770001Y-129420001D02*
X115860000Y-130510000D01*
X114200000Y-114950000D02*
X114200000Y-129880000D01*
X115680000Y-113470000D02*
X114200000Y-114950000D01*
X114200000Y-129880000D02*
X113550000Y-130530000D01*
X115680000Y-112960000D02*
X115680000Y-113470000D01*
X78230000Y-89830000D02*
X77830000Y-90230000D01*
X78230000Y-84010000D02*
X78230000Y-89830000D01*
X78470000Y-83770000D02*
X78230000Y-84010000D01*
X89428900Y-164890000D02*
X89518900Y-164800000D01*
X86610000Y-164890000D02*
X89428900Y-164890000D01*
X85170000Y-166340002D02*
X85170000Y-166330000D01*
X84835001Y-166675001D02*
X85170000Y-166340002D01*
X82485001Y-166675001D02*
X84835001Y-166675001D01*
X85170000Y-166330000D02*
X86610000Y-164890000D01*
X81310000Y-165500000D02*
X82485001Y-166675001D01*
X81185000Y-165500000D02*
X81310000Y-165500000D01*
X71986998Y-137150000D02*
X46811998Y-162325000D01*
X73260000Y-137150000D02*
X71986998Y-137150000D01*
X46811998Y-162325000D02*
X31450000Y-162325000D01*
X37444658Y-161707662D02*
X46746651Y-161707662D01*
X27150000Y-161710000D02*
X27260000Y-161600000D01*
X27260000Y-161600000D02*
X37336996Y-161600000D01*
X37336996Y-161600000D02*
X37444658Y-161707662D01*
X46746651Y-161707662D02*
X72614313Y-135840000D01*
X72614313Y-135840000D02*
X73280002Y-135840000D01*
X111620000Y-146125010D02*
X111584990Y-146090000D01*
X111620000Y-151640000D02*
X111620000Y-146125010D01*
X134450000Y-149740000D02*
X134450000Y-134110000D01*
X133310000Y-150880000D02*
X134450000Y-149740000D01*
X134450000Y-134110000D02*
X130100000Y-129760000D01*
X130070000Y-93000000D02*
X130030000Y-92960000D01*
X130070000Y-125550000D02*
X130070000Y-93000000D01*
X130080000Y-125560000D02*
X130070000Y-125550000D01*
X123680000Y-158240000D02*
X123640000Y-158280000D01*
X123680000Y-155740000D02*
X123680000Y-158240000D01*
X119200000Y-151260000D02*
X123680000Y-155740000D01*
X119200000Y-151230000D02*
X119200000Y-151260000D01*
X116580000Y-151650000D02*
X116580000Y-151640000D01*
X121100000Y-156170000D02*
X116580000Y-151650000D01*
X121100000Y-158280000D02*
X121100000Y-156170000D01*
X121600000Y-88330000D02*
X124040000Y-90770000D01*
X124040000Y-90770000D02*
X124040000Y-102120000D01*
X122640000Y-88320000D02*
X126230002Y-91910002D01*
X126230002Y-91910002D02*
X126230002Y-101840002D01*
X126230002Y-101840002D02*
X126560000Y-102170000D01*
X118110000Y-79920000D02*
X118110000Y-79920000D01*
X117929989Y-79739989D02*
X104833600Y-79739989D01*
X118110000Y-79920000D02*
X117929989Y-79739989D01*
X104833600Y-79739989D02*
X87129989Y-97443600D01*
X100227481Y-146467419D02*
X98754800Y-147940100D01*
X100419991Y-127919404D02*
X100419991Y-141185740D01*
X98754800Y-151592464D02*
X99899226Y-152736890D01*
X100227481Y-141378250D02*
X100227481Y-146467419D01*
X87129989Y-114629402D02*
X100419991Y-127919404D01*
X87129989Y-97443600D02*
X87129989Y-114629402D01*
X98754800Y-147940100D02*
X98754800Y-151592464D01*
X100419991Y-141185740D02*
X100227481Y-141378250D01*
X118630000Y-80660000D02*
X119410000Y-79880000D01*
X117100000Y-80190000D02*
X117570000Y-80660000D01*
X87580000Y-97630000D02*
X105020000Y-80190000D01*
X100940000Y-127803002D02*
X87580000Y-114443002D01*
X100677492Y-141564650D02*
X100940000Y-141302142D01*
X105020000Y-80190000D02*
X117100000Y-80190000D01*
X100677492Y-146687098D02*
X100677492Y-141564650D01*
X99332295Y-148032295D02*
X100677492Y-146687098D01*
X99332295Y-151060000D02*
X99332295Y-148032295D01*
X117570000Y-80660000D02*
X118630000Y-80660000D01*
X87580000Y-114443002D02*
X87580000Y-97630000D01*
X100940000Y-141302142D02*
X100940000Y-127803002D01*
X100016016Y-151743721D02*
X99332295Y-151060000D01*
M02*
