G04 #@! TF.GenerationSoftware,KiCad,Pcbnew,6.0.9*
G04 #@! TF.CreationDate,2022-11-20T11:42:09+03:00*
G04 #@! TF.ProjectId,sd-card_adapter_esp32,73642d63-6172-4645-9f61-646170746572,rev?*
G04 #@! TF.SameCoordinates,Original*
G04 #@! TF.FileFunction,Legend,Top*
G04 #@! TF.FilePolarity,Positive*
%FSLAX46Y46*%
G04 Gerber Fmt 4.6, Leading zero omitted, Abs format (unit mm)*
G04 Created by KiCad (PCBNEW 6.0.9) date 2022-11-20 11:42:09*
%MOMM*%
%LPD*%
G01*
G04 APERTURE LIST*
%ADD10C,0.150000*%
%ADD11C,0.120000*%
%ADD12R,1.000000X1.000000*%
%ADD13O,1.000000X1.000000*%
%ADD14C,1.000000*%
%ADD15R,1.300000X1.900000*%
%ADD16R,1.000000X2.800000*%
%ADD17R,1.000000X1.200000*%
%ADD18R,1.000000X0.800000*%
%ADD19R,0.700000X1.200000*%
G04 APERTURE END LIST*
D10*
X102831904Y-81622380D02*
X102831904Y-80622380D01*
X103070000Y-80622380D01*
X103212857Y-80670000D01*
X103308095Y-80765238D01*
X103355714Y-80860476D01*
X103403333Y-81050952D01*
X103403333Y-81193809D01*
X103355714Y-81384285D01*
X103308095Y-81479523D01*
X103212857Y-81574761D01*
X103070000Y-81622380D01*
X102831904Y-81622380D01*
X104355714Y-81622380D02*
X103784285Y-81622380D01*
X104070000Y-81622380D02*
X104070000Y-80622380D01*
X103974761Y-80765238D01*
X103879523Y-80860476D01*
X103784285Y-80908095D01*
X111566664Y-78917380D02*
X111566664Y-79631666D01*
X111519045Y-79774523D01*
X111423807Y-79869761D01*
X111280950Y-79917380D01*
X111185712Y-79917380D01*
X112566664Y-79917380D02*
X111995236Y-79917380D01*
X112280950Y-79917380D02*
X112280950Y-78917380D01*
X112185712Y-79060238D01*
X112090474Y-79155476D01*
X111995236Y-79203095D01*
D11*
X103470000Y-64043750D02*
X103470000Y-80206250D01*
X101250000Y-62523750D02*
X102360000Y-62523750D01*
X101250000Y-82436250D02*
X121530000Y-82426250D01*
X101250000Y-64043750D02*
X101796529Y-64043750D01*
X102923471Y-64043750D02*
X103470000Y-64043750D01*
X101250000Y-63283750D02*
X101250000Y-62523750D01*
X103470000Y-80206250D02*
X119290000Y-80196250D01*
X121530000Y-62506250D02*
X121530000Y-82426250D01*
X119300000Y-62506250D02*
X119290000Y-80196250D01*
X121530000Y-62486250D02*
X119300000Y-62486250D01*
X101250000Y-64033750D02*
X101250000Y-82436250D01*
X106509998Y-61555000D02*
X108819998Y-61555000D01*
X117769998Y-61555000D02*
X117969998Y-61755000D01*
X106749998Y-77825000D02*
X104829998Y-77825000D01*
X104829998Y-77825000D02*
X104829998Y-63815000D01*
X118799998Y-72515000D02*
X118799998Y-67815000D01*
X106509998Y-61555000D02*
X106309998Y-61755000D01*
X108819998Y-61555000D02*
X109329998Y-61905000D01*
X106309998Y-61755000D02*
X106049998Y-61755000D01*
X118349998Y-77825000D02*
X118799998Y-77825000D01*
X118799998Y-66515000D02*
X118799998Y-64715000D01*
X118799998Y-77825000D02*
X118799998Y-74215000D01*
X115909998Y-61555000D02*
X115699998Y-61755000D01*
X117769998Y-61555000D02*
X115909998Y-61555000D01*
X115699998Y-61905000D02*
X109329998Y-61905000D01*
X115699998Y-61905000D02*
X115699998Y-61755000D01*
%LPC*%
D12*
X102360000Y-63283750D03*
D13*
X102360000Y-64553750D03*
X102360000Y-65823750D03*
X102360000Y-67093750D03*
X102360000Y-68363750D03*
X102360000Y-69633750D03*
X102360000Y-70903750D03*
X102360000Y-72173750D03*
X102360000Y-73443750D03*
X102360000Y-74713750D03*
X102360000Y-75983750D03*
X102360000Y-77253750D03*
X102360000Y-78523750D03*
X102360000Y-79793750D03*
X105677500Y-81316250D03*
X106947500Y-81316250D03*
X108217500Y-81316250D03*
X109487500Y-81316250D03*
X110757500Y-81316250D03*
X112027500Y-81316250D03*
X113297500Y-81316250D03*
X114567500Y-81316250D03*
X115837500Y-81316250D03*
X117107500Y-81316250D03*
X120420000Y-79763750D03*
X120420000Y-78493750D03*
X120420000Y-77223750D03*
X120420000Y-75953750D03*
X120420000Y-74683750D03*
X120420000Y-73413750D03*
X120420000Y-72143750D03*
X120420000Y-70873750D03*
X120420000Y-69603750D03*
X120420000Y-68333750D03*
X120420000Y-67063750D03*
X120420000Y-65793750D03*
X120420000Y-64523750D03*
D14*
X120420000Y-63253750D03*
D15*
X105149998Y-62565000D03*
D16*
X118649998Y-63015000D03*
D17*
X118649998Y-73365000D03*
X107499998Y-77665000D03*
D18*
X118649998Y-67165000D03*
D19*
X117699998Y-77665000D03*
X116749998Y-77665000D03*
X115649998Y-77665000D03*
X114549998Y-77665000D03*
X113449998Y-77665000D03*
X112349998Y-77665000D03*
X111249998Y-77665000D03*
X110149998Y-77665000D03*
X109049998Y-77665000D03*
M02*
