G04 #@! TF.GenerationSoftware,KiCad,Pcbnew,6.0.9*
G04 #@! TF.CreationDate,2022-11-20T11:42:09+03:00*
G04 #@! TF.ProjectId,sd-card_adapter_esp32,73642d63-6172-4645-9f61-646170746572,rev?*
G04 #@! TF.SameCoordinates,Original*
G04 #@! TF.FileFunction,Legend,Bot*
G04 #@! TF.FilePolarity,Positive*
%FSLAX46Y46*%
G04 Gerber Fmt 4.6, Leading zero omitted, Abs format (unit mm)*
G04 Created by KiCad (PCBNEW 6.0.9) date 2022-11-20 11:42:09*
%MOMM*%
%LPD*%
G01*
G04 APERTURE LIST*
G04 Aperture macros list*
%AMRoundRect*
0 Rectangle with rounded corners*
0 $1 Rounding radius*
0 $2 $3 $4 $5 $6 $7 $8 $9 X,Y pos of 4 corners*
0 Add a 4 corners polygon primitive as box body*
4,1,4,$2,$3,$4,$5,$6,$7,$8,$9,$2,$3,0*
0 Add four circle primitives for the rounded corners*
1,1,$1+$1,$2,$3*
1,1,$1+$1,$4,$5*
1,1,$1+$1,$6,$7*
1,1,$1+$1,$8,$9*
0 Add four rect primitives between the rounded corners*
20,1,$1+$1,$2,$3,$4,$5,0*
20,1,$1+$1,$4,$5,$6,$7,0*
20,1,$1+$1,$6,$7,$8,$9,0*
20,1,$1+$1,$8,$9,$2,$3,0*%
G04 Aperture macros list end*
%ADD10C,0.150000*%
%ADD11C,0.120000*%
%ADD12R,1.000000X1.000000*%
%ADD13O,1.000000X1.000000*%
%ADD14C,1.000000*%
%ADD15RoundRect,0.250000X0.450000X-0.350000X0.450000X0.350000X-0.450000X0.350000X-0.450000X-0.350000X0*%
%ADD16RoundRect,0.250000X-0.475000X0.337500X-0.475000X-0.337500X0.475000X-0.337500X0.475000X0.337500X0*%
%ADD17RoundRect,0.250001X-0.924999X0.499999X-0.924999X-0.499999X0.924999X-0.499999X0.924999X0.499999X0*%
G04 APERTURE END LIST*
D10*
X117062380Y-71213333D02*
X116586190Y-70880000D01*
X117062380Y-70641904D02*
X116062380Y-70641904D01*
X116062380Y-71022857D01*
X116110000Y-71118095D01*
X116157619Y-71165714D01*
X116252857Y-71213333D01*
X116395714Y-71213333D01*
X116490952Y-71165714D01*
X116538571Y-71118095D01*
X116586190Y-71022857D01*
X116586190Y-70641904D01*
X116062380Y-72118095D02*
X116062380Y-71641904D01*
X116538571Y-71594285D01*
X116490952Y-71641904D01*
X116443333Y-71737142D01*
X116443333Y-71975238D01*
X116490952Y-72070476D01*
X116538571Y-72118095D01*
X116633809Y-72165714D01*
X116871904Y-72165714D01*
X116967142Y-72118095D01*
X117014761Y-72070476D01*
X117062380Y-71975238D01*
X117062380Y-71737142D01*
X117014761Y-71641904D01*
X116967142Y-71594285D01*
X109987142Y-65633333D02*
X110034761Y-65585714D01*
X110082380Y-65442857D01*
X110082380Y-65347619D01*
X110034761Y-65204761D01*
X109939523Y-65109523D01*
X109844285Y-65061904D01*
X109653809Y-65014285D01*
X109510952Y-65014285D01*
X109320476Y-65061904D01*
X109225238Y-65109523D01*
X109130000Y-65204761D01*
X109082380Y-65347619D01*
X109082380Y-65442857D01*
X109130000Y-65585714D01*
X109177619Y-65633333D01*
X109177619Y-66014285D02*
X109130000Y-66061904D01*
X109082380Y-66157142D01*
X109082380Y-66395238D01*
X109130000Y-66490476D01*
X109177619Y-66538095D01*
X109272857Y-66585714D01*
X109368095Y-66585714D01*
X109510952Y-66538095D01*
X110082380Y-65966666D01*
X110082380Y-66585714D01*
X105097142Y-65803333D02*
X105144761Y-65755714D01*
X105192380Y-65612857D01*
X105192380Y-65517619D01*
X105144761Y-65374761D01*
X105049523Y-65279523D01*
X104954285Y-65231904D01*
X104763809Y-65184285D01*
X104620952Y-65184285D01*
X104430476Y-65231904D01*
X104335238Y-65279523D01*
X104240000Y-65374761D01*
X104192380Y-65517619D01*
X104192380Y-65612857D01*
X104240000Y-65755714D01*
X104287619Y-65803333D01*
X105192380Y-66755714D02*
X105192380Y-66184285D01*
X105192380Y-66470000D02*
X104192380Y-66470000D01*
X104335238Y-66374761D01*
X104430476Y-66279523D01*
X104478095Y-66184285D01*
X115312380Y-71143333D02*
X114836190Y-70810000D01*
X115312380Y-70571904D02*
X114312380Y-70571904D01*
X114312380Y-70952857D01*
X114360000Y-71048095D01*
X114407619Y-71095714D01*
X114502857Y-71143333D01*
X114645714Y-71143333D01*
X114740952Y-71095714D01*
X114788571Y-71048095D01*
X114836190Y-70952857D01*
X114836190Y-70571904D01*
X114312380Y-71476666D02*
X114312380Y-72095714D01*
X114693333Y-71762380D01*
X114693333Y-71905238D01*
X114740952Y-72000476D01*
X114788571Y-72048095D01*
X114883809Y-72095714D01*
X115121904Y-72095714D01*
X115217142Y-72048095D01*
X115264761Y-72000476D01*
X115312380Y-71905238D01*
X115312380Y-71619523D01*
X115264761Y-71524285D01*
X115217142Y-71476666D01*
X109912380Y-71133333D02*
X109436190Y-70800000D01*
X109912380Y-70561904D02*
X108912380Y-70561904D01*
X108912380Y-70942857D01*
X108960000Y-71038095D01*
X109007619Y-71085714D01*
X109102857Y-71133333D01*
X109245714Y-71133333D01*
X109340952Y-71085714D01*
X109388571Y-71038095D01*
X109436190Y-70942857D01*
X109436190Y-70561904D01*
X109912380Y-72085714D02*
X109912380Y-71514285D01*
X109912380Y-71800000D02*
X108912380Y-71800000D01*
X109055238Y-71704761D01*
X109150476Y-71609523D01*
X109198095Y-71514285D01*
X106362380Y-71163333D02*
X105886190Y-70830000D01*
X106362380Y-70591904D02*
X105362380Y-70591904D01*
X105362380Y-70972857D01*
X105410000Y-71068095D01*
X105457619Y-71115714D01*
X105552857Y-71163333D01*
X105695714Y-71163333D01*
X105790952Y-71115714D01*
X105838571Y-71068095D01*
X105886190Y-70972857D01*
X105886190Y-70591904D01*
X105695714Y-72020476D02*
X106362380Y-72020476D01*
X105314761Y-71782380D02*
X106029047Y-71544285D01*
X106029047Y-72163333D01*
X108152380Y-71153333D02*
X107676190Y-70820000D01*
X108152380Y-70581904D02*
X107152380Y-70581904D01*
X107152380Y-70962857D01*
X107200000Y-71058095D01*
X107247619Y-71105714D01*
X107342857Y-71153333D01*
X107485714Y-71153333D01*
X107580952Y-71105714D01*
X107628571Y-71058095D01*
X107676190Y-70962857D01*
X107676190Y-70581904D01*
X107247619Y-71534285D02*
X107200000Y-71581904D01*
X107152380Y-71677142D01*
X107152380Y-71915238D01*
X107200000Y-72010476D01*
X107247619Y-72058095D01*
X107342857Y-72105714D01*
X107438095Y-72105714D01*
X107580952Y-72058095D01*
X108152380Y-71486666D01*
X108152380Y-72105714D01*
X113522380Y-71213333D02*
X113046190Y-70880000D01*
X113522380Y-70641904D02*
X112522380Y-70641904D01*
X112522380Y-71022857D01*
X112570000Y-71118095D01*
X112617619Y-71165714D01*
X112712857Y-71213333D01*
X112855714Y-71213333D01*
X112950952Y-71165714D01*
X112998571Y-71118095D01*
X113046190Y-71022857D01*
X113046190Y-70641904D01*
X112522380Y-72070476D02*
X112522380Y-71880000D01*
X112570000Y-71784761D01*
X112617619Y-71737142D01*
X112760476Y-71641904D01*
X112950952Y-71594285D01*
X113331904Y-71594285D01*
X113427142Y-71641904D01*
X113474761Y-71689523D01*
X113522380Y-71784761D01*
X113522380Y-71975238D01*
X113474761Y-72070476D01*
X113427142Y-72118095D01*
X113331904Y-72165714D01*
X113093809Y-72165714D01*
X112998571Y-72118095D01*
X112950952Y-72070476D01*
X112903333Y-71975238D01*
X112903333Y-71784761D01*
X112950952Y-71689523D01*
X112998571Y-71641904D01*
X113093809Y-71594285D01*
D11*
X117384996Y-74227064D02*
X117384996Y-73772936D01*
X115914996Y-74227064D02*
X115914996Y-73772936D01*
X112045000Y-65538748D02*
X112045000Y-66061252D01*
X110575000Y-65538748D02*
X110575000Y-66061252D01*
X108600000Y-63335000D02*
X108600000Y-67720000D01*
X105580000Y-67720000D02*
X105580000Y-63335000D01*
X105580000Y-63335000D02*
X108600000Y-63335000D01*
X114123330Y-74227064D02*
X114123330Y-73772936D01*
X115593330Y-74227064D02*
X115593330Y-73772936D01*
X108748332Y-74227064D02*
X108748332Y-73772936D01*
X110218332Y-74227064D02*
X110218332Y-73772936D01*
X106635000Y-74227064D02*
X106635000Y-73772936D01*
X105165000Y-74227064D02*
X105165000Y-73772936D01*
X106956666Y-74227064D02*
X106956666Y-73772936D01*
X108426666Y-74227064D02*
X108426666Y-73772936D01*
X112331664Y-74227064D02*
X112331664Y-73772936D01*
X113801664Y-74227064D02*
X113801664Y-73772936D01*
%LPC*%
D12*
X102360000Y-63283750D03*
D13*
X102360000Y-64553750D03*
X102360000Y-65823750D03*
X102360000Y-67093750D03*
X102360000Y-68363750D03*
X102360000Y-69633750D03*
X102360000Y-70903750D03*
X102360000Y-72173750D03*
X102360000Y-73443750D03*
X102360000Y-74713750D03*
X102360000Y-75983750D03*
X102360000Y-77253750D03*
X102360000Y-78523750D03*
X102360000Y-79793750D03*
X105677500Y-81316250D03*
X106947500Y-81316250D03*
X108217500Y-81316250D03*
X109487500Y-81316250D03*
X110757500Y-81316250D03*
X112027500Y-81316250D03*
X113297500Y-81316250D03*
X114567500Y-81316250D03*
X115837500Y-81316250D03*
X117107500Y-81316250D03*
X120420000Y-79763750D03*
X120420000Y-78493750D03*
X120420000Y-77223750D03*
X120420000Y-75953750D03*
X120420000Y-74683750D03*
X120420000Y-73413750D03*
X120420000Y-72143750D03*
X120420000Y-70873750D03*
X120420000Y-69603750D03*
X120420000Y-68333750D03*
X120420000Y-67063750D03*
X120420000Y-65793750D03*
X120420000Y-64523750D03*
D14*
X120420000Y-63253750D03*
D15*
X116649996Y-75000000D03*
X116649996Y-73000000D03*
D16*
X111310000Y-64762500D03*
X111310000Y-66837500D03*
D17*
X107090000Y-64345000D03*
X107090000Y-67595000D03*
D15*
X114858330Y-75000000D03*
X114858330Y-73000000D03*
X109483332Y-75000000D03*
X109483332Y-73000000D03*
X105900000Y-75000000D03*
X105900000Y-73000000D03*
X107691666Y-75000000D03*
X107691666Y-73000000D03*
X113066664Y-75000000D03*
X113066664Y-73000000D03*
M02*
