G04 #@! TF.GenerationSoftware,KiCad,Pcbnew,6.0.9*
G04 #@! TF.CreationDate,2022-11-20T11:42:09+03:00*
G04 #@! TF.ProjectId,sd-card_adapter_esp32,73642d63-6172-4645-9f61-646170746572,rev?*
G04 #@! TF.SameCoordinates,Original*
G04 #@! TF.FileFunction,Soldermask,Top*
G04 #@! TF.FilePolarity,Negative*
%FSLAX46Y46*%
G04 Gerber Fmt 4.6, Leading zero omitted, Abs format (unit mm)*
G04 Created by KiCad (PCBNEW 6.0.9) date 2022-11-20 11:42:09*
%MOMM*%
%LPD*%
G01*
G04 APERTURE LIST*
%ADD10R,1.000000X1.000000*%
%ADD11O,1.000000X1.000000*%
%ADD12C,1.000000*%
%ADD13R,1.300000X1.900000*%
%ADD14R,1.000000X2.800000*%
%ADD15R,1.000000X1.200000*%
%ADD16R,1.000000X0.800000*%
%ADD17R,0.700000X1.200000*%
G04 APERTURE END LIST*
D10*
X102360000Y-63283750D03*
D11*
X102360000Y-64553750D03*
X102360000Y-65823750D03*
X102360000Y-67093750D03*
X102360000Y-68363750D03*
X102360000Y-69633750D03*
X102360000Y-70903750D03*
X102360000Y-72173750D03*
X102360000Y-73443750D03*
X102360000Y-74713750D03*
X102360000Y-75983750D03*
X102360000Y-77253750D03*
X102360000Y-78523750D03*
X102360000Y-79793750D03*
X105677500Y-81316250D03*
X106947500Y-81316250D03*
X108217500Y-81316250D03*
X109487500Y-81316250D03*
X110757500Y-81316250D03*
X112027500Y-81316250D03*
X113297500Y-81316250D03*
X114567500Y-81316250D03*
X115837500Y-81316250D03*
X117107500Y-81316250D03*
X120420000Y-79763750D03*
X120420000Y-78493750D03*
X120420000Y-77223750D03*
X120420000Y-75953750D03*
X120420000Y-74683750D03*
X120420000Y-73413750D03*
X120420000Y-72143750D03*
X120420000Y-70873750D03*
X120420000Y-69603750D03*
X120420000Y-68333750D03*
X120420000Y-67063750D03*
X120420000Y-65793750D03*
X120420000Y-64523750D03*
D12*
X120420000Y-63253750D03*
D13*
X105149998Y-62565000D03*
D14*
X118649998Y-63015000D03*
D15*
X118649998Y-73365000D03*
X107499998Y-77665000D03*
D16*
X118649998Y-67165000D03*
D17*
X117699998Y-77665000D03*
X116749998Y-77665000D03*
X115649998Y-77665000D03*
X114549998Y-77665000D03*
X113449998Y-77665000D03*
X112349998Y-77665000D03*
X111249998Y-77665000D03*
X110149998Y-77665000D03*
X109049998Y-77665000D03*
M02*
