G04 #@! TF.GenerationSoftware,KiCad,Pcbnew,6.0.9*
G04 #@! TF.CreationDate,2022-11-20T11:42:09+03:00*
G04 #@! TF.ProjectId,sd-card_adapter_esp32,73642d63-6172-4645-9f61-646170746572,rev?*
G04 #@! TF.SameCoordinates,Original*
G04 #@! TF.FileFunction,Copper,L1,Top*
G04 #@! TF.FilePolarity,Positive*
%FSLAX46Y46*%
G04 Gerber Fmt 4.6, Leading zero omitted, Abs format (unit mm)*
G04 Created by KiCad (PCBNEW 6.0.9) date 2022-11-20 11:42:09*
%MOMM*%
%LPD*%
G01*
G04 APERTURE LIST*
G04 #@! TA.AperFunction,ComponentPad*
%ADD10R,1.000000X1.000000*%
G04 #@! TD*
G04 #@! TA.AperFunction,ComponentPad*
%ADD11O,1.000000X1.000000*%
G04 #@! TD*
G04 #@! TA.AperFunction,ComponentPad*
%ADD12C,1.000000*%
G04 #@! TD*
G04 #@! TA.AperFunction,SMDPad,CuDef*
%ADD13R,1.300000X1.900000*%
G04 #@! TD*
G04 #@! TA.AperFunction,SMDPad,CuDef*
%ADD14R,1.000000X2.800000*%
G04 #@! TD*
G04 #@! TA.AperFunction,SMDPad,CuDef*
%ADD15R,1.000000X1.200000*%
G04 #@! TD*
G04 #@! TA.AperFunction,SMDPad,CuDef*
%ADD16R,1.000000X0.800000*%
G04 #@! TD*
G04 #@! TA.AperFunction,SMDPad,CuDef*
%ADD17R,0.700000X1.200000*%
G04 #@! TD*
G04 #@! TA.AperFunction,ViaPad*
%ADD18C,0.800000*%
G04 #@! TD*
G04 #@! TA.AperFunction,Conductor*
%ADD19C,0.250000*%
G04 #@! TD*
G04 APERTURE END LIST*
D10*
X102360000Y-63283750D03*
D11*
X102360000Y-64553750D03*
X102360000Y-65823750D03*
X102360000Y-67093750D03*
X102360000Y-68363750D03*
X102360000Y-69633750D03*
X102360000Y-70903750D03*
X102360000Y-72173750D03*
X102360000Y-73443750D03*
X102360000Y-74713750D03*
X102360000Y-75983750D03*
X102360000Y-77253750D03*
X102360000Y-78523750D03*
X102360000Y-79793750D03*
X105677500Y-81316250D03*
X106947500Y-81316250D03*
X108217500Y-81316250D03*
X109487500Y-81316250D03*
X110757500Y-81316250D03*
X112027500Y-81316250D03*
X113297500Y-81316250D03*
X114567500Y-81316250D03*
X115837500Y-81316250D03*
X117107500Y-81316250D03*
X120420000Y-79763750D03*
X120420000Y-78493750D03*
X120420000Y-77223750D03*
X120420000Y-75953750D03*
X120420000Y-74683750D03*
X120420000Y-73413750D03*
X120420000Y-72143750D03*
X120420000Y-70873750D03*
X120420000Y-69603750D03*
X120420000Y-68333750D03*
X120420000Y-67063750D03*
X120420000Y-65793750D03*
X120420000Y-64523750D03*
D12*
X120420000Y-63253750D03*
D13*
X105149998Y-62565000D03*
D14*
X118649998Y-63015000D03*
D15*
X118649998Y-73365000D03*
X107499998Y-77665000D03*
D16*
X118649998Y-67165000D03*
D17*
X117699998Y-77665000D03*
X116749998Y-77665000D03*
X115649998Y-77665000D03*
X114549998Y-77665000D03*
X113449998Y-77665000D03*
X112349998Y-77665000D03*
X111249998Y-77665000D03*
X110149998Y-77665000D03*
X109049998Y-77665000D03*
D18*
X106090000Y-76290000D03*
X109410609Y-76465592D03*
X110880000Y-76430000D03*
X113365000Y-76615000D03*
X115535000Y-76585000D03*
X116830000Y-76660000D03*
X111300000Y-68320000D03*
X104940000Y-67550000D03*
X111930000Y-76390000D03*
D19*
X109049998Y-77219998D02*
X109049998Y-77665000D01*
X107306250Y-79793750D02*
X102360000Y-79793750D01*
X108440000Y-76610000D02*
X109049998Y-77219998D01*
X109049998Y-78050002D02*
X107306250Y-79793750D01*
X106090000Y-76290000D02*
X106410000Y-76610000D01*
X106410000Y-76610000D02*
X108440000Y-76610000D01*
X109049998Y-77665000D02*
X109049998Y-78050002D01*
X109410609Y-76499391D02*
X109410609Y-76465592D01*
X106947500Y-81302500D02*
X110149998Y-78100002D01*
X110149998Y-77665000D02*
X110149998Y-77239998D01*
X109410000Y-76500000D02*
X109410609Y-76499391D01*
X106947500Y-81316250D02*
X106947500Y-81302500D01*
X110149998Y-78100002D02*
X110149998Y-77665000D01*
X110149998Y-77239998D02*
X109410000Y-76500000D01*
X111249998Y-77665000D02*
X111249998Y-76799998D01*
X112030000Y-78980000D02*
X111249998Y-78199998D01*
X115837500Y-81316250D02*
X115837500Y-80487500D01*
X114310000Y-78960000D02*
X112050000Y-78960000D01*
X111249998Y-76799998D02*
X110880000Y-76430000D01*
X112050000Y-78960000D02*
X112030000Y-78980000D01*
X115837500Y-80487500D02*
X114310000Y-78960000D01*
X111249998Y-78199998D02*
X111249998Y-77665000D01*
X113449998Y-76699998D02*
X113365000Y-76615000D01*
X113449998Y-77665000D02*
X113449998Y-76699998D01*
X115649998Y-76699998D02*
X115535000Y-76585000D01*
X115649998Y-77665000D02*
X115649998Y-76699998D01*
X116749998Y-76740002D02*
X116830000Y-76660000D01*
X116749998Y-77665000D02*
X116749998Y-76740002D01*
X112349998Y-76809998D02*
X111930000Y-76390000D01*
X112349998Y-77665000D02*
X112349998Y-76809998D01*
G04 #@! TA.AperFunction,Conductor*
G36*
X103934250Y-61458502D02*
G01*
X103980743Y-61512158D01*
X103991106Y-61566911D01*
X103991998Y-61566911D01*
X103991998Y-62292885D01*
X103996473Y-62308124D01*
X103997863Y-62309329D01*
X104005546Y-62311000D01*
X105277998Y-62311000D01*
X105346119Y-62331002D01*
X105392612Y-62384658D01*
X105403998Y-62437000D01*
X105403998Y-64004884D01*
X105408473Y-64020123D01*
X105409863Y-64021328D01*
X105417546Y-64022999D01*
X105844667Y-64022999D01*
X105851488Y-64022629D01*
X105902350Y-64017105D01*
X105917602Y-64013479D01*
X106038052Y-63968324D01*
X106053647Y-63959786D01*
X106155722Y-63883285D01*
X106168283Y-63870724D01*
X106244784Y-63768649D01*
X106253322Y-63753054D01*
X106298476Y-63632606D01*
X106302103Y-63617351D01*
X106307629Y-63566486D01*
X106307998Y-63559672D01*
X106307998Y-63091000D01*
X106328000Y-63022879D01*
X106381656Y-62976386D01*
X106433998Y-62965000D01*
X108899998Y-62965000D01*
X108899998Y-61615000D01*
X108894679Y-61615000D01*
X108890274Y-61599998D01*
X108890274Y-61529001D01*
X108928658Y-61469275D01*
X108993239Y-61439782D01*
X109011170Y-61438500D01*
X117516129Y-61438500D01*
X117584250Y-61458502D01*
X117630743Y-61512158D01*
X117641106Y-61566911D01*
X117641998Y-61566911D01*
X117641998Y-62742885D01*
X117646473Y-62758124D01*
X117647863Y-62759329D01*
X117655546Y-62761000D01*
X118777998Y-62761000D01*
X118846119Y-62781002D01*
X118892612Y-62834658D01*
X118903998Y-62887000D01*
X118903998Y-64904884D01*
X118908473Y-64920123D01*
X118909863Y-64921328D01*
X118917546Y-64922999D01*
X119194667Y-64922999D01*
X119201488Y-64922629D01*
X119252350Y-64917105D01*
X119267601Y-64913479D01*
X119345991Y-64884092D01*
X119416798Y-64878909D01*
X119479167Y-64912830D01*
X119502286Y-64944478D01*
X119568187Y-65072706D01*
X119572016Y-65077537D01*
X119573839Y-65079838D01*
X119574414Y-65081259D01*
X119575353Y-65082716D01*
X119575076Y-65082894D01*
X119600474Y-65145648D01*
X119587301Y-65215412D01*
X119583846Y-65221224D01*
X119488567Y-65394537D01*
X119486706Y-65400404D01*
X119486705Y-65400406D01*
X119473041Y-65443481D01*
X119428765Y-65583056D01*
X119406719Y-65779601D01*
X119423268Y-65976684D01*
X119424967Y-65982608D01*
X119465986Y-66125659D01*
X119465535Y-66196654D01*
X119426774Y-66256135D01*
X119362007Y-66285218D01*
X119300639Y-66278371D01*
X119267719Y-66266030D01*
X119267712Y-66266028D01*
X119260314Y-66263255D01*
X119198132Y-66256500D01*
X118101864Y-66256500D01*
X118089607Y-66257831D01*
X118019727Y-66245306D01*
X117967710Y-66196986D01*
X117949998Y-66132569D01*
X117949998Y-65046927D01*
X117970000Y-64978806D01*
X118023656Y-64932313D01*
X118089601Y-64921663D01*
X118098518Y-64922631D01*
X118105326Y-64923000D01*
X118377883Y-64923000D01*
X118393122Y-64918525D01*
X118394327Y-64917135D01*
X118395998Y-64909452D01*
X118395998Y-63287115D01*
X118391523Y-63271876D01*
X118390133Y-63270671D01*
X118382450Y-63269000D01*
X117660114Y-63269000D01*
X117644875Y-63273475D01*
X117643670Y-63274865D01*
X117641999Y-63282548D01*
X117641999Y-63639000D01*
X117621997Y-63707121D01*
X117568341Y-63753614D01*
X117515999Y-63765000D01*
X117249998Y-63765000D01*
X117249998Y-70939000D01*
X117229996Y-71007121D01*
X117176340Y-71053614D01*
X117123998Y-71065000D01*
X108549998Y-71065000D01*
X108549998Y-72665000D01*
X117249998Y-72665000D01*
X117249998Y-71491000D01*
X117270000Y-71422879D01*
X117323656Y-71376386D01*
X117375998Y-71365000D01*
X117949998Y-71365000D01*
X117949998Y-68197431D01*
X117970000Y-68129310D01*
X118023656Y-68082817D01*
X118089607Y-68072168D01*
X118101864Y-68073500D01*
X119198132Y-68073500D01*
X119201529Y-68073131D01*
X119252463Y-68067598D01*
X119252464Y-68067598D01*
X119260314Y-68066745D01*
X119266312Y-68064496D01*
X119336553Y-68068165D01*
X119394196Y-68109612D01*
X119420280Y-68175643D01*
X119420012Y-68201090D01*
X119406719Y-68319601D01*
X119423268Y-68516684D01*
X119477783Y-68706800D01*
X119568187Y-68882706D01*
X119572016Y-68887537D01*
X119573839Y-68889838D01*
X119574414Y-68891259D01*
X119575353Y-68892716D01*
X119575076Y-68892894D01*
X119600474Y-68955648D01*
X119587301Y-69025412D01*
X119583846Y-69031224D01*
X119488567Y-69204537D01*
X119486706Y-69210404D01*
X119486705Y-69210406D01*
X119473041Y-69253481D01*
X119428765Y-69393056D01*
X119406719Y-69589601D01*
X119423268Y-69786684D01*
X119477783Y-69976800D01*
X119568187Y-70152706D01*
X119572016Y-70157537D01*
X119573839Y-70159838D01*
X119574414Y-70161259D01*
X119575353Y-70162716D01*
X119575076Y-70162894D01*
X119600474Y-70225648D01*
X119587301Y-70295412D01*
X119583846Y-70301224D01*
X119488567Y-70474537D01*
X119486706Y-70480404D01*
X119486705Y-70480406D01*
X119473041Y-70523481D01*
X119428765Y-70663056D01*
X119406719Y-70859601D01*
X119423268Y-71056684D01*
X119477783Y-71246800D01*
X119480602Y-71252285D01*
X119544382Y-71376386D01*
X119568187Y-71422706D01*
X119572016Y-71427537D01*
X119573839Y-71429838D01*
X119574414Y-71431259D01*
X119575353Y-71432716D01*
X119575076Y-71432894D01*
X119600474Y-71495648D01*
X119587301Y-71565412D01*
X119583846Y-71571224D01*
X119488567Y-71744537D01*
X119486706Y-71750404D01*
X119486705Y-71750406D01*
X119473041Y-71793481D01*
X119428765Y-71933056D01*
X119406719Y-72129601D01*
X119407235Y-72135745D01*
X119407149Y-72141902D01*
X119404124Y-72141860D01*
X119392782Y-72198702D01*
X119343454Y-72249763D01*
X119274350Y-72266049D01*
X119253190Y-72262986D01*
X119201484Y-72257369D01*
X119194670Y-72257000D01*
X119175998Y-72257000D01*
X119107877Y-72236998D01*
X119061384Y-72183342D01*
X119049998Y-72131000D01*
X119049998Y-69165000D01*
X118299998Y-69165000D01*
X118299998Y-72131001D01*
X118279996Y-72199122D01*
X118226340Y-72245615D01*
X118173998Y-72257001D01*
X118105329Y-72257001D01*
X118098508Y-72257371D01*
X118047646Y-72262895D01*
X118032394Y-72266521D01*
X117911944Y-72311676D01*
X117896349Y-72320214D01*
X117794274Y-72396715D01*
X117781713Y-72409276D01*
X117705212Y-72511351D01*
X117696674Y-72526946D01*
X117651520Y-72647394D01*
X117647893Y-72662649D01*
X117642367Y-72713514D01*
X117641998Y-72720328D01*
X117641998Y-73092885D01*
X117646473Y-73108124D01*
X117647863Y-73109329D01*
X117655546Y-73111000D01*
X118777998Y-73111000D01*
X118846119Y-73131002D01*
X118892612Y-73184658D01*
X118903998Y-73237000D01*
X118903998Y-73493000D01*
X118883996Y-73561121D01*
X118830340Y-73607614D01*
X118777998Y-73619000D01*
X117660114Y-73619000D01*
X117644875Y-73623475D01*
X117643670Y-73624865D01*
X117641999Y-73632548D01*
X117641999Y-74009669D01*
X117642369Y-74016490D01*
X117647893Y-74067352D01*
X117651519Y-74082604D01*
X117696674Y-74203054D01*
X117705212Y-74218649D01*
X117781713Y-74320724D01*
X117794274Y-74333285D01*
X117896349Y-74409786D01*
X117911944Y-74418324D01*
X118032392Y-74463478D01*
X118047647Y-74467105D01*
X118098512Y-74472631D01*
X118105326Y-74473000D01*
X118173998Y-74473000D01*
X118242119Y-74493002D01*
X118288612Y-74546658D01*
X118299998Y-74599000D01*
X118299998Y-76438010D01*
X118279996Y-76506131D01*
X118226340Y-76552624D01*
X118160440Y-76562099D01*
X118160314Y-76563255D01*
X118101529Y-76556869D01*
X118098132Y-76556500D01*
X117843168Y-76556500D01*
X117775047Y-76536498D01*
X117728554Y-76482842D01*
X117723335Y-76469436D01*
X117706881Y-76418794D01*
X117664527Y-76288444D01*
X117569040Y-76123056D01*
X117554255Y-76106635D01*
X117445675Y-75986045D01*
X117445674Y-75986044D01*
X117441253Y-75981134D01*
X117286752Y-75868882D01*
X117280724Y-75866198D01*
X117280722Y-75866197D01*
X117118319Y-75793891D01*
X117118318Y-75793891D01*
X117112288Y-75791206D01*
X117018887Y-75771353D01*
X116931944Y-75752872D01*
X116931939Y-75752872D01*
X116925487Y-75751500D01*
X116734513Y-75751500D01*
X116728061Y-75752872D01*
X116728056Y-75752872D01*
X116641113Y-75771353D01*
X116547712Y-75791206D01*
X116541682Y-75793891D01*
X116541681Y-75793891D01*
X116379278Y-75866197D01*
X116379276Y-75866198D01*
X116373248Y-75868882D01*
X116306698Y-75917233D01*
X116239834Y-75941090D01*
X116170682Y-75925010D01*
X116149589Y-75909838D01*
X116146253Y-75906134D01*
X115991752Y-75793882D01*
X115985724Y-75791198D01*
X115985722Y-75791197D01*
X115823319Y-75718891D01*
X115823318Y-75718891D01*
X115817288Y-75716206D01*
X115723887Y-75696353D01*
X115636944Y-75677872D01*
X115636939Y-75677872D01*
X115630487Y-75676500D01*
X115439513Y-75676500D01*
X115433061Y-75677872D01*
X115433056Y-75677872D01*
X115346113Y-75696353D01*
X115252712Y-75716206D01*
X115246682Y-75718891D01*
X115246681Y-75718891D01*
X115084278Y-75791197D01*
X115084276Y-75791198D01*
X115078248Y-75793882D01*
X114923747Y-75906134D01*
X114919326Y-75911044D01*
X114919325Y-75911045D01*
X114849159Y-75988973D01*
X114795960Y-76048056D01*
X114741370Y-76142608D01*
X114706998Y-76202143D01*
X114700473Y-76213444D01*
X114641458Y-76395072D01*
X114640768Y-76401633D01*
X114640768Y-76401635D01*
X114626594Y-76536498D01*
X114621496Y-76585000D01*
X114641458Y-76774928D01*
X114700473Y-76956556D01*
X114703776Y-76962278D01*
X114703777Y-76962279D01*
X114774617Y-77084977D01*
X114791498Y-77147977D01*
X114791498Y-77793000D01*
X114771496Y-77861121D01*
X114717840Y-77907614D01*
X114665498Y-77919000D01*
X114434498Y-77919000D01*
X114366377Y-77898998D01*
X114319884Y-77845342D01*
X114308498Y-77793000D01*
X114308498Y-77016866D01*
X114307446Y-77007186D01*
X114302596Y-76962534D01*
X114302596Y-76962532D01*
X114301743Y-76954684D01*
X114299299Y-76948165D01*
X114295998Y-76920014D01*
X114295998Y-76575116D01*
X114285224Y-76538422D01*
X114270040Y-76514797D01*
X114265625Y-76492466D01*
X114264308Y-76479928D01*
X114258542Y-76425072D01*
X114199527Y-76243444D01*
X114182207Y-76213444D01*
X114107341Y-76083774D01*
X114104040Y-76078056D01*
X114082177Y-76053774D01*
X113980675Y-75941045D01*
X113980674Y-75941044D01*
X113976253Y-75936134D01*
X113821752Y-75823882D01*
X113815724Y-75821198D01*
X113815722Y-75821197D01*
X113653319Y-75748891D01*
X113653318Y-75748891D01*
X113647288Y-75746206D01*
X113553888Y-75726353D01*
X113466944Y-75707872D01*
X113466939Y-75707872D01*
X113460487Y-75706500D01*
X113269513Y-75706500D01*
X113263061Y-75707872D01*
X113263056Y-75707872D01*
X113176112Y-75726353D01*
X113082712Y-75746206D01*
X113076682Y-75748891D01*
X113076681Y-75748891D01*
X112914278Y-75821197D01*
X112914276Y-75821198D01*
X112908248Y-75823882D01*
X112839187Y-75874058D01*
X112772322Y-75897915D01*
X112703170Y-75881835D01*
X112669966Y-75852222D01*
X112669040Y-75853056D01*
X112545675Y-75716045D01*
X112545674Y-75716044D01*
X112541253Y-75711134D01*
X112441807Y-75638882D01*
X112392094Y-75602763D01*
X112392093Y-75602762D01*
X112386752Y-75598882D01*
X112380724Y-75596198D01*
X112380722Y-75596197D01*
X112218319Y-75523891D01*
X112218318Y-75523891D01*
X112212288Y-75521206D01*
X112118888Y-75501353D01*
X112031944Y-75482872D01*
X112031939Y-75482872D01*
X112025487Y-75481500D01*
X111834513Y-75481500D01*
X111828061Y-75482872D01*
X111828056Y-75482872D01*
X111741112Y-75501353D01*
X111647712Y-75521206D01*
X111641682Y-75523891D01*
X111641681Y-75523891D01*
X111479278Y-75596197D01*
X111479276Y-75596198D01*
X111473248Y-75598882D01*
X111446100Y-75618606D01*
X111379235Y-75642463D01*
X111320793Y-75631776D01*
X111168323Y-75563892D01*
X111168315Y-75563889D01*
X111162288Y-75561206D01*
X111068887Y-75541353D01*
X110981944Y-75522872D01*
X110981939Y-75522872D01*
X110975487Y-75521500D01*
X110784513Y-75521500D01*
X110778061Y-75522872D01*
X110778056Y-75522872D01*
X110691113Y-75541353D01*
X110597712Y-75561206D01*
X110591682Y-75563891D01*
X110591681Y-75563891D01*
X110429278Y-75636197D01*
X110429276Y-75636198D01*
X110423248Y-75638882D01*
X110268747Y-75751134D01*
X110222915Y-75802036D01*
X110162472Y-75839274D01*
X110091488Y-75837923D01*
X110035644Y-75802033D01*
X110031800Y-75797763D01*
X110021862Y-75786726D01*
X109913329Y-75707872D01*
X109872703Y-75678355D01*
X109872702Y-75678354D01*
X109867361Y-75674474D01*
X109861333Y-75671790D01*
X109861331Y-75671789D01*
X109698928Y-75599483D01*
X109698927Y-75599483D01*
X109692897Y-75596798D01*
X109599497Y-75576945D01*
X109512553Y-75558464D01*
X109512548Y-75558464D01*
X109506096Y-75557092D01*
X109315122Y-75557092D01*
X109308670Y-75558464D01*
X109308665Y-75558464D01*
X109221721Y-75576945D01*
X109128321Y-75596798D01*
X109122291Y-75599483D01*
X109122290Y-75599483D01*
X108959887Y-75671789D01*
X108959885Y-75671790D01*
X108953857Y-75674474D01*
X108948516Y-75678354D01*
X108948515Y-75678355D01*
X108907889Y-75707872D01*
X108799356Y-75786726D01*
X108794935Y-75791636D01*
X108794934Y-75791637D01*
X108785573Y-75802034D01*
X108671569Y-75928648D01*
X108669039Y-75933030D01*
X108613270Y-75976032D01*
X108536225Y-75980658D01*
X108527709Y-75978471D01*
X108527705Y-75978470D01*
X108520030Y-75976500D01*
X108499776Y-75976500D01*
X108480065Y-75974949D01*
X108467886Y-75973020D01*
X108460057Y-75971780D01*
X108452165Y-75972526D01*
X108416039Y-75975941D01*
X108404181Y-75976500D01*
X107030792Y-75976500D01*
X106962671Y-75956498D01*
X106921673Y-75913500D01*
X106832342Y-75758774D01*
X106832339Y-75758769D01*
X106829040Y-75753056D01*
X106726238Y-75638882D01*
X106705675Y-75616045D01*
X106705674Y-75616044D01*
X106701253Y-75611134D01*
X106546752Y-75498882D01*
X106540724Y-75496198D01*
X106540722Y-75496197D01*
X106378319Y-75423891D01*
X106378318Y-75423891D01*
X106372288Y-75421206D01*
X106278888Y-75401353D01*
X106191944Y-75382872D01*
X106191939Y-75382872D01*
X106185487Y-75381500D01*
X105994513Y-75381500D01*
X105988061Y-75382872D01*
X105988056Y-75382872D01*
X105901112Y-75401353D01*
X105807712Y-75421206D01*
X105801682Y-75423891D01*
X105801681Y-75423891D01*
X105639278Y-75496197D01*
X105639276Y-75496198D01*
X105633248Y-75498882D01*
X105478747Y-75611134D01*
X105474326Y-75616044D01*
X105474325Y-75616045D01*
X105453763Y-75638882D01*
X105350960Y-75753056D01*
X105311619Y-75821197D01*
X105260964Y-75908934D01*
X105255473Y-75918444D01*
X105196458Y-76100072D01*
X105176496Y-76290000D01*
X105177186Y-76296565D01*
X105190033Y-76418794D01*
X105196458Y-76479928D01*
X105255473Y-76661556D01*
X105350960Y-76826944D01*
X105355378Y-76831851D01*
X105355379Y-76831852D01*
X105462004Y-76950271D01*
X105478747Y-76968866D01*
X105531490Y-77007186D01*
X105591814Y-77051014D01*
X105633248Y-77081118D01*
X105639276Y-77083802D01*
X105639278Y-77083803D01*
X105801681Y-77156109D01*
X105807712Y-77158794D01*
X105901112Y-77178647D01*
X105988056Y-77197128D01*
X105988061Y-77197128D01*
X105994513Y-77198500D01*
X106140482Y-77198500D01*
X106174601Y-77205009D01*
X106174938Y-77203695D01*
X106194558Y-77208732D01*
X106213266Y-77215137D01*
X106231855Y-77223181D01*
X106239680Y-77224420D01*
X106239682Y-77224421D01*
X106275519Y-77230097D01*
X106287140Y-77232504D01*
X106322289Y-77241528D01*
X106329970Y-77243500D01*
X106350231Y-77243500D01*
X106369940Y-77245051D01*
X106378860Y-77246464D01*
X106385707Y-77247548D01*
X106449860Y-77277959D01*
X106487388Y-77338227D01*
X106491998Y-77371997D01*
X106491998Y-77392885D01*
X106496473Y-77408124D01*
X106497863Y-77409329D01*
X106505546Y-77411000D01*
X107627998Y-77411000D01*
X107696119Y-77431002D01*
X107742612Y-77484658D01*
X107753998Y-77537000D01*
X107753998Y-77793000D01*
X107733996Y-77861121D01*
X107680340Y-77907614D01*
X107627998Y-77919000D01*
X106510114Y-77919000D01*
X106494875Y-77923475D01*
X106493670Y-77924865D01*
X106491999Y-77932548D01*
X106491999Y-78309669D01*
X106492369Y-78316490D01*
X106497893Y-78367352D01*
X106501519Y-78382604D01*
X106546674Y-78503054D01*
X106555212Y-78518649D01*
X106631713Y-78620724D01*
X106644274Y-78633285D01*
X106746349Y-78709786D01*
X106761944Y-78718324D01*
X106882392Y-78763478D01*
X106897647Y-78767105D01*
X106948512Y-78772631D01*
X106955326Y-78773000D01*
X107126904Y-78773000D01*
X107195025Y-78793002D01*
X107241518Y-78846658D01*
X107251622Y-78916932D01*
X107222128Y-78981512D01*
X107215999Y-78988095D01*
X107080749Y-79123345D01*
X107018437Y-79157371D01*
X106991654Y-79160250D01*
X103374826Y-79160250D01*
X103306705Y-79140248D01*
X103260212Y-79086592D01*
X103250108Y-79016318D01*
X103265269Y-78972016D01*
X103285769Y-78935929D01*
X103348197Y-78748263D01*
X103372985Y-78552045D01*
X103373380Y-78523750D01*
X103354080Y-78326917D01*
X103296916Y-78137581D01*
X103204066Y-77962954D01*
X103200167Y-77958174D01*
X103199715Y-77957493D01*
X103178676Y-77889685D01*
X103195105Y-77825525D01*
X103282723Y-77671292D01*
X103282725Y-77671287D01*
X103285769Y-77665929D01*
X103348197Y-77478263D01*
X103372985Y-77282045D01*
X103373380Y-77253750D01*
X103354080Y-77056917D01*
X103296916Y-76867581D01*
X103204066Y-76692954D01*
X103200167Y-76688174D01*
X103199715Y-76687493D01*
X103178676Y-76619685D01*
X103195105Y-76555525D01*
X103282723Y-76401292D01*
X103282725Y-76401287D01*
X103285769Y-76395929D01*
X103348197Y-76208263D01*
X103372985Y-76012045D01*
X103373380Y-75983750D01*
X103354080Y-75786917D01*
X103343277Y-75751134D01*
X103310557Y-75642763D01*
X103296916Y-75597581D01*
X103204066Y-75422954D01*
X103200167Y-75418174D01*
X103199715Y-75417493D01*
X103178676Y-75349685D01*
X103195105Y-75285525D01*
X103282723Y-75131292D01*
X103282725Y-75131287D01*
X103285769Y-75125929D01*
X103348197Y-74938263D01*
X103372985Y-74742045D01*
X103373380Y-74713750D01*
X103354080Y-74516917D01*
X103296916Y-74327581D01*
X103204066Y-74152954D01*
X103200167Y-74148174D01*
X103199715Y-74147493D01*
X103178676Y-74079685D01*
X103195105Y-74015525D01*
X103282723Y-73861292D01*
X103282725Y-73861287D01*
X103285769Y-73855929D01*
X103348197Y-73668263D01*
X103372985Y-73472045D01*
X103373380Y-73443750D01*
X103354080Y-73246917D01*
X103296916Y-73057581D01*
X103204066Y-72882954D01*
X103200167Y-72878174D01*
X103199715Y-72877493D01*
X103178676Y-72809685D01*
X103195105Y-72745525D01*
X103282723Y-72591292D01*
X103282725Y-72591287D01*
X103285769Y-72585929D01*
X103348197Y-72398263D01*
X103372985Y-72202045D01*
X103373380Y-72173750D01*
X103354080Y-71976917D01*
X103296916Y-71787581D01*
X103204066Y-71612954D01*
X103200167Y-71608174D01*
X103199715Y-71607493D01*
X103178676Y-71539685D01*
X103195105Y-71475525D01*
X103282723Y-71321292D01*
X103282725Y-71321287D01*
X103285769Y-71315929D01*
X103348197Y-71128263D01*
X103372985Y-70932045D01*
X103373380Y-70903750D01*
X103354080Y-70706917D01*
X103296916Y-70517581D01*
X103204066Y-70342954D01*
X103200167Y-70338174D01*
X103199715Y-70337493D01*
X103178676Y-70269685D01*
X103195105Y-70205525D01*
X103282723Y-70051292D01*
X103282725Y-70051287D01*
X103285769Y-70045929D01*
X103348197Y-69858263D01*
X103372985Y-69662045D01*
X103373380Y-69633750D01*
X103354080Y-69436917D01*
X103296916Y-69247581D01*
X103204066Y-69072954D01*
X103200167Y-69068174D01*
X103199715Y-69067493D01*
X103178676Y-68999685D01*
X103195105Y-68935525D01*
X103282723Y-68781292D01*
X103282725Y-68781287D01*
X103285769Y-68775929D01*
X103348197Y-68588263D01*
X103372985Y-68392045D01*
X103373380Y-68363750D01*
X103354080Y-68166917D01*
X103296916Y-67977581D01*
X103204066Y-67802954D01*
X103200167Y-67798174D01*
X103199715Y-67797493D01*
X103178676Y-67729685D01*
X103195105Y-67665525D01*
X103282723Y-67511292D01*
X103282725Y-67511287D01*
X103285769Y-67505929D01*
X103348197Y-67318263D01*
X103372985Y-67122045D01*
X103373380Y-67093750D01*
X103354080Y-66896917D01*
X103296916Y-66707581D01*
X103204066Y-66532954D01*
X103200167Y-66528174D01*
X103199715Y-66527493D01*
X103178676Y-66459685D01*
X103195105Y-66395525D01*
X103282723Y-66241292D01*
X103282725Y-66241287D01*
X103285769Y-66235929D01*
X103348197Y-66048263D01*
X103372985Y-65852045D01*
X103373380Y-65823750D01*
X103354080Y-65626917D01*
X103296916Y-65437581D01*
X103204066Y-65262954D01*
X103200167Y-65258174D01*
X103199715Y-65257493D01*
X103178676Y-65189685D01*
X103195105Y-65125525D01*
X103282723Y-64971292D01*
X103282725Y-64971287D01*
X103285769Y-64965929D01*
X103348197Y-64778263D01*
X103372985Y-64582045D01*
X103373380Y-64553750D01*
X103354080Y-64356917D01*
X103296916Y-64167581D01*
X103294022Y-64162137D01*
X103291973Y-64157167D01*
X103284509Y-64086564D01*
X103302145Y-64046179D01*
X103300479Y-64045267D01*
X103313323Y-64021808D01*
X103358478Y-63901356D01*
X103362105Y-63886101D01*
X103367631Y-63835236D01*
X103368000Y-63828422D01*
X103368000Y-63559669D01*
X103991999Y-63559669D01*
X103992369Y-63566490D01*
X103997893Y-63617352D01*
X104001519Y-63632604D01*
X104046674Y-63753054D01*
X104055212Y-63768649D01*
X104131713Y-63870724D01*
X104144274Y-63883285D01*
X104246349Y-63959786D01*
X104261944Y-63968324D01*
X104382392Y-64013478D01*
X104397647Y-64017105D01*
X104448512Y-64022631D01*
X104455326Y-64023000D01*
X104877883Y-64023000D01*
X104893122Y-64018525D01*
X104894327Y-64017135D01*
X104895998Y-64009452D01*
X104895998Y-62837115D01*
X104891523Y-62821876D01*
X104890133Y-62820671D01*
X104882450Y-62819000D01*
X104010114Y-62819000D01*
X103994875Y-62823475D01*
X103993670Y-62824865D01*
X103991999Y-62832548D01*
X103991999Y-63559669D01*
X103368000Y-63559669D01*
X103368000Y-63555865D01*
X103363525Y-63540626D01*
X103362135Y-63539421D01*
X103354452Y-63537750D01*
X102232000Y-63537750D01*
X102163879Y-63517748D01*
X102117386Y-63464092D01*
X102106000Y-63411750D01*
X102106000Y-63011635D01*
X102614000Y-63011635D01*
X102618475Y-63026874D01*
X102619865Y-63028079D01*
X102627548Y-63029750D01*
X103349884Y-63029750D01*
X103365123Y-63025275D01*
X103366328Y-63023885D01*
X103367999Y-63016202D01*
X103367999Y-62739081D01*
X103367629Y-62732260D01*
X103362105Y-62681398D01*
X103358479Y-62666146D01*
X103313324Y-62545696D01*
X103304786Y-62530101D01*
X103228285Y-62428026D01*
X103215724Y-62415465D01*
X103113649Y-62338964D01*
X103098054Y-62330426D01*
X102977606Y-62285272D01*
X102962351Y-62281645D01*
X102911486Y-62276119D01*
X102904672Y-62275750D01*
X102632115Y-62275750D01*
X102616876Y-62280225D01*
X102615671Y-62281615D01*
X102614000Y-62289298D01*
X102614000Y-63011635D01*
X102106000Y-63011635D01*
X102106000Y-62293866D01*
X102101525Y-62278627D01*
X102100135Y-62277422D01*
X102092452Y-62275751D01*
X101884500Y-62275751D01*
X101816379Y-62255749D01*
X101769886Y-62202093D01*
X101758500Y-62149751D01*
X101758500Y-61564500D01*
X101778502Y-61496379D01*
X101832158Y-61449886D01*
X101884500Y-61438500D01*
X103866129Y-61438500D01*
X103934250Y-61458502D01*
G37*
G04 #@! TD.AperFunction*
M02*
