M48
; DRILL file {KiCad 6.0.9} date Вс 20 ноя 2022 11:42:55
; FORMAT={-:-/ absolute / metric / decimal}
; #@! TF.CreationDate,2022-11-20T11:42:55+03:00
; #@! TF.GenerationSoftware,Kicad,Pcbnew,6.0.9
; #@! TF.FileFunction,Plated,1,2,PTH
FMAT,2
METRIC
; #@! TA.AperFunction,Plated,PTH,ViaDrill
T1C0.400
; #@! TA.AperFunction,Plated,PTH,ComponentDrill
T2C0.650
%
G90
G05
T1
X104.94Y-67.55
X106.09Y-76.29
X109.411Y-76.466
X110.88Y-76.43
X111.3Y-68.32
X111.93Y-76.39
X113.365Y-76.615
X115.535Y-76.585
X116.83Y-76.66
T2
X102.36Y-63.284
X102.36Y-64.554
X102.36Y-65.824
X102.36Y-67.094
X102.36Y-68.364
X102.36Y-69.634
X102.36Y-70.904
X102.36Y-72.174
X102.36Y-73.444
X102.36Y-74.714
X102.36Y-75.984
X102.36Y-77.254
X102.36Y-78.524
X102.36Y-79.794
X105.677Y-81.316
X106.947Y-81.316
X108.218Y-81.316
X109.487Y-81.316
X110.757Y-81.316
X112.027Y-81.316
X113.297Y-81.316
X114.567Y-81.316
X115.837Y-81.316
X117.108Y-81.316
X120.42Y-63.254
X120.42Y-64.524
X120.42Y-65.794
X120.42Y-67.064
X120.42Y-68.334
X120.42Y-69.604
X120.42Y-70.874
X120.42Y-72.144
X120.42Y-73.414
X120.42Y-74.684
X120.42Y-75.954
X120.42Y-77.224
X120.42Y-78.494
X120.42Y-79.764
T0
M30
