G04 #@! TF.GenerationSoftware,KiCad,Pcbnew,6.0.9*
G04 #@! TF.CreationDate,2022-11-20T11:42:09+03:00*
G04 #@! TF.ProjectId,sd-card_adapter_esp32,73642d63-6172-4645-9f61-646170746572,rev?*
G04 #@! TF.SameCoordinates,Original*
G04 #@! TF.FileFunction,Soldermask,Bot*
G04 #@! TF.FilePolarity,Negative*
%FSLAX46Y46*%
G04 Gerber Fmt 4.6, Leading zero omitted, Abs format (unit mm)*
G04 Created by KiCad (PCBNEW 6.0.9) date 2022-11-20 11:42:09*
%MOMM*%
%LPD*%
G01*
G04 APERTURE LIST*
G04 Aperture macros list*
%AMRoundRect*
0 Rectangle with rounded corners*
0 $1 Rounding radius*
0 $2 $3 $4 $5 $6 $7 $8 $9 X,Y pos of 4 corners*
0 Add a 4 corners polygon primitive as box body*
4,1,4,$2,$3,$4,$5,$6,$7,$8,$9,$2,$3,0*
0 Add four circle primitives for the rounded corners*
1,1,$1+$1,$2,$3*
1,1,$1+$1,$4,$5*
1,1,$1+$1,$6,$7*
1,1,$1+$1,$8,$9*
0 Add four rect primitives between the rounded corners*
20,1,$1+$1,$2,$3,$4,$5,0*
20,1,$1+$1,$4,$5,$6,$7,0*
20,1,$1+$1,$6,$7,$8,$9,0*
20,1,$1+$1,$8,$9,$2,$3,0*%
G04 Aperture macros list end*
%ADD10R,1.000000X1.000000*%
%ADD11O,1.000000X1.000000*%
%ADD12C,1.000000*%
%ADD13RoundRect,0.250000X0.450000X-0.350000X0.450000X0.350000X-0.450000X0.350000X-0.450000X-0.350000X0*%
%ADD14RoundRect,0.250000X-0.475000X0.337500X-0.475000X-0.337500X0.475000X-0.337500X0.475000X0.337500X0*%
%ADD15RoundRect,0.250001X-0.924999X0.499999X-0.924999X-0.499999X0.924999X-0.499999X0.924999X0.499999X0*%
G04 APERTURE END LIST*
D10*
X102360000Y-63283750D03*
D11*
X102360000Y-64553750D03*
X102360000Y-65823750D03*
X102360000Y-67093750D03*
X102360000Y-68363750D03*
X102360000Y-69633750D03*
X102360000Y-70903750D03*
X102360000Y-72173750D03*
X102360000Y-73443750D03*
X102360000Y-74713750D03*
X102360000Y-75983750D03*
X102360000Y-77253750D03*
X102360000Y-78523750D03*
X102360000Y-79793750D03*
X105677500Y-81316250D03*
X106947500Y-81316250D03*
X108217500Y-81316250D03*
X109487500Y-81316250D03*
X110757500Y-81316250D03*
X112027500Y-81316250D03*
X113297500Y-81316250D03*
X114567500Y-81316250D03*
X115837500Y-81316250D03*
X117107500Y-81316250D03*
X120420000Y-79763750D03*
X120420000Y-78493750D03*
X120420000Y-77223750D03*
X120420000Y-75953750D03*
X120420000Y-74683750D03*
X120420000Y-73413750D03*
X120420000Y-72143750D03*
X120420000Y-70873750D03*
X120420000Y-69603750D03*
X120420000Y-68333750D03*
X120420000Y-67063750D03*
X120420000Y-65793750D03*
X120420000Y-64523750D03*
D12*
X120420000Y-63253750D03*
D13*
X116649996Y-75000000D03*
X116649996Y-73000000D03*
D14*
X111310000Y-64762500D03*
X111310000Y-66837500D03*
D15*
X107090000Y-64345000D03*
X107090000Y-67595000D03*
D13*
X114858330Y-75000000D03*
X114858330Y-73000000D03*
X109483332Y-75000000D03*
X109483332Y-73000000D03*
X105900000Y-75000000D03*
X105900000Y-73000000D03*
X107691666Y-75000000D03*
X107691666Y-73000000D03*
X113066664Y-75000000D03*
X113066664Y-73000000D03*
M02*
